<svg width="109" height="105" viewBox="0 0 109 105" fill="none" xmlns="http://www.w3.org/2000/svg">
<path d="M7.93906 101.144C6.81906 101.144 5.83773 100.904 4.99506 100.424C4.16306 99.944 3.52306 99.2667 3.07506 98.392C2.62706 97.5067 2.40306 96.472 2.40306 95.288C2.40306 94.1147 2.62706 93.0907 3.07506 92.216C3.52306 91.3307 4.16306 90.6533 4.99506 90.184C5.83773 89.704 6.81906 89.464 7.93906 89.464C8.70706 89.464 9.42706 89.5867 10.0991 89.832C10.7817 90.0667 11.3471 90.3973 11.7951 90.824L11.1231 92.328C10.6111 91.912 10.0991 91.6133 9.58706 91.432C9.08573 91.24 8.54706 91.144 7.97106 91.144C6.8724 91.144 6.01906 91.5013 5.41106 92.216C4.81373 92.9307 4.51506 93.9547 4.51506 95.288C4.51506 96.632 4.81373 97.6667 5.41106 98.392C6.0084 99.1067 6.86173 99.464 7.97106 99.464C8.54706 99.464 9.08573 99.3733 9.58706 99.192C10.0991 99 10.6111 98.696 11.1231 98.28L11.7951 99.784C11.3471 100.211 10.7817 100.547 10.0991 100.792C9.42706 101.027 8.70706 101.144 7.93906 101.144ZM21.1519 92.92V101H19.1839V99.704C18.9386 100.152 18.5866 100.504 18.1279 100.76C17.6693 101.005 17.1466 101.128 16.5599 101.128C15.8559 101.128 15.2319 100.957 14.6879 100.616C14.1439 100.275 13.7226 99.7893 13.4239 99.16C13.1253 98.5307 12.9759 97.8 12.9759 96.968C12.9759 96.136 13.1253 95.4 13.4239 94.76C13.7333 94.1093 14.1599 93.608 14.7039 93.256C15.2479 92.8933 15.8666 92.712 16.5599 92.712C17.1466 92.712 17.6693 92.84 18.1279 93.096C18.5866 93.3413 18.9386 93.688 19.1839 94.136V92.92H21.1519ZM17.1039 99.56C17.7653 99.56 18.2773 99.3307 18.6399 98.872C19.0026 98.4133 19.1839 97.768 19.1839 96.936C19.1839 96.0827 19.0026 95.4267 18.6399 94.968C18.2773 94.5093 17.7599 94.28 17.0879 94.28C16.4266 94.28 15.9093 94.52 15.5359 95C15.1733 95.4693 14.9919 96.1253 14.9919 96.968C14.9919 97.8 15.1733 98.44 15.5359 98.888C15.9093 99.336 16.4319 99.56 17.1039 99.56ZM26.2902 101.128C24.8289 101.128 23.6662 100.787 22.8022 100.104L23.3622 98.696C24.2262 99.336 25.2129 99.656 26.3222 99.656C26.8022 99.656 27.1702 99.576 27.4262 99.416C27.6929 99.256 27.8262 99.032 27.8262 98.744C27.8262 98.4987 27.7355 98.3067 27.5542 98.168C27.3729 98.0187 27.0635 97.8907 26.6262 97.784L25.2822 97.48C23.8102 97.16 23.0742 96.408 23.0742 95.224C23.0742 94.7333 23.2129 94.3013 23.4902 93.928C23.7675 93.544 24.1569 93.2453 24.6582 93.032C25.1595 92.8187 25.7409 92.712 26.4022 92.712C26.9782 92.712 27.5329 92.8027 28.0662 92.984C28.5995 93.1547 29.0689 93.4053 29.4742 93.736L28.8822 95.096C28.0715 94.4987 27.2395 94.2 26.3862 94.2C25.9275 94.2 25.5702 94.2853 25.3142 94.456C25.0582 94.6267 24.9302 94.8613 24.9302 95.16C24.9302 95.3947 25.0049 95.5813 25.1542 95.72C25.3142 95.8587 25.5809 95.976 25.9542 96.072L27.3302 96.376C28.1302 96.5573 28.7115 96.84 29.0742 97.224C29.4475 97.5973 29.6342 98.088 29.6342 98.696C29.6342 99.4427 29.3355 100.035 28.7382 100.472C28.1409 100.909 27.3249 101.128 26.2902 101.128ZM35.9698 92.712C37.9005 92.712 38.8658 93.8213 38.8658 96.04V101H36.8658V96.136C36.8658 95.496 36.7431 95.032 36.4978 94.744C36.2525 94.4453 35.8738 94.296 35.3618 94.296C34.7538 94.296 34.2631 94.4933 33.8898 94.888C33.5165 95.272 33.3298 95.784 33.3298 96.424V101H31.3458V89.224H33.3298V94.088C33.6071 93.6507 33.9751 93.3147 34.4338 93.08C34.8925 92.8347 35.4045 92.712 35.9698 92.712ZM54.8971 101H52.7211L51.2651 97.208C51.1371 96.856 50.9397 96.6107 50.6731 96.472C50.4064 96.3333 50.0597 96.264 49.6331 96.264H47.5691V101H45.5211V89.608H50.4011C51.6917 89.608 52.6731 89.8907 53.3451 90.456C54.0171 91.0213 54.3531 91.832 54.3531 92.888C54.3531 93.6453 54.1504 94.2907 53.7451 94.824C53.3504 95.3467 52.7851 95.72 52.0491 95.944C52.7211 96.0827 53.2064 96.552 53.5051 97.352L54.8971 101ZM50.1131 94.664C50.8917 94.664 51.4677 94.52 51.8411 94.232C52.2144 93.944 52.4011 93.5067 52.4011 92.92C52.4011 92.344 52.2144 91.9173 51.8411 91.64C51.4784 91.352 50.9024 91.208 50.1131 91.208H47.5371V94.664H50.1131ZM63.6834 97.064H58.1154C58.1581 97.928 58.3714 98.568 58.7554 98.984C59.1501 99.3893 59.7314 99.592 60.4994 99.592C61.3848 99.592 62.2061 99.304 62.9634 98.728L63.5394 100.104C63.1554 100.413 62.6808 100.664 62.1154 100.856C61.5608 101.037 60.9954 101.128 60.4194 101.128C59.0968 101.128 58.0568 100.755 57.2994 100.008C56.5421 99.2613 56.1634 98.2373 56.1634 96.936C56.1634 96.1147 56.3288 95.384 56.6594 94.744C56.9901 94.104 57.4541 93.608 58.0514 93.256C58.6488 92.8933 59.3261 92.712 60.0834 92.712C61.1928 92.712 62.0674 93.0747 62.7074 93.8C63.3581 94.5147 63.6834 95.5013 63.6834 96.76V97.064ZM60.1314 94.152C59.5981 94.152 59.1608 94.312 58.8194 94.632C58.4888 94.9413 58.2754 95.3947 58.1794 95.992H61.9394C61.8754 95.384 61.6888 94.9253 61.3794 94.616C61.0808 94.3067 60.6648 94.152 60.1314 94.152ZM73.1851 92.92V100.744C73.1851 102.003 72.8384 102.957 72.1451 103.608C71.4517 104.259 70.4331 104.584 69.0891 104.584C67.8411 104.584 66.7424 104.323 65.7931 103.8L66.1131 102.28C67.0944 102.792 68.0704 103.048 69.0411 103.048C70.4811 103.048 71.2011 102.333 71.2011 100.904V99.304C70.9557 99.7413 70.5984 100.099 70.1291 100.376C69.6597 100.643 69.1317 100.776 68.5451 100.776C67.8411 100.776 67.2117 100.611 66.6571 100.28C66.1131 99.9387 65.6864 99.464 65.3771 98.856C65.0784 98.2373 64.9291 97.5333 64.9291 96.744C64.9291 95.9547 65.0784 95.256 65.3771 94.648C65.6864 94.0293 66.1131 93.5547 66.6571 93.224C67.2117 92.8827 67.8411 92.712 68.5451 92.712C69.1424 92.712 69.6704 92.84 70.1291 93.096C70.5984 93.3413 70.9557 93.688 71.2011 94.136V92.92H73.1851ZM69.0731 99.208C69.7344 99.208 70.2517 98.9893 70.6251 98.552C71.0091 98.1147 71.2011 97.512 71.2011 96.744C71.2011 95.976 71.0144 95.3733 70.6411 94.936C70.2677 94.4987 69.7451 94.28 69.0731 94.28C68.4117 94.28 67.8891 94.4987 67.5051 94.936C67.1317 95.3733 66.9451 95.976 66.9451 96.744C66.9451 97.512 67.1317 98.1147 67.5051 98.552C67.8891 98.9893 68.4117 99.208 69.0731 99.208ZM75.3458 92.92H77.3298V101H75.3458V92.92ZM77.4418 89.256V91.224H75.2178V89.256H77.4418ZM82.4777 101.128C81.0164 101.128 79.8537 100.787 78.9897 100.104L79.5497 98.696C80.4137 99.336 81.4004 99.656 82.5097 99.656C82.9897 99.656 83.3577 99.576 83.6137 99.416C83.8804 99.256 84.0137 99.032 84.0137 98.744C84.0137 98.4987 83.923 98.3067 83.7417 98.168C83.5604 98.0187 83.251 97.8907 82.8137 97.784L81.4697 97.48C79.9977 97.16 79.2617 96.408 79.2617 95.224C79.2617 94.7333 79.4004 94.3013 79.6777 93.928C79.955 93.544 80.3444 93.2453 80.8457 93.032C81.347 92.8187 81.9284 92.712 82.5897 92.712C83.1657 92.712 83.7204 92.8027 84.2537 92.984C84.787 93.1547 85.2564 93.4053 85.6617 93.736L85.0697 95.096C84.259 94.4987 83.427 94.2 82.5737 94.2C82.115 94.2 81.7577 94.2853 81.5017 94.456C81.2457 94.6267 81.1177 94.8613 81.1177 95.16C81.1177 95.3947 81.1924 95.5813 81.3417 95.72C81.5017 95.8587 81.7684 95.976 82.1417 96.072L83.5177 96.376C84.3177 96.5573 84.899 96.84 85.2617 97.224C85.635 97.5973 85.8217 98.088 85.8217 98.696C85.8217 99.4427 85.523 100.035 84.9257 100.472C84.3284 100.909 83.5124 101.128 82.4777 101.128ZM89.9992 94.424V98.04C89.9992 98.9893 90.4419 99.464 91.3272 99.464C91.5725 99.464 91.8392 99.4213 92.1272 99.336V100.92C91.7752 101.048 91.3485 101.112 90.8472 101.112C89.9299 101.112 89.2259 100.856 88.7352 100.344C88.2445 99.832 87.9992 99.096 87.9992 98.136V94.424H86.4472V92.92H87.9992V90.952L89.9992 90.28V92.92H92.1432V94.424H89.9992ZM100.59 97.064H95.0217C95.0644 97.928 95.2777 98.568 95.6617 98.984C96.0564 99.3893 96.6377 99.592 97.4057 99.592C98.291 99.592 99.1124 99.304 99.8697 98.728L100.446 100.104C100.062 100.413 99.587 100.664 99.0217 100.856C98.467 101.037 97.9017 101.128 97.3257 101.128C96.003 101.128 94.963 100.755 94.2057 100.008C93.4484 99.2613 93.0697 98.2373 93.0697 96.936C93.0697 96.1147 93.235 95.384 93.5657 94.744C93.8964 94.104 94.3604 93.608 94.9577 93.256C95.555 92.8933 96.2324 92.712 96.9897 92.712C98.099 92.712 98.9737 93.0747 99.6137 93.8C100.264 94.5147 100.59 95.5013 100.59 96.76V97.064ZM97.0377 94.152C96.5044 94.152 96.067 94.312 95.7257 94.632C95.395 94.9413 95.1817 95.3947 95.0857 95.992H98.8457C98.7817 95.384 98.595 94.9253 98.2857 94.616C97.987 94.3067 97.571 94.152 97.0377 94.152ZM106.635 92.728C106.945 92.728 107.211 92.7707 107.435 92.856L107.419 94.68C107.078 94.5413 106.726 94.472 106.363 94.472C105.681 94.472 105.158 94.6693 104.795 95.064C104.443 95.4587 104.267 95.9813 104.267 96.632V101H102.283V95.208C102.283 94.3547 102.241 93.592 102.155 92.92H104.027L104.187 94.344C104.39 93.8213 104.71 93.4213 105.147 93.144C105.585 92.8667 106.081 92.728 106.635 92.728Z" fill="#424242"/>
<g clip-path="url(#clip0)">
<path d="M89.9999 0H54.9999L52.2634 40.6402L89.9999 37.9031V0Z" fill="#03232E"/>
<path d="M20 0V37.9031L55 40.6402V0L20 0Z" fill="#07485E"/>
<path d="M66.6274 58.2518V49.5306L52.2634 46.7941L54.9999 58.2518H66.6274Z" fill="#87A0AF"/>
<path d="M43.3726 58.2518H55.0001V46.7941L43.3726 49.5306V58.2518Z" fill="#B4D2D7"/>
<path d="M73.1682 60.3021V56.2005H55.0001L53.6318 58.2513L55.0001 60.3021H73.1682Z" fill="#B4D2D7"/>
<path d="M36.8318 56.2005H54.9999V60.3021H36.8318V56.2005Z" fill="#E1EBF0"/>
<path d="M54.9999 37.9031L52.2634 43.7174L54.9999 49.5306H89.9999V37.9031H54.9999Z" fill="#B4D2D7"/>
<path d="M20 37.9031H55V49.5306H20V37.9031Z" fill="#E1EBF0"/>
<rect x="20" width="5.46875" height="39.2383" fill="#E1EBF0"/>
<rect x="55" width="5.46875" height="35" transform="rotate(90 55 0)" fill="#E1EBF0"/>
<rect x="90" width="5.46875" height="35" transform="rotate(90 90 0)" fill="#B4D2D7"/>
<rect x="84.5312" width="5.46875" height="39.2383" fill="#B4D2D7"/>
<path d="M55.002 65.4883L52.2656 67.7443L55.002 70H90V65.4883H55.002Z" fill="#B4D2D7"/>
<path d="M20 65.4883H55V70H20V65.4883Z" fill="#E1EBF0"/>
<g clip-path="url(#clip1)">
<path d="M60.6026 16.136C59.1061 14.6395 57.1165 13.8154 55.0002 13.8154C52.884 13.8154 50.8944 14.6395 49.3979 16.136C47.9015 17.6324 47.0774 19.622 47.0774 21.7383C47.0774 23.8545 47.9015 25.8442 49.3979 27.3406C50.8944 28.837 52.884 29.6611 55.0002 29.6611C57.1165 29.6611 59.1061 28.837 60.6026 27.3406C62.099 25.8442 62.9231 23.8545 62.9231 21.7383C62.9231 19.622 62.099 17.6324 60.6026 16.136ZM55.0002 28.7327C51.1435 28.7327 48.0059 25.595 48.0059 21.7383C48.0059 17.8816 51.1435 14.7439 55.0002 14.7439C58.857 14.7439 61.9946 17.8816 61.9946 21.7383C61.9946 25.595 58.857 28.7327 55.0002 28.7327Z" fill="#E9CA2A"/>
<path d="M55.5237 21.2496H54.4768C53.8804 21.2496 53.3953 20.7644 53.3953 20.1681C53.3953 19.5717 53.8805 19.0865 54.4768 19.0865H56.5705C56.8404 19.0865 57.0592 18.8677 57.0592 18.5978C57.0592 18.328 56.8404 18.1092 56.5705 18.1092H55.4889V17.0276C55.4889 16.7577 55.2701 16.5389 55.0003 16.5389C54.7304 16.5389 54.5116 16.7577 54.5116 17.0276V18.1092H54.4769C53.3416 18.1092 52.418 19.0328 52.418 20.1681C52.418 21.3033 53.3416 22.2269 54.4769 22.2269H55.5237C56.1201 22.2269 56.6053 22.7121 56.6053 23.3085C56.6053 23.9049 56.1201 24.3901 55.5237 24.3901H53.4301C53.1602 24.3901 52.9414 24.6089 52.9414 24.8787C52.9414 25.1486 53.1602 25.3674 53.4301 25.3674H54.5116V26.449C54.5116 26.7189 54.7304 26.9377 55.0003 26.9377C55.2701 26.9377 55.4889 26.7189 55.4889 26.449V25.3674H55.5237C56.6589 25.3674 57.5825 24.4438 57.5825 23.3085C57.5825 22.1733 56.6589 21.2496 55.5237 21.2496Z" fill="#E9CA2A"/>
</g>
</g>
<defs>
<clipPath id="clip0">
<rect width="70" height="70" fill="white" transform="translate(20)"/>
</clipPath>
<clipPath id="clip1">
<rect width="16.6797" height="16.6797" fill="white" transform="translate(46.6602 13.3984)"/>
</clipPath>
</defs>
</svg>
