<svg width="104" height="101" viewBox="0 0 104 101" fill="none" xmlns="http://www.w3.org/2000/svg">
<path d="M11.2711 85.608H18.8871V87.24H13.2871V90.392H18.5511V92.024H13.2871V95.368H18.8871V97H11.2711V85.608ZM25.2667 88.712C27.1974 88.712 28.1627 89.8213 28.1627 92.04V97H26.1627V92.136C26.1627 91.496 26.04 91.032 25.7947 90.744C25.5494 90.4453 25.1707 90.296 24.6587 90.296C24.0507 90.296 23.56 90.4933 23.1867 90.888C22.8134 91.272 22.6267 91.784 22.6267 92.424V97H20.6427V91.208C20.6427 90.3547 20.6 89.592 20.5147 88.92H22.3867L22.5307 90.248C22.808 89.7573 23.1814 89.3787 23.6507 89.112C24.1307 88.8453 24.6694 88.712 25.2667 88.712ZM38.0113 85.224V97H36.0433V95.704C35.798 96.152 35.446 96.504 34.9873 96.76C34.5286 97.0053 34.006 97.128 33.4193 97.128C32.726 97.128 32.1073 96.952 31.5633 96.6C31.0193 96.248 30.5926 95.752 30.2833 95.112C29.9846 94.4613 29.8353 93.72 29.8353 92.888C29.8353 92.056 29.9846 91.3253 30.2833 90.696C30.582 90.0667 31.0033 89.5813 31.5473 89.24C32.0913 88.888 32.7153 88.712 33.4193 88.712C33.9953 88.712 34.5073 88.8347 34.9553 89.08C35.414 89.3147 35.766 89.6507 36.0113 90.088V85.224H38.0113ZM33.9473 95.56C34.6086 95.56 35.1206 95.3307 35.4833 94.872C35.8566 94.4133 36.0433 93.7627 36.0433 92.92C36.0433 92.0773 35.862 91.4267 35.4993 90.968C35.1366 90.5093 34.6246 90.28 33.9633 90.28C33.2913 90.28 32.7686 90.5093 32.3953 90.968C32.0326 91.416 31.8513 92.056 31.8513 92.888C31.8513 93.7307 32.0326 94.3867 32.3953 94.856C32.7686 95.3253 33.286 95.56 33.9473 95.56ZM48.2442 97.128C47.4229 97.128 46.6975 96.9573 46.0682 96.616C45.4495 96.2747 44.9695 95.7893 44.6282 95.16C44.2975 94.52 44.1322 93.7733 44.1322 92.92C44.1322 92.0667 44.2975 91.3253 44.6282 90.696C44.9695 90.056 45.4495 89.5653 46.0682 89.224C46.6975 88.8827 47.4229 88.712 48.2442 88.712C49.0549 88.712 49.7695 88.8827 50.3882 89.224C51.0069 89.5653 51.4815 90.056 51.8122 90.696C52.1535 91.3253 52.3242 92.0667 52.3242 92.92C52.3242 93.7733 52.1535 94.52 51.8122 95.16C51.4815 95.7893 51.0069 96.2747 50.3882 96.616C49.7695 96.9573 49.0549 97.128 48.2442 97.128ZM48.2282 95.56C48.9109 95.56 49.4282 95.3413 49.7802 94.904C50.1429 94.456 50.3242 93.7947 50.3242 92.92C50.3242 92.056 50.1429 91.4 49.7802 90.952C49.4175 90.4933 48.9055 90.264 48.2442 90.264C47.5722 90.264 47.0549 90.4933 46.6922 90.952C46.3295 91.4 46.1482 92.056 46.1482 92.92C46.1482 93.7947 46.3242 94.456 46.6762 94.904C47.0389 95.3413 47.5562 95.56 48.2282 95.56ZM57.8261 86.808C56.9621 86.808 56.5301 87.2827 56.5301 88.232V88.92H58.3381V90.424H56.5301V97H54.5301V90.424H52.9941V88.92H54.5301V88.136C54.5301 87.176 54.7701 86.44 55.2501 85.928C55.7407 85.4053 56.4394 85.144 57.3461 85.144C57.8474 85.144 58.2687 85.208 58.6101 85.336V86.92C58.3114 86.8453 58.0501 86.808 57.8261 86.808ZM64.4117 85.608H68.6037C70.4704 85.608 71.9157 86.104 72.9397 87.096C73.9744 88.088 74.4917 89.4853 74.4917 91.288C74.4917 93.1013 73.9744 94.5093 72.9397 95.512C71.9157 96.504 70.4704 97 68.6037 97H64.4117V85.608ZM68.4757 95.32C71.0997 95.32 72.4117 93.976 72.4117 91.288C72.4117 88.6213 71.0997 87.288 68.4757 87.288H66.4757V95.32H68.4757ZM84.1832 88.92V97H82.2152V95.704C81.9699 96.152 81.6179 96.504 81.1592 96.76C80.7005 97.0053 80.1779 97.128 79.5912 97.128C78.8872 97.128 78.2632 96.9573 77.7192 96.616C77.1752 96.2747 76.7539 95.7893 76.4552 95.16C76.1565 94.5307 76.0072 93.8 76.0072 92.968C76.0072 92.136 76.1565 91.4 76.4552 90.76C76.7645 90.1093 77.1912 89.608 77.7352 89.256C78.2792 88.8933 78.8979 88.712 79.5912 88.712C80.1779 88.712 80.7005 88.84 81.1592 89.096C81.6179 89.3413 81.9699 89.688 82.2152 90.136V88.92H84.1832ZM80.1352 95.56C80.7965 95.56 81.3085 95.3307 81.6712 94.872C82.0339 94.4133 82.2152 93.768 82.2152 92.936C82.2152 92.0827 82.0339 91.4267 81.6712 90.968C81.3085 90.5093 80.7912 90.28 80.1192 90.28C79.4579 90.28 78.9405 90.52 78.5672 91C78.2045 91.4693 78.0232 92.1253 78.0232 92.968C78.0232 93.8 78.2045 94.44 78.5672 94.888C78.9405 95.336 79.4632 95.56 80.1352 95.56ZM94.0094 88.92L90.2494 97.544C89.8228 98.5467 89.2788 99.2773 88.6174 99.736C87.9561 100.195 87.1401 100.499 86.1694 100.648L85.7214 99.112C86.4788 98.9413 87.0441 98.7227 87.4174 98.456C87.8014 98.2 88.1108 97.816 88.3454 97.304L88.6014 96.712L85.2414 88.92H87.3374L89.6574 94.728L92.0254 88.92H94.0094Z" fill="#424242"/>
<path d="M71.6551 4.13794V8.27587H64.4137V4.13794H39.5861V8.27587H32.3447V4.13794H24.0688V15.5173H79.9309V4.13794H71.6551Z" fill="#FC3952"/>
<path d="M32.3447 15.5172H24.0688V60H79.9309V15.5172H71.6551H64.4137H39.5861H32.3447Z" fill="#EDEADA"/>
<path d="M62.3447 22.7586H60.2758H53.0344H50.9654H43.724H41.6551H32.3447V32.069V34.1379V41.3793V43.4483V52.7586H41.6551H43.724H50.9654H53.0344H60.2758H62.3447H71.6551V43.4483V41.3793V34.1379V32.069V22.7586H62.3447ZM53.0344 24.8276H60.2758V32.069H53.0344V24.8276ZM60.2758 41.3793H53.0344V34.1379H60.2758V41.3793ZM43.724 34.1379H50.9654V41.3793H43.724V34.1379ZM43.724 24.8276H50.9654V32.069H43.724V24.8276ZM34.4137 24.8276H41.6551V32.069H34.4137V24.8276ZM34.4137 34.1379H41.6551V41.3793H34.4137V34.1379ZM41.6551 50.6896H34.4137V43.4483H41.6551V50.6896ZM50.9654 50.6896H43.724V43.4483H50.9654V50.6896ZM60.2758 50.6896H53.0344V43.4483H60.2758V50.6896ZM69.5861 50.6896H62.3447V43.4483H69.5861V50.6896ZM69.5861 41.3793H62.3447V34.1379H69.5861V41.3793ZM62.3447 32.069V24.8276H69.5861V32.069H62.3447Z" fill="#CEC9AE"/>
<path d="M39.5861 0H32.3447V8.27586H39.5861V0Z" fill="#28384C"/>
<path d="M71.6552 0H64.4138V8.27586H71.6552V0Z" fill="#28384C"/>
<path d="M60.2758 34.1379H53.0344V41.3793H60.2758V34.1379Z" fill="#A0986C"/>
</svg>
