<svg width="60" height="60" viewBox="0 0 60 60" fill="none" xmlns="http://www.w3.org/2000/svg">
<path d="M0 30C0 46.5684 13.4314 60 30 60L32.6087 30L30 0C13.4314 0 0 13.4316 0 30Z" fill="#BFDCFF"/>
<path d="M30 0V60C46.5686 60 60 46.5684 60 30C60 13.4316 46.5686 0 30 0Z" fill="#8BC0FF"/>
<path d="M5.21753 30C5.21753 43.6653 16.3349 54.7826 30.0001 54.7826L32.6088 30L30.0001 5.21747C16.3349 5.21747 5.21753 16.3348 5.21753 30Z" fill="#3897FF"/>
<path d="M30 5.21747V54.7827C43.6652 54.7827 54.7826 43.6654 54.7826 30.0002C54.7826 16.3349 43.6652 5.21747 30 5.21747Z" fill="#2D79CC"/>
<path d="M26.0872 16.9565C26.0872 19.1177 27.839 20.8695 30.0002 20.8695L31.3045 16.9565L30.0002 13.0434C27.839 13.0434 26.0872 14.7953 26.0872 16.9565Z" fill="white"/>
<path d="M30 13.0434V20.8695C32.1612 20.8695 33.913 19.1177 33.913 16.9565C33.913 14.7953 32.1612 13.0434 30 13.0434Z" fill="#BFDCFF"/>
<path d="M26.0872 26.087V46.9565H30.0002L31.3045 36.5217L30.0002 26.087H26.0872Z" fill="white"/>
<path d="M33.913 26.087H30V46.9565H33.913V26.087Z" fill="#BFDCFF"/>
</svg>
