<svg width="24" height="24" viewBox="0 0 24 24" fill="none" xmlns="http://www.w3.org/2000/svg">
<g clip-path="url(#clip0)">
<path d="M14 13.0001C12.346 13.0001 11 11.6541 11 10.0001C11 8.34617 12.346 7.00017 14 7.00017H15.9999V3.00027C15.9999 1.3463 14.6539 0.000305176 12.9999 0.000305176H2.25006C1.92103 0.000305176 1.61305 0.162169 1.4261 0.433162C1.24006 0.704155 1.19813 1.04931 1.31605 1.35619L8.56604 20.3561C8.71307 20.7441 9.08495 21.0001 9.50005 21.0001H12.9999C14.6539 21.0001 15.9999 19.6541 15.9999 18.0001V13.0001H14Z" fill="#2196F3"/>
<path d="M18.6168 14.9241C18.2438 14.7691 17.9998 14.4041 17.9998 14V11.0001H13.9999C13.4478 11.0001 12.9998 10.5522 12.9998 10.0001C12.9998 9.44807 13.4478 9.0002 13.9999 9.0002H17.9998V6.00023C17.9998 5.59612 18.2438 5.2312 18.6168 5.07611C18.9907 4.9212 19.4208 5.00726 19.7067 5.29327L23.7067 9.29317C24.0977 9.68409 24.0977 10.3162 23.7067 10.7071L19.7067 14.7072C19.4208 14.993 18.9907 15.0791 18.6168 14.9241Z" fill="#607D8B"/>
<path d="M8.64597 2.10217L2.63706 0.0992029C1.28099 -0.317724 0 0.683303 0 2.00018V20C0 20.8551 0.544001 21.6181 1.35405 21.898L7.36186 23.901C7.58287 23.9689 7.78593 24.0001 7.99998 24.0001C9.10299 24.0001 9.99983 23.1031 9.99983 22V4.00022C9.99983 3.14531 9.45583 2.38232 8.64597 2.10217Z" fill="#64B5F6"/>
</g>
<defs>
<clipPath id="clip0">
<rect width="24" height="24" fill="white"/>
</clipPath>
</defs>
</svg>
