<svg width="111" height="100" viewBox="0 0 111 100" fill="none" xmlns="http://www.w3.org/2000/svg">
<path d="M86 29.8828C86 46.3711 72.4883 60 56 60C39.5117 60 26 46.3711 26 29.8828C26 21.9375 29.2343 14.3436 34.7891 8.78906H32.1523C31.1679 8.78906 30.3945 8.01551 30.3945 7.03125C30.3945 6.04676 31.1679 5.27344 32.1523 5.27344H39.1836C40.1681 5.27344 40.9414 6.04676 40.9414 7.03125V14.0625C40.9414 15.0468 40.1681 15.8203 39.1836 15.8203C38.1991 15.8203 37.4258 15.0468 37.4258 14.0625V11.1093C32.4337 16.0312 29.5156 22.8164 29.5156 29.8828C29.5156 44.4375 41.4453 56.4844 56 56.4844C70.5547 56.4844 82.4844 44.4375 82.4844 29.8828C82.4844 15.3281 70.5547 3.51562 56 3.51562C55.0155 3.51562 54.2422 2.74207 54.2422 1.75781C54.2422 0.77332 55.0155 0 56 0C72.4883 0 86 13.3945 86 29.8828Z" fill="#1DE8F1"/>
<path d="M71.8203 29.8828C71.8203 34.2422 70.0625 38.2148 67.1797 41.0625C64.332 43.9453 60.3594 45.7031 56 45.7031C47.2461 45.7031 40.0625 38.6367 40.0625 29.8828C40.0625 25.5234 41.8203 21.5508 44.7031 18.7031C47.5508 15.8203 51.6406 14.0625 56 14.0625C60.3594 14.0625 64.332 15.8203 67.1797 18.7031C70.0625 21.5508 71.8203 25.5234 71.8203 29.8828Z" fill="#17ACE8"/>
<path d="M71.8203 29.8828C71.8203 34.2422 70.0625 38.2148 67.1797 41.0625C64.332 43.9453 60.3594 45.7031 56 45.7031V14.0625C60.3594 14.0625 64.332 15.8203 67.1797 18.7031C70.0625 21.5508 71.8203 25.5234 71.8203 29.8828Z" fill="#1689FC"/>
<path d="M57.7578 12.3047V15.8203C57.7578 16.8046 56.9845 17.5781 56 17.5781C55.0155 17.5781 54.2422 16.8046 54.2422 15.8203V12.3047C54.2422 11.3202 55.0155 10.5469 56 10.5469C56.9845 10.5469 57.7578 11.3202 57.7578 12.3047Z" fill="#1DE8F1"/>
<path d="M57.7578 43.9453V47.4609C57.7578 48.4452 56.9845 49.2188 56 49.2188C55.0155 49.2188 54.2422 48.4452 54.2422 47.4609V43.9453C54.2422 42.9608 55.0155 42.1875 56 42.1875C56.9845 42.1875 57.7578 42.9608 57.7578 43.9453Z" fill="#1DE8F1"/>
<path d="M41.8203 31.6406H38.3047C37.3331 31.6406 36.5469 30.8544 36.5469 29.8828C36.5469 28.9112 37.3331 28.125 38.3047 28.125H41.8203C42.7919 28.125 43.5781 28.9112 43.5781 29.8828C43.5781 30.8544 42.7919 31.6406 41.8203 31.6406Z" fill="#1DE8F1"/>
<path d="M73.5781 31.6406H70.0625C69.0909 31.6406 68.3047 30.8544 68.3047 29.8828C68.3047 28.9112 69.0909 28.125 70.0625 28.125H73.5781C74.5497 28.125 75.3359 28.9112 75.3359 29.8828C75.3359 30.8544 74.5497 31.6406 73.5781 31.6406Z" fill="#1BD9DE"/>
<path d="M42.21 43.5557C41.5234 42.8691 41.5234 41.7566 42.21 41.07L44.6957 38.5843C45.3823 37.8977 46.4947 37.8977 47.1814 38.5843C47.868 39.2709 47.868 40.3834 47.1814 41.07L44.6957 43.5557C44.0091 44.2423 42.8967 44.2423 42.21 43.5557Z" fill="#1DE8F1"/>
<path d="M64.7015 21.1813C64.0149 20.4947 64.0149 19.3822 64.7015 18.6956L67.1871 16.21C67.8737 15.5234 68.9862 15.5234 69.6728 16.21C70.3594 16.8966 70.3594 18.009 69.6728 18.6956L67.1871 21.1813C66.5004 21.868 65.3881 21.868 64.7015 21.1813Z" fill="#1BD9DE"/>
<path d="M67.1871 43.5557L64.7015 41.07C64.0149 40.3834 64.0149 39.2709 64.7015 38.5843C65.3881 37.8977 66.5005 37.8977 67.1871 38.5843L69.6728 41.07C70.3594 41.7566 70.3594 42.8691 69.6728 43.5557C68.9861 44.2423 67.8737 44.2423 67.1871 43.5557Z" fill="#1BD9DE"/>
<path d="M44.6957 21.1813L42.21 18.6956C41.5234 18.009 41.5234 16.8966 42.21 16.21C42.8966 15.5234 44.0091 15.5234 44.6957 16.21L47.1814 18.6956C47.868 19.3822 47.868 20.4947 47.1814 21.1813C46.4947 21.868 45.3824 21.868 44.6957 21.1813Z" fill="#1DE8F1"/>
<path d="M57.7578 43.9453V47.4609C57.7578 48.4452 56.9845 49.2188 56 49.2188V42.1875C56.9845 42.1875 57.7578 42.9608 57.7578 43.9453Z" fill="#1BD9DE"/>
<path d="M57.7578 12.3047V15.8203C57.7578 16.8046 56.9845 17.5781 56 17.5781V10.5469C56.9845 10.5469 57.7578 11.3202 57.7578 12.3047Z" fill="#1BD9DE"/>
<path d="M60.746 34.6288C60.1134 35.3322 58.9178 35.3322 58.2851 34.6288L56 32.3438L54.7696 31.1132C54.418 30.7969 54.2422 30.3398 54.2422 29.8828V22.8516C54.2422 21.8671 55.0155 21.0938 56 21.0938C56.9845 21.0938 57.7578 21.8671 57.7578 22.8516V29.1444L60.746 32.1679C61.4492 32.8358 61.4492 33.9608 60.746 34.6288Z" fill="#E1E4FB"/>
<path d="M60.746 34.6288C60.1134 35.3322 58.9178 35.3322 58.2852 34.6288L56 32.3438V21.0938C56.9845 21.0938 57.7578 21.8671 57.7578 22.8516V29.1444L60.746 32.1679C61.4492 32.8358 61.4492 33.9608 60.746 34.6288Z" fill="#C5C9F7"/>
<path d="M86 29.8828C86 46.3711 72.4883 60 56 60V56.4844C70.5547 56.4844 82.4844 44.4375 82.4844 29.8828C82.4844 15.3281 70.5547 3.51562 56 3.51562V0C72.4883 0 86 13.3945 86 29.8828Z" fill="#1BD9DE"/>
<path d="M56 10.5469C45.3475 10.5469 36.5469 19.2304 36.5469 29.8828C36.5469 40.535 45.3475 49.2188 56 49.2188C66.6525 49.2188 75.3359 40.535 75.3359 29.8828C75.3359 19.2304 66.6525 10.5469 56 10.5469ZM56 45.7031C47.2762 45.7031 40.0625 38.6066 40.0625 29.8828C40.0625 21.159 47.2762 14.0625 56 14.0625C64.7238 14.0625 71.8203 21.159 71.8203 29.8828C71.8203 38.6066 64.7238 45.7031 56 45.7031Z" fill="#1DE8F1"/>
<path d="M56 10.5469V14.0625C64.7238 14.0625 71.8203 21.159 71.8203 29.8828C71.8203 38.6066 64.7238 45.7031 56 45.7031V49.2188C66.6525 49.2188 75.3359 40.535 75.3359 29.8828C75.3359 19.2304 66.6525 10.5469 56 10.5469Z" fill="#1BD9DE"/>
<path d="M10.0458 96.144C8.94715 96.144 7.98715 95.9093 7.16581 95.44C6.35515 94.96 5.72581 94.2827 5.27781 93.408C4.84048 92.5227 4.62181 91.4827 4.62181 90.288C4.62181 89.104 4.84048 88.0747 5.27781 87.2C5.71515 86.3147 6.33915 85.6373 7.14981 85.168C7.97115 84.6987 8.93648 84.464 10.0458 84.464C11.1551 84.464 12.1151 84.6987 12.9258 85.168C13.7471 85.6373 14.3711 86.3147 14.7978 87.2C15.2351 88.0747 15.4538 89.104 15.4538 90.288C15.4538 91.4827 15.2351 92.5227 14.7978 93.408C14.3605 94.2827 13.7365 94.96 12.9258 95.44C12.1151 95.9093 11.1551 96.144 10.0458 96.144ZM10.0458 94.496C11.1018 94.496 11.9231 94.1333 12.5098 93.408C13.0965 92.6827 13.3898 91.6427 13.3898 90.288C13.3898 88.944 13.0965 87.9147 12.5098 87.2C11.9231 86.4747 11.1018 86.112 10.0458 86.112C8.98981 86.112 8.16848 86.4693 7.58181 87.184C6.99515 87.8987 6.70181 88.9333 6.70181 90.288C6.70181 91.6427 6.99515 92.6827 7.58181 93.408C8.16848 94.1333 8.98981 94.496 10.0458 94.496ZM21.7759 87.728C22.0853 87.728 22.3519 87.7707 22.5759 87.856L22.5599 89.68C22.2186 89.5413 21.8666 89.472 21.5039 89.472C20.8213 89.472 20.2986 89.6693 19.9359 90.064C19.5839 90.4587 19.4079 90.9813 19.4079 91.632V96H17.4239V90.208C17.4239 89.3547 17.3813 88.592 17.2959 87.92H19.1679L19.3279 89.344C19.5306 88.8213 19.8506 88.4213 20.2879 88.144C20.7253 87.8667 21.2213 87.728 21.7759 87.728ZM31.2613 84.224V96H29.2933V94.704C29.048 95.152 28.696 95.504 28.2373 95.76C27.7786 96.0053 27.256 96.128 26.6693 96.128C25.976 96.128 25.3573 95.952 24.8133 95.6C24.2693 95.248 23.8426 94.752 23.5333 94.112C23.2346 93.4613 23.0853 92.72 23.0853 91.888C23.0853 91.056 23.2346 90.3253 23.5333 89.696C23.832 89.0667 24.2533 88.5813 24.7973 88.24C25.3413 87.888 25.9653 87.712 26.6693 87.712C27.2453 87.712 27.7573 87.8347 28.2053 88.08C28.664 88.3147 29.016 88.6507 29.2613 89.088V84.224H31.2613ZM27.1973 94.56C27.8586 94.56 28.3706 94.3307 28.7333 93.872C29.1066 93.4133 29.2933 92.7627 29.2933 91.92C29.2933 91.0773 29.112 90.4267 28.7493 89.968C28.3866 89.5093 27.8746 89.28 27.2133 89.28C26.5413 89.28 26.0186 89.5093 25.6453 89.968C25.2826 90.416 25.1013 91.056 25.1013 91.888C25.1013 92.7307 25.2826 93.3867 25.6453 93.856C26.0186 94.3253 26.536 94.56 27.1973 94.56ZM40.5116 92.064H34.9436C34.9862 92.928 35.1996 93.568 35.5836 93.984C35.9782 94.3893 36.5596 94.592 37.3276 94.592C38.2129 94.592 39.0342 94.304 39.7916 93.728L40.3676 95.104C39.9836 95.4133 39.5089 95.664 38.9436 95.856C38.3889 96.0373 37.8236 96.128 37.2476 96.128C35.9249 96.128 34.8849 95.7547 34.1276 95.008C33.3702 94.2613 32.9916 93.2373 32.9916 91.936C32.9916 91.1147 33.1569 90.384 33.4876 89.744C33.8182 89.104 34.2822 88.608 34.8796 88.256C35.4769 87.8933 36.1542 87.712 36.9116 87.712C38.0209 87.712 38.8956 88.0747 39.5356 88.8C40.1862 89.5147 40.5116 90.5013 40.5116 91.76V92.064ZM36.9596 89.152C36.4262 89.152 35.9889 89.312 35.6476 89.632C35.3169 89.9413 35.1036 90.3947 35.0076 90.992H38.7676C38.7036 90.384 38.5169 89.9253 38.2076 89.616C37.9089 89.3067 37.4929 89.152 36.9596 89.152ZM46.5572 87.728C46.8665 87.728 47.1332 87.7707 47.3572 87.856L47.3412 89.68C46.9999 89.5413 46.6479 89.472 46.2852 89.472C45.6025 89.472 45.0799 89.6693 44.7172 90.064C44.3652 90.4587 44.1892 90.9813 44.1892 91.632V96H42.2052V90.208C42.2052 89.3547 42.1625 88.592 42.0772 87.92H43.9492L44.1092 89.344C44.3119 88.8213 44.6319 88.4213 45.0692 88.144C45.5065 87.8667 46.0025 87.728 46.5572 87.728ZM62.9254 84.608V96H60.8774V91.056H55.0374V96H53.0054V84.608H55.0374V89.376H60.8774V84.608H62.9254ZM65.2521 87.92H67.2361V96H65.2521V87.92ZM67.3481 84.256V86.224H65.1241V84.256H67.3481ZM72.3839 96.128C70.9226 96.128 69.7599 95.7867 68.8959 95.104L69.4559 93.696C70.3199 94.336 71.3066 94.656 72.4159 94.656C72.8959 94.656 73.2639 94.576 73.5199 94.416C73.7866 94.256 73.9199 94.032 73.9199 93.744C73.9199 93.4987 73.8293 93.3067 73.6479 93.168C73.4666 93.0187 73.1573 92.8907 72.7199 92.784L71.3759 92.48C69.9039 92.16 69.1679 91.408 69.1679 90.224C69.1679 89.7333 69.3066 89.3013 69.5839 88.928C69.8613 88.544 70.2506 88.2453 70.7519 88.032C71.2533 87.8187 71.8346 87.712 72.4959 87.712C73.0719 87.712 73.6266 87.8027 74.1599 87.984C74.6933 88.1547 75.1626 88.4053 75.5679 88.736L74.9759 90.096C74.1653 89.4987 73.3333 89.2 72.4799 89.2C72.0213 89.2 71.6639 89.2853 71.4079 89.456C71.1519 89.6267 71.0239 89.8613 71.0239 90.16C71.0239 90.3947 71.0986 90.5813 71.2479 90.72C71.4079 90.8587 71.6746 90.976 72.0479 91.072L73.4239 91.376C74.2239 91.5573 74.8053 91.84 75.1679 92.224C75.5413 92.5973 75.7279 93.088 75.7279 93.696C75.7279 94.4427 75.4293 95.0347 74.8319 95.472C74.2346 95.9093 73.4186 96.128 72.3839 96.128ZM79.9054 89.424V93.04C79.9054 93.9893 80.3481 94.464 81.2334 94.464C81.4788 94.464 81.7454 94.4213 82.0334 94.336V95.92C81.6814 96.048 81.2548 96.112 80.7534 96.112C79.8361 96.112 79.1321 95.856 78.6414 95.344C78.1508 94.832 77.9054 94.096 77.9054 93.136V89.424H76.3534V87.92H77.9054V85.952L79.9054 85.28V87.92H82.0494V89.424H79.9054ZM87.0879 96.128C86.2666 96.128 85.5413 95.9573 84.9119 95.616C84.2933 95.2747 83.8133 94.7893 83.4719 94.16C83.1413 93.52 82.9759 92.7733 82.9759 91.92C82.9759 91.0667 83.1413 90.3253 83.4719 89.696C83.8133 89.056 84.2933 88.5653 84.9119 88.224C85.5413 87.8827 86.2666 87.712 87.0879 87.712C87.8986 87.712 88.6133 87.8827 89.2319 88.224C89.8506 88.5653 90.3253 89.056 90.6559 89.696C90.9973 90.3253 91.1679 91.0667 91.1679 91.92C91.1679 92.7733 90.9973 93.52 90.6559 94.16C90.3253 94.7893 89.8506 95.2747 89.2319 95.616C88.6133 95.9573 87.8986 96.128 87.0879 96.128ZM87.0719 94.56C87.7546 94.56 88.2719 94.3413 88.6239 93.904C88.9866 93.456 89.1679 92.7947 89.1679 91.92C89.1679 91.056 88.9866 90.4 88.6239 89.952C88.2613 89.4933 87.7493 89.264 87.0879 89.264C86.4159 89.264 85.8986 89.4933 85.5359 89.952C85.1733 90.4 84.9919 91.056 84.9919 91.92C84.9919 92.7947 85.1679 93.456 85.5199 93.904C85.8826 94.3413 86.3999 94.56 87.0719 94.56ZM97.2447 87.728C97.554 87.728 97.8207 87.7707 98.0447 87.856L98.0287 89.68C97.6874 89.5413 97.3354 89.472 96.9727 89.472C96.29 89.472 95.7674 89.6693 95.4047 90.064C95.0527 90.4587 94.8767 90.9813 94.8767 91.632V96H92.8927V90.208C92.8927 89.3547 92.85 88.592 92.7647 87.92H94.6367L94.7967 89.344C94.9994 88.8213 95.3194 88.4213 95.7567 88.144C96.194 87.8667 96.69 87.728 97.2447 87.728ZM107.291 87.92L103.531 96.544C103.104 97.5467 102.56 98.2773 101.899 98.736C101.237 99.1947 100.421 99.4987 99.4507 99.648L99.0027 98.112C99.76 97.9413 100.325 97.7227 100.699 97.456C101.083 97.2 101.392 96.816 101.627 96.304L101.883 95.712L98.5227 87.92H100.619L102.939 93.728L105.307 87.92H107.291Z" fill="#424242"/>
</svg>
