<svg width="60" height="60" viewBox="0 0 60 60" fill="none" xmlns="http://www.w3.org/2000/svg">
<path d="M50.2547 51.6184C50.2547 54.4645 47.9391 56.78 45.093 56.78H15.1617C12.3156 56.78 10 54.4645 10 51.6184V9.8401C10 6.99402 12.3156 4.67853 15.1617 4.67853H45.093C47.9392 4.67853 50.2547 6.99402 50.2547 9.8401V51.6184Z" fill="#E2A975"/>
<path d="M46.0819 51.6185C46.0819 52.1644 45.6389 52.6073 45.0929 52.6073H15.1616C14.6155 52.6073 14.1726 52.1644 14.1726 51.6185V9.84017C14.1726 9.29426 14.6154 8.85144 15.1616 8.85144H45.0929C45.6389 8.85144 46.0819 9.29426 46.0819 10.142V51.6185Z" fill="#F0EEF0"/>
<path d="M45.0931 8.85132H39.0569C39.6029 8.85132 40.0459 9.29414 40.0459 9.84005V51.6184C40.0459 52.1643 39.6029 52.6071 39.0569 52.6071H45.0931C45.6391 52.6071 46.0821 52.1643 46.0821 51.6184V9.84017C46.0821 9.29414 45.6391 8.85132 45.0931 8.85132Z" fill="#DFDDE0"/>
<path d="M20.3727 19.6407H39.5609C40.0609 19.6407 40.4663 19.2354 40.4663 18.7353C40.4663 18.2351 40.0609 17.8298 39.5609 17.8298H20.3727C19.8727 17.8298 19.4673 18.2351 19.4673 18.7353C19.4673 19.2354 19.8727 19.6407 20.3727 19.6407Z" fill="#9B959D"/>
<path d="M39.8824 24.4908H20.3727C19.8727 24.4908 19.4673 24.8961 19.4673 25.3962C19.4673 25.8964 19.8727 26.3017 20.3727 26.3017H39.8823C40.3823 26.3017 40.7877 25.8964 40.7877 25.3962C40.7877 24.8961 40.3824 24.4908 39.8824 24.4908Z" fill="#9B959D"/>
<path d="M36.6174 31.1517H20.3727C19.8727 31.1517 19.4673 31.5569 19.4673 32.0571C19.4673 32.5573 19.8727 32.9625 20.3727 32.9625H36.6174C37.1174 32.9625 37.5228 32.5573 37.5228 32.0571C37.5228 31.5569 37.1175 31.1517 36.6174 31.1517Z" fill="#9B959D"/>
<path d="M32.6933 5.93664V2.63326C32.6933 1.23865 31.6089 0.0480676 30.2152 0.00146802C28.7579 -0.0471839 27.5613 1.11974 27.5613 2.56602V5.93664C27.5613 5.94002 27.5585 5.94268 27.5551 5.94268H22.5155C22.1102 5.94268 21.7817 6.27117 21.7817 6.67644V9.99926C21.7817 10.4126 22.1167 10.7476 22.5301 10.7476H37.7211C38.1363 10.7476 38.4728 10.411 38.4728 9.99588V6.68875C38.4728 6.27672 38.1388 5.94268 37.7268 5.94268H32.6993C32.6959 5.9428 32.6933 5.94002 32.6933 5.93664Z" fill="#FFE07D"/>
<path d="M37.727 5.9428H32.6996C32.6962 5.9428 32.6934 5.94002 32.6934 5.93664V2.63326C32.6934 1.23865 31.6091 0.0480676 30.2153 0.00146802C28.7581 -0.0471839 27.5615 1.11974 27.5615 2.56602V5.93664C27.5615 5.94002 27.5587 5.9428 27.5554 5.9428H32.5465C32.9586 5.9428 33.2926 6.27684 33.2926 6.68887V9.99612C33.2926 10.4113 32.956 10.7479 32.5408 10.7479H37.7214C38.1365 10.7479 38.4731 10.4113 38.4731 9.99612V6.68875C38.4731 6.27672 38.1391 5.9428 37.727 5.9428Z" fill="#FFD064"/>
</svg>
