<svg width="73" height="100" viewBox="0 0 73 100" fill="none" xmlns="http://www.w3.org/2000/svg">
<path d="M14.213 96.144C13.3383 96.144 12.517 96.0267 11.749 95.792C10.9917 95.5573 10.3463 95.2213 9.813 94.784L10.517 93.28C11.0717 93.696 11.6477 94.0053 12.245 94.208C12.853 94.4 13.5143 94.496 14.229 94.496C15.0183 94.496 15.6263 94.3573 16.053 94.08C16.4903 93.8027 16.709 93.4133 16.709 92.912C16.709 92.4853 16.5063 92.16 16.101 91.936C15.7063 91.7013 15.0503 91.4827 14.133 91.28C12.7037 90.9707 11.6637 90.5707 11.013 90.08C10.3623 89.5893 10.037 88.8747 10.037 87.936C10.037 87.264 10.2183 86.6667 10.581 86.144C10.9437 85.6213 11.4557 85.2107 12.117 84.912C12.789 84.6133 13.5623 84.464 14.437 84.464C15.237 84.464 15.9943 84.5867 16.709 84.832C17.4343 85.0667 18.0263 85.3973 18.485 85.824L17.797 87.328C16.7837 86.5173 15.6637 86.112 14.437 86.112C13.701 86.112 13.1197 86.2667 12.693 86.576C12.2663 86.8747 12.053 87.2853 12.053 87.808C12.053 88.256 12.2397 88.5973 12.613 88.832C12.997 89.0667 13.6477 89.2853 14.565 89.488C15.5143 89.712 16.2877 89.9573 16.885 90.224C17.4823 90.48 17.941 90.816 18.261 91.232C18.581 91.6373 18.741 92.1493 18.741 92.768C18.741 93.4507 18.5597 94.048 18.197 94.56C17.8343 95.0613 17.3117 95.4507 16.629 95.728C15.9463 96.0053 15.141 96.144 14.213 96.144ZM27.5819 92.064H22.0139C22.0565 92.928 22.2699 93.568 22.6539 93.984C23.0485 94.3893 23.6299 94.592 24.3979 94.592C25.2832 94.592 26.1045 94.304 26.8619 93.728L27.4379 95.104C27.0539 95.4133 26.5792 95.664 26.0139 95.856C25.4592 96.0373 24.8939 96.128 24.3179 96.128C22.9952 96.128 21.9552 95.7547 21.1979 95.008C20.4405 94.2613 20.0619 93.2373 20.0619 91.936C20.0619 91.1147 20.2272 90.384 20.5579 89.744C20.8885 89.104 21.3525 88.608 21.9499 88.256C22.5472 87.8933 23.2245 87.712 23.9819 87.712C25.0912 87.712 25.9659 88.0747 26.6059 88.8C27.2565 89.5147 27.5819 90.5013 27.5819 91.76V92.064ZM24.0299 89.152C23.4965 89.152 23.0592 89.312 22.7179 89.632C22.3872 89.9413 22.1739 90.3947 22.0779 90.992H25.8379C25.7739 90.384 25.5872 89.9253 25.2779 89.616C24.9792 89.3067 24.5632 89.152 24.0299 89.152ZM31.7101 89.424V93.04C31.7101 93.9893 32.1528 94.464 33.0381 94.464C33.2835 94.464 33.5501 94.4213 33.8381 94.336V95.92C33.4861 96.048 33.0595 96.112 32.5581 96.112C31.6408 96.112 30.9368 95.856 30.4461 95.344C29.9555 94.832 29.7101 94.096 29.7101 93.136V89.424H28.1581V87.92H29.7101V85.952L31.7101 85.28V87.92H33.8541V89.424H31.7101ZM37.6633 89.424V93.04C37.6633 93.9893 38.1059 94.464 38.9913 94.464C39.2366 94.464 39.5033 94.4213 39.7913 94.336V95.92C39.4393 96.048 39.0126 96.112 38.5113 96.112C37.5939 96.112 36.8899 95.856 36.3993 95.344C35.9086 94.832 35.6633 94.096 35.6633 93.136V89.424H34.1113V87.92H35.6633V85.952L37.6633 85.28V87.92H39.8073V89.424H37.6633ZM41.1818 87.92H43.1658V96H41.1818V87.92ZM43.2778 84.256V86.224H41.0538V84.256H43.2778ZM49.9776 87.712C51.9083 87.712 52.8736 88.8213 52.8736 91.04V96H50.8736V91.136C50.8736 90.496 50.751 90.032 50.5056 89.744C50.2603 89.4453 49.8816 89.296 49.3696 89.296C48.7616 89.296 48.271 89.4933 47.8976 89.888C47.5243 90.272 47.3376 90.784 47.3376 91.424V96H45.3536V90.208C45.3536 89.3547 45.311 88.592 45.2256 87.92H47.0976L47.2416 89.248C47.519 88.7573 47.8923 88.3787 48.3616 88.112C48.8416 87.8453 49.3803 87.712 49.9776 87.712ZM62.8023 87.92V95.744C62.8023 97.0027 62.4556 97.9573 61.7623 98.608C61.0689 99.2587 60.0503 99.584 58.7063 99.584C57.4583 99.584 56.3596 99.3227 55.4103 98.8L55.7303 97.28C56.7116 97.792 57.6876 98.048 58.6583 98.048C60.0983 98.048 60.8183 97.3333 60.8183 95.904V94.304C60.5729 94.7413 60.2156 95.0987 59.7463 95.376C59.2769 95.6427 58.7489 95.776 58.1623 95.776C57.4583 95.776 56.8289 95.6107 56.2743 95.28C55.7303 94.9387 55.3036 94.464 54.9943 93.856C54.6956 93.2373 54.5463 92.5333 54.5463 91.744C54.5463 90.9547 54.6956 90.256 54.9943 89.648C55.3036 89.0293 55.7303 88.5547 56.2743 88.224C56.8289 87.8827 57.4583 87.712 58.1623 87.712C58.7596 87.712 59.2876 87.84 59.7463 88.096C60.2156 88.3413 60.5729 88.688 60.8183 89.136V87.92H62.8023ZM58.6903 94.208C59.3516 94.208 59.8689 93.9893 60.2423 93.552C60.6263 93.1147 60.8183 92.512 60.8183 91.744C60.8183 90.976 60.6316 90.3733 60.2583 89.936C59.8849 89.4987 59.3623 89.28 58.6903 89.28C58.0289 89.28 57.5063 89.4987 57.1223 89.936C56.7489 90.3733 56.5623 90.976 56.5623 91.744C56.5623 92.512 56.7489 93.1147 57.1223 93.552C57.5063 93.9893 58.0289 94.208 58.6903 94.208Z" fill="#424242"/>
<g clip-path="url(#clip0)">
<path d="M36.9999 19.178L34.6543 30L36.9999 40.822C42.9673 40.822 47.8219 35.9674 47.8219 30C47.8219 24.0326 42.9673 19.178 36.9999 19.178Z" fill="#87A0AF"/>
<path d="M26.178 30C26.178 35.9674 31.0326 40.822 37 40.822V19.178C31.0326 19.178 26.178 24.0326 26.178 30Z" fill="#B4D2D7"/>
<path d="M66.9999 35.0459V24.9541L61.558 23.372C60.9803 21.2334 60.1311 19.205 59.0481 17.3277L61.7809 12.355L54.6448 5.21896L49.6721 7.95181C47.7949 6.86874 45.7661 6.01959 43.6278 5.44189L42.0458 0H36.9999L34.6543 9.14062L36.9999 15.6624C44.9059 15.6624 51.3375 22.094 51.3375 30C51.3375 37.906 44.9059 44.3376 36.9999 44.3376L34.6543 50.5083L36.9999 60H42.0458L43.6278 54.5581C45.7665 53.9804 47.7949 53.1313 49.6721 52.0482L54.6448 54.781L61.7809 47.645L59.0481 42.6723C60.1311 40.795 60.9798 38.7662 61.558 36.628L66.9999 35.0459Z" fill="#B4D2D7"/>
<path d="M22.6624 30C22.6624 22.094 29.094 15.6624 37 15.6624V0H31.9541L30.372 5.44189C28.2334 6.01959 26.205 6.86874 24.3277 7.95181L19.355 5.21896L12.219 12.3546L14.9518 17.3277C13.8687 19.205 13.0201 21.2334 12.4419 23.372L7 24.9541V35.0459L12.4419 36.628C13.0196 38.7666 13.8687 40.795 14.9518 42.6723L12.219 47.645L19.355 54.781L24.3277 52.0482C26.205 53.1313 28.2338 53.9799 30.372 54.5581L31.9541 60H37V44.3376C29.094 44.3376 22.6624 37.906 22.6624 30Z" fill="#E1EBF0"/>
</g>
<defs>
<clipPath id="clip0">
<rect width="60" height="60" fill="white" transform="translate(7)"/>
</clipPath>
</defs>
</svg>
