<svg width="99" height="100" viewBox="0 0 99 100" fill="none" xmlns="http://www.w3.org/2000/svg">
<path d="M7.28331 96.144C6.40865 96.144 5.58731 96.0267 4.81931 95.792C4.06198 95.5573 3.41665 95.2213 2.88331 94.784L3.58731 93.28C4.14198 93.696 4.71798 94.0053 5.31531 94.208C5.92331 94.4 6.58465 94.496 7.29931 94.496C8.08865 94.496 8.69665 94.3573 9.12331 94.08C9.56065 93.8027 9.77931 93.4133 9.77931 92.912C9.77931 92.4853 9.57665 92.16 9.17131 91.936C8.77665 91.7013 8.12065 91.4827 7.20331 91.28C5.77398 90.9707 4.73398 90.5707 4.08331 90.08C3.43265 89.5893 3.10731 88.8747 3.10731 87.936C3.10731 87.264 3.28865 86.6667 3.65131 86.144C4.01398 85.6213 4.52598 85.2107 5.18731 84.912C5.85931 84.6133 6.63265 84.464 7.50731 84.464C8.30731 84.464 9.06465 84.5867 9.77931 84.832C10.5046 85.0667 11.0966 85.3973 11.5553 85.824L10.8673 87.328C9.85398 86.5173 8.73398 86.112 7.50731 86.112C6.77131 86.112 6.18998 86.2667 5.76331 86.576C5.33665 86.8747 5.12331 87.2853 5.12331 87.808C5.12331 88.256 5.30998 88.5973 5.68331 88.832C6.06731 89.0667 6.71798 89.2853 7.63531 89.488C8.58465 89.712 9.35798 89.9573 9.95531 90.224C10.5526 90.48 11.0113 90.816 11.3313 91.232C11.6513 91.6373 11.8113 92.1493 11.8113 92.768C11.8113 93.4507 11.63 94.048 11.2673 94.56C10.9046 95.0613 10.382 95.4507 9.69931 95.728C9.01665 96.0053 8.21131 96.144 7.28331 96.144ZM16.0148 89.424V93.04C16.0148 93.9893 16.4575 94.464 17.3428 94.464C17.5881 94.464 17.8548 94.4213 18.1428 94.336V95.92C17.7908 96.048 17.3641 96.112 16.8628 96.112C15.9455 96.112 15.2415 95.856 14.7508 95.344C14.2601 94.832 14.0148 94.096 14.0148 93.136V89.424H12.4628V87.92H14.0148V85.952L16.0148 85.28V87.92H18.1588V89.424H16.0148ZM27.2613 87.92V96H25.2933V94.704C25.048 95.152 24.696 95.504 24.2373 95.76C23.7786 96.0053 23.256 96.128 22.6693 96.128C21.9653 96.128 21.3413 95.9573 20.7973 95.616C20.2533 95.2747 19.832 94.7893 19.5333 94.16C19.2346 93.5307 19.0853 92.8 19.0853 91.968C19.0853 91.136 19.2346 90.4 19.5333 89.76C19.8426 89.1093 20.2693 88.608 20.8133 88.256C21.3573 87.8933 21.976 87.712 22.6693 87.712C23.256 87.712 23.7786 87.84 24.2373 88.096C24.696 88.3413 25.048 88.688 25.2933 89.136V87.92H27.2613ZM23.2133 94.56C23.8746 94.56 24.3866 94.3307 24.7493 93.872C25.112 93.4133 25.2933 92.768 25.2933 91.936C25.2933 91.0827 25.112 90.4267 24.7493 89.968C24.3866 89.5093 23.8693 89.28 23.1973 89.28C22.536 89.28 22.0186 89.52 21.6453 90C21.2826 90.4693 21.1013 91.1253 21.1013 91.968C21.1013 92.8 21.2826 93.44 21.6453 93.888C22.0186 94.336 22.5413 94.56 23.2133 94.56ZM33.2636 85.808C32.3996 85.808 31.9676 86.2827 31.9676 87.232V87.92H33.7756V89.424H31.9676V96H29.9676V89.424H28.4316V87.92H29.9676V87.136C29.9676 86.176 30.2076 85.44 30.6876 84.928C31.1782 84.4053 31.8769 84.144 32.7836 84.144C33.2849 84.144 33.7062 84.208 34.0476 84.336V85.92C33.7489 85.8453 33.4876 85.808 33.2636 85.808ZM38.9979 85.808C38.1339 85.808 37.7019 86.2827 37.7019 87.232V87.92H39.5099V89.424H37.7019V96H35.7019V89.424H34.1659V87.92H35.7019V87.136C35.7019 86.176 35.9419 85.44 36.4219 84.928C36.9126 84.4053 37.6113 84.144 38.5179 84.144C39.0193 84.144 39.4406 84.208 39.7819 84.336V85.92C39.4833 85.8453 39.2219 85.808 38.9979 85.808ZM54.9596 96H52.7836L51.3276 92.208C51.1996 91.856 51.0022 91.6107 50.7356 91.472C50.4689 91.3333 50.1222 91.264 49.6956 91.264H47.6316V96H45.5836V84.608H50.4636C51.7542 84.608 52.7356 84.8907 53.4076 85.456C54.0796 86.0213 54.4156 86.832 54.4156 87.888C54.4156 88.6453 54.2129 89.2907 53.8076 89.824C53.4129 90.3467 52.8476 90.72 52.1116 90.944C52.7836 91.0827 53.2689 91.552 53.5676 92.352L54.9596 96ZM50.1756 89.664C50.9542 89.664 51.5302 89.52 51.9036 89.232C52.2769 88.944 52.4636 88.5067 52.4636 87.92C52.4636 87.344 52.2769 86.9173 51.9036 86.64C51.5409 86.352 50.9649 86.208 50.1756 86.208H47.5996V89.664H50.1756ZM63.7459 92.064H58.1779C58.2206 92.928 58.4339 93.568 58.8179 93.984C59.2126 94.3893 59.7939 94.592 60.5619 94.592C61.4473 94.592 62.2686 94.304 63.0259 93.728L63.6019 95.104C63.2179 95.4133 62.7433 95.664 62.1779 95.856C61.6233 96.0373 61.0579 96.128 60.4819 96.128C59.1593 96.128 58.1193 95.7547 57.3619 95.008C56.6046 94.2613 56.2259 93.2373 56.2259 91.936C56.2259 91.1147 56.3913 90.384 56.7219 89.744C57.0526 89.104 57.5166 88.608 58.1139 88.256C58.7113 87.8933 59.3886 87.712 60.1459 87.712C61.2553 87.712 62.1299 88.0747 62.7699 88.8C63.4206 89.5147 63.7459 90.5013 63.7459 91.76V92.064ZM60.1939 89.152C59.6606 89.152 59.2233 89.312 58.8819 89.632C58.5513 89.9413 58.3379 90.3947 58.2419 90.992H62.0019C61.9379 90.384 61.7513 89.9253 61.4419 89.616C61.1433 89.3067 60.7273 89.152 60.1939 89.152ZM70.0476 87.712C70.7409 87.712 71.3542 87.8933 71.8876 88.256C72.4316 88.608 72.8529 89.1093 73.1516 89.76C73.4609 90.4 73.6156 91.136 73.6156 91.968C73.6156 92.8 73.4662 93.5307 73.1676 94.16C72.8689 94.7893 72.4476 95.2747 71.9036 95.616C71.3702 95.9573 70.7516 96.128 70.0476 96.128C69.4609 96.128 68.9382 96.0053 68.4796 95.76C68.0209 95.504 67.6689 95.152 67.4236 94.704V99.456H65.4396V90.208C65.4396 89.3547 65.3969 88.592 65.3116 87.92H67.1836L67.3436 89.312C67.5569 88.8107 67.9036 88.4213 68.3836 88.144C68.8636 87.856 69.4182 87.712 70.0476 87.712ZM69.5036 94.56C70.1756 94.56 70.6929 94.336 71.0556 93.888C71.4182 93.44 71.5996 92.8 71.5996 91.968C71.5996 91.1253 71.4182 90.4693 71.0556 90C70.6929 89.52 70.1809 89.28 69.5196 89.28C68.8369 89.28 68.3142 89.5093 67.9516 89.968C67.5889 90.4267 67.4076 91.0827 67.4076 91.936C67.4076 92.7787 67.5889 93.4293 67.9516 93.888C68.3142 94.336 68.8316 94.56 69.5036 94.56ZM79.0254 96.128C78.2041 96.128 77.4788 95.9573 76.8494 95.616C76.2308 95.2747 75.7508 94.7893 75.4094 94.16C75.0788 93.52 74.9134 92.7733 74.9134 91.92C74.9134 91.0667 75.0788 90.3253 75.4094 89.696C75.7508 89.056 76.2308 88.5653 76.8494 88.224C77.4788 87.8827 78.2041 87.712 79.0254 87.712C79.8361 87.712 80.5508 87.8827 81.1694 88.224C81.7881 88.5653 82.2628 89.056 82.5934 89.696C82.9348 90.3253 83.1054 91.0667 83.1054 91.92C83.1054 92.7733 82.9348 93.52 82.5934 94.16C82.2628 94.7893 81.7881 95.2747 81.1694 95.616C80.5508 95.9573 79.8361 96.128 79.0254 96.128ZM79.0094 94.56C79.6921 94.56 80.2094 94.3413 80.5614 93.904C80.9241 93.456 81.1054 92.7947 81.1054 91.92C81.1054 91.056 80.9241 90.4 80.5614 89.952C80.1988 89.4933 79.6868 89.264 79.0254 89.264C78.3534 89.264 77.8361 89.4933 77.4734 89.952C77.1108 90.4 76.9294 91.056 76.9294 91.92C76.9294 92.7947 77.1054 93.456 77.4574 93.904C77.8201 94.3413 78.3374 94.56 79.0094 94.56ZM89.1822 87.728C89.4915 87.728 89.7582 87.7707 89.9822 87.856L89.9662 89.68C89.6249 89.5413 89.2729 89.472 88.9102 89.472C88.2275 89.472 87.7049 89.6693 87.3422 90.064C86.9902 90.4587 86.8142 90.9813 86.8142 91.632V96H84.8302V90.208C84.8302 89.3547 84.7875 88.592 84.7022 87.92H86.5742L86.7342 89.344C86.9369 88.8213 87.2569 88.4213 87.6942 88.144C88.1315 87.8667 88.6275 87.728 89.1822 87.728ZM94.3742 89.424V93.04C94.3742 93.9893 94.8169 94.464 95.7022 94.464C95.9475 94.464 96.2142 94.4213 96.5022 94.336V95.92C96.1502 96.048 95.7235 96.112 95.2222 96.112C94.3049 96.112 93.6009 95.856 93.1102 95.344C92.6195 94.832 92.3742 94.096 92.3742 93.136V89.424H90.8222V87.92H92.3742V85.952L94.3742 85.28V87.92H96.5182V89.424H94.3742Z" fill="#424242"/>
<path d="M70.2547 51.6184C70.2547 54.4645 67.9391 56.78 65.093 56.78H35.1617C32.3156 56.78 30 54.4645 30 51.6184V9.8401C30 6.99402 32.3156 4.67853 35.1617 4.67853H65.093C67.9392 4.67853 70.2547 6.99402 70.2547 9.8401V51.6184Z" fill="#E2A975"/>
<path d="M66.0819 51.6185C66.0819 52.1644 65.6389 52.6073 65.0929 52.6073H35.1616C34.6155 52.6073 34.1726 52.1644 34.1726 51.6185V9.84017C34.1726 9.29426 34.6154 8.85144 35.1616 8.85144H65.0929C65.6389 8.85144 66.0819 9.29426 66.0819 10.142V51.6185Z" fill="#F0EEF0"/>
<path d="M65.0931 8.85132H59.0569C59.6029 8.85132 60.0459 9.29414 60.0459 9.84005V51.6184C60.0459 52.1643 59.6029 52.6071 59.0569 52.6071H65.0931C65.6391 52.6071 66.0821 52.1643 66.0821 51.6184V9.84017C66.0821 9.29414 65.6391 8.85132 65.0931 8.85132Z" fill="#DFDDE0"/>
<path d="M40.3727 19.6407H59.5609C60.0609 19.6407 60.4663 19.2354 60.4663 18.7353C60.4663 18.2351 60.0609 17.8298 59.5609 17.8298H40.3727C39.8727 17.8298 39.4673 18.2351 39.4673 18.7353C39.4673 19.2354 39.8727 19.6407 40.3727 19.6407Z" fill="#9B959D"/>
<path d="M59.8824 24.4908H40.3727C39.8727 24.4908 39.4673 24.8961 39.4673 25.3962C39.4673 25.8964 39.8727 26.3017 40.3727 26.3017H59.8823C60.3823 26.3017 60.7877 25.8964 60.7877 25.3962C60.7877 24.8961 60.3824 24.4908 59.8824 24.4908Z" fill="#9B959D"/>
<path d="M56.6174 31.1517H40.3727C39.8727 31.1517 39.4673 31.5569 39.4673 32.0571C39.4673 32.5573 39.8727 32.9625 40.3727 32.9625H56.6174C57.1174 32.9625 57.5228 32.5573 57.5228 32.0571C57.5228 31.5569 57.1175 31.1517 56.6174 31.1517Z" fill="#9B959D"/>
<path d="M52.6933 5.93664V2.63326C52.6933 1.23865 51.6089 0.0480676 50.2152 0.00146802C48.7579 -0.0471839 47.5613 1.11974 47.5613 2.56602V5.93664C47.5613 5.94002 47.5585 5.94268 47.5551 5.94268H42.5155C42.1102 5.94268 41.7817 6.27117 41.7817 6.67644V9.99926C41.7817 10.4126 42.1167 10.7476 42.5301 10.7476H57.7211C58.1363 10.7476 58.4728 10.411 58.4728 9.99588V6.68875C58.4728 6.27672 58.1388 5.94268 57.7268 5.94268H52.6993C52.6959 5.9428 52.6933 5.94002 52.6933 5.93664Z" fill="#FFE07D"/>
<path d="M57.727 5.9428H52.6996C52.6962 5.9428 52.6934 5.94002 52.6934 5.93664V2.63326C52.6934 1.23865 51.6091 0.0480676 50.2153 0.00146802C48.7581 -0.0471839 47.5615 1.11974 47.5615 2.56602V5.93664C47.5615 5.94002 47.5587 5.9428 47.5554 5.9428H52.5465C52.9586 5.9428 53.2926 6.27684 53.2926 6.68887V9.99612C53.2926 10.4113 52.956 10.7479 52.5408 10.7479H57.7214C58.1365 10.7479 58.4731 10.4113 58.4731 9.99612V6.68875C58.4731 6.27672 58.1391 5.9428 57.727 5.9428Z" fill="#FFD064"/>
</svg>
