<svg width="140" height="100" viewBox="0 0 140 100" fill="none" xmlns="http://www.w3.org/2000/svg">
<path d="M40 30C40 46.5684 53.4314 60 70 60L72.6087 30L70 0C53.4314 0 40 13.4316 40 30Z" fill="#BFDCFF"/>
<path d="M70 0V60C86.5686 60 100 46.5684 100 30C100 13.4316 86.5686 0 70 0Z" fill="#8BC0FF"/>
<path d="M45.2175 30C45.2175 43.6653 56.3349 54.7826 70.0001 54.7826L72.6088 30L70.0001 5.21747C56.3349 5.21747 45.2175 16.3348 45.2175 30Z" fill="#3897FF"/>
<path d="M70 5.21747V54.7827C83.6652 54.7827 94.7826 43.6654 94.7826 30.0002C94.7826 16.3349 83.6652 5.21747 70 5.21747Z" fill="#2D79CC"/>
<path d="M66.0872 16.9565C66.0872 19.1177 67.839 20.8695 70.0002 20.8695L71.3045 16.9565L70.0002 13.0434C67.839 13.0434 66.0872 14.7953 66.0872 16.9565Z" fill="white"/>
<path d="M70 13.0434V20.8695C72.1612 20.8695 73.913 19.1177 73.913 16.9565C73.913 14.7953 72.1612 13.0434 70 13.0434Z" fill="#BFDCFF"/>
<path d="M66.0872 26.087V46.9565H70.0002L71.3045 36.5217L70.0002 26.087H66.0872Z" fill="white"/>
<path d="M73.913 26.087H70V46.9565H73.913V26.087Z" fill="#BFDCFF"/>
<path d="M43.9864 96.144C43.1118 96.144 42.2904 96.0267 41.5224 95.792C40.7651 95.5573 40.1198 95.2213 39.5864 94.784L40.2904 93.28C40.8451 93.696 41.4211 94.0053 42.0184 94.208C42.6264 94.4 43.2878 94.496 44.0024 94.496C44.7918 94.496 45.3998 94.3573 45.8264 94.08C46.2638 93.8027 46.4824 93.4133 46.4824 92.912C46.4824 92.4853 46.2798 92.16 45.8744 91.936C45.4798 91.7013 44.8238 91.4827 43.9064 91.28C42.4771 90.9707 41.4371 90.5707 40.7864 90.08C40.1358 89.5893 39.8104 88.8747 39.8104 87.936C39.8104 87.264 39.9918 86.6667 40.3544 86.144C40.7171 85.6213 41.2291 85.2107 41.8904 84.912C42.5624 84.6133 43.3358 84.464 44.2104 84.464C45.0104 84.464 45.7678 84.5867 46.4824 84.832C47.2078 85.0667 47.7998 85.3973 48.2584 85.824L47.5704 87.328C46.5571 86.5173 45.4371 86.112 44.2104 86.112C43.4744 86.112 42.8931 86.2667 42.4664 86.576C42.0398 86.8747 41.8264 87.2853 41.8264 87.808C41.8264 88.256 42.0131 88.5973 42.3864 88.832C42.7704 89.0667 43.4211 89.2853 44.3384 89.488C45.2878 89.712 46.0611 89.9573 46.6584 90.224C47.2558 90.48 47.7144 90.816 48.0344 91.232C48.3544 91.6373 48.5144 92.1493 48.5144 92.768C48.5144 93.4507 48.3331 94.048 47.9704 94.56C47.6078 95.0613 47.0851 95.4507 46.4024 95.728C45.7198 96.0053 44.9144 96.144 43.9864 96.144ZM57.6433 87.92V96H55.6913V94.752C55.4353 95.2 55.094 95.5413 54.6673 95.776C54.2406 96.0107 53.75 96.128 53.1953 96.128C51.222 96.128 50.2353 95.0187 50.2353 92.8V87.92H52.2193V92.816C52.2193 93.4027 52.3366 93.8347 52.5713 94.112C52.8166 94.3893 53.19 94.528 53.6913 94.528C54.278 94.528 54.7473 94.336 55.0993 93.952C55.4513 93.568 55.6273 93.056 55.6273 92.416V87.92H57.6433ZM64.4226 87.712C65.1159 87.712 65.7292 87.8933 66.2626 88.256C66.8066 88.608 67.2279 89.1093 67.5266 89.76C67.8359 90.4 67.9906 91.136 67.9906 91.968C67.9906 92.8 67.8412 93.5307 67.5426 94.16C67.2439 94.7893 66.8226 95.2747 66.2786 95.616C65.7452 95.9573 65.1266 96.128 64.4226 96.128C63.8359 96.128 63.3132 96.0053 62.8546 95.76C62.3959 95.504 62.0439 95.152 61.7986 94.704V99.456H59.8146V90.208C59.8146 89.3547 59.7719 88.592 59.6866 87.92H61.5586L61.7186 89.312C61.9319 88.8107 62.2786 88.4213 62.7586 88.144C63.2386 87.856 63.7932 87.712 64.4226 87.712ZM63.8786 94.56C64.5506 94.56 65.0679 94.336 65.4306 93.888C65.7932 93.44 65.9746 92.8 65.9746 91.968C65.9746 91.1253 65.7932 90.4693 65.4306 90C65.0679 89.52 64.5559 89.28 63.8946 89.28C63.2119 89.28 62.6892 89.5093 62.3266 89.968C61.9639 90.4267 61.7826 91.0827 61.7826 91.936C61.7826 92.7787 61.9639 93.4293 62.3266 93.888C62.6892 94.336 63.2066 94.56 63.8786 94.56ZM74.3444 87.712C75.0378 87.712 75.6511 87.8933 76.1844 88.256C76.7284 88.608 77.1498 89.1093 77.4484 89.76C77.7578 90.4 77.9124 91.136 77.9124 91.968C77.9124 92.8 77.7631 93.5307 77.4644 94.16C77.1658 94.7893 76.7444 95.2747 76.2004 95.616C75.6671 95.9573 75.0484 96.128 74.3444 96.128C73.7578 96.128 73.2351 96.0053 72.7764 95.76C72.3178 95.504 71.9658 95.152 71.7204 94.704V99.456H69.7364V90.208C69.7364 89.3547 69.6938 88.592 69.6084 87.92H71.4804L71.6404 89.312C71.8538 88.8107 72.2004 88.4213 72.6804 88.144C73.1604 87.856 73.7151 87.712 74.3444 87.712ZM73.8004 94.56C74.4724 94.56 74.9898 94.336 75.3524 93.888C75.7151 93.44 75.8964 92.8 75.8964 91.968C75.8964 91.1253 75.7151 90.4693 75.3524 90C74.9898 89.52 74.4778 89.28 73.8164 89.28C73.1338 89.28 72.6111 89.5093 72.2484 89.968C71.8858 90.4267 71.7044 91.0827 71.7044 91.936C71.7044 92.7787 71.8858 93.4293 72.2484 93.888C72.6111 94.336 73.1284 94.56 73.8004 94.56ZM83.3223 96.128C82.501 96.128 81.7756 95.9573 81.1463 95.616C80.5276 95.2747 80.0476 94.7893 79.7063 94.16C79.3756 93.52 79.2103 92.7733 79.2103 91.92C79.2103 91.0667 79.3756 90.3253 79.7063 89.696C80.0476 89.056 80.5276 88.5653 81.1463 88.224C81.7756 87.8827 82.501 87.712 83.3223 87.712C84.133 87.712 84.8476 87.8827 85.4663 88.224C86.085 88.5653 86.5596 89.056 86.8903 89.696C87.2316 90.3253 87.4023 91.0667 87.4023 91.92C87.4023 92.7733 87.2316 93.52 86.8903 94.16C86.5596 94.7893 86.085 95.2747 85.4663 95.616C84.8476 95.9573 84.133 96.128 83.3223 96.128ZM83.3063 94.56C83.989 94.56 84.5063 94.3413 84.8583 93.904C85.221 93.456 85.4023 92.7947 85.4023 91.92C85.4023 91.056 85.221 90.4 84.8583 89.952C84.4956 89.4933 83.9836 89.264 83.3223 89.264C82.6503 89.264 82.133 89.4933 81.7703 89.952C81.4076 90.4 81.2263 91.056 81.2263 91.92C81.2263 92.7947 81.4023 93.456 81.7543 93.904C82.117 94.3413 82.6343 94.56 83.3063 94.56ZM93.4791 87.728C93.7884 87.728 94.0551 87.7707 94.2791 87.856L94.2631 89.68C93.9217 89.5413 93.5697 89.472 93.2071 89.472C92.5244 89.472 92.0017 89.6693 91.6391 90.064C91.2871 90.4587 91.1111 90.9813 91.1111 91.632V96H89.1271V90.208C89.1271 89.3547 89.0844 88.592 88.9991 87.92H90.8711L91.0311 89.344C91.2337 88.8213 91.5537 88.4213 91.9911 88.144C92.4284 87.8667 92.9244 87.728 93.4791 87.728ZM98.6711 89.424V93.04C98.6711 93.9893 99.1137 94.464 99.9991 94.464C100.244 94.464 100.511 94.4213 100.799 94.336V95.92C100.447 96.048 100.02 96.112 99.5191 96.112C98.6017 96.112 97.8977 95.856 97.4071 95.344C96.9164 94.832 96.6711 94.096 96.6711 93.136V89.424H95.1191V87.92H96.6711V85.952L98.6711 85.28V87.92H100.815V89.424H98.6711Z" fill="#424242"/>
</svg>
