<svg width="21" height="15" viewBox="0 0 21 15" fill="none" xmlns="http://www.w3.org/2000/svg">
<path d="M17.9721 14.1884C17.8381 14.1884 17.7033 14.1577 17.5762 14.0946C17.2265 13.9211 17.0013 13.5355 17.0013 13.11V11.1635C17.0013 9.40941 15.7163 7.9824 14.1367 7.9824H8.986V10.1655C8.986 10.5504 8.80131 10.906 8.50143 11.0988C8.35092 11.1955 8.18295 11.2439 8.01494 11.2439C7.84799 11.2439 7.68107 11.1961 7.53131 11.1006L0.887285 6.86277C0.585879 6.67048 0.399902 6.31386 0.399902 5.92777C0.399902 5.54172 0.585879 5.18498 0.887285 4.99268L7.53131 0.754907C7.68107 0.659448 7.84799 0.611633 8.01494 0.611633C8.18295 0.611633 8.35096 0.659965 8.50143 0.756671C8.80131 0.949524 8.986 1.30519 8.986 1.68999V3.5612H15.0592C18.0041 3.56124 20.3999 6.22181 20.3999 9.49205C20.3999 10.7094 20.0702 11.8791 19.4465 12.8747C19.2078 13.2559 18.9298 13.6053 18.6203 13.9133C18.4385 14.094 18.2069 14.1884 17.9721 14.1884Z" fill="#FCB63E"/>
<g opacity="0.2">
<path d="M15.0592 3.56122H14.2417C17.0088 3.77972 19.2 6.34926 19.2 9.47666C19.2 10.694 18.8703 11.8637 18.2466 12.8593C18.0079 13.2405 17.3829 13.9328 17.3636 13.9493C17.4278 14.0067 17.4988 14.0562 17.5763 14.0946C17.7034 14.1576 17.8382 14.1884 17.9722 14.1884C18.2069 14.1884 18.4387 14.0939 18.6203 13.9132C18.9298 13.6053 19.2079 13.2559 19.4466 12.8746C20.0703 11.8791 20.4 10.7094 20.4 9.49202C20.4 6.22178 18.0042 3.56122 15.0592 3.56122Z" fill="white"/>
</g>
<g opacity="0.1">
<path d="M8.9435 9.64531C8.79307 9.74202 8.62506 9.79039 8.45705 9.79039C8.2901 9.79039 8.12315 9.74271 7.97338 9.64716L1.32939 5.40934C1.16084 5.30183 1.0285 5.14289 0.944473 4.95624L0.887285 4.99269C0.585879 5.18498 0.399902 5.54164 0.399902 5.92778C0.399902 6.31387 0.585879 6.67053 0.887285 6.86286L7.53127 11.1006C7.68104 11.1961 7.84795 11.2439 8.0149 11.2439C8.18291 11.2439 8.35092 11.1955 8.50139 11.0988C8.80127 10.9061 8.98596 10.5504 8.98596 10.1656V9.61587C8.97201 9.62594 8.95803 9.63597 8.9435 9.64531Z" fill="black"/>
<path d="M8.9435 9.64531C8.79307 9.74202 8.62506 9.79039 8.45705 9.79039C8.2901 9.79039 8.12315 9.74271 7.97338 9.64716L1.32939 5.40934C1.16084 5.30183 1.0285 5.14289 0.944473 4.95624L0.887285 4.99269C0.585879 5.18498 0.399902 5.54164 0.399902 5.92778C0.399902 6.31387 0.585879 6.67053 0.887285 6.86286L7.53127 11.1006C7.68104 11.1961 7.84795 11.2439 8.0149 11.2439C8.18291 11.2439 8.35092 11.1955 8.50139 11.0988C8.80127 10.9061 8.98596 10.5504 8.98596 10.1656V9.61587C8.97201 9.62594 8.95803 9.63597 8.9435 9.64531Z" fill="black"/>
</g>
</svg>
