<svg width="60" height="60" viewBox="0 0 60 60" fill="none" xmlns="http://www.w3.org/2000/svg">
<path d="M49.6551 4.13794V8.27587H42.4137V4.13794H17.5861V8.27587H10.3447V4.13794H2.06885V15.5173H57.9309V4.13794H49.6551Z" fill="#FC3952"/>
<path d="M10.3447 15.5172H2.06885V60H57.9309V15.5172H49.6551H42.4137H17.5861H10.3447Z" fill="#EDEADA"/>
<path d="M40.3447 22.7586H38.2758H31.0344H28.9654H21.724H19.6551H10.3447V32.069V34.1379V41.3793V43.4483V52.7586H19.6551H21.724H28.9654H31.0344H38.2758H40.3447H49.6551V43.4483V41.3793V34.1379V32.069V22.7586H40.3447ZM31.0344 24.8276H38.2758V32.069H31.0344V24.8276ZM38.2758 41.3793H31.0344V34.1379H38.2758V41.3793ZM21.724 34.1379H28.9654V41.3793H21.724V34.1379ZM21.724 24.8276H28.9654V32.069H21.724V24.8276ZM12.4137 24.8276H19.6551V32.069H12.4137V24.8276ZM12.4137 34.1379H19.6551V41.3793H12.4137V34.1379ZM19.6551 50.6896H12.4137V43.4483H19.6551V50.6896ZM28.9654 50.6896H21.724V43.4483H28.9654V50.6896ZM38.2758 50.6896H31.0344V43.4483H38.2758V50.6896ZM47.5861 50.6896H40.3447V43.4483H47.5861V50.6896ZM47.5861 41.3793H40.3447V34.1379H47.5861V41.3793ZM40.3447 32.069V24.8276H47.5861V32.069H40.3447Z" fill="#CEC9AE"/>
<path d="M17.5861 0H10.3447V8.27586H17.5861V0Z" fill="#28384C"/>
<path d="M49.6552 0H42.4138V8.27586H49.6552V0Z" fill="#28384C"/>
<path d="M38.2758 34.1379H31.0344V41.3793H38.2758V34.1379Z" fill="#A0986C"/>
</svg>
