<svg width="70" height="70" viewBox="0 0 70 70" fill="none" xmlns="http://www.w3.org/2000/svg">
<g clip-path="url(#clip0)">
<path d="M69.9999 0H34.9999L32.2634 40.6402L69.9999 37.9031V0Z" fill="#03232E"/>
<path d="M0 0V37.9031L35 40.6402V0L0 0Z" fill="#07485E"/>
<path d="M46.6274 58.2518V49.5306L32.2634 46.7941L34.9999 58.2518H46.6274Z" fill="#87A0AF"/>
<path d="M23.3726 58.2518H35.0001V46.7941L23.3726 49.5306V58.2518Z" fill="#B4D2D7"/>
<path d="M53.1682 60.3021V56.2005H35.0001L33.6318 58.2513L35.0001 60.3021H53.1682Z" fill="#B4D2D7"/>
<path d="M16.8318 56.2005H34.9999V60.3021H16.8318V56.2005Z" fill="#E1EBF0"/>
<path d="M34.9999 37.9031L32.2634 43.7174L34.9999 49.5306H69.9999V37.9031H34.9999Z" fill="#B4D2D7"/>
<path d="M0 37.9031H35V49.5306H0V37.9031Z" fill="#E1EBF0"/>
<rect width="5.46875" height="39.2383" fill="#E1EBF0"/>
<rect x="35" width="5.46875" height="35" transform="rotate(90 35 0)" fill="#E1EBF0"/>
<rect x="70" width="5.46875" height="35" transform="rotate(90 70 0)" fill="#B4D2D7"/>
<rect x="64.5312" width="5.46875" height="39.2383" fill="#B4D2D7"/>
<path d="M35.002 65.4883L32.2656 67.7443L35.002 70H70V65.4883H35.002Z" fill="#B4D2D7"/>
<path d="M0 65.4883H35V70H0V65.4883Z" fill="#E1EBF0"/>
<g clip-path="url(#clip1)">
<path d="M40.6026 16.136C39.1061 14.6395 37.1165 13.8154 35.0002 13.8154C32.884 13.8154 30.8944 14.6395 29.3979 16.136C27.9015 17.6324 27.0774 19.622 27.0774 21.7383C27.0774 23.8545 27.9015 25.8442 29.3979 27.3406C30.8944 28.837 32.884 29.6611 35.0002 29.6611C37.1165 29.6611 39.1061 28.837 40.6026 27.3406C42.099 25.8442 42.9231 23.8545 42.9231 21.7383C42.9231 19.622 42.099 17.6324 40.6026 16.136ZM35.0002 28.7327C31.1435 28.7327 28.0059 25.595 28.0059 21.7383C28.0059 17.8816 31.1435 14.7439 35.0002 14.7439C38.857 14.7439 41.9946 17.8816 41.9946 21.7383C41.9946 25.595 38.857 28.7327 35.0002 28.7327Z" fill="#E9CA2A"/>
<path d="M35.5237 21.2496H34.4768C33.8804 21.2496 33.3953 20.7644 33.3953 20.1681C33.3953 19.5717 33.8805 19.0865 34.4768 19.0865H36.5705C36.8404 19.0865 37.0592 18.8677 37.0592 18.5978C37.0592 18.328 36.8404 18.1092 36.5705 18.1092H35.4889V17.0276C35.4889 16.7577 35.2701 16.5389 35.0003 16.5389C34.7304 16.5389 34.5116 16.7577 34.5116 17.0276V18.1092H34.4769C33.3416 18.1092 32.418 19.0328 32.418 20.1681C32.418 21.3033 33.3416 22.2269 34.4769 22.2269H35.5237C36.1201 22.2269 36.6053 22.7121 36.6053 23.3085C36.6053 23.9049 36.1201 24.3901 35.5237 24.3901H33.4301C33.1602 24.3901 32.9414 24.6089 32.9414 24.8787C32.9414 25.1486 33.1602 25.3674 33.4301 25.3674H34.5116V26.449C34.5116 26.7189 34.7304 26.9377 35.0003 26.9377C35.2701 26.9377 35.4889 26.7189 35.4889 26.449V25.3674H35.5237C36.6589 25.3674 37.5825 24.4438 37.5825 23.3085C37.5825 22.1733 36.6589 21.2496 35.5237 21.2496Z" fill="#E9CA2A"/>
</g>
</g>
<defs>
<clipPath id="clip0">
<rect width="70" height="70" fill="white"/>
</clipPath>
<clipPath id="clip1">
<rect width="16.6797" height="16.6797" fill="white" transform="translate(26.6602 13.3984)"/>
</clipPath>
</defs>
</svg>
