<svg width="60" height="60" viewBox="0 0 60 60" fill="none" xmlns="http://www.w3.org/2000/svg">
<path d="M60 29.8828C60 46.3711 46.4883 60 30 60C13.5117 60 0 46.3711 0 29.8828C0 21.9375 3.23426 14.3436 8.78906 8.78906H6.15234C5.16785 8.78906 4.39453 8.01551 4.39453 7.03125C4.39453 6.04676 5.16785 5.27344 6.15234 5.27344H13.1836C14.1681 5.27344 14.9414 6.04676 14.9414 7.03125V14.0625C14.9414 15.0468 14.1681 15.8203 13.1836 15.8203C12.1991 15.8203 11.4258 15.0468 11.4258 14.0625V11.1093C6.43371 16.0312 3.51562 22.8164 3.51562 29.8828C3.51562 44.4375 15.4453 56.4844 30 56.4844C44.5547 56.4844 56.4844 44.4375 56.4844 29.8828C56.4844 15.3281 44.5547 3.51562 30 3.51562C29.0155 3.51562 28.2422 2.74207 28.2422 1.75781C28.2422 0.77332 29.0155 0 30 0C46.4883 0 60 13.3945 60 29.8828Z" fill="#1DE8F1"/>
<path d="M45.8203 29.8828C45.8203 34.2422 44.0625 38.2148 41.1797 41.0625C38.332 43.9453 34.3594 45.7031 30 45.7031C21.2461 45.7031 14.0625 38.6367 14.0625 29.8828C14.0625 25.5234 15.8203 21.5508 18.7031 18.7031C21.5508 15.8203 25.6406 14.0625 30 14.0625C34.3594 14.0625 38.332 15.8203 41.1797 18.7031C44.0625 21.5508 45.8203 25.5234 45.8203 29.8828Z" fill="#17ACE8"/>
<path d="M45.8203 29.8828C45.8203 34.2422 44.0625 38.2148 41.1797 41.0625C38.332 43.9453 34.3594 45.7031 30 45.7031V14.0625C34.3594 14.0625 38.332 15.8203 41.1797 18.7031C44.0625 21.5508 45.8203 25.5234 45.8203 29.8828Z" fill="#1689FC"/>
<path d="M31.7578 12.3047V15.8203C31.7578 16.8046 30.9845 17.5781 30 17.5781C29.0155 17.5781 28.2422 16.8046 28.2422 15.8203V12.3047C28.2422 11.3202 29.0155 10.5469 30 10.5469C30.9845 10.5469 31.7578 11.3202 31.7578 12.3047Z" fill="#1DE8F1"/>
<path d="M31.7578 43.9453V47.4609C31.7578 48.4452 30.9845 49.2188 30 49.2188C29.0155 49.2188 28.2422 48.4452 28.2422 47.4609V43.9453C28.2422 42.9608 29.0155 42.1875 30 42.1875C30.9845 42.1875 31.7578 42.9608 31.7578 43.9453Z" fill="#1DE8F1"/>
<path d="M15.8203 31.6406H12.3047C11.3331 31.6406 10.5469 30.8544 10.5469 29.8828C10.5469 28.9112 11.3331 28.125 12.3047 28.125H15.8203C16.7919 28.125 17.5781 28.9112 17.5781 29.8828C17.5781 30.8544 16.7919 31.6406 15.8203 31.6406Z" fill="#1DE8F1"/>
<path d="M47.5781 31.6406H44.0625C43.0909 31.6406 42.3047 30.8544 42.3047 29.8828C42.3047 28.9112 43.0909 28.125 44.0625 28.125H47.5781C48.5497 28.125 49.3359 28.9112 49.3359 29.8828C49.3359 30.8544 48.5497 31.6406 47.5781 31.6406Z" fill="#1BD9DE"/>
<path d="M16.21 43.5557C15.5234 42.8691 15.5234 41.7566 16.21 41.07L18.6957 38.5843C19.3823 37.8977 20.4947 37.8977 21.1814 38.5843C21.868 39.2709 21.868 40.3834 21.1814 41.07L18.6957 43.5557C18.0091 44.2423 16.8967 44.2423 16.21 43.5557Z" fill="#1DE8F1"/>
<path d="M38.7015 21.1813C38.0149 20.4947 38.0149 19.3822 38.7015 18.6956L41.1871 16.21C41.8737 15.5234 42.9862 15.5234 43.6728 16.21C44.3594 16.8966 44.3594 18.009 43.6728 18.6956L41.1871 21.1813C40.5004 21.868 39.3881 21.868 38.7015 21.1813Z" fill="#1BD9DE"/>
<path d="M41.1871 43.5557L38.7015 41.07C38.0149 40.3834 38.0149 39.2709 38.7015 38.5843C39.3881 37.8977 40.5005 37.8977 41.1871 38.5843L43.6728 41.07C44.3594 41.7566 44.3594 42.8691 43.6728 43.5557C42.9861 44.2423 41.8737 44.2423 41.1871 43.5557Z" fill="#1BD9DE"/>
<path d="M18.6957 21.1813L16.21 18.6956C15.5234 18.009 15.5234 16.8966 16.21 16.21C16.8966 15.5234 18.0091 15.5234 18.6957 16.21L21.1814 18.6956C21.868 19.3822 21.868 20.4947 21.1814 21.1813C20.4947 21.868 19.3824 21.868 18.6957 21.1813Z" fill="#1DE8F1"/>
<path d="M31.7578 43.9453V47.4609C31.7578 48.4452 30.9845 49.2188 30 49.2188V42.1875C30.9845 42.1875 31.7578 42.9608 31.7578 43.9453Z" fill="#1BD9DE"/>
<path d="M31.7578 12.3047V15.8203C31.7578 16.8046 30.9845 17.5781 30 17.5781V10.5469C30.9845 10.5469 31.7578 11.3202 31.7578 12.3047Z" fill="#1BD9DE"/>
<path d="M34.746 34.6288C34.1134 35.3322 32.9178 35.3322 32.2851 34.6288L30 32.3438L28.7696 31.1132C28.418 30.7969 28.2422 30.3398 28.2422 29.8828V22.8516C28.2422 21.8671 29.0155 21.0938 30 21.0938C30.9845 21.0938 31.7578 21.8671 31.7578 22.8516V29.1444L34.746 32.1679C35.4492 32.8358 35.4492 33.9608 34.746 34.6288Z" fill="#E1E4FB"/>
<path d="M34.746 34.6288C34.1134 35.3322 32.9178 35.3322 32.2852 34.6288L30 32.3438V21.0938C30.9845 21.0938 31.7578 21.8671 31.7578 22.8516V29.1444L34.746 32.1679C35.4492 32.8358 35.4492 33.9608 34.746 34.6288Z" fill="#C5C9F7"/>
<path d="M60 29.8828C60 46.3711 46.4883 60 30 60V56.4844C44.5547 56.4844 56.4844 44.4375 56.4844 29.8828C56.4844 15.3281 44.5547 3.51562 30 3.51562V0C46.4883 0 60 13.3945 60 29.8828Z" fill="#1BD9DE"/>
<path d="M30 10.5469C19.3475 10.5469 10.5469 19.2304 10.5469 29.8828C10.5469 40.535 19.3475 49.2188 30 49.2188C40.6525 49.2188 49.3359 40.535 49.3359 29.8828C49.3359 19.2304 40.6525 10.5469 30 10.5469ZM30 45.7031C21.2762 45.7031 14.0625 38.6066 14.0625 29.8828C14.0625 21.159 21.2762 14.0625 30 14.0625C38.7238 14.0625 45.8203 21.159 45.8203 29.8828C45.8203 38.6066 38.7238 45.7031 30 45.7031Z" fill="#1DE8F1"/>
<path d="M30 10.5469V14.0625C38.7238 14.0625 45.8203 21.159 45.8203 29.8828C45.8203 38.6066 38.7238 45.7031 30 45.7031V49.2188C40.6525 49.2188 49.3359 40.535 49.3359 29.8828C49.3359 19.2304 40.6525 10.5469 30 10.5469Z" fill="#1BD9DE"/>
</svg>
