<svg width="16" height="17" viewBox="0 0 16 17" fill="none" xmlns="http://www.w3.org/2000/svg">
    <line y1="16.5" x2="16" y2="16.5" stroke="#BDBDBD"/>
    <line y1="0.5" x2="16" y2="0.5" stroke="#BDBDBD"/>
    <line y1="12.5" x2="16" y2="12.5" stroke="#BDBDBD"/>
    <path d="M7.75251 10.7475C7.8892 10.8842 8.1108 10.8842 8.24749 10.7475L10.4749 8.5201C10.6116 8.38342 10.6116 8.16181 10.4749 8.02513C10.3382 7.88844 10.1166 7.88844 9.9799 8.02513L8 10.005L6.0201 8.02513C5.88342 7.88844 5.66181 7.88844 5.52513 8.02513C5.38844 8.16181 5.38844 8.38342 5.52513 8.5201L7.75251 10.7475ZM7.65 4.5L7.65 10.5L8.35 10.5L8.35 4.5L7.65 4.5Z"
          fill="#BDBDBD"/>
    <path d="M8.24749 2.25251C8.1108 2.11583 7.8892 2.11583 7.75251 2.25251L5.52513 4.4799C5.38844 4.61658 5.38844 4.83819 5.52513 4.97487C5.66181 5.11156 5.88342 5.11156 6.0201 4.97487L8 2.99497L9.9799 4.97487C10.1166 5.11156 10.3382 5.11156 10.4749 4.97487C10.6116 4.83819 10.6116 4.61658 10.4749 4.4799L8.24749 2.25251ZM8.35 10.5L8.35 2.5L7.65 2.5L7.65 10.5L8.35 10.5Z"
          fill="#BDBDBD"/>
</svg>
