<?xml version="1.0" encoding="UTF-8"?>
<svg width="20px" height="20px" viewBox="0 0 20 20" version="1.1" xmlns="http://www.w3.org/2000/svg" xmlns:xlink="http://www.w3.org/1999/xlink">
    <!-- Generator: Sketch 56.2 (81672) - https://sketch.com -->
    <title>add</title>
    <desc>Created with Sketch.</desc>
    <g id="2.-Order" stroke="none" stroke-width="1" fill="none" fill-rule="evenodd">
        <g id="Split-Order" transform="translate(-166.000000, -365.000000)">
            <g id="Seat-list" transform="translate(132.000000, 9.000000)">
                <g id="3-copy-2" transform="translate(0.000000, 346.000000)">
                    <g id="add-copy" transform="translate(34.000000, 10.000000)">
                        <g id="add">
                            <g id="Group" fill="#212121" fill-rule="nonzero">
                                <circle id="Oval" cx="10" cy="10" r="9.22539062"></circle>
                                <path d="M10,20 C4.48644531,20 0,15.5143359 0,10 C0,4.48644531 4.48644531,0 10,0 C15.5143359,0 20,4.48644531 20,10 C20,15.5143359 15.5143359,20 10,20 Z M10,1.54917969 C5.34003906,1.54917969 1.54917969,5.34003906 1.54917969,10 C1.54917969,14.6599609 5.34003906,18.4508203 10,18.4508203 C14.6599609,18.4508203 18.4508203,14.6591797 18.4508203,10 C18.4508203,5.34003906 14.6599609,1.54917969 10,1.54917969 Z" id="Shape"></path>
                            </g>
                            <g id="Group" transform="translate(5.351562, 5.273438)" fill="#FFFFFF" fill-rule="nonzero">
                                <path d="M4.6484375,9.30441406 C4.22085937,9.30441406 3.87382813,8.95816406 3.87382813,8.52980469 L3.87382813,0.783867188 C3.87382813,0.356289063 4.22085938,0.0092578125 4.6484375,0.0092578125 C5.07601563,0.0092578125 5.42304687,0.356289063 5.42304687,0.783867188 L5.42304687,8.52980469 C5.42304687,8.95816406 5.07601563,9.30441406 4.6484375,9.30441406 Z" id="Path"></path>
                                <path d="M8.52140625,5.43144531 L0.77546875,5.43144531 C0.347890625,5.43144531 0.000859375,5.08441406 0.000859375,4.65683594 C0.000859375,4.22925781 0.347890625,3.88222656 0.77546875,3.88222656 L8.52140625,3.88222656 C8.94976562,3.88222656 9.29601562,4.22925781 9.29601562,4.65683594 C9.29601562,5.08441406 8.94976562,5.43144531 8.52140625,5.43144531 Z" id="Path"></path>
                            </g>
                        </g>
                    </g>
                </g>
            </g>
        </g>
    </g>
</svg>