<?xml version="1.0" encoding="UTF-8"?>
<svg width="20px" height="18px" viewBox="0 0 20 18" version="1.1" xmlns="http://www.w3.org/2000/svg" xmlns:xlink="http://www.w3.org/1999/xlink">
    <!-- Generator: Sketch 56.2 (81672) - https://sketch.com -->
    <title>bureau</title>
    <desc>Created with Sketch.</desc>
    <g id="2.-Order" stroke="none" stroke-width="1" fill="none" fill-rule="evenodd">
        <g id="Quick-Order" transform="translate(-124.000000, -562.000000)">
            <g id="3-copy-7" transform="translate(110.000000, 550.000000)">
                <g id="bureau" transform="translate(14.000000, 12.000000)">
                    <g>
                        <polygon id="Path" fill="#FFA000" fill-rule="nonzero" points="18.9189189 15.3529412 1.08108108 15.3529412 1.08108108 1.58823529 18.9189189 1.58823529"></polygon>
                        <g id="Group" transform="translate(8.108108, 4.764706)" fill="#5D4037" fill-rule="nonzero">
                            <path d="M3.31081081,7.41176471 L0.472972973,7.41176471 C0.211418919,7.41176471 0,7.17511765 0,6.88235294 C0,6.58958824 0.211418919,6.35294118 0.472972973,6.35294118 L3.31081081,6.35294118 C3.57236486,6.35294118 3.78378378,6.58958824 3.78378378,6.88235294 C3.78378378,7.17511765 3.57236486,7.41176471 3.31081081,7.41176471 Z" id="Path"></path>
                            <path d="M3.31081081,1.05882353 L0.472972973,1.05882353 C0.211418919,1.05882353 0,0.822176471 0,0.529411765 C0,0.236647059 0.211418919,0 0.472972973,0 L3.31081081,0 C3.57236486,0 3.78378378,0.236647059 3.78378378,0.529411765 C3.78378378,0.822176471 3.57236486,1.05882353 3.31081081,1.05882353 Z" id="Path"></path>
                        </g>
                        <g id="Group" fill="#EF6C00" fill-rule="nonzero">
                            <rect id="Rectangle" x="1.08108108" y="7.94117647" width="17.8378378" height="1.05882353"></rect>
                            <polygon id="Path" points="20 2.64705882 0 2.64705882 0 0 20 0"></polygon>
                            <path d="M1.08108108,14.2941176 L1.08108108,15.3529412 L1.08108108,18 L3.75675676,18 L3.75675676,16.2132353 C3.75675676,15.5779412 3.94628378,15.3529412 4.48141892,15.3529412 L15.5185811,15.3529412 C16.0537162,15.3529412 16.2432432,15.5779412 16.2432432,16.2132353 L16.2432432,18 L18.9189189,18 L18.9189189,15.3529412 L18.9189189,14.2941176 L1.08108108,14.2941176 Z" id="Path"></path>
                        </g>
                    </g>
                </g>
            </g>
        </g>
    </g>
</svg>