<?xml version="1.0" encoding="UTF-8"?>
<svg width="16px" height="16px" viewBox="0 0 16 16" version="1.1" xmlns="http://www.w3.org/2000/svg" xmlns:xlink="http://www.w3.org/1999/xlink">
    <!-- Generator: Sketch 56.2 (81672) - https://sketch.com -->
    <title>cancel</title>
    <desc>Created with Sketch.</desc>
    <g id="2.-Order" stroke="none" stroke-width="1" fill="none" fill-rule="evenodd">
        <g id="Order-case-1---default" transform="translate(-685.000000, -324.000000)">
            <g id="Cal" transform="translate(477.000000, 312.000000)">
                <g id="Show">
                    <g id="-Round-/-Navigation-/-cancel" transform="translate(207.000000, 11.000000)">
                        <g>
                            <polygon id="Path" opacity="0.87" points="0 0 18 0 18 18 0 18"></polygon>
                            <path d="M9,1.5 C4.8525,1.5 1.5,4.8525 1.5,9 C1.5,13.1475 4.8525,16.5 9,16.5 C13.1475,16.5 16.5,13.1475 16.5,9 C16.5,4.8525 13.1475,1.5 9,1.5 Z M12.225,12.225 C11.9325,12.5175 11.46,12.5175 11.1675,12.225 L9,10.0575 L6.8325,12.225 C6.54,12.5175 6.0675,12.5175 5.775,12.225 C5.4825,11.9325 5.4825,11.46 5.775,11.1675 L7.9425,9 L5.775,6.8325 C5.4825,6.54 5.4825,6.0675 5.775,5.775 C6.0675,5.4825 6.54,5.4825 6.8325,5.775 L9,7.9425 L11.1675,5.775 C11.46,5.4825 11.9325,5.4825 12.225,5.775 C12.5175,6.0675 12.5175,6.54 12.225,6.8325 L10.0575,9 L12.225,11.1675 C12.51,11.4525 12.51,11.9325 12.225,12.225 Z" id="🔹-Icon-Color" fill="#747474"></path>
                        </g>
                    </g>
                </g>
            </g>
        </g>
    </g>
</svg>