<?xml version="1.0" encoding="UTF-8"?>
<svg width="30px" height="18px" viewBox="0 0 30 18" version="1.1" xmlns="http://www.w3.org/2000/svg" xmlns:xlink="http://www.w3.org/1999/xlink">
    <!-- Generator: Sketch 57.1 (83088) - https://sketch.com -->
    <title>Cash</title>
    <desc>Created with Sketch.</desc>
    <g id="Symbols" stroke="none" stroke-width="1" fill="none" fill-rule="evenodd">
        <g id="ico/Cash" transform="translate(0.000000, -6.000000)" fill-rule="nonzero">
            <g id="Cash" transform="translate(0.000000, 6.000000)">
                <polygon id="Path" fill="#32CC77" points="0 0 29.9852362 0 29.9852362 17.253937 0 17.253937"></polygon>
                <path d="M27.390502,11.4702263 L27.390502,5.78401819 C25.6293061,5.78401819 24.201218,4.35593008 24.201218,2.59473417 L5.78371063,2.59473417 C5.78371063,4.35593008 4.35593008,5.78401819 2.59473425,5.78401819 L2.59473425,11.4702263 C4.35593008,11.4702263 5.78371063,12.8980069 5.78371063,14.6592027 L24.201218,14.6592027 C24.201218,12.8980069 25.6289985,11.4702263 27.390502,11.4702263 L27.390502,11.4702263 Z" id="Path" fill="#1FB25E"></path>
                <path d="M23.4781004,9.24489417 L21.5009843,9.24489417 C21.1595718,9.24489417 20.8830586,8.96838087 20.8830586,8.6269685 C20.8830586,8.28586362 21.1595718,8.00904276 21.5009843,8.00904276 L23.4781004,8.00904276 C23.8192052,8.00904276 24.0960261,8.28586362 24.0960261,8.6269685 C24.0960261,8.96838087 23.8192052,9.24489417 23.4781004,9.24489417 Z" id="Path" fill="#32CC77"></path>
                <path d="M27.390502,3.21204472 C26.8470103,3.21204472 26.5689591,2.52614417 26.9629676,2.14874504 C27.1416708,1.97773126 27.4148007,1.92974898 27.640871,2.03032724 C27.8860113,2.13951764 28.0376476,2.40249748 28.0031988,2.67039858 C27.9641363,2.97582425 27.6999261,3.21204472 27.390502,3.21204472 Z" id="Path" fill="#1FB25E"></path>
                <path d="M27.390502,15.2771284 C26.836245,15.2771284 26.5615772,14.5650836 26.9814222,14.1966043 C27.1693528,14.0320497 27.4446358,13.9957554 27.667938,14.107714 C27.9066191,14.2276698 28.0444143,14.4971087 27.9998154,14.7613189 C27.9499877,15.054749 27.6888534,15.2771284 27.390502,15.2771284 L27.390502,15.2771284 Z" id="Path" fill="#1FB25E"></path>
            </g>
        </g>
    </g>
</svg>