<?xml version="1.0" encoding="UTF-8"?>
<svg width="28px" height="21px" viewBox="0 0 28 21" version="1.1" xmlns="http://www.w3.org/2000/svg" xmlns:xlink="http://www.w3.org/1999/xlink">
    <!-- Generator: Sketch 57.1 (83088) - https://sketch.com -->
    <title>credit-card (1)</title>
    <desc>Created with Sketch.</desc>
    <g id="Symbols" stroke="none" stroke-width="1" fill="none" fill-rule="evenodd">
        <g id="ico/credit-card" transform="translate(-1.000000, -5.000000)" fill-rule="nonzero">
            <g id="credit-card-(1)" transform="translate(1.000000, 5.000000)">
                <path d="M26.4469655,20.2758621 L1.55303448,20.2758621 C0.695172414,20.2758621 0,19.5806897 0,18.7228276 L0,1.55303448 C0,0.695172414 0.695172414,0 1.55303448,0 L26.4469655,0 C27.3048276,0 28,0.695172414 28,1.55303448 L28,18.7228276 C28,19.5806897 27.3048276,20.2758621 26.4469655,20.2758621" id="XMLID_115_" fill="#F0C41B"></path>
                <rect id="XMLID_114_" fill="#806F5E" x="0" y="2.4137931" width="28" height="3.86206897"></rect>
                <path d="M7.24137931,9.65517241 L2.89655172,9.65517241 C2.63006897,9.65517241 2.4137931,9.43889655 2.4137931,9.17241379 C2.4137931,8.90593103 2.63006897,8.68965517 2.89655172,8.68965517 L7.24137931,8.68965517 C7.50786207,8.68965517 7.72413793,8.90593103 7.72413793,9.17241379 C7.72413793,9.43889655 7.50786207,9.65517241 7.24137931,9.65517241" id="XMLID_113_" fill="#F9EAB0"></path>
                <path d="M13.5172414,9.65517241 L9.17241379,9.65517241 C8.90593103,9.65517241 8.68965517,9.43889655 8.68965517,9.17241379 C8.68965517,8.90593103 8.90593103,8.68965517 9.17241379,8.68965517 L13.5172414,8.68965517 C13.7837241,8.68965517 14,8.90593103 14,9.17241379 C14,9.43889655 13.7837241,9.65517241 13.5172414,9.65517241" id="XMLID_112_" fill="#F9EAB0"></path>
                <path d="M3.37931034,12.0689655 L2.89655172,12.0689655 C2.63006897,12.0689655 2.4137931,11.8526897 2.4137931,11.5862069 C2.4137931,11.3197241 2.63006897,11.1034483 2.89655172,11.1034483 L3.37931034,11.1034483 C3.6457931,11.1034483 3.86206897,11.3197241 3.86206897,11.5862069 C3.86206897,11.8526897 3.6457931,12.0689655 3.37931034,12.0689655" id="XMLID_111_" fill="#F9EAB0"></path>
                <path d="M6.27586207,12.0689655 L5.31034483,12.0689655 C5.04386207,12.0689655 4.82758621,11.8526897 4.82758621,11.5862069 C4.82758621,11.3197241 5.04386207,11.1034483 5.31034483,11.1034483 L6.27586207,11.1034483 C6.54234483,11.1034483 6.75862069,11.3197241 6.75862069,11.5862069 C6.75862069,11.8526897 6.54234483,12.0689655 6.27586207,12.0689655" id="XMLID_110_" fill="#F9EAB0"></path>
                <path d="M8.68965517,12.0689655 L8.20689655,12.0689655 C7.94041379,12.0689655 7.72413793,11.8526897 7.72413793,11.5862069 C7.72413793,11.3197241 7.94041379,11.1034483 8.20689655,11.1034483 L8.68965517,11.1034483 C8.95613793,11.1034483 9.17241379,11.3197241 9.17241379,11.5862069 C9.17241379,11.8526897 8.95613793,12.0689655 8.68965517,12.0689655" id="XMLID_109_" fill="#F9EAB0"></path>
                <path d="M11.5862069,12.0689655 L10.6206897,12.0689655 C10.3542069,12.0689655 10.137931,11.8526897 10.137931,11.5862069 C10.137931,11.3197241 10.3542069,11.1034483 10.6206897,11.1034483 L11.5862069,11.1034483 C11.8526897,11.1034483 12.0689655,11.3197241 12.0689655,11.5862069 C12.0689655,11.8526897 11.8526897,12.0689655 11.5862069,12.0689655" id="XMLID_108_" fill="#F9EAB0"></path>
                <path d="M13.5172414,12.0689655 C13.3917241,12.0689655 13.2662069,12.0158621 13.1744828,11.9289655 C13.0875862,11.8372414 13.0344828,11.7165517 13.0344828,11.5862069 C13.0344828,11.4606897 13.0875862,11.3351724 13.1744828,11.2434483 C13.3531034,11.0648276 13.6765517,11.0648276 13.86,11.2434483 C13.9468966,11.3351724 14,11.4606897 14,11.5862069 C14,11.7117241 13.9468966,11.8372414 13.86,11.9289655 C13.7682759,12.0158621 13.6427586,12.0689655 13.5172414,12.0689655" id="XMLID_107_" fill="#F9EAB0"></path>
                <path d="M22.2068966,14.9655172 C22.2068966,16.5653793 20.9102069,17.862069 19.3103448,17.862069 C17.7104828,17.862069 16.4137931,16.5653793 16.4137931,14.9655172 C16.4137931,13.3656552 17.7104828,12.0689655 19.3103448,12.0689655 C20.9102069,12.0689655 22.2068966,13.3656552 22.2068966,14.9655172" id="XMLID_106_" fill="#DB2215"></path>
                <path d="M25.5862069,14.9655172 C25.5862069,16.5653793 24.2895172,17.862069 22.6896552,17.862069 C21.0897931,17.862069 19.7931034,16.5653793 19.7931034,14.9655172 C19.7931034,13.3656552 21.0897931,12.0689655 22.6896552,12.0689655 C24.2895172,12.0689655 25.5862069,13.3656552 25.5862069,14.9655172" id="XMLID_105_" fill="#245EA9"></path>
            </g>
        </g>
    </g>
</svg>