<svg width="37" height="37" viewBox="0 0 37 37" fill="none" xmlns="http://www.w3.org/2000/svg">
<path d="M36.5 18.5C36.5 28.4411 28.4411 36.5 18.5 36.5C8.55887 36.5 0.5 28.4411 0.5 18.5C0.5 8.55887 8.55887 0.5 18.5 0.5C28.4411 0.5 36.5 8.55887 36.5 18.5Z" fill="white" stroke="#E1E1E1"/>
<path fill-rule="evenodd" clip-rule="evenodd" d="M22 15.5C22 17.4338 20.4338 19 18.5 19C16.5662 19 15 17.4338 15 15.5C15 13.5662 16.5662 12 18.5 12C20.4338 12 22 13.5662 22 15.5ZM12 23.3333C12 21.1167 16.3306 20 18.5 20C20.6694 20 25 21.1167 25 23.3333V25H12V23.3333Z" fill="#B4C0CF"/>
</svg>
