<?xml version="1.0" encoding="UTF-8"?>
<svg width="40px" height="12px" viewBox="0 0 40 12" version="1.1" xmlns="http://www.w3.org/2000/svg" xmlns:xlink="http://www.w3.org/1999/xlink">
    <!-- Generator: Sketch 56.2 (81672) - https://sketch.com -->
    <title>Group 12</title>
    <desc>Created with Sketch.</desc>
    <g id="Order" stroke="none" stroke-width="1" fill="none" fill-rule="evenodd">
        <g transform="translate(-556.000000, -133.000000)" id="Select">
            <g transform="translate(9.000000, 9.000000)">
                <g id="1" transform="translate(0.000000, 113.000000)">
                    <g id="Col-3" transform="translate(506.000000, 0.000000)">
                        <g id="Top-Title">
                            <g id="Group-13" transform="translate(28.000000, 11.000000)">
                                <g id="Group-12" transform="translate(13.000000, 0.000000)">
                                    <path d="M36.3357143,9.27928571 C35.4492857,9.27928571 34.5942857,8.96428571 33.9278571,8.39214286 C33.6285714,8.135 33.5942857,7.68428571 33.8507143,7.385 C34.1078571,7.08571429 34.5592857,7.05142857 34.8578571,7.30785714 C35.2657143,7.65785714 35.7907143,7.85071429 36.3357143,7.85071429 C37.5635714,7.85071429 38.5628571,6.88928571 38.5628571,5.70785714 C38.5628571,4.56642857 37.5221429,3.565 36.3357143,3.565 C35.3935714,3.565 34.55,4.13928571 34.2357143,4.99357143 C33.9228571,5.84785714 33.0542857,6.42214286 32.0771429,6.42214286 L28.5621429,6.42214286 L28.5621429,4.99357143 L32.0771429,4.99357143 C32.4528571,4.99357143 32.7885714,4.79142857 32.8957143,4.50071429 C33.4142857,3.08714286 34.7971429,2.13642857 36.3357143,2.13642857 C38.3171429,2.13642857 39.9907143,3.77214286 39.9907143,5.70785714 C39.9907143,7.67714286 38.3514286,9.27928571 36.3357143,9.27928571 L36.3357143,9.27928571 L36.3357143,9.27928571 Z M7.13357143,6.42214286 L0.713571429,6.42214286 C0.319285714,6.42214286 0,6.10214286 0,5.70785714 C0,5.31357143 0.319285714,4.99357143 0.713571429,4.99357143 L7.13357143,4.99357143 L7.13357143,6.42214286 L7.13357143,6.42214286 Z" id="Fill-328" fill="#98A6AF"></path>
                                    <path d="M9.11285714,0.182857143 C9.66,0.0607142857 10.1821429,0 10.705,0 C11.2271429,0 11.75,0.0607142857 12.2971429,0.182857143 C12.8842857,0.323571429 13.6014286,1.08857143 13.7878571,1.79 C14.1064286,3.08071429 14.2814286,4.39428571 14.28,5.70785714 C14.2814286,7.02142857 14.1064286,8.335 13.7878571,9.62571429 C13.6014286,10.3271429 12.8842857,11.0914286 12.2971429,11.2328571 C11.75,11.355 11.2271429,11.4157143 10.705,11.4157143 C10.1821429,11.4157143 9.66,11.355 9.11285714,11.2328571 C8.52571429,11.0914286 7.80857143,10.3271429 7.62214286,9.62571429 C7.30357143,8.335 7.12857143,7.02142857 7.13,5.70785714 C7.12857143,4.39428571 7.30357143,3.08071429 7.62214286,1.79 C7.80857143,1.08857143 8.52571429,0.323571429 9.11285714,0.182857143" id="Fill-329" fill="#ED7161"></path>
                                    <path d="M16.2557143,0.182857143 C16.8028571,0.0607142857 17.325,0 17.8478571,0 C18.37,0 18.8928571,0.0607142857 19.44,0.182857143 C20.0264286,0.323571429 20.7442857,1.08857143 20.9307143,1.79 C21.2492857,3.08071429 21.4242857,4.39428571 21.4228571,5.70785714 C21.4242857,7.02142857 21.2492857,8.335 20.9307143,9.62571429 C20.7442857,10.3271429 20.0264286,11.0914286 19.44,11.2328571 C18.8928571,11.355 18.37,11.4157143 17.8478571,11.4157143 C17.325,11.4157143 16.8028571,11.355 16.2557143,11.2328571 C15.6685714,11.0914286 14.9514286,10.3271429 14.765,9.62571429 C14.4464286,8.335 14.2714286,7.02142857 14.2728571,5.70785714 C14.2714286,4.39428571 14.4464286,3.08071429 14.765,1.79 C14.9514286,1.08857143 15.6685714,0.323571429 16.2557143,0.182857143" id="Fill-330" fill="#ED7161"></path>
                                    <path d="M23.3985714,0.182857143 C23.9457143,0.0607142857 24.4678571,0 24.9907143,0 C25.5128571,0 26.0357143,0.0607142857 26.5828571,0.182857143 C27.1692857,0.323571429 27.8871429,1.08857143 28.0735714,1.79 C28.3921429,3.08071429 28.5671429,4.39428571 28.5657143,5.70785714 C28.5671429,7.02142857 28.3921429,8.335 28.0735714,9.62571429 C27.8871429,10.3271429 27.1692857,11.0914286 26.5828571,11.2328571 C26.0357143,11.355 25.5128571,11.4157143 24.9907143,11.4157143 C24.4678571,11.4157143 23.9457143,11.355 23.3985714,11.2328571 C22.8114286,11.0914286 22.0942857,10.3271429 21.9078571,9.62571429 C21.5892857,8.335 21.4142857,7.02142857 21.4157143,5.70785714 C21.4142857,4.39428571 21.5892857,3.08071429 21.9078571,1.79 C22.0942857,1.08857143 22.8114286,0.323571429 23.3985714,0.182857143" id="Fill-331" fill="#ED7161"></path>
                                </g>
                            </g>
                        </g>
                    </g>
                </g>
            </g>
        </g>
    </g>
</svg>