<?xml version="1.0" encoding="UTF-8"?>
<svg width="20px" height="20px" viewBox="0 0 20 20" version="1.1" xmlns="http://www.w3.org/2000/svg" xmlns:xlink="http://www.w3.org/1999/xlink">
    <!-- Generator: Sketch 57.1 (83088) - https://sketch.com -->
    <title>menu</title>
    <desc>Created with Sketch.</desc>
    <g id="Symbols" stroke="none" stroke-width="1" fill="none" fill-rule="evenodd">
        <g id="ico/more" transform="translate(-5.000000, -5.000000)" fill-rule="nonzero">
            <g id="menu" transform="translate(5.000000, 5.000000)">
                <path d="M20,12.9354839 C20,16.8387097 16.8387097,20 12.9354839,20 L7.06451613,20 C3.16129032,20 0,16.8387097 0,12.9354839 L0,7.06451613 C0,3.16129032 3.16129032,0 7.06451613,0 L12.9354839,0 C16.8387097,0 20,3.16129032 20,7.06451613 L20,12.9354839 Z" id="Path" fill="#00A6F9"></path>
                <path d="M0,7.06451613 C0,3.16129032 3.16129032,0 7.06451613,0 L12.9354839,0 C16.8387097,0 20,3.16129032 20,7.06451613 L20,12.9354839 C20,16.8387097 16.8387097,20 12.9354839,20" id="Path" fill="#0097F4"></path>
                <g id="Group" transform="translate(6.250000, 0.000000)" fill="#008BF2">
                    <path d="M6.68548387,0 C10.5887097,0 13.75,3.16129032 13.75,7.06451613 L13.75,12.9354839 C13.75,16.8387097 10.5887097,20 6.68548387,20" id="Path"></path>
                    <path d="M0.491935484,7.74193548 L7.00806452,7.74193548 C7.26612903,7.74193548 7.49193548,7.51612903 7.49193548,7.25806452 C7.49193548,7 7.26612903,6.77419355 7.00806452,6.77419355 L0.491935484,6.77419355 C0.233870968,6.77419355 0.00806451613,7 0.00806451613,7.25806452 C0.0403225806,7.51612903 0.233870968,7.74193548 0.491935484,7.74193548 Z" id="Path"></path>
                    <path d="M7.00806452,10 L0.491935484,10 C0.233870968,10 0.00806451613,10.2258065 0.00806451613,10.483871 C0.00806451613,10.7419355 0.233870968,10.9677419 0.491935484,10.9677419 L7.00806452,10.9677419 C7.26612903,10.9677419 7.49193548,10.7419355 7.49193548,10.483871 C7.49193548,10.2258065 7.26612903,10 7.00806452,10 Z" id="Path"></path>
                    <path d="M7.00806452,13.5483871 L0.491935484,13.5483871 C0.233870968,13.5483871 0.00806451613,13.7741935 0.00806451613,14.0322581 C0.00806451613,14.2903226 0.233870968,14.516129 0.491935484,14.516129 L7.00806452,14.516129 C7.26612903,14.516129 7.49193548,14.2903226 7.49193548,14.0322581 C7.45967742,13.7741935 7.26612903,13.5483871 7.00806452,13.5483871 Z" id="Path"></path>
                </g>
                <g id="Group" transform="translate(6.250000, 6.129032)" fill="#FFFFFF">
                    <path d="M0.491935484,0.967741935 L7.00806452,0.967741935 C7.26612903,0.967741935 7.49193548,0.741935484 7.49193548,0.483870968 C7.49193548,0.225806452 7.26612903,0 7.00806452,0 L0.491935484,0 C0.233870968,0 0.00806451613,0.225806452 0.00806451613,0.483870968 C0.0403225806,0.741935484 0.233870968,0.967741935 0.491935484,0.967741935 Z" id="Path"></path>
                    <path d="M0.491935484,4.19354839 L7.00806452,4.19354839 C7.26612903,4.19354839 7.49193548,3.96774194 7.49193548,3.70967742 C7.49193548,3.4516129 7.26612903,3.22580645 7.00806452,3.22580645 L0.491935484,3.22580645 C0.233870968,3.22580645 0.00806451613,3.4516129 0.00806451613,3.70967742 C0.0403225806,3.96774194 0.233870968,4.19354839 0.491935484,4.19354839 Z" id="Path"></path>
                    <path d="M7.00806452,6.77419355 L0.491935484,6.77419355 C0.233870968,6.77419355 0.00806451613,7 0.00806451613,7.25806452 C0.00806451613,7.51612903 0.233870968,7.74193548 0.491935484,7.74193548 L7.00806452,7.74193548 C7.26612903,7.74193548 7.49193548,7.51612903 7.49193548,7.25806452 C7.45967742,7 7.26612903,6.77419355 7.00806452,6.77419355 Z" id="Path"></path>
                </g>
            </g>
        </g>
    </g>
</svg>