<svg width="30" height="30" viewBox="0 0 30 30" fill="none" xmlns="http://www.w3.org/2000/svg">
<path d="M5 9.71429L10.7143 4V9.71429H5Z" fill="#CBE1F0"/>
<path opacity="0.5" d="M5 9.71429L10.7143 4V9.71429H5Z" fill="white"/>
<path d="M10.7143 4V9.71429H5V23.2857H19.2857V4H10.7143Z" fill="#CBE1F0"/>
<path opacity="0.12" fill-rule="evenodd" clip-rule="evenodd" d="M5 9.71429V15.4286L10.7143 9.71429H5ZM19.2857 23.2857H7.6325L15.2446 15.6732L19.2857 19.7147V23.2857Z" fill="#000064"/>
<path d="M19.2857 25.4286C22.4416 25.4286 25 22.8702 25 19.7143C25 16.5584 22.4416 14 19.2857 14C16.1298 14 13.5714 16.5584 13.5714 19.7143C13.5714 22.8702 16.1298 25.4286 19.2857 25.4286Z" fill="#49BCFF"/>
<path d="M21.6839 19.1025L19.5386 16.9597L19.2857 16.7054L19.0336 16.9575L16.8882 19.1004C16.7483 19.2397 16.7478 19.4662 16.8871 19.6061C17.0265 19.746 17.2529 19.7465 17.3929 19.6072L18.9286 18.0715V22.9286C18.9286 23.1258 19.0885 23.2857 19.2857 23.2857C19.483 23.2857 19.6429 23.1258 19.6429 22.9286V18.0715L21.1786 19.6072C21.2682 19.7 21.401 19.7372 21.5259 19.7046C21.6508 19.6719 21.7483 19.5744 21.781 19.4495C21.8137 19.3246 21.7764 19.1918 21.6836 19.1022L21.6839 19.1025Z" fill="white"/>
</svg>
