<svg width="10" height="10" viewBox="0 0 10 10" fill="none" xmlns="http://www.w3.org/2000/svg">
<path d="M9.94685 0.283545C9.86643 0.099401 9.72725 0.00731666 9.52864 0.00721741H0.460646C0.262309 0.00721741 0.122929 0.099401 0.0426313 0.283545C-0.0376169 0.477118 -0.00458959 0.642528 0.141862 0.779451L3.63459 4.27208V7.71513C3.63459 7.83809 3.67948 7.94422 3.76918 8.03409L5.58271 9.84756C5.66779 9.93724 5.77402 9.98225 5.90159 9.98225C5.95821 9.98225 6.01722 9.97037 6.07864 9.94677C6.2629 9.86642 6.35506 9.72714 6.35506 9.52878V4.27211L9.84767 0.779475C9.99417 0.642552 10.0271 0.477193 9.94685 0.283545Z" fill="#227BFF"/>
</svg>
