<svg width="24" height="24" viewBox="0 0 24 24" fill="none" xmlns="http://www.w3.org/2000/svg">
<path fill-rule="evenodd" clip-rule="evenodd" d="M19.144 18.5785H4.65844C4.29465 18.5785 4 18.312 4 17.9836V10.0728C4 9.74442 4.29465 9.47791 4.65844 9.47791H19.144C19.5075 9.47791 19.8025 9.74442 19.8025 10.0728V17.9836C19.8025 18.312 19.5075 18.5785 19.144 18.5785Z" fill="#E6E6E6"/>
<path fill-rule="evenodd" clip-rule="evenodd" d="M5.58423 15.0734C5.58423 15.234 5.71447 15.3643 5.87514 15.3643H17.9271C18.0877 15.3643 18.218 15.234 18.218 15.0734C18.218 14.9127 18.0877 14.7825 17.9271 14.7825H5.87514C5.71447 14.7825 5.58423 14.9127 5.58423 15.0734Z" fill="#334A5E"/>
<path fill-rule="evenodd" clip-rule="evenodd" d="M14.697 5.25995H7.58983C7.22605 5.25995 6.9314 5.59549 6.9314 6.00892V9.47813H16.8712V7.73304L14.697 5.25995Z" fill="#F6F6F6" stroke="#979797" stroke-width="0.2"/>
<path fill-rule="evenodd" clip-rule="evenodd" d="M14.7116 6.81622C14.7116 7.17968 14.9617 7.45901 15.3252 7.45901L16.8474 7.76132L14.6667 5.28485L14.7116 6.81622Z" fill="#FFE2E2"/>
<path fill-rule="evenodd" clip-rule="evenodd" d="M7.80176 6.98644H14.6866V6.74402H7.80176V6.98644Z" fill="#424242"/>
<path fill-rule="evenodd" clip-rule="evenodd" d="M7.80176 8.60656H16.0006V8.36414H7.80176V8.60656Z" fill="#424242"/>
<path fill-rule="evenodd" clip-rule="evenodd" d="M19.144 13.083H4.65844C4.29465 13.083 4 12.8598 4 12.5848V9.88931C4 9.61405 4.29465 9.39111 4.65844 9.39111H19.144C19.5075 9.39111 19.8025 9.61405 19.8025 9.88931V12.5848C19.8025 12.8598 19.5075 13.083 19.144 13.083Z" fill="#E6E6E6"/>
<path fill-rule="evenodd" clip-rule="evenodd" d="M4 13.1044H19.8025V10.3788H4V13.1044Z" fill="black"/>
<path fill-rule="evenodd" clip-rule="evenodd" d="M18.0275 11.6292C18.0275 11.9571 17.7615 12.223 17.4334 12.223C17.1056 12.223 16.8396 11.9571 16.8396 11.6292C16.8396 11.3011 17.1056 11.0352 17.4334 11.0352C17.7615 11.0352 18.0275 11.3011 18.0275 11.6292Z" fill="white"/>
<path fill-rule="evenodd" clip-rule="evenodd" d="M5.84462 11.6284C5.84462 11.9557 5.57894 12.2213 5.2517 12.2213C4.92413 12.2213 4.65845 11.9557 4.65845 11.6284C4.65845 11.3008 4.92413 11.0352 5.2517 11.0352C5.57894 11.0352 5.84462 11.3008 5.84462 11.6284Z" fill="#FF5C5C"/>
<path fill-rule="evenodd" clip-rule="evenodd" d="M7.49062 11.6305C7.49062 11.9577 7.22494 12.2234 6.89769 12.2234C6.57012 12.2234 6.30444 11.9577 6.30444 11.6305C6.30444 11.3029 6.57012 11.0372 6.89769 11.0372C7.22494 11.0372 7.49062 11.3029 7.49062 11.6305Z" fill="#61DC00"/>
</svg>
