<?xml version="1.0" encoding="UTF-8"?>
<svg width="24px" height="24px" viewBox="0 0 24 24" version="1.1" xmlns="http://www.w3.org/2000/svg" xmlns:xlink="http://www.w3.org/1999/xlink">
    <!-- Generator: Sketch 56.2 (81672) - https://sketch.com -->
    <title>refresh</title>
    <desc>Created with Sketch.</desc>
    <g id="2.-Order" stroke="none" stroke-width="1" fill="none" fill-rule="evenodd">
        <g id="Split-check---show-bill" transform="translate(-885.000000, -22.000000)">
            <g id="edit-order-btt-copy" transform="translate(866.000000, 14.000000)">
                <g id="-Round-/-Navigation-/-refresh" transform="translate(19.000000, 8.000000)">
                    <rect id="Rectangle" fill="#1271FF" x="0" y="0" width="24" height="24" rx="4"></rect>
                    <g stroke-width="1" transform="translate(4.000000, 3.000000)" fill="#FFFFFF" id="🔹-Icon-Color">
                        <path d="M13.65,3.35 C12.02,1.72 9.71,0.78 7.17,1.04 C3.5,1.41 0.48,4.39 0.07,8.06 C-0.48,12.91 3.27,17 8,17 C11.19,17 13.93,15.13 15.21,12.44 C15.53,11.77 15.05,11 14.31,11 C13.94,11 13.59,11.2 13.43,11.53 C12.3,13.96 9.59,15.5 6.63,14.84 C4.41,14.35 2.62,12.54 2.15,10.32 C1.31,6.44 4.26,3 8,3 C9.66,3 11.14,3.69 12.22,4.78 L10.71,6.29 C10.08,6.92 10.52,8 11.41,8 L15,8 C15.55,8 16,7.55 16,7 L16,3.41 C16,2.52 14.92,2.07 14.29,2.7 L13.65,3.35 Z"></path>
                    </g>
                </g>
            </g>
        </g>
    </g>
</svg>