<?xml version="1.0" encoding="UTF-8"?>
<svg width="26px" height="23px" viewBox="0 0 26 23" version="1.1" xmlns="http://www.w3.org/2000/svg" xmlns:xlink="http://www.w3.org/1999/xlink">
    <!-- Generator: Sketch 56.2 (81672) - https://sketch.com -->
    <title>salad</title>
    <desc>Created with Sketch.</desc>
    <g id="Order" stroke="none" stroke-width="1" fill="none" fill-rule="evenodd">
        <g transform="translate(-283.000000, -138.000000)" fill-rule="nonzero" id="Select">
            <g transform="translate(9.000000, 9.000000)">
                <g id="1" transform="translate(0.000000, 113.000000)">
                    <g id="Col-2" transform="translate(252.000000, 0.000000)">
                        <g id="Top-Title">
                            <g id="Group-11" transform="translate(22.000000, 16.000000)">
                                <g id="salad">
                                    <path d="M16.1030898,0.208457031 C15.3652383,-0.696058594 14.2068164,1.65333594 12.5651602,1.44228906 C10.9235547,1.23042969 11.2861328,-1.24114453 7.39669531,1.32721875 C4.46260547,3.26558984 7.25785938,4.71595312 6.62548047,4.93654687 C5.99386328,5.15632812 2.95978516,4.96589844 2.87889062,7.25973828 C2.79718359,9.55357812 8.85269531,13.5409727 8.85269531,13.5409727 L14.5630469,11.2277344 C14.5630469,11.2277344 16.841043,1.11221094 16.1030898,0.208457031 Z" id="Shape" fill="#8CC153"></path>
                                    <path d="M25.9743047,5.29044141 C25.5228086,3.25924219 22.3634023,4.37876562 21.6635352,4.37876562 C20.9644805,4.37876562 23.6724922,2.20395703 20.2773594,1.38434766 C15.7777852,0.296511719 16.5537734,2.39992187 14.860625,3.1029375 C13.1682383,3.80590234 11.5757383,2.06116016 10.9434102,3.1029375 C10.311793,4.14471484 14.3195,12.503918 14.3195,12.503918 L20.6931562,12.7919492 C20.6931562,12.7919492 26.4258008,7.32245313 25.9743047,5.29044141 Z" id="Shape" fill="#A0D468"></path>
                                    <path d="M9.75005078,9.74959375 C9.75005078,7.95483203 11.2052383,6.49964453 13,6.49964453 C14.7947617,6.49964453 16.2498984,7.95483203 16.2498984,9.74959375 C16.2498984,11.5451172 14.7947617,12.9998477 13,12.9998477 C11.2052383,12.9998477 9.75005078,11.5451172 9.75005078,9.74959375 Z" id="Shape" fill="#FFCE54"></path>
                                    <path d="M20.8439258,6.10766406 C20.6868086,6.36233203 20.3527695,6.44089063 20.0980508,6.28301172 C19.8441445,6.12594531 19.7655859,5.79190625 19.9227031,5.5371875 C20.080582,5.28328125 20.4138594,5.20472266 20.6685781,5.36183984 C20.9224844,5.51976953 21.0018047,5.85299609 20.8439258,6.10766406 Z" id="Shape" fill="#434A54"></path>
                                    <path d="M21.2612969,9.55042969 C20.4741875,10.8222969 18.8056172,11.2158516 17.5329375,10.4287422 C16.2610195,9.64168359 15.8682773,7.97225 16.6553867,6.70038281 C17.4424961,5.42851562 19.1118789,5.03577344 20.3837461,5.82283203 C21.6556133,6.60994141 22.0484062,8.27851172 21.2612969,9.55042969 Z" id="Shape" fill="#FC6E51"></path>
                                    <path d="M3.79925,10.6461367 C6.39142969,12.1385469 9.70323047,11.2467773 11.1956914,8.65383594 L1.80694922,3.24974609 C0.314488281,5.8426875 1.20630859,9.15448828 3.79925,10.6461367 Z" id="Shape" fill="#ED5564"></path>
                                    <path d="M5.15048828,8.29917969 C6.44622266,9.04581641 8.10209766,8.59909375 8.84873437,7.30341016 L4.15395703,4.60093359 C3.40808203,5.89742969 3.85404297,7.55335547 5.15048828,8.29917969 Z" id="Shape" fill="#DA4453"></path>
                                    <path d="M0.0003046875,8.66653125 L0.0003046875,10.833418 C0.0003046875,15.6499687 2.61944922,19.8535391 6.51127344,22.0998477 C6.50411328,22.1347852 6.50015234,22.1712461 6.50015234,22.2085703 C6.50015234,22.5077227 6.7429375,22.7496953 7.04208984,22.7496953 L7.79659766,22.7496953 L18.2041641,22.7496953 L18.9586719,22.7496953 C19.2578242,22.7496953 19.4997461,22.5076719 19.4997461,22.2085703 C19.4997461,22.1712969 19.4957852,22.1347852 19.4894375,22.0998477 C23.3805,19.8535898 25.9996445,15.6499687 25.9996445,10.833418 L25.9996445,8.66653125 L0.0003046875,8.66653125 Z" id="Shape" fill="#AC92EB"></path>
                                    <path d="M0.0003046875,9.74959375 L0.0003046875,10.833418 L1.62525391,10.833418 C1.62525391,11.1325703 1.86803906,11.374543 2.16719141,11.374543 C2.46634375,11.374543 2.70912891,11.1325195 2.70912891,10.833418 L3.79214062,10.833418 C3.79214062,11.1325703 4.03492578,11.374543 4.33407812,11.374543 C4.63323047,11.374543 4.87520312,11.1325195 4.87520312,10.833418 L5.95902734,10.833418 C5.95902734,11.1325703 6.20105078,11.374543 6.50015234,11.374543 C6.79925391,11.374543 7.04208984,11.1325195 7.04208984,10.833418 L8.12510156,10.833418 C8.12510156,11.1325703 8.36788672,11.374543 8.66703906,11.374543 C8.96619141,11.374543 9.20897656,11.1325195 9.20897656,10.833418 L10.2919883,10.833418 C10.2919883,11.1325703 10.5347734,11.374543 10.8339258,11.374543 C11.1330781,11.374543 11.375,11.1325195 11.375,10.8333672 L12.458875,10.8333672 C12.458875,11.1325195 12.7008984,11.3744922 13,11.3744922 C13.2991016,11.3744922 13.5419375,11.1324687 13.5419375,10.8333672 L14.6249492,10.8333672 C14.6249492,11.1325195 14.8677344,11.3744922 15.1668867,11.3744922 C15.4659883,11.3744922 15.7087734,11.1324687 15.7087734,10.8333672 L16.7918359,10.8333672 C16.7918359,11.1325195 17.0346211,11.3744922 17.3337734,11.3744922 C17.6329258,11.3744922 17.8748984,11.1324687 17.8748984,10.8333672 L18.9587227,10.8333672 C18.9587227,11.1325195 19.2007461,11.3744922 19.4997969,11.3744922 C19.7989492,11.3744922 20.0417344,11.1324687 20.0417344,10.8333672 L21.1247969,10.8333672 C21.1247969,11.1325195 21.367582,11.3744922 21.6667344,11.3744922 C21.9658867,11.3744922 22.2086719,11.1324687 22.2086719,10.8333672 L23.2916836,10.8333672 C23.2916836,11.1325195 23.5344688,11.3744922 23.8335703,11.3744922 C24.1327227,11.3744922 24.3746953,11.1324687 24.3746953,10.8333672 L25.9996953,10.8333672 L25.9996953,9.74954297 L0.0003046875,9.74954297 L0.0003046875,9.74959375 Z" id="Shape" fill="#967ADC"></path>
                                </g>
                            </g>
                        </g>
                    </g>
                </g>
            </g>
        </g>
    </g>
</svg>