<?xml version="1.0" encoding="UTF-8"?>
<svg width="26px" height="20px" viewBox="0 0 26 20" version="1.1" xmlns="http://www.w3.org/2000/svg" xmlns:xlink="http://www.w3.org/1999/xlink">
    <!-- Generator: Sketch 56.2 (81672) - https://sketch.com -->
    <title>Group</title>
    <desc>Created with Sketch.</desc>
    <g id="Order" stroke="none" stroke-width="1" fill="none" fill-rule="evenodd">
        <g transform="translate(-58.000000, -426.000000)" id="Select">
            <g transform="translate(9.000000, 9.000000)">
                <g id="2" transform="translate(0.000000, 408.000000)">
                    <g id="Col-1">
                        <g id="Top-Title">
                            <g id="Group-15" transform="translate(34.000000, 9.000000)">
                                <g id="Group" transform="translate(15.000000, 0.000000)">
                                    <path d="M13.0152273,0.8375 C5.86227273,0.8375 0.0634090909,3.58454545 0.0634090909,6.97386364 C0.0634090909,14.1281818 5.86227273,19.9284091 13.0152273,19.9284091 C20.1681818,19.9284091 25.9670455,14.1281818 25.9670455,6.97386364 C25.9670455,3.58454545 20.1681818,0.8375 13.0152273,0.8375" id="Fill-303" fill="#48A0DC"></path>
                                    <path d="M13.0152273,11.7465909 C7.74477273,11.7465909 3.47181818,10.22 3.47181818,8.3375 C3.47181818,6.455 7.74477273,4.92840909 13.0152273,4.92840909 C18.2856818,4.92840909 22.5586364,6.455 22.5586364,8.3375 C22.5586364,10.22 18.2856818,11.7465909 13.0152273,11.7465909" id="Fill-304" fill="#EEAF4B"></path>
                                    <path d="M17.4456818,7.65568182 C16.1284091,7.65568182 15.06,8.26659091 15.06,9.01931818 C15.06,9.77272727 16.1284091,10.3829545 17.4456818,10.3829545 C18.7636364,10.3829545 19.8320455,9.77272727 19.8320455,9.01931818 C19.8320455,8.26659091 18.7636364,7.65568182 17.4456818,7.65568182" id="Fill-305" fill="#FAD188"></path>
                                    <path d="M11.6515909,6.97386364 C10.5225,6.97386364 9.60681818,7.43136364 9.60681818,7.99659091 C9.60681818,8.56113636 10.5225,9.01931818 11.6515909,9.01931818 C12.7813636,9.01931818 13.6970455,8.56113636 13.6970455,7.99659091 C13.6970455,7.43136364 12.7813636,6.97386364 11.6515909,6.97386364" id="Fill-306" fill="#FAD188"></path>
                                </g>
                            </g>
                        </g>
                    </g>
                </g>
            </g>
        </g>
    </g>
</svg>