<?xml version="1.0" encoding="UTF-8"?>
<svg width="19px" height="20px" viewBox="0 0 19 20" version="1.1" xmlns="http://www.w3.org/2000/svg" xmlns:xlink="http://www.w3.org/1999/xlink">
    <!-- Generator: Sketch 56.2 (81672) - https://sketch.com -->
    <title>spaghetti copy</title>
    <desc>Created with Sketch.</desc>
    <g id="2.-Order" stroke="none" stroke-width="1" fill="none" fill-rule="evenodd">
        <g id="Order-case-1---default" transform="translate(-359.000000, -321.000000)">
            <g id="menu" transform="translate(6.000000, 99.000000)">
                <g id="spaghetti" transform="translate(353.000000, 222.000000)">
                    <g>
                        <g id="Group-2" transform="translate(5.097854, 0.000000)" fill-rule="nonzero">
                            <path d="M2.63995987,17.7455357 C1.9834353,17.7455357 1.36626271,16.961972 0.90210363,15.539893 C0.43792809,14.1161996 0.182066198,12.2243153 0.182066198,10.2122049 C0.182066198,8.19969093 0.43792809,6.30780669 0.90210363,4.88497089 C1.36626271,3.46208465 1.9834353,2.67857143 2.63995987,2.67857143 C3.29648443,2.67857143 3.91365702,3.4621351 4.37783256,4.88497089 C4.84199164,6.30780669 5.09785354,8.19969093 5.09785354,10.2122049 C5.09785354,12.2243153 4.84199164,14.1161996 4.37783256,15.539893 C3.91365702,16.961972 3.29648443,17.7455357 2.63995987,17.7455357 Z" id="Shape" fill="#FFCE54"></path>
                            <path d="M2.63995987,2.23214286 C1.18179108,2.23214286 0,5.85505808 0,10.3234331 C0,14.7914542 1.18179108,18.4151786 2.63995987,18.4151786 C4.09812865,18.4151786 5.27991973,14.7914542 5.27991973,10.3234331 C5.27991973,5.85505808 4.09812865,2.23214286 2.63995987,2.23214286 Z M4.25796572,15.2813435 C4.04758866,15.9260837 3.80266026,16.431802 3.53042409,16.7858048 C3.24863433,17.1508829 2.94880989,17.3357735 2.63994337,17.3357735 C2.33107684,17.3357735 2.0312524,17.1508829 1.74946264,16.7858048 C1.47722647,16.431802 1.23229807,15.9260837 1.02192101,15.2813435 C0.811824454,14.6381204 0.646822838,13.8874828 0.531569208,13.0530476 C0.412454541,12.1885728 0.35212995,11.2708458 0.35212995,10.3233826 C0.35212995,9.3760205 0.412454541,8.45778781 0.531569208,7.5941727 C0.646806337,6.75897895 0.811807954,6.00909987 1.02192101,5.36511821 C1.23229807,4.72032739 1.47722647,4.21460911 1.74946264,3.86141546 C2.0312524,3.49633743 2.33107684,3.31068825 2.63994337,3.31068825 C2.94880989,3.31068825 3.24863433,3.49633743 3.53042409,3.86141546 C3.80266026,4.21460911 4.04758866,4.72032739 4.25796572,5.36511821 C4.46807878,6.00909987 4.6330804,6.75897895 4.74831752,7.5941727 C4.86743219,8.45783839 4.92775678,9.3760205 4.92775678,10.3233826 C4.92775678,11.2707952 4.86743219,12.1885728 4.74831752,13.0530476 C4.6330969,13.8874828 4.46809528,14.6381204 4.25796572,15.2813435 Z" id="Shape" fill="#F6BB42"></path>
                            <path d="M2.62174502,4.35267857 C1.55580621,4.35267857 0.691851551,7.00117569 0.691851551,10.2680588 C0.691851551,13.534589 1.55580621,16.1830357 2.62174502,16.1830357 C3.68768383,16.1830357 4.55165494,13.534589 4.55165494,10.2680588 C4.55165494,7.00117569 3.68766739,4.35267857 2.62174502,4.35267857 Z M3.73804418,13.6905846 C3.43996091,14.6043741 3.04344305,15.1085617 2.62174502,15.1085617 C2.20004699,15.1085617 1.80352914,14.6043741 1.50544586,13.6905846 C1.20708299,12.7767447 1.04287733,11.5608461 1.04287733,10.2680588 C1.04287733,8.97532198 1.20708299,7.75977625 1.50544586,6.84598677 C1.80352914,5.93139058 2.20004699,5.42800974 2.62174502,5.42800974 C3.04344305,5.42800974 3.43996091,5.93139058 3.73804418,6.84598677 C4.03640705,7.75977625 4.20061271,8.97532198 4.20061271,10.2680588 C4.20061271,11.5607957 4.03640705,12.7767447 3.73804418,13.6905846 Z" id="Shape" fill="#F6BB42"></path>
                            <path d="M2.65816649,6.47321429 C1.97436493,6.47321429 1.42011634,8.17252352 1.42011634,10.268035 C1.42011634,12.3631908 1.97436493,14.0625 2.65816649,14.0625 C3.34196805,14.0625 3.89621663,12.3631399 3.89621663,10.268035 C3.89621663,8.1724727 3.34196805,6.47321429 2.65816649,6.47321429 Z M2.65816649,12.9777718 C2.17051861,12.9777718 1.7735346,11.7624331 1.7735346,10.268035 C1.7735346,8.77363695 2.17051861,7.55789165 2.65816649,7.55789165 C3.14581436,7.55789165 3.54279837,8.77358613 3.54279837,10.268035 C3.54279837,11.7624839 3.14581436,12.9777718 2.65816649,12.9777718 Z" id="Shape" fill="#F6BB42"></path>
                            <path d="M5.80791994,15.625 C5.15138111,15.625 4.53422704,14.8414363 4.07005306,13.4193573 C3.60589553,11.9956638 3.35001804,10.1041832 3.35001804,8.09166921 C3.35001804,6.07915521 3.60589553,4.18727097 4.07005306,2.76443518 C4.53422704,1.34159939 5.15138111,0.558035714 5.80791994,0.558035714 C6.46442584,0.558035714 7.08161283,1.34159939 7.54577035,2.76443518 C8.00992788,4.18727097 8.26580538,6.07915521 8.26580538,8.09166921 C8.26580538,10.1041832 8.00992788,11.9956638 7.54577035,13.4193573 C7.08161283,14.8414363 6.46442584,15.625 5.80791994,15.625 Z" id="Shape" fill="#FFCE54"></path>
                            <path d="M5.80791996,0 C4.34975573,0 3.16795184,3.62292655 3.16795184,8.09131557 C3.16795184,12.5593506 4.34975573,16.1830357 5.80791996,16.1830357 C7.26608419,16.1830357 8.44787157,12.5593506 8.44787157,8.09131557 C8.44787157,3.62292655 7.26608419,0 5.80791996,0 Z M7.42592075,13.0492414 C7.21556085,13.6940342 6.97063322,14.1997035 6.6983814,14.5537074 C6.41659252,14.9187866 6.11676902,15.1036778 5.80791996,15.1036778 C5.4990544,15.1036778 5.19921439,14.9187866 4.91744201,14.5537074 C4.6452067,14.1997035 4.40027906,13.6940342 4.18990266,13.0492414 C3.97979026,12.4060163 3.81478916,11.6557303 3.69953589,10.8205845 C3.58043809,9.95691616 3.52011369,9.03878174 3.52011369,8.09131557 C3.52011369,7.14395054 3.58043809,6.22571498 3.69953589,5.36209717 C3.81477266,4.52685024 3.97977376,3.77701939 4.18990266,3.13303571 C4.40027906,2.48824289 4.6452067,1.98252302 4.91744201,1.62932826 C5.19921439,1.26429967 5.4990544,1.07859933 5.80791996,1.07859933 C6.11676902,1.07859933 6.41659252,1.26429967 6.6983814,1.62932826 C6.97063322,1.98252302 7.21556085,2.48824289 7.42592075,3.13303571 C7.63603316,3.77701939 7.80101776,4.52690081 7.91627103,5.36209717 C8.03538532,6.22571498 8.09570972,7.14389997 8.09570972,8.09131557 C8.09570972,9.03873117 8.03538532,9.95691616 7.91627103,10.8205845 C7.80101776,11.6557303 7.63603316,12.4060163 7.42592075,13.0492414 Z" id="Shape" fill="#F6BB42"></path>
                            <path d="M5.78972153,2.12053571 C4.72376174,2.12053571 3.85980339,4.76902154 3.85980339,8.03589075 C3.85980339,11.3028104 4.72376174,13.9508929 5.78972153,13.9508929 C6.85566488,13.9508929 7.71960678,11.3028104 7.71960678,8.03589075 C7.71960678,4.76902154 6.85566488,2.12053571 5.78972153,2.12053571 Z M6.90602545,11.4587549 C6.60792446,12.3721372 6.21142136,12.8763225 5.78972153,12.8763225 C5.36800526,12.8763225 4.97150216,12.3721372 4.67340117,11.4587549 C4.37505348,10.5441626 4.21084712,9.32862208 4.21084712,8.03589075 C4.21084712,6.74315942 4.37505348,5.52761888 4.67340117,4.61383328 C4.97150216,3.69924099 5.36800526,3.1958623 5.78972153,3.1958623 C6.21142136,3.1958623 6.60792446,3.69924099 6.90602545,4.61383328 C7.20438959,5.52766929 7.3685795,6.74315942 7.3685795,8.03589075 C7.3685795,9.32862208 7.20438959,10.5441626 6.90602545,11.4587549 Z" id="Shape" fill="#F6BB42"></path>
                            <path d="M5.82611833,4.35267857 C5.14230018,4.35267857 4.58806818,6.05199919 4.58806818,8.14752471 C4.58806818,10.2430502 5.14230018,11.9419643 5.82611833,11.9419643 C6.5099033,11.9419643 7.06416847,10.2430502 7.06416847,8.14752471 C7.06416847,6.05199919 6.5099033,4.35267857 5.82611833,4.35267857 Z M5.82611833,10.8576862 C5.33845387,10.8576862 4.94148644,9.64198361 4.94148644,8.14752471 C4.94148644,6.65311664 5.33845387,5.43741402 5.82611833,5.43741402 C6.3137662,5.43741402 6.71073363,6.65311664 6.71073363,8.14752471 C6.71073363,9.64198361 6.3137662,10.8576862 5.82611833,10.8576862 Z" id="Shape" fill="#F6BB42"></path>
                            <path d="M5.80792821,6.47321429 C5.51633553,6.47321429 5.27991973,7.19782103 5.27991973,8.09149257 C5.27991973,8.98521468 5.51633553,9.70982143 5.80792821,9.70982143 C6.09950439,9.70982143 6.33590368,8.98521468 6.33590368,8.09149257 C6.33590368,7.19782103 6.09950439,6.47321429 5.80792821,6.47321429 Z M5.80792821,8.63120524 C5.71098915,8.63120524 5.63210138,8.3894168 5.63210138,8.09149257 C5.63210138,7.79437751 5.71098915,7.55183047 5.80792821,7.55183047 C5.90486726,7.55183047 5.98375503,7.79442808 5.98375503,8.09149257 C5.98375503,8.38936623 5.90486726,8.63120524 5.80792821,8.63120524 Z" id="Shape" fill="#F6BB42"></path>
                        </g>
                        <g id="Group" transform="translate(0.000000, 8.370536)" fill-rule="nonzero">
                            <path d="M0,0 L0,1.65369321 C0,5.4203592 1.97317046,8.6974396 4.87879659,10.3771758 C4.74963581,10.4437948 4.66089466,10.5842799 4.66089466,10.7477463 C4.66089466,10.9766304 4.83499044,11.1607143 5.04892324,11.1607143 L13.5946554,11.1607143 C13.8085882,11.1607143 13.9826476,10.9766304 13.9826476,10.7477463 C13.9826476,10.5842411 13.8939064,10.4437561 13.7647821,10.3771758 C16.6704446,8.6974396 18.6435786,5.4203592 18.6435786,1.65369321 L18.6435786,0 L0,0 Z" id="Shape" fill="#21A1E2"></path>
                            <path d="M0,0.892857143 L0,1.71113048 L1.16521001,1.71113048 C1.16521001,1.9371455 1.33930511,2.12053571 1.55323707,2.12053571 C1.76829786,2.12053571 1.94242937,1.93710713 1.94242937,1.71113048 L2.71844708,1.71113048 C2.71844708,1.9371455 2.89254218,2.12053571 3.10763938,2.12053571 C3.32157135,2.12053571 3.49566644,1.93710713 3.49566644,1.71113048 L4.27284939,1.71113048 C4.27284939,1.9371455 4.44639828,2.12053571 4.66087645,2.12053571 C4.87535462,2.12053571 5.04890351,1.93710713 5.04890351,1.71113048 L5.82608646,1.71113048 C5.82608646,1.9371455 6.00018156,2.12053571 6.21411352,2.12053571 C6.42917432,2.12053571 6.60330583,1.93710713 6.60330583,1.71113048 L7.37935995,1.71113048 C7.37935995,1.9371455 7.55345505,2.12053571 7.76855225,2.12053571 C7.98248421,2.12053571 8.1565429,1.93710713 8.1565429,1.71113048 L8.93376226,1.71113048 C8.93376226,1.9371455 9.10731115,2.12053571 9.32178932,2.12053571 C9.53626749,2.12053571 9.70981638,1.93710713 9.70981638,1.71113048 L10.4869993,1.71113048 C10.4869993,1.9371455 10.6610944,2.12053571 10.8750264,2.12053571 C11.0900508,2.12053571 11.2641823,1.93710713 11.2641823,1.71113048 L12.0402364,1.71113048 C12.0402364,1.9371455 12.2143315,2.12053571 12.4294287,2.12053571 C12.6433607,2.12053571 12.8174558,1.93710713 12.8174558,1.71113048 L13.5946387,1.71113048 C13.5946387,1.9371455 13.7681876,2.12053571 13.9826294,2.12053571 C14.1971439,2.12053571 14.3706564,1.93710713 14.3706564,1.71113048 L15.1478758,1.71113048 C15.1478758,1.9371455 15.3219709,2.12053571 15.5359028,2.12053571 C15.7509636,2.12053571 15.9250952,1.93710713 15.9250952,1.71113048 L16.7011493,1.71113048 C16.7011493,1.9371455 16.8752444,2.12053571 17.0903052,2.12053571 C17.3042371,2.12053571 17.4783322,1.93710713 17.4783322,1.71113048 L18.6435786,1.71113048 L18.6435786,0.892857143 L0,0.892857143 Z" id="Shape" fill="#FFFFFF" opacity="0.119999997"></path>
                        </g>
                    </g>
                </g>
            </g>
        </g>
    </g>
</svg>