<svg width="10" height="10" viewBox="0 0 10 10" fill="none" xmlns="http://www.w3.org/2000/svg">
<path fill-rule="evenodd" clip-rule="evenodd" d="M7.14715 6.28949H6.69545L6.53535 6.13511C7.09569 5.48329 7.43303 4.63707 7.43303 3.71652C7.43303 1.66386 5.76918 0 3.71652 0C1.66386 0 0 1.66386 0 3.71652C0 5.76918 1.66386 7.43275 3.71652 7.43275C4.63707 7.43275 5.48329 7.09569 6.13511 6.53506L6.28949 6.69545V7.14715L9.14835 10L10.0003 9.14806L7.14715 6.28949ZM3.71652 6.28949C2.2928 6.28949 1.14354 5.14023 1.14354 3.71652C1.14354 2.2928 2.2928 1.14354 3.71652 1.14354C5.14023 1.14354 6.28949 2.2928 6.28949 3.71652C6.28949 5.14023 5.14023 6.28949 3.71652 6.28949Z" fill="#227BFF"/>
</svg>
