<?xml version="1.0" encoding="UTF-8"?>
<svg width="14px" height="16px" viewBox="0 0 14 16" version="1.1" xmlns="http://www.w3.org/2000/svg" xmlns:xlink="http://www.w3.org/1999/xlink">
    <!-- Generator: Sketch 56.2 (81672) - https://sketch.com -->
    <title>New delivery</title>
    <desc>Created with Sketch.</desc>
    <g id="1.-Home" stroke="none" stroke-width="1" fill="none" fill-rule="evenodd">
        <g id="Home-resv-table" transform="translate(-790.000000, -296.000000)" fill="#FFFFFF">
            <g id="Group-6-Copy-2" transform="translate(143.000000, 265.000000)">
                <g id="delete-copy-7" transform="translate(647.000000, 31.333333)">
                    <g id="delete" transform="translate(0.000000, -0.000000)">
                        <path d="M10.889169,1.34736842 L7.65544044,1.34736842 L7.65544044,0 L3.26417175,0 L3.26417175,1.34736842 L0.0304432133,1.34736842 L0.0304432133,3.47479224 L10.889169,3.47479224 L10.889169,1.34736842 Z M4.42760665,1.06371191 L6.49200554,1.06371191 L6.49200554,1.34736842 L4.42760665,1.34736842 L4.42760665,1.06371191 Z" id="Shape" fill-rule="nonzero"></path>
                        <path d="M9.85592244,7.59880332 L10.0754238,4.53850416 L0.844227147,4.53850416 L1.58168975,14.8210526 L6.00941274,14.8210526 C5.43308587,14.0740787 5.09409972,13.1635767 5.09409972,12.1819834 C5.09409972,9.73048199 7.20744044,7.72180388 9.85592244,7.59880332 Z" id="Path" fill-rule="nonzero"></path>
                        <path d="M10.1135457,8.65652299 C7.98732964,8.65652299 6.25753463,10.2380499 6.25753463,12.1819834 C6.25753463,14.1259169 7.98732964,15.7074792 10.1135457,15.7074792 C12.2397618,15.7074792 13.9695568,14.1259524 13.9695568,12.1819834 C13.9695568,10.2380144 12.2397618,8.65652299 10.1135457,8.65652299 Z M12.214554,13.3507546 L11.3918892,14.1029053 L10.1135457,12.9341341 L8.83520222,14.1029053 L8.0125374,13.3507546 L9.29088089,12.1819834 L8.0125374,11.0132122 L8.83520222,10.2610615 L10.1135457,11.4298327 L11.3918892,10.2610615 L12.214554,11.0132122 L10.9362105,12.1819834 L12.214554,13.3507546 Z" id="Shape" fill-rule="nonzero"></path>
                    </g>
                </g>
            </g>
        </g>
    </g>
</svg>