<?xml version="1.0" encoding="UTF-8"?>
<svg width="29px" height="28px" viewBox="0 0 29 28" version="1.1" xmlns="http://www.w3.org/2000/svg" xmlns:xlink="http://www.w3.org/1999/xlink">
    <!-- Generator: Sketch 56.2 (81672) - https://sketch.com -->
    <title>fast checkout</title>
    <desc>Created with Sketch.</desc>
    <defs>
        <polygon id="path-1" points="0.3237125 0.0528088235 3.4519494 0.0528088235 3.4519494 3.01751471 0.3237125 3.01751471"></polygon>
    </defs>
    <g id="1.-Home" stroke="none" stroke-width="1" fill="none" fill-rule="evenodd">
        <g id="Home-final-2" transform="translate(-18.000000, -482.000000)">
            <g id="Main-menu" transform="translate(0.000000, 76.000000)">
                <g id="Group" transform="translate(0.000000, 221.000000)">
                    <g id="fast-checkout" transform="translate(18.000000, 185.373802)">
                        <g>
                            <g id="Avatar" transform="translate(4.142857, 0.000000)">
                                <path d="M11.7467952,11.0296324 C9.17677381,12.0200294 6.6064244,12.0200294 4.03640298,11.0296324 C3.50934524,8.61494118 3.35486845,6.20025 3.57297262,3.78555882 C3.76713452,1.63676471 5.67300417,0.0247058824 7.96293393,0.0410735294 C7.98884405,0.0410735294 8.01442619,0.0413823529 8.03968036,0.042 C10.1977637,0.0738088235 12.0065524,1.64633824 12.1994024,3.67036765 C12.4329214,6.12335294 12.2820524,8.57633824 11.7467952,11.0296324" id="Shape" fill="#40596B" fill-rule="nonzero"></path>
                                <path d="M15.7428571,12.8486029 L15.7428571,14.7663971 L0,14.7663971 L0,12.8486029 C0.305017857,12.2988971 0.944899405,11.4496324 2.11905417,11.1346324 L2.12233393,11.1377206 C2.18760119,11.1531618 2.98458333,11.3847794 3.99802976,11.6349265 C4.68710774,11.8016912 5.48081012,11.9777206 6.20858929,12.0950735 L6.21186905,12.0950735 C6.8517506,12.2000735 7.4453875,12.25875 7.87175655,12.2340441 C8.30173333,12.25875 8.8917625,12.2000735 9.53459583,12.0950735 L9.5378756,12.0950735 C10.2663107,11.9746324 11.0600131,11.7986029 11.7517149,11.6349265 C12.8045185,11.3755147 13.6244589,11.1346324 13.6244589,11.1346324 L13.6280667,11.1346324 C14.7982857,11.4527206 15.441119,12.3019853 15.7428571,12.8486029" id="Shape" fill="#DFDFDF" fill-rule="nonzero"></path>
                                <path d="M9.94882976,8.60505882 L9.86880357,8.29098529 L5.87405357,8.29098529 L5.79402738,8.60505882 L5.79009167,8.61216176 C5.7910756,8.61092647 5.79533929,8.60475 5.79533929,8.60475 C5.606425,9.40460294 5.84158393,10.7347059 6.21186905,12.0941471 C6.85339048,12.1985294 7.44473155,12.2599853 7.8724125,12.2337353 C8.30042143,12.2599853 8.89241845,12.1985294 9.53459583,12.0938382 C9.904225,10.7371765 10.1767732,9.56642647 9.99015476,8.76626471 L9.94882976,8.60505882 Z" id="Shape" fill="#F8B64C" fill-rule="nonzero"></path>
                                <path d="M7.86946071,8.76904412 C7.86585298,8.77244118 7.86191726,8.77244118 7.86191726,8.77244118 L7.86191726,8.76564706 C7.86585298,8.76564706 7.86946071,8.76904412 7.86946071,8.76904412" id="Shape" fill="#ACB3BA" fill-rule="nonzero"></path>
                                <path d="M7.88454762,8.76564706 L7.88454762,8.77275 C7.88454762,8.77275 7.88093988,8.77275 7.87733214,8.76904412 C7.87733214,8.76904412 7.88093988,8.76564706 7.88454762,8.76564706" id="Shape" fill="#ACB3BA" fill-rule="nonzero"></path>
                                <g id="Group" opacity="0.1" transform="translate(6.559524, 8.338235)">
                                    <g id="Clipped">
                                        <g>
                                            <mask id="mask-2" fill="white">
                                                <use xlink:href="#path-1"></use>
                                            </mask>
                                            <g id="SVGID_17_"></g>
                                            <path d="M0.324040476,0.799544118 L3.15480298,3.01689706 C3.15480298,3.01689706 3.67956488,1.03054412 3.3348619,0.0537352941 L0.539192857,0.654088235 L0.324040476,0.799544118 Z" id="Shape" fill="#40596B" fill-rule="nonzero" mask="url(#mask-2)"></path>
                                        </g>
                                    </g>
                                </g>
                                <path d="M5.08363095,5.04154412 C5.21350952,5.56685294 5.14529048,6.03101471 4.9301381,6.07826471 C4.71531369,6.12551471 4.43522202,5.73794118 4.30534345,5.21263235 C4.17546488,4.68701471 4.24368393,4.22285294 4.45916429,4.17560294 C4.67366071,4.12866176 4.95375238,4.51654412 5.08363095,5.04154412" id="Shape" fill="#F8B64C" fill-rule="nonzero"></path>
                                <path d="M10.6772649,5.04154412 C10.5470583,5.56685294 10.6156054,6.03101471 10.8307577,6.07826471 C11.0455821,6.12551471 11.2879565,5.72836765 11.4555524,5.21263235 C11.5559131,4.90473529 11.5099964,4.27566176 11.3017315,4.17560294 C11.1052738,4.08110294 10.8071435,4.51654412 10.6772649,5.04154412" id="Shape" fill="#F8B64C" fill-rule="nonzero"></path>
                                <path d="M10.9606363,6.56898529 C10.0570619,9.26872059 7.89209107,9.47377941 7.89209107,9.47377941 C7.89209107,9.47377941 5.72646429,9.26872059 4.82321786,6.56898529 C4.82321786,6.56898529 4.33945298,5.16075 4.74515952,3.98722059 C4.74515952,3.98722059 4.9934375,1.98480882 7.89241905,1.98480882 C10.7910726,1.98480882 11.0390226,3.98722059 11.0390226,3.98722059 C11.4440732,5.16075 10.9606363,6.56898529 10.9606363,6.56898529" id="Shape" fill="#FFD15C" fill-rule="nonzero"></path>
                                <path d="M11.1069137,4.22069118 C11.1069137,4.22069118 9.63954821,6.05510294 7.77401964,4.29851471 C6.25712976,2.87020588 4.669725,4.24817647 4.669725,4.24817647 L4.57297202,4.01594118 C4.57297202,2.30567647 6.04525714,0.919058824 7.86191726,0.919058824 C9.67857738,0.919058824 11.1511905,2.30567647 11.1511905,4.01594118 L11.1069137,4.22069118 Z" id="Shape" fill="#40596B" fill-rule="nonzero"></path>
                                <path d="M10.4952381,12.7250735 L11.0564054,14.0838971 C11.0564054,14.0838971 10.5677208,14.3278676 9.94751786,14.7663971 L8.67497024,14.7663971 C10.4165238,9.90922059 9.97375595,8.72580882 9.95079762,8.61154412 C9.95079762,8.61154412 10.5710006,9.48860294 11.1187208,10.4366912 C11.3446964,10.8227206 11.5644405,11.2334559 11.7517149,11.6349265 C11.9324298,12.0178676 12.0764113,12.3946324 12.1584054,12.7250735 L10.4952381,12.7250735 L10.4952381,12.7250735 Z" id="Shape" fill="#FF7058" fill-rule="nonzero"></path>
                                <path d="M13.6277387,11.1346324 L13.624131,11.1346324 C13.1846429,10.99875 12.5582083,10.6096324 11.9481726,10.1772794 C10.9776911,9.48891176 10.0462387,8.68875 9.95407738,8.61154412 L9.95079762,8.61154412 C9.95079762,8.61154412 10.5710006,9.48860294 11.1187208,10.4366912 C11.3446964,10.8227206 11.5644405,11.2334559 11.7517149,11.6349265 C11.9324298,12.0178676 12.0764113,12.3946324 12.1584054,12.7250735 L10.4952381,12.7250735 L11.0560774,14.0838971 C11.0560774,14.0838971 10.5677208,14.3278676 9.94751786,14.7663971 L13.2207202,14.7663971 C12.6303631,13.2071471 13.6277387,11.1346324 13.6277387,11.1346324" id="Shape" fill="#F1543F" fill-rule="nonzero"></path>
                                <path d="M5.25089881,12.7250735 L4.6903875,14.0838971 C4.6903875,14.0838971 5.17874405,14.3278676 5.79861905,14.7663971 L7.07149464,14.7663971 C5.3296131,9.90922059 5.77238095,8.72580882 5.79533929,8.61154412 C5.79533929,8.61154412 5.17546429,9.48860294 4.62774405,10.4366912 C4.40144048,10.8227206 4.18169643,11.2334559 3.99442202,11.6349265 C3.8143631,12.0178676 3.67005357,12.3946324 3.58805952,12.7250735 L5.25089881,12.7250735 L5.25089881,12.7250735 Z" id="Shape" fill="#FF7058" fill-rule="nonzero"></path>
                                <path d="M2.11905417,11.1346324 L2.12233393,11.1346324 C2.56182202,10.99875 3.18825655,10.6096324 3.79796429,10.1772794 C4.76877381,9.48891176 5.70055417,8.68875 5.79205952,8.61154412 L5.79533929,8.61154412 C5.79533929,8.61154412 5.17546429,9.48860294 4.62774405,10.4366912 C4.40144048,10.8227206 4.18169643,11.2334559 3.99442202,11.6349265 C3.8143631,12.0178676 3.6697256,12.3946324 3.58773155,12.7250735 L5.25057083,12.7250735 L4.69005952,14.0838971 C4.69005952,14.0838971 5.17841607,14.3278676 5.79829107,14.7663971 L2.52541667,14.7663971 C3.11577381,13.2071471 2.11905417,11.1346324 2.11905417,11.1346324" id="Shape" fill="#F1543F" fill-rule="nonzero"></path>
                            </g>
                            <g id="POS-Table" transform="translate(0.000000, 4.941176)" fill-rule="nonzero">
                                <polygon id="Rectangle-path" fill="#415A6B" points="21.20625 7.97825312 24.5895833 7.97825312 24.5895833 8.89661319 21.20625 8.89661319"></polygon>
                                <path d="M25.91875,10.1019608 L25.91875,10.1019608 C25.91875,9.41319073 25.3145833,8.89661319 24.65,8.89661319 L21.2666667,8.89661319 C20.5416667,8.89661319 19.9979167,9.47058824 19.9979167,10.1019608 L19.9979167,10.1019608 L25.91875,10.1019608 Z" id="Shape" fill="#415A6B"></path>
                                <polygon id="Rectangle-path" fill="#8191A8" points="0 9.92976827 29 9.92976827 29 12.397861 0 12.397861"></polygon>
                                <rect id="Rectangle-path" fill="#39475A" x="2.41666667" y="12.4552585" width="24.1666667" height="6.485918"></rect>
                                <path d="M27.4895833,0.401782531 L18.30625,0.401782531 C17.94375,0.401782531 17.7020833,0.631372549 17.7020833,0.975757576 L17.7020833,7.40427807 C17.7020833,7.7486631 17.94375,7.97825312 18.30625,7.97825312 L27.55,7.97825312 C27.9125,7.97825312 28.1541667,7.7486631 28.1541667,7.40427807 L28.1541667,0.975757576 C28.09375,0.631372549 27.8520833,0.401782531 27.4895833,0.401782531 Z" id="Shape" fill="#415A6B"></path>
                            </g>
                            <g id="104" transform="translate(0.000000, 13.176471)" fill-rule="nonzero">
                                <path d="M5.10952381,5.74164706 C5.10952381,5.74164706 2.38214286,6.36423529 2.93452381,7.67858824 C2.93452381,7.67858824 3.52142857,8.68164706 4.86785714,7.36729412 C4.86785714,7.36729412 5.28214286,6.53717647 5.73095238,5.88 L5.73095238,5.88 L5.10952381,5.22282353 L5.10952381,5.74164706 Z" id="Shape" fill="#F8B64C"></path>
                                <path d="M15.9845238,0.276705882 L5.62738095,0.276705882 C5.31666667,0.276705882 5.075,0.518823529 5.075,0.830117647 L5.075,5.94917647 C5.075,6.26047059 5.31666667,6.50258824 5.62738095,6.50258824 L15.8809524,6.50258824 C15.9154762,6.50258824 15.9154762,6.50258824 15.95,6.50258824 C16.2952381,6.468 16.5714286,6.19129412 16.5714286,5.81082353 L16.5714286,0.830117647 C16.5369048,0.518823529 16.2952381,0.276705882 15.9845238,0.276705882 Z" id="Shape" fill="#78D600"></path>
                                <path d="M6.00714286,4.39270588 L6.00714286,2.38658824 C6.66309524,2.38658824 7.21547619,1.83317647 7.21547619,1.176 L14.4654762,1.176 C14.4654762,1.83317647 15.0178571,2.38658824 15.6738095,2.38658824 L15.6738095,4.39270588 C15.0178571,4.39270588 14.4654762,4.94611765 14.4654762,5.60329412 L7.21547619,5.60329412 C7.21547619,4.94611765 6.66309524,4.39270588 6.00714286,4.39270588 Z" id="Shape" fill="#F2F2F2"></path>
                                <path d="M7.76785714,6.36423529 C7.76785714,6.36423529 8.52738095,6.64094118 8.66547619,7.40188235 C8.73452381,7.71317647 8.52738095,7.98988235 8.25119048,8.05905882 C8.18214286,8.05905882 8.11309524,8.05905882 8.04404762,8.05905882 C8.04404762,8.05905882 8.3547619,8.85458824 7.66428571,8.88917647 C7.66428571,8.88917647 7.56071429,9.20047059 7.38809524,9.408 C7.21547619,9.58094118 6.9047619,9.58094118 6.69761905,9.408 C6.55952381,9.26964706 6.42142857,9.06211765 6.35238095,8.75082353 L6.66309524,7.02141176 L7.76785714,6.36423529 Z" id="Shape" fill="#F4AA40"></path>
                                <path d="M6.59404762,8.26658824 C6.59404762,8.26658824 7.04285714,8.78541176 7.28452381,8.92376471 C7.42261905,8.99294118 7.5952381,8.99294118 7.66428571,8.85458824 C7.66428571,8.85458824 7.11190476,8.75082353 6.76666667,7.95529412 L6.59404762,8.26658824 Z" id="Shape" fill="#F2A138"></path>
                                <path d="M7.28452381,7.26352941 C7.28452381,7.26352941 7.38809524,7.92070588 8.04404762,8.02447059 C8.04404762,8.02447059 7.94047619,8.232 7.5952381,8.09364706 C7.45714286,8.02447059 7.31904762,7.92070588 7.21547619,7.78235294 C7.14642857,7.67858824 7.04285714,7.54023529 7.00833333,7.40188235 C6.8702381,7.12517647 7.28452381,7.26352941 7.28452381,7.26352941 Z" id="Shape" fill="#F2A138"></path>
                                <path d="M8.28571429,5.53411765 C8.28571429,5.53411765 7.80238095,6.60635294 7.28452381,7.36729412 C7.28452381,7.36729412 6.35238095,8.33576471 6.00714286,9.65011765 C6.00714286,9.65011765 5.86904762,10.8607059 5.28214286,11.8983529 C5.21309524,12.0021176 5.17857143,12.1058824 5.10952381,12.2096471 L0.276190476,12.2096471 C0.276190476,12.1058824 0.276190476,12.0021176 0.276190476,11.8983529 C0.276190476,11.2757647 0.345238095,10.6531765 0.414285714,10.0305882 C0.517857143,9.26964706 0.586904762,8.16282353 0.655952381,6.50258824 C0.655952381,6.50258824 0.69047619,6.01835294 1.62261905,5.63788235 L4.28095238,4.15058824 C4.55714286,4.01223529 4.83333333,3.94305882 5.14404762,3.94305882 L5.14404762,5.81082353 C5.14404762,5.81082353 4.0047619,6.08752941 3.34880952,6.60635294 C2.58928571,7.22894118 3.34880952,8.40494118 4.21190476,7.95529412 C4.21190476,7.95529412 4.24642857,7.95529412 4.24642857,7.92070588 C4.62619048,7.71317647 4.90238095,7.40188235 5.10952381,7.056 C5.4547619,6.468 6.07619048,5.32658824 6.38690476,5.11905882 C6.38690476,5.11905882 7.11190476,4.01223529 7.90595238,4.39270588 C8.66547619,4.66941176 8.28571429,5.53411765 8.28571429,5.53411765 Z" id="Shape" fill="#FFD15C"></path>
                                <path d="M7.52619048,6.05294118 C7.28452381,6.08752941 6.73214286,5.70705882 6.69761905,5.46494118 C6.66309524,5.18823529 7.35357143,4.53105882 7.35357143,4.53105882 L8.18214286,5.11905882 C8.18214286,5.11905882 7.80238095,6.01835294 7.52619048,6.05294118 Z" id="Shape" fill="#F2F2F2"></path>
                                <path d="M5.28214286,11.8983529 C5.21309524,12.0021176 5.17857143,12.1058824 5.10952381,12.2096471 L0.276190476,12.2096471 C0.276190476,12.1058824 0.276190476,12.0021176 0.276190476,11.8983529 L5.28214286,11.8983529 Z" id="Shape" fill="#FCC854"></path>
                                <rect id="Rectangle-path" fill="#F2F2F2" x="0.172619048" y="12.1750588" width="5.075" height="1"></rect>
                                <rect id="Rectangle-path" fill="#40596B" x="0.0345238095" y="12.6938824" width="5.35119048" height="1.55647059"></rect>
                                <ellipse id="Oval" fill="#FF7466" cx="4.59166667" cy="13.4894118" rx="1" ry="1"></ellipse>
                                <g id="Group" transform="translate(8.285714, 2.767059)" fill="#78D600">
                                    <ellipse id="Oval" cx="4.62619048" cy="0.622588235" rx="1" ry="1"></ellipse>
                                    <ellipse id="Oval" cx="0.448809524" cy="0.622588235" rx="1" ry="1"></ellipse>
                                </g>
                                <ellipse id="Oval" fill="#78D600" cx="10.8404762" cy="3.38964706" rx="1.27738095" ry="1.69482353"></ellipse>
                                <path d="M10.702381,4.35811765 C10.3916667,4.32352941 10.1845238,4.21976471 10.0119048,4.04682353 L10.2190476,3.73552941 C10.322619,3.83929412 10.4952381,3.94305882 10.6678571,3.97764706 L10.6678571,3.528 C10.3916667,3.45882353 10.0464286,3.35505882 10.0464286,2.97458824 C10.0464286,2.69788235 10.2880952,2.45576471 10.6678571,2.38658824 L10.6678571,2.14447059 L10.9440476,2.14447059 L10.9440476,2.42117647 C11.1857143,2.45576471 11.3583333,2.52494118 11.5309524,2.66329412 L11.2892857,2.97458824 C11.1857143,2.87082353 11.047619,2.83623529 10.9440476,2.80164706 L10.9440476,3.18211765 C11.2547619,3.25129412 11.5654762,3.35505882 11.5654762,3.77011765 C11.5654762,4.08141176 11.3583333,4.32352941 10.9440476,4.35811765 L10.9440476,4.60023529 L10.702381,4.60023529 L10.702381,4.35811765 Z M10.702381,3.11294118 L10.702381,2.76705882 C10.5642857,2.76705882 10.4952381,2.83623529 10.4952381,2.94 C10.5297619,3.04376471 10.5988095,3.07835294 10.702381,3.11294118 Z M10.9785714,3.63176471 L10.9785714,4.01223529 C11.1166667,3.97764706 11.1857143,3.90847059 11.1857143,3.80470588 C11.1857143,3.70094118 11.1166667,3.66635294 10.9785714,3.63176471 Z" id="Shape" fill="#F2F2F2"></path>
                            </g>
                        </g>
                    </g>
                </g>
            </g>
        </g>
    </g>
</svg>