<?xml version="1.0" encoding="UTF-8"?>
<svg width="13px" height="18px" viewBox="0 0 13 18" version="1.1" xmlns="http://www.w3.org/2000/svg" xmlns:xlink="http://www.w3.org/1999/xlink">
    <!-- Generator: Sketch 56.2 (81672) - https://sketch.com -->
    <title>fork-and-knife</title>
    <desc>Created with Sketch.</desc>
    <g id="1.-Home" stroke="none" stroke-width="1" fill="none" fill-rule="evenodd">
        <g id="Home-resv-table" transform="translate(-664.000000, -296.000000)" fill="#FFFFFF">
            <g id="Group-6-Copy-2" transform="translate(143.000000, 265.000000)">
                <g id="btt-new" transform="translate(498.000000, 17.000000)">
                    <g id="fork-and-knife" transform="translate(23.000000, 14.000000)">
                        <g id="fork-and-knife-eating-utensils">
                            <path d="M0.698254237,2.10817178 C0.436381356,2.83833129 0.142669492,3.57220859 0.0507146893,4.34834356 C-0.0356214689,5.07769325 0.13359887,5.6081227 0.489887006,6.23289571 C0.849957627,6.86433129 1.48383616,7.79230675 2.24367514,8.20866258 L2.24367514,17.9834724 L3.93984463,17.9834724 L3.93984463,8.19853988 C4.69134746,7.77725153 5.31777119,6.85906748 5.67490395,6.23289571 C6.03122881,5.6081227 6.20033898,5.07773006 6.11403955,4.34834356 C6.02212147,3.5722454 5.7284096,2.83833129 5.46653672,2.10817178 C5.2604096,1.53342331 4.8494774,0.105239264 4.09070339,0.0166380368 L4.54294915,4.21247853 L3.97759605,4.21247853 L3.52538701,0 L3.08250565,0 L2.63958757,0 L2.18712147,4.21247853 L1.62176836,4.21247853 L2.07408757,0.0166380368 C1.31531356,0.105239264 0.904381356,1.53342331 0.698254237,2.10817178 Z" id="Path" fill-rule="nonzero"></path>
                            <path d="M8.96739266,5.03425767 C8.96739266,9.5227362 10.8211412,10.0111656 11.2956045,10.0626626 L11.2956045,17.983546 L12.991774,17.983546 L12.991774,0 L11.2956045,0 C11.2956412,0 8.96739266,0 8.96739266,5.03425767 Z" id="Path" fill-rule="nonzero"></path>
                        </g>
                    </g>
                </g>
            </g>
        </g>
    </g>
</svg>