<svg width="30" height="30" viewBox="0 0 30 30" fill="none" xmlns="http://www.w3.org/2000/svg">
<path d="M24.9652 23.9856C24.7978 23.9856 24.6292 23.9472 24.4704 23.8684C24.0333 23.6515 23.7518 23.1695 23.7518 22.6376V20.2044C23.7518 18.0119 22.1456 16.2281 20.171 16.2281H13.7326V18.957C13.7326 19.438 13.5018 19.8826 13.1269 20.1236C12.9388 20.2445 12.7288 20.3049 12.5188 20.3049C12.3101 20.3049 12.1015 20.2453 11.9143 20.1259L3.60923 14.8286C3.23247 14.5882 3 14.1424 3 13.6598C3 13.1773 3.23247 12.7313 3.60923 12.491L11.9143 7.19374C12.1015 7.07442 12.3101 7.01465 12.5188 7.01465C12.7288 7.01465 12.9388 7.07506 13.1269 7.19595C13.5018 7.43701 13.7326 7.88159 13.7326 8.3626V10.7016H21.3241C25.0053 10.7017 28 14.0274 28 18.1152C28 19.6369 27.5879 21.099 26.8083 22.3435C26.5098 22.82 26.1624 23.2568 25.7754 23.6417C25.5483 23.8676 25.2587 23.9856 24.9652 23.9856Z" fill="#FCB63E"/>
<g opacity="0.2">
<path d="M21.324 10.7012H20.3021C23.761 10.9743 26.5 14.1862 26.5 18.0955C26.5 19.6172 26.0879 21.0793 25.3083 22.3238C25.0098 22.8003 24.2286 23.6657 24.2045 23.6862C24.2847 23.758 24.3735 23.8198 24.4704 23.8679C24.6293 23.9467 24.7978 23.9851 24.9652 23.9851C25.2586 23.9851 25.5483 23.8671 25.7754 23.6411C26.1623 23.2563 26.5098 22.8195 26.8083 22.3429C27.5879 21.0985 28 19.6364 28 18.1147C28 14.0269 25.0052 10.7012 21.324 10.7012Z" fill="white"/>
</g>
<g opacity="0.1">
<path d="M13.6795 18.3067C13.4915 18.4275 13.2814 18.488 13.0714 18.488C12.8627 18.488 12.6541 18.4284 12.4668 18.309L4.16187 13.0117C3.95117 12.8773 3.78574 12.6786 3.68071 12.4453L3.60923 12.4909C3.23247 12.7312 3 13.1771 3 13.6597C3 14.1424 3.23247 14.5882 3.60923 14.8286L11.9142 20.1258C12.1014 20.2452 12.3101 20.3049 12.5188 20.3049C12.7288 20.3049 12.9388 20.2444 13.1269 20.1235C13.5017 19.8826 13.7326 19.438 13.7326 18.957V18.2699C13.7151 18.2824 13.6977 18.295 13.6795 18.3067Z" fill="black"/>
<path d="M13.6795 18.3067C13.4915 18.4275 13.2814 18.488 13.0714 18.488C12.8627 18.488 12.6541 18.4284 12.4668 18.309L4.16187 13.0117C3.95117 12.8773 3.78574 12.6786 3.68071 12.4453L3.60923 12.4909C3.23247 12.7312 3 13.1771 3 13.6597C3 14.1424 3.23247 14.5882 3.60923 14.8286L11.9142 20.1258C12.1014 20.2452 12.3101 20.3049 12.5188 20.3049C12.7288 20.3049 12.9388 20.2444 13.1269 20.1235C13.5017 19.8826 13.7326 19.438 13.7326 18.957V18.2699C13.7151 18.2824 13.6977 18.295 13.6795 18.3067Z" fill="black"/>
</g>
</svg>
