<svg width="222" height="41" viewBox="0 0 222 41" fill="none" xmlns="http://www.w3.org/2000/svg">
<mask id="mask0" mask-type="alpha" maskUnits="userSpaceOnUse" x="0" y="11" width="19" height="30">
<path fill-rule="evenodd" clip-rule="evenodd" d="M0 11.1257L18.698 11.1257L18.698 40.1665H0L0 11.1257Z" fill="white"/>
</mask>
<g mask="url(#mask0)">
<path fill-rule="evenodd" clip-rule="evenodd" d="M14.3056 15.2126C13.1779 14.8199 11.8954 14.6624 10.5735 14.6624C6.95857 14.6624 4.43193 17.5314 4.43193 21.6183C4.43193 25.194 6.53107 27.67 9.52428 27.67C12.3229 27.67 14.2665 25.7443 14.3056 23.7794L14.3056 15.2126ZM3.22648 34.9791C4.43193 36.001 6.29744 36.6298 8.59081 36.6298C11.9732 36.6298 14.3056 34.3115 14.3056 31.0494L14.3056 27.6305C13.0227 29.792 10.6513 31.2461 7.65806 31.2461C3.14872 31.2461 0 27.3161 0 21.6183C0 15.3698 4.6258 11.1257 11.3124 11.1257C13.9168 11.1257 16.327 11.4402 18.6981 12.5798L18.6981 31.0494C18.6981 36.4726 14.5776 40.1665 8.59081 40.1665C5.40339 40.1665 2.79898 39.1055 0.971815 37.2982L3.22648 34.9791Z" fill="#020303"/>
</g>
<mask id="mask1" mask-type="alpha" maskUnits="userSpaceOnUse" x="0" y="0" width="222" height="40">
<path fill-rule="evenodd" clip-rule="evenodd" d="M0 40L222 40V0L0 0L0 40Z" fill="white"/>
</mask>
<g mask="url(#mask1)">
<path fill-rule="evenodd" clip-rule="evenodd" d="M25 31H29L29 11.7144H25L25 31ZM25 8.08851H29V4L25 4V8.08851Z" fill="#020303"/>
<path fill-rule="evenodd" clip-rule="evenodd" d="M47.5366 15.0812C46.391 14.689 45.0875 14.5317 43.7442 14.5317C40.0709 14.5317 37.5035 17.3967 37.5035 21.4778C37.5035 25.0486 39.6365 27.521 42.6781 27.521C45.5219 27.521 47.4969 25.598 47.5366 23.636V15.0812ZM36.2786 34.8199C37.5035 35.8403 39.3991 36.4683 41.7295 36.4683C45.1665 36.4683 47.5366 34.1532 47.5366 30.8957L47.5366 27.4816C46.233 29.6401 43.8232 31.0921 40.7817 31.0921C36.1996 31.0921 33 27.1676 33 21.4778C33 15.2382 37.7005 11 44.495 11C47.1418 11 49.5906 11.314 52 12.452V30.8957C52 36.3113 47.8129 40 41.7295 40C38.491 40 35.8442 38.9405 33.9875 37.1357L36.2786 34.8199Z" fill="#020303"/>
<path fill-rule="evenodd" clip-rule="evenodd" d="M65.5123 21.4298C62.456 21.4298 60.355 22.914 60.355 24.8674C60.355 26.4687 61.845 27.5623 63.9075 27.5623C66.7349 27.5623 68.645 25.0234 68.645 21.8593C67.6135 21.5471 66.6201 21.4298 65.5123 21.4298ZM56.8402 13.7733C58.8271 11.9765 61.272 11 64.3283 11C69.4852 11 73 13.93 73 18.1487V30.8048H68.645V27.406C67.4223 29.5546 65.245 31 62.4179 31C58.6358 31 56 28.6559 56 25.2578C56 21.4298 59.6673 18.8127 65.0154 18.8127C66.2384 18.8127 67.4603 18.8908 68.645 19.0471V18.3439C68.645 15.9608 66.9638 14.5155 64.5956 14.5155C62.6852 14.5155 60.5843 14.9065 58.9799 16.039L56.8402 13.7733Z" fill="#020303"/>
<path fill-rule="evenodd" clip-rule="evenodd" d="M84.118 31C81.2626 31 78.8902 29.9521 77 28.1654L79.3324 25.8739C80.4181 26.8838 82.067 27.5049 84.0776 27.5049C85.8869 27.5049 87.4153 26.4567 87.4153 25.0584C87.4153 21.7573 77.483 23.1163 77.483 16.8253C77.483 13.3298 80.6999 11 84.5198 11C87.4957 11 89.7077 12.0482 91.4773 13.8349L89.1042 16.1651C87.9784 15.1166 86.6917 14.5338 84.7615 14.5338C83.1127 14.5338 82.067 15.466 82.067 16.6312C82.067 20.3204 92 19.0001 92 24.942C92 28.5535 88.2197 31 84.118 31Z" fill="#F19834"/>
<path fill-rule="evenodd" clip-rule="evenodd" d="M105 27.4981C108.333 27.4981 110.632 24.8137 110.632 21.0005C110.632 17.187 108.333 14.5022 105 14.5022C101.705 14.5022 99.3678 17.187 99.3678 21.0005C99.3678 24.8137 101.705 27.4981 105 27.4981ZM105 11C110.9 11 115 15.0467 115 21.0005C115 26.9537 110.9 31 105 31C99.0609 31 95 26.9537 95 21.0005C95 15.0467 99.0609 11 105 11Z" fill="#F19834"/>
<path fill-rule="evenodd" clip-rule="evenodd" d="M124.357 22.4791C124.357 25.4377 126.153 27.4498 128.714 27.4498C131.58 27.4498 133.567 24.6097 133.681 21.6511V11H138V30.7243H133.681V26.661C132.305 29.2647 129.898 31 126.879 31C122.79 31 120 27.805 120 23.1893V11L124.357 11V22.4791Z" fill="#F19834"/>
<path fill-rule="evenodd" clip-rule="evenodd" d="M155 14.8265C151.106 14.8265 148.422 17.8639 148.309 21.0594V31H144V11.2764L148.309 11.2764V16.2861C149.519 13.1698 151.938 11 155 11V14.8265Z" fill="#F19834"/>
<path fill-rule="evenodd" clip-rule="evenodd" d="M174 28.1599C172.258 29.9885 169.759 31 166.806 31C161.013 31 157 26.9537 157 21.0005C157 15.0471 161.013 11 166.844 11C169.759 11 172.22 12.0509 174 13.8408L171.69 16.2533C170.706 15.1636 169.078 14.5022 167.147 14.5022C163.663 14.5022 161.316 17.187 161.316 21.0005C161.316 24.8137 163.663 27.4981 167.147 27.4981C169.078 27.4981 170.706 26.8371 171.69 25.7474L174 28.1599Z" fill="#F19834"/>
<path fill-rule="evenodd" clip-rule="evenodd" d="M190.525 19.366C190.486 16.4865 188.366 14.541 185.618 14.541C182.948 14.541 180.946 16.4865 180.515 19.366L190.525 19.366ZM180.436 22.4008C180.868 25.4748 183.341 27.4978 186.756 27.4978C188.876 27.4978 190.604 26.8367 191.702 25.7474C192.527 26.5254 193.351 27.3816 194.137 28.1987C192.252 30.0272 189.583 31 186.481 31C180.279 31 176 26.9533 176 21.0002C176 15.0858 179.887 11 185.539 11C191.153 11 195 15.0858 195 21.0002V22.4008L180.436 22.4008Z" fill="#F19834"/>
<path fill-rule="evenodd" clip-rule="evenodd" d="M198 16H200V13H198V16Z" fill="#020303"/>
<path fill-rule="evenodd" clip-rule="evenodd" d="M204 16H206V4.57162L204 4.57162V16ZM204 2.42273L206 2.42273V0L204 0V2.42273Z" fill="#020303"/>
<path fill-rule="evenodd" clip-rule="evenodd" d="M216 13.8987C218 13.8987 219.379 12.2878 219.379 10.0002C219.379 7.71185 218 6.10093 216 6.10093C214.023 6.10093 212.621 7.71185 212.621 10.0002C212.621 12.2878 214.023 13.8987 216 13.8987ZM216 4C219.54 4 222 6.42783 222 10.0002C222 13.5722 219.54 16 216 16C212.437 16 210 13.5722 210 10.0002C210 6.42783 212.437 4 216 4Z" fill="#020303"/>
</g>
</svg>
