<svg width="62" height="59" viewBox="0 0 62 59" fill="none" xmlns="http://www.w3.org/2000/svg">
<path d="M0.00561523 5.06992H61.4944V58.5534H0.00561523V5.06992Z" fill="#CFDFE8"/>
<path d="M0.00561523 5.06992H61.4944V20.0453H0.00561523V5.06992Z" fill="#E9686A"/>
<path d="M11.6672 26.4633H20.1484V35.0207H11.6672V26.4633Z" fill="#7D8D9C"/>
<path d="M26.5094 26.4633H34.9906V35.0207H26.5094V26.4633Z" fill="#7D8D9C"/>
<path d="M41.3514 26.4633H49.8327V35.0207H41.3514V26.4633Z" fill="#7D8D9C"/>
<path d="M26.5094 41.4387H34.9906V49.9961H26.5094V41.4387Z" fill="#7D8D9C"/>
<path d="M41.3514 41.4387H49.8327V49.9961H41.3514V41.4387Z" fill="#7D8D9C"/>
<path d="M22.2689 45.7174C22.2689 42.7637 18.9466 40.369 14.8478 40.369C10.749 40.369 7.42676 42.7637 7.42676 45.7174C7.42676 48.671 10.749 51.0657 14.8478 51.0657C18.9466 51.0657 22.2689 48.671 22.2689 45.7174Z" fill="white"/>
<path d="M14.8478 48.2993L11.9774 45.4032L13.4762 43.8909L14.8478 45.2748L22.5789 37.4742L24.0777 38.9865L14.8478 48.2993Z" fill="#E9686A"/>
<path d="M5.3064 14.697H13.7876V16.8363H5.3064V14.697Z" fill="white"/>
<path d="M18.0282 14.697H20.1485V16.8363H18.0282V14.697Z" fill="white"/>
<path d="M28.6296 0.79126H32.8702V9.34862H28.6296V0.79126Z" fill="#394D5C"/>
<path d="M39.2312 0.79126H43.4718V9.34862H39.2312V0.79126Z" fill="#394D5C"/>
<path d="M7.42676 0.79126H11.6674V9.34862H7.42676V0.79126Z" fill="#394D5C"/>
<path d="M18.0282 0.79126H22.2688V9.34862H18.0282V0.79126Z" fill="#394D5C"/>
<path d="M49.8328 0.79126H54.0734V9.34862H49.8328V0.79126Z" fill="#394D5C"/>
</svg>
