<?xml version="1.0" encoding="UTF-8"?>
<svg width="24px" height="22px" viewBox="0 0 24 22" version="1.1" xmlns="http://www.w3.org/2000/svg" xmlns:xlink="http://www.w3.org/1999/xlink">
    <!-- Generator: Sketch 56.2 (81672) - https://sketch.com -->
    <title>printer 1</title>
    <desc>Created with Sketch.</desc>
    <g id="2.-Order" stroke="none" stroke-width="1" fill="none" fill-rule="evenodd">
        <g id="Split-Order" transform="translate(-449.000000, -496.000000)">
            <g id="printer-1" transform="translate(449.000000, 496.000000)">
                <g id="Opt-5">
                    <path d="M22.7160494,21.0844649 L0.987654321,21.0844649 C0.441975309,21.0844649 0,20.6766266 0,20.1741116 L0,8.06868881 C0,7.5661738 0.441975309,7.15833552 0.987654321,7.15833552 L22.7160494,7.15833552 C23.2612346,7.15833552 23.7037037,7.5661738 23.7037037,8.06868881 L23.7037037,20.1741116 C23.7037037,20.6766266 23.2612346,21.0844649 22.7160494,21.0844649" id="Fill-1" fill="#E6E6E6"></path>
                    <path d="M2.8214576,16.1659041 L20.8817523,16.1659041 C21.1276081,16.1659041 21.3269136,15.9665986 21.3269136,15.7207427 C21.3269136,15.4748869 21.1276081,15.2755814 20.8817523,15.2755814 L2.8214576,15.2755814 C2.5756018,15.2755814 2.3762963,15.4748869 2.3762963,15.7207427 C2.3762963,15.9665986 2.5756018,16.1659041 2.8214576,16.1659041 Z" id="Fill-3" fill="#334A5E"></path>
                    <path d="M16.0454815,0.703799226 L5.38474074,0.703799226 C4.83906173,0.703799226 4.39708642,1.21725229 4.39708642,1.84989982 L4.39708642,7.15863779 L19.306716,7.15863779 L19.306716,4.4882234 L16.0454815,0.703799226 Z" id="Fill-7" stroke="#979797" stroke-width="0.2" fill="#F6F6F6"></path>
                    <path d="M16.0673012,3.08530275 C16.0673012,3.64147958 16.4424691,4.06892075 16.9876543,4.06892075 L19.2710446,4.53152582 L16,0.741935484 L16.0673012,3.08530275 Z" id="Fill-8" fill="#FFE2E2"></path>
                    <polygon id="Fill-11" fill="#424242" points="5.70271605 3.34576264 16.0299886 3.34576264 16.0299886 2.9747949 5.70271605 2.9747949"></polygon>
                    <polygon id="Fill-12" fill="#424242" points="5.70271605 5.82488053 18.0009877 5.82488053 18.0009877 5.45391278 5.70271605 5.45391278"></polygon>
                    <g id="Group-8" transform="translate(0.000000, 7.025488)">
                        <path d="M22.7160494,5.64942654 L0.987654321,5.64942654 C0.441975309,5.64942654 0,5.30789181 0,4.88707224 L0,0.7623543 C0,0.341153549 0.441975309,0 0.987654321,0 L22.7160494,0 C23.2612346,0 23.7037037,0.341153549 23.7037037,0.7623543 L23.7037037,4.88707224 C23.7037037,5.30789181 23.2612346,5.64942654 22.7160494,5.64942654" id="Fill-14" fill="#E6E6E6"></path>
                        <polygon id="Fill-17" fill="#000000" points="0 5.68217244 23.7037037 5.68217244 23.7037037 1.51135006 0 1.51135006"></polygon>
                        <path d="M21.0410775,3.42481112 C21.0410775,3.92655425 20.6421412,4.33353357 20.1500228,4.33353357 C19.6581955,4.33353357 19.2592593,3.92655425 19.2592593,3.42481112 C19.2592593,2.92277093 19.6581955,2.5157916 20.1500228,2.5157916 C20.6421412,2.5157916 21.0410775,2.92277093 21.0410775,3.42481112" id="Fill-18" fill="#FFFFFF"></path>
                        <path d="M2.76691358,3.4236092 C2.76691358,3.92436986 2.36839506,4.33092302 1.87753086,4.33092302 C1.38617284,4.33092302 0.987654321,3.92436986 0.987654321,3.4236092 C0.987654321,2.92234477 1.38617284,2.5157916 1.87753086,2.5157916 C2.36839506,2.5157916 2.76691358,2.92234477 2.76691358,3.4236092" id="Fill-20" fill="#FF5C5C"></path>
                        <path d="M5.23604938,3.42673437 C5.23604938,3.92749502 4.83753086,4.33404819 4.34666667,4.33404819 C3.85530864,4.33404819 3.45679012,3.92749502 3.45679012,3.42673437 C3.45679012,2.92546993 3.85530864,2.51891677 4.34666667,2.51891677 C4.83753086,2.51891677 5.23604938,2.92546993 5.23604938,3.42673437" id="Fill-21" fill="#61DC00"></path>
                    </g>
                </g>
            </g>
        </g>
    </g>
</svg>