<?xml version="1.0" encoding="UTF-8"?>
<svg width="102px" height="43px" viewBox="0 0 102 43" version="1.1" xmlns="http://www.w3.org/2000/svg" xmlns:xlink="http://www.w3.org/1999/xlink">
    <!-- Generator: Sketch 57.1 (83088) - https://sketch.com -->
    <title>Group 6</title>
    <desc>Created with Sketch.</desc>
    <g id="Printer-config" stroke="none" stroke-width="1" fill="none" fill-rule="evenodd">
        <g id="More-Click" transform="translate(-377.000000, -169.000000)">
            <g id="Advanced-printer-settings" transform="translate(361.000000, 135.000000)">
                <g id="Group-6" transform="translate(16.000000, 34.000000)">
                    <g id="printer-2" transform="translate(14.000000, 0.000000)">
                        <g id="printer">
                            <rect id="Rectangle" fill="#FF4452" fill-rule="nonzero" x="36.2819884" y="31.6028721" width="1.39311628" height="5.92074419"></rect>
                            <rect id="Rectangle" fill="#4B4B4B" fill-rule="nonzero" x="24.570686" y="2.40530233" width="25.4951163" height="7.94773256"></rect>
                            <path d="M27,10.08 L47,10.08 C51.418278,10.08 55,13.661722 55,18.08 L55,29.16 L55,29.16 L19,29.16 L19,18.08 C19,13.661722 22.581722,10.08 27,10.08 Z" id="Rectangle" fill="#2424B0"></path>
                            <rect id="Rectangle" fill="#4B4B4B" fill-rule="nonzero" x="24.4501279" y="23.768686" width="25.2529535" height="9.51174419"></rect>
                            <rect id="Rectangle" fill="#D1D1D1" fill-rule="nonzero" x="26.8575233" y="23.9926395" width="20.4466395" height="10.4890814"></rect>
                            <circle id="Oval" fill="#FF4452" fill-rule="nonzero" cx="49.3349186" cy="13.6900465" r="1.60534884"></circle>
                            <circle id="Oval" fill="#FCD462" fill-rule="nonzero" cx="45.1341163" cy="13.6900465" r="1.60534884"></circle>
                            <rect id="Rectangle" fill="#D1D1D1" fill-rule="nonzero" x="26.7803953" y="0" width="20.5945116" height="9.99188372"></rect>
                            <g id="Group" transform="translate(29.255814, 1.779070)" fill="#4B4B4B" fill-rule="nonzero">
                                <rect id="Rectangle" x="0.00481395349" y="0.0298255814" width="16.1173256" height="1.56348837"></rect>
                                <rect id="Rectangle" x="0.00481395349" y="3.03624419" width="16.1173256" height="1.56348837"></rect>
                            </g>
                            <rect id="Rectangle" fill="#D1D1D1" fill-rule="nonzero" x="34.169814" y="36.8265349" width="5.57298837" height="5.34045349"></rect>
                            <g id="Group" transform="translate(0.558140, 36.104651)" fill="#FF4452" fill-rule="nonzero">
                                <path d="M39.8812209,6.76046512 L32.9151163,6.76046512 L32.9151163,0.026372093 L39.8812209,0.026372093 L39.8812209,6.76046512 Z M34.3083372,5.36724419 L38.488,5.36724419 L38.488,1.41959302 L34.3083372,1.41959302 L34.3083372,5.36724419 Z" id="Shape"></path>
                                <rect id="Rectangle" x="0.61272093" y="2.69895349" width="33" height="1.39311628"></rect>
                                <rect id="Rectangle" x="39.5329419" y="2.69895349" width="33" height="1.39311628"></rect>
                            </g>
                        </g>
                    </g>
                    <g id="printer-4" transform="translate(0.000000, 13.000000)" opacity="0.200000003">
                        <g id="printer-copy" transform="translate(0.000000, -0.000000)">
                            <rect id="Rectangle" fill="#191919" fill-rule="nonzero" x="11.5213256" y="21.0685814" width="1" height="3.94716279"></rect>
                            <rect id="Rectangle" fill="#4B4B4B" fill-rule="nonzero" x="3.7137907" y="1.60353488" width="16.9967442" height="5.29848837"></rect>
                            <path d="M4,6.72 L20,6.72 C22.209139,6.72 24,8.510861 24,10.72 L24,19.44 L24,19.44 L0,19.44 L0,10.72 C-2.705415e-16,8.510861 1.790861,6.72 4,6.72 Z" id="Rectangle" fill="#191919"></path>
                            <rect id="Rectangle" fill="#4B4B4B" fill-rule="nonzero" x="3.6334186" y="15.8457907" width="16.8353023" height="6.34116279"></rect>
                            <rect id="Rectangle" fill="#D1D1D1" fill-rule="nonzero" x="5.23834884" y="15.995093" width="13.631093" height="6.99272093"></rect>
                            <circle id="Oval" fill="#D1D1D1" fill-rule="nonzero" cx="20.2232791" cy="9.12669767" r="1.07023256"></circle>
                            <circle id="Oval" fill="#D1D1D1" fill-rule="nonzero" cx="17.4227442" cy="9.12669767" r="1.07023256"></circle>
                            <rect id="Rectangle" fill="#D1D1D1" fill-rule="nonzero" x="5.18693023" y="0" width="13.7296744" height="6.66125581"></rect>
                            <g id="Group" transform="translate(6.837209, 1.186047)" fill="#4B4B4B" fill-rule="nonzero">
                                <rect id="Rectangle" x="0.00320930233" y="0.0198837209" width="10.7448837" height="1.04232558"></rect>
                                <rect id="Rectangle" x="0.00320930233" y="2.02416279" width="10.7448837" height="1.04232558"></rect>
                            </g>
                            <rect id="Rectangle" fill="#D1D1D1" fill-rule="nonzero" x="10.1132093" y="24.5510233" width="3.71532558" height="3.56030233"></rect>
                            <g id="Group" transform="translate(2.372093, 24.069767)" fill="#191919" fill-rule="nonzero">
                                <path d="M11.920814,4.50697674 L7.27674419,4.50697674 L7.27674419,0.0175813953 L11.920814,0.0175813953 L11.920814,4.50697674 Z M8.20555814,3.57816279 L10.992,3.57816279 L10.992,0.946395349 L8.20555814,0.946395349 L8.20555814,3.57816279 Z" id="Shape"></path>
                                <rect id="Rectangle" x="0.00146511628" y="1.79930233" width="7.74034884" height="1"></rect>
                                <rect id="Rectangle" x="11.6886279" y="1.79930233" width="7.23097674" height="1"></rect>
                            </g>
                        </g>
                    </g>
                    <g id="printe-3" transform="translate(78.000000, 13.000000)" opacity="0.200000003">
                        <g id="printer-copy-3" transform="translate(0.000000, -0.000000)">
                            <rect id="Rectangle" fill="#191919" fill-rule="nonzero" x="11.5213256" y="21.0685814" width="1" height="3.94716279"></rect>
                            <rect id="Rectangle" fill="#4B4B4B" fill-rule="nonzero" x="3.7137907" y="1.60353488" width="16.9967442" height="5.29848837"></rect>
                            <path d="M4,6.72 L20,6.72 C22.209139,6.72 24,8.510861 24,10.72 L24,19.44 L24,19.44 L0,19.44 L0,10.72 C-2.705415e-16,8.510861 1.790861,6.72 4,6.72 Z" id="Rectangle" fill="#191919"></path>
                            <rect id="Rectangle" fill="#4B4B4B" fill-rule="nonzero" x="3.6334186" y="15.8457907" width="16.8353023" height="6.34116279"></rect>
                            <rect id="Rectangle" fill="#D1D1D1" fill-rule="nonzero" x="5.23834884" y="15.995093" width="13.631093" height="6.99272093"></rect>
                            <circle id="Oval" fill="#D1D1D1" fill-rule="nonzero" cx="20.2232791" cy="9.12669767" r="1.07023256"></circle>
                            <circle id="Oval" fill="#D1D1D1" fill-rule="nonzero" cx="17.4227442" cy="9.12669767" r="1.07023256"></circle>
                            <rect id="Rectangle" fill="#D1D1D1" fill-rule="nonzero" x="5.18693023" y="0" width="13.7296744" height="6.66125581"></rect>
                            <g id="Group" transform="translate(6.837209, 1.186047)" fill="#4B4B4B" fill-rule="nonzero">
                                <rect id="Rectangle" x="0.00320930233" y="0.0198837209" width="10.7448837" height="1.04232558"></rect>
                                <rect id="Rectangle" x="0.00320930233" y="2.02416279" width="10.7448837" height="1.04232558"></rect>
                            </g>
                            <rect id="Rectangle" fill="#D1D1D1" fill-rule="nonzero" x="10.1132093" y="24.5510233" width="3.71532558" height="3.56030233"></rect>
                            <g id="Group" transform="translate(2.372093, 24.069767)" fill="#191919" fill-rule="nonzero">
                                <path d="M11.920814,4.50697674 L7.27674419,4.50697674 L7.27674419,0.0175813953 L11.920814,0.0175813953 L11.920814,4.50697674 Z M8.20555814,3.57816279 L10.992,3.57816279 L10.992,0.946395349 L8.20555814,0.946395349 L8.20555814,3.57816279 Z" id="Shape"></path>
                                <rect id="Rectangle" x="0.00146511628" y="1.79930233" width="7.74034884" height="1"></rect>
                                <rect id="Rectangle" x="11.6886279" y="1.79930233" width="7.23097674" height="1"></rect>
                            </g>
                        </g>
                    </g>
                </g>
            </g>
        </g>
    </g>
</svg>