<?xml version="1.0" encoding="UTF-8"?>
<svg width="33px" height="32px" viewBox="0 0 33 32" version="1.1" xmlns="http://www.w3.org/2000/svg" xmlns:xlink="http://www.w3.org/1999/xlink">
    <!-- Generator: Sketch 56.2 (81672) - https://sketch.com -->
    <title>arrow_back</title>
    <desc>Created with Sketch.</desc>
    <g id="2.-Order" stroke="none" stroke-width="1" fill="none" fill-rule="evenodd">
        <g id="Split-Order" transform="translate(-667.000000, -254.000000)">
            <g id="-Round-/-Navigation-/-arrow_back" transform="translate(658.000000, 245.000000)">
                <g transform="translate(0.000000, 0.000000)">
                    <polygon id="Path" points="0 0 50 0 50 50 0 50"></polygon>
                    <path d="M39.5833333,22.9166667 L16.3125,22.9166667 L26.4791667,12.75 C27.2916667,11.9375 27.2916667,10.6041667 26.4791667,9.79166667 C25.6666667,8.97916667 24.3541667,8.97916667 23.5416667,9.79166667 L9.8125,23.5208333 C9,24.3333333 9,25.6458333 9.8125,26.4583333 L23.5416667,40.1875 C24.3541667,41 25.6666667,41 26.4791667,40.1875 C27.2916667,39.375 27.2916667,38.0625 26.4791667,37.25 L16.3125,27.0833333 L39.5833333,27.0833333 C40.7291667,27.0833333 41.6666667,26.1458333 41.6666667,25 C41.6666667,23.8541667 40.7291667,22.9166667 39.5833333,22.9166667 Z" id="🔹-Icon-Color" fill="#FFFFFF"></path>
                </g>
            </g>
        </g>
    </g>
</svg>