<?xml version="1.0" encoding="UTF-8"?>
<svg width="37px" height="37px" viewBox="0 0 37 37" version="1.1" xmlns="http://www.w3.org/2000/svg" xmlns:xlink="http://www.w3.org/1999/xlink">
    <!-- Generator: Sketch 56.2 (81672) - https://sketch.com -->
    <title>Group 9</title>
    <desc>Created with Sketch.</desc>
    <g id="2.-Order" stroke="none" stroke-width="1" fill="none" fill-rule="evenodd">
        <g id="Order-case-1---default" transform="translate(-719.000000, -6.000000)">
            <g id="Group-9" transform="translate(719.000000, 6.000000)">
                <circle id="Oval-2" stroke="#C7C7C7" fill="#FFFFFF" cx="18.5" cy="18.5" r="18"></circle>
                <g id="hairstyle-1" transform="translate(10.931818, 10.090909)" fill-rule="nonzero">
                    <path d="M13.8886776,12.7936606 L13.8325949,12.7779713 C13.0133909,12.5683673 12.7358247,12.3666227 12.3711941,12.2341354 C11.0780415,11.7632207 10.7414523,11.4243796 10.6553473,11.2641776 C10.6530982,11.260179 10.6466502,10.7760569 10.6360031,9.81181142 L7.56807349,9.77857143 L4.49989627,9.81181142 L4.48924922,11.2461837 C4.39494233,11.4243796 4.0583531,11.7632503 2.76473622,12.2341354 C2.40010562,12.3666227 2.1230037,12.5683673 1.30352112,12.7779713 L1.24743839,12.7936606 C0.50174235,13.0291179 0,13.689279 0,14.4343572 C1.40105797e-16,15.5784079 0.927436299,16.5058442 2.07148695,16.5058442 L7.56807349,16.5058442 L13.0648767,16.5058442 C14.2089273,16.5058442 15.1363636,15.5784079 15.1363636,14.4343572 L15.1363636,14.4343572 C15.1363636,13.689279 14.6344046,13.0291179 13.8886776,12.7936606 Z" id="Shape" fill="#5D9CEC"></path>
                    <path d="M11.7727273,6.04755166 C11.7727273,8.86632874 9.16796739,11.4603896 7.56805955,11.4603896 C5.96790719,11.4603896 3.36363636,8.86632874 3.36363636,6.04755166 C3.36363636,3.22877457 5.24603371,1.36948052 7.56805955,1.36948052 C9.8900854,1.36948052 11.7727273,3.22877457 11.7727273,6.04755166 Z" id="Shape" fill="#EAC6BB"></path>
                    <path d="M9.99451227,1.39820378 C9.24646141,0.749647125 6.64750441,-0.182061892 4.23714321,1.39820378 C2.33628171,2.64462517 2.52813964,5.78700415 2.52813964,5.78700415 C2.52813964,5.78700415 5.0224207,6.39013398 7.87975748,4.82802067 C9.72666593,3.81785549 10.3702647,4.84522409 10.7010829,5.73964883 C11.0228823,6.61013571 11.6725256,6.39013398 11.6725256,6.39013398 C11.6725256,6.39013398 12.3881471,3.47253206 9.99451227,1.39820378 Z" id="Shape" fill="#965353"></path>
                    <path d="M9.25,3.78225629 C9.46676531,3.77646937 9.64908631,3.81806576 9.80312895,3.89220779 C10.0979521,2.96051348 10.6785089,2.7098935 10.9318182,2.64369112 C10.849189,2.49901809 10.7532446,2.3539747 10.641965,2.21038961 C10.2275435,2.35253954 9.57225103,2.73880496 9.25,3.78225629 Z" id="Shape" fill="#7F4242"></path>
                </g>
            </g>
        </g>
    </g>
</svg>