<?xml version="1.0" encoding="UTF-8"?>
<svg width="21px" height="30px" viewBox="0 0 21 30" version="1.1" xmlns="http://www.w3.org/2000/svg" xmlns:xlink="http://www.w3.org/1999/xlink">
    <!-- Generator: Sketch 56.2 (81672) - https://sketch.com -->
    <title>cocktail 2</title>
    <desc>Created with Sketch.</desc>
    <g id="Order" stroke="none" stroke-width="1" fill="none" fill-rule="evenodd">
        <g transform="translate(-659.000000, -135.000000)" fill-rule="nonzero" id="Select">
            <g transform="translate(9.000000, 9.000000)">
                <g id="1" transform="translate(0.000000, 113.000000)">
                    <g id="Col-4" transform="translate(632.000000, 0.000000)">
                        <g id="Top-Title">
                            <g id="Group-14" transform="translate(18.000000, 13.000000)">
                                <g id="cocktail-2">
                                    <path d="M15.1850977,19.9995703 C15.1850977,21.2006836 13.1800781,23.7495117 9.55974609,23.7495117 C5.93794922,23.7495117 3.93486328,21.2244727 3.93486328,19.9995703 C3.93486328,18.774668 3.93486328,7.50023437 3.93486328,7.50023437 L15.1850977,7.50023437 C15.1850977,7.50023437 15.1850977,18.7975781 15.1850977,19.9995703 Z" id="Shape" fill="#E6E9ED"></path>
                                    <polygon id="Shape" fill="#FFD2A6" points="5.30449219 4.33441406 3.97605469 4.33441406 6.78486328 12.1363477 7.96125 11.7133594"></polygon>
                                    <path d="M20.8538086,0.624785156 C20.8538086,0.279609375 20.5737305,0.00041015625 20.2294922,0.00041015625 C20.1764062,0.00041015625 20.1251367,0.006796875 20.0775,0.0196289063 L20.0775,0.0186914063 L15.0990234,1.26837891 L15.1008398,1.26931641 C14.8957617,1.32058594 14.7328125,1.47164062 14.6632031,1.66757812 L14.6632031,1.66757812 L11.1462891,11.6685352 L12.3249609,12.0823242 L15.7306641,2.39900391 L20.3814258,1.23082031 L20.3814258,1.23082031 C20.6524219,1.16220703 20.8538086,0.917753906 20.8538086,0.624785156 Z" id="Shape" fill="#434A54"></path>
                                    <polygon id="Shape" fill="#ED5564" points="4.19121094 3.08748047 0.00556640625 9.90802734 11.7629297 5.67474609"></polygon>
                                    <rect id="Rectangle-path" fill="#CCD1D9" x="8.97931641" y="23.1507422" width="1.25056641" height="5.59828125"></rect>
                                    <path d="M3.93486328,11.2501172 C3.93486328,14.6494336 3.93486328,19.2424805 3.93486328,19.9995703 C3.93486328,21.2244727 5.93800781,23.7495117 9.55974609,23.7495117 C13.1800781,23.7495117 15.1850977,21.2006836 15.1850977,19.9995703 C15.1850977,19.2561914 15.1850977,14.6548828 15.1850977,11.2501172 L3.93486328,11.2501172 Z" id="Shape" fill="#A0D468"></path>
                                    <path d="M12.105293,16.875 C12.105293,17.2191797 11.8252148,17.4993164 11.4791016,17.4993164 C11.1343945,17.4993164 10.8543164,17.2191797 10.8543164,16.875 C10.8543164,16.5289453 11.1343945,16.2496875 11.4791016,16.2496875 C11.8251563,16.2496875 12.105293,16.5289453 12.105293,16.875 Z" id="Shape" fill="#8CC153"></path>
                                    <path d="M13.354043,19.3743164 C13.354043,19.7194922 13.0739063,19.9995703 12.729668,19.9995703 C12.3836133,19.9995703 12.105293,19.7194922 12.105293,19.3743164 C12.105293,19.0291406 12.3836133,18.7499414 12.729668,18.7499414 C13.0739063,18.7499414 13.354043,19.0291992 13.354043,19.3743164 Z" id="Shape" fill="#8CC153"></path>
                                    <path d="M14.604668,29.3743359 C14.604668,29.0291602 14.3245312,28.7490234 13.980293,28.7490234 L13.980293,28.7490234 L5.22943359,28.7490234 L5.22943359,28.7490234 L5.22943359,28.7490234 C4.88425781,28.7490234 4.60505859,29.0291602 4.60505859,29.3743359 C4.60505859,29.7195117 4.88431641,29.9995898 5.22943359,29.9995898 L5.22943359,29.9995898 L5.22943359,29.9995898 L13.980293,29.9995898 L13.980293,29.9995898 C14.3245312,29.9995898 14.604668,29.7195117 14.604668,29.3743359 Z" id="Shape" fill="#E6E9ED"></path>
                                    <g id="Group" opacity="0.2" transform="translate(8.906250, 7.500000)" fill="#FFFFFF">
                                        <path d="M5.02822266,0.000234375 C5.02822266,0.000234375 5.02822266,11.2975781 5.02822266,12.4995703 C5.02822266,13.6302539 3.25394531,15.9529102 0.0263671875,16.2229687 C0.229628906,16.2403711 0.438339844,16.2495117 0.653496094,16.2495117 C4.27382812,16.2495117 6.27884766,13.7006836 6.27884766,12.4995703 C6.27884766,11.2975195 6.27884766,0.000234375 6.27884766,0.000234375 L5.02822266,0.000234375 Z" id="Shape"></path>
                                    </g>
                                </g>
                            </g>
                        </g>
                    </g>
                </g>
            </g>
        </g>
    </g>
</svg>