<?xml version="1.0" encoding="UTF-8"?>
<svg width="25px" height="20px" viewBox="0 0 25 20" version="1.1" xmlns="http://www.w3.org/2000/svg" xmlns:xlink="http://www.w3.org/1999/xlink">
    <!-- Generator: Sketch 56.2 (81672) - https://sketch.com -->
    <title>dinner 2</title>
    <desc>Created with Sketch.</desc>
    <g id="2.-Order" stroke="none" stroke-width="1" fill="none" fill-rule="evenodd">
        <g id="Order-case-1---default" transform="translate(-585.000000, -559.000000)">
            <g id="Bottom" transform="translate(0.000000, 541.000000)">
                <g id="3-copy-3" transform="translate(572.000000, 10.000000)">
                    <g id="dinner-2" transform="translate(13.000000, 8.000000)">
                        <g id="dinner-(2)">
                            <path d="M12.5,5.64643555 C11.8070312,5.64643555 11.1658203,5.17275391 10.6944824,4.31264648 C10.3551758,3.69355469 10.1444336,2.9515625 10.1444336,2.37626953 C10.1444336,1.07739258 11.201123,0.0207519531 12.4999512,0.0207519531 C13.7987793,0.0207519531 14.8554687,1.07744141 14.8554687,2.37626953 C14.8554687,2.95161133 14.6447266,3.69350586 14.3054199,4.31259766 C13.8341797,5.17280273 13.1929687,5.64643555 12.5,5.64643555 Z M12.5,1.66811523 C12.1095215,1.66811523 11.7918457,1.98579102 11.7918457,2.37626953 C11.7918457,2.92299805 12.2268555,3.82426758 12.5,3.98662109 C12.7731934,3.82426758 13.2081543,2.92294922 13.2081543,2.37626953 C13.2082031,1.98579102 12.8905273,1.66811523 12.5,1.66811523 Z" id="Shape" fill="#545257" fill-rule="nonzero"></path>
                            <path d="M12.5,0.0207519531 L12.5,1.66811523 C12.8904785,1.66811523 13.2081543,1.98579102 13.2081543,2.37626953 C13.2081543,2.92299805 12.7731445,3.82426758 12.5,3.98662109 L12.5,5.64643555 C13.1929688,5.64643555 13.8342285,5.17275391 14.3055176,4.31259766 C14.6448242,3.69355469 14.8555664,2.9515625 14.8555664,2.37626953 C14.8555664,1.07744141 13.798877,0.0207519531 12.5,0.0207519531 Z" id="Path" fill="#424145" fill-rule="nonzero"></path>
                            <path d="M23.3255371,18.0787109 C23.1930664,18.740918 22.6116699,19.2175293 21.9363281,19.2175293 L3.06362305,19.2175293 C2.38828125,19.2175293 1.80688477,18.7408691 1.67441406,18.0787109 L1.03115234,14.8623047 L23.9687988,14.8623047 L23.3255371,18.0787109 Z" id="Path" fill="#00D9E1" fill-rule="nonzero"></path>
                            <g id="Group" transform="translate(1.025391, 14.843750)" fill="#00A3AA" fill-rule="nonzero">
                                <path d="M11.4746582,0.0185546875 L11.4746582,4.3737793 L20.9110352,4.3737793 C21.586377,4.3737793 22.1677734,3.89711914 22.3002441,3.23496094 L22.9435059,0.0185546875 L11.4746582,0.0185546875 Z" id="Path"></path>
                                <polygon id="Path" points="22.6770996 1.35029297 22.9434082 0.0185546875 0.00581054687 0.0185546875 0.272167969 1.35029297"></polygon>
                            </g>
                            <path d="M12.5,4.01708984 C5.91425781,4.01708984 0.514550781,8.42749023 0.0033203125,14.0328613 C-0.0170410156,14.25625 0.0575683594,14.4777832 0.208691406,14.6435059 C0.359814453,14.8092285 0.573876953,14.9044434 0.798144531,14.9044434 L24.2019043,14.9044434 C24.4263184,14.9044434 24.6404297,14.8099609 24.7916504,14.6440918 C24.9428711,14.4782715 25.0170898,14.2563965 24.9966797,14.0328613 C24.4854492,8.42744141 19.085791,4.01708984 12.5,4.01708984 Z" id="Path" fill="#DFDEE1" fill-rule="nonzero"></path>
                            <path d="M24.9967285,14.0328613 C24.4854492,8.42744141 19.0858398,4.01708984 12.5000488,4.01708984 L12.5000488,14.9044434 L24.2019043,14.9044434 C24.4263184,14.9044434 24.6404297,14.8099609 24.7916504,14.6440918 C24.9429199,14.4782715 25.0170898,14.2563965 24.9967285,14.0328613 Z" id="Path" fill="#AEACB3" fill-rule="nonzero"></path>
                        </g>
                    </g>
                </g>
            </g>
        </g>
    </g>
</svg>