<?xml version="1.0" encoding="UTF-8"?>
<svg width="20px" height="27px" viewBox="0 0 20 27" version="1.1" xmlns="http://www.w3.org/2000/svg" xmlns:xlink="http://www.w3.org/1999/xlink">
    <!-- Generator: Sketch 56.2 (81672) - https://sketch.com -->
    <title>dinner copy</title>
    <desc>Created with Sketch.</desc>
    <g id="2.-Order" stroke="none" stroke-width="1" fill="none" fill-rule="evenodd">
        <g id="Order-case-1---default" transform="translate(-283.000000, -556.000000)">
            <g id="Bottom" transform="translate(0.000000, 541.000000)">
                <g id="3-copy" transform="translate(271.000000, 10.000000)">
                    <g id="dinner-copy" transform="translate(12.000000, 5.000000)">
                        <g>
                            <path d="M20,17 C20,19.5097656 19.07547,21.8033142 17.5482178,23.559143 C17.1746826,23.9885254 16.7648316,24.3861695 16.3241577,24.746582 C16.3064575,24.7607727 16.2889099,24.775116 16.2713623,24.7894592 C15.9922791,25.0142212 15.7008362,25.2249451 15.3979492,25.4191895 C15.2420044,25.5195923 15.0828552,25.6155701 14.9208069,25.7072754 C14.629364,25.8726807 14.3286133,26.0237427 14.019165,26.1592407 C12.7894592,26.7000122 11.4297485,27 10,27 C8.57025148,27 7.21023559,26.7000122 5.98037719,26.1592407 C5.55313109,25.971405 5.14205934,25.7550354 4.74853516,25.5113525 C4.69924926,25.4812927 4.65057375,25.4501648 4.60205078,25.4191895 C4.27993773,25.2122803 3.97094727,24.9878235 3.67584227,24.7461243 C3.59680176,24.6815796 3.51882934,24.6159668 3.44207766,24.548523 C3.08944703,24.2424316 2.75833129,23.9114685 2.45178223,23.5588379 C0.924530039,21.8033142 0,19.5097656 0,17 C0,11.4770813 4.47708129,7 10,7 C15.5229187,7 20,11.4770813 20,17 Z" id="Path" fill="#D3D3D3" fill-rule="nonzero"></path>
                            <polygon id="Path" fill="#BC5526" fill-rule="nonzero" points="3 19 17 19 17 22 3 22"></polygon>
                            <path d="M5,19.2888107 L4.88808107,20.6196081 L4.51942789,25 C4.14201429,24.8053542 3.77997616,24.5942008 3.43420737,24.3668269 C3.34159714,24.3061078 3.25023837,24.2443838 3.16030992,24.1809374 C2.74713946,23.8929879 2.35917758,23.5816407 2,23.2499103 L2.56924911,20.5957798 L2.91162099,19 L3.95411206,19.1439747 L5,19.2888107 Z" id="Path" fill="#D38051" fill-rule="nonzero"></path>
                            <path d="M18,23.2501974 C17.5623361,23.6541305 17.0821216,24.0282064 16.5657926,24.3672576 C16.5450536,24.3806072 16.5244935,24.3941003 16.5039333,24.4075935 C16.1769368,24.6190339 15.8354589,24.8172684 15.4805721,25 L15.1119189,20.6196081 L15,19.2888107 L15.9488081,19.1574679 L17.0880215,19 L17.4303933,20.5957798 L18,23.2501974 Z" id="Path" fill="#D38051" fill-rule="nonzero"></path>
                            <path d="M4,19.1667359 L3.18755719,25 C2.76468436,24.6665281 2.36761206,24.3059596 2,23.9217854 L2.58261664,20.8480592 L2.93302836,19 L4,19.1667359 Z" id="Path" fill="#BC5526" fill-rule="nonzero"></path>
                            <path d="M16,24.3916269 C15.7825725,24.6087661 15.5555159,24.8123434 15.3195435,25 L15.0744175,20.5015478 L15,19.1348828 L15.6308845,19 L16,24.3916269 Z" id="Path" fill="#BC5526" fill-rule="nonzero"></path>
                            <path d="M3.28167979,19 L5,19.3564655 L4.90792088,21 C4.27160403,20.9923779 3.63587557,20.982806 3,20.9705752 L3.28167979,19 Z" id="Path" fill="#BC5526" fill-rule="nonzero"></path>
                            <path d="M17,20.9705752 C16.3641312,20.982806 15.7281153,20.9923779 15.0920994,21 L15,19.3564655 L16.7182581,19 L17,20.9705752 Z" id="Path" fill="#BC5526" fill-rule="nonzero"></path>
                            <path d="M18.8263465,19.3654256 C18.8181836,19.3846785 18.8104741,19.4036375 18.8023112,19.4228904 C18.6741228,19.7224127 18.3489658,19.9253766 17.9799707,19.9315493 C12.6601533,20.0228169 7.34033592,20.0228169 2.02051852,19.9315493 C1.65152346,19.9253766 1.32591289,19.7224127 1.19772452,19.4228904 C0.934091828,18.8076791 0.934091828,18.1923209 1.19772452,17.5771096 C1.31004052,17.3149173 1.5732197,17.1269443 1.88462069,17.0797673 C1.92921453,17.0731537 1.97471535,17.0691856 2.02051852,17.0684507 C7.34033592,16.9771831 12.6601533,16.9771831 17.9799707,17.0684507 C18.3489658,17.0747704 18.6741228,17.2775873 18.8023112,17.5771096 C19.057781,18.173068 19.0654904,18.7694672 18.8263465,19.3654256 L18.8263465,19.3654256 Z" id="Path" fill="#BC5526" fill-rule="nonzero"></path>
                            <path d="M18.8292483,18.9019593 C18.7859942,18.9102533 18.7412538,18.9151216 18.6960673,18.9160231 C13.4651456,19.0279923 8.23392649,19.0279923 3.00300472,18.9160231 C2.64002705,18.90827 2.32045207,18.6594495 2.19440576,18.2923491 C1.94320501,17.5612135 1.93562438,16.8295369 2.17062344,16.0978604 C2.21447211,16.0897467 2.25921259,16.0848785 2.30439901,16.0839769 C7.53532078,15.9720077 12.7660939,15.9720077 17.9970157,16.0839769 C18.3599934,16.09173 18.6795683,16.3405505 18.8056147,16.7080116 C19.0568154,17.4391472 19.064396,18.1708237 18.8292483,18.9019593 L18.8292483,18.9019593 Z" id="Path-2" fill="#D38051" fill-rule="nonzero"></path>
                            <path d="M9.89830508,1.65152571 L9.89830508,0.361459542 C9.89830508,0.0371412306 9.48644068,-0.121414388 9.25,0.109211966 L7.11440678,2.1199855 C6.96186441,2.26412697 6.96186441,2.48754625 7.11440678,2.63168772 L9.24237288,4.64246125 C9.48644068,4.86588053 9.89830508,4.70732491 9.89830508,4.3830066 L9.89830508,3.09294043 C12.4228814,3.09294043 14.4745763,5.03164322 14.4745763,7.41718458 C14.4745763,7.98654339 14.3601695,8.54148806 14.1389831,9.03877613 C14.0245763,9.29823078 14.1084746,9.5937208 14.3144068,9.78831179 C14.7033898,10.1558725 15.359322,10.0261452 15.5652542,9.54327129 C15.8474576,8.88742759 16,8.16672023 16,7.41718458 C16,4.23165806 13.2694915,1.65152571 9.89830508,1.65152571 Z" id="Path" fill="#D38051" fill-rule="nonzero"></path>
                            <path d="M10.1068702,11.9070596 C7.58015267,11.9070596 5.52671756,9.96835678 5.52671756,7.58281542 C5.52671756,7.01345661 5.64122137,6.45851194 5.86259542,5.96122387 C5.97709924,5.70176922 5.89312977,5.4062792 5.6870229,5.21168821 C5.29770992,4.84412746 4.64122137,4.97385478 4.4351145,5.45672871 C4.15267176,6.11257241 4,6.83327977 4,7.58281542 C4,10.7683419 6.73282443,13.3484743 10.1068702,13.3484743 L10.1068702,14.6385405 C10.1068702,14.9628588 10.519084,15.1214144 10.7557252,14.890788 L12.8854962,12.8800145 C13.0381679,12.735873 13.0381679,12.5124538 12.8854962,12.3683123 L10.7557252,10.3575388 C10.519084,10.1341195 10.1068702,10.2926751 10.1068702,10.6169934 L10.1068702,11.9070596 Z" id="Path" fill="#D38051" fill-rule="nonzero"></path>
                        </g>
                    </g>
                </g>
            </g>
        </g>
    </g>
</svg>