<?xml version="1.0" encoding="UTF-8"?>
<svg width="18px" height="20px" viewBox="0 0 18 20" version="1.1" xmlns="http://www.w3.org/2000/svg" xmlns:xlink="http://www.w3.org/1999/xlink">
    <!-- Generator: Sketch 56.2 (81672) - https://sketch.com -->
    <title>document</title>
    <desc>Created with Sketch.</desc>
    <g id="2.-Order" stroke="none" stroke-width="1" fill="none" fill-rule="evenodd">
        <g id="Quick-Order" transform="translate(-228.000000, -561.000000)">
            <g id="3-copy-5" transform="translate(212.000000, 550.000000)">
                <g id="document" transform="translate(16.000000, 11.000000)">
                    <g>
                        <path d="M15.7714286,0.689655172 C15.7702567,0.309300905 15.4638951,0.00117861207 15.0857143,0 L4.45714286,0 L4.45714286,3.44827586 C4.45714286,3.82913526 4.15011163,4.13793103 3.77142857,4.13793103 L0,4.13793103 L0,19.3103448 C0.00117187714,19.6906991 0.307533471,19.9988214 0.685714286,20 L15.0857143,20 C15.4638951,19.9988214 15.7702567,19.6906991 15.7714286,19.3103448 L15.7714286,0.689655172 Z" id="Path" fill="#FFDCAF" fill-rule="nonzero"></path>
                        <polygon id="Path" fill="#939598" fill-rule="nonzero" points="5.25368306 18.1649044 5.73833704 14.7513133 7.92036831 15.482725 8.64793526 17.6772966"></polygon>
                        <path d="M4.45714286,20 L15.0857143,20 C15.4643973,20 15.7714286,19.6912042 15.7714286,19.3103448 L15.7714286,9.34166216 C13.8986049,14.5011112 9.6984375,18.4577047 4.45714286,20 Z" id="Path" fill="#FFD39B" fill-rule="nonzero"></path>
                        <polygon id="Path" fill="#ACABB1" fill-rule="nonzero" points="13.0118304 7.43635509 13.9814732 6.46113957 16.8907366 9.38712284 15.9210938 10.3623384"></polygon>
                        <path d="M15.7007812,5.37934401 C15.5847656,5.39079336 15.4700893,5.41268185 15.3579241,5.44484103 C15.0209263,5.54131871 14.7140625,5.72282461 14.466462,5.97235319 L13.9831473,6.46214978 L16.8905692,9.38628099 L17.3738839,8.90002022 C17.9909598,8.27990302 18.1520089,7.33583647 17.775837,6.54431573 C17.3996652,5.752795 16.5681362,5.28589707 15.7007812,5.37934401 Z" id="Path" fill="#C6C5CA" fill-rule="nonzero"></path>
                        <path d="M13.0135045,7.43450297 L5.73800224,14.75165 L7.67996653,15.7261921 L12.0421875,11.3372172 L7.67996653,15.7261921 L8.11774551,16.6066137 L8.65061383,17.6754445 L15.7027902,10.5830752 L15.9222656,10.3623384 L15.3592634,9.79626888 L13.0135045,7.43450297 Z M13.0446429,10.3290005 L13.5297991,9.84139276 L13.0446429,10.3290005 Z" id="Shape" fill="#FFD733" fill-rule="nonzero"></path>
                        <path d="M4.45714286,3.44827586 L4.45714286,0 L0,4.13793103 L3.77142857,4.13793103 C4.15011163,4.13793103 4.45714286,3.82913526 4.45714286,3.44827586 Z" id="Path" fill="#FFA993" fill-rule="nonzero"></path>
                        <path d="M8.59754464,15.1468214 C8.45876117,15.1469895 8.33353796,15.0629715 8.28046877,14.9339978 C8.22739954,14.8050242 8.25686383,14.6565194 8.35513393,14.5578529 L12.0343192,10.8587015 C12.1183594,10.7615504 12.2492745,10.7197939 12.3736607,10.7502694 C12.4980469,10.7805765 12.5953125,10.8782328 12.6256138,11.0033338 C12.6560826,11.1284348 12.6147321,11.2601024 12.518471,11.3447939 L8.83995536,15.0457974 C8.77566964,15.1104526 8.68844867,15.1468214 8.59754464,15.1468214 Z" id="Path" fill="#F1F2F2" fill-rule="nonzero"></path>
                        <path d="M13.2455357,10.4717813 C13.1069196,10.4716123 12.9820312,10.3877627 12.928962,10.2587891 C12.8758929,10.1299838 12.9051897,9.98164737 13.003125,9.88314922 L13.4879464,9.39554147 C13.6225446,9.26488414 13.8363281,9.26673625 13.9685826,9.39975082 C14.100837,9.53276534 14.1026786,9.7477775 13.9727679,9.88314922 L13.4879464,10.370757 C13.4238281,10.4355806 13.3366071,10.4719491 13.2455357,10.4717813 Z" id="Path" fill="#F1F2F2" fill-rule="nonzero"></path>
                        <path d="M9.6,9.31034483 L2.4,9.31034483 C2.21065847,9.31034483 2.05714286,9.15594694 2.05714286,8.96551724 C2.05714286,8.77508754 2.21065847,8.62068966 2.4,8.62068966 L9.6,8.62068966 C9.78934153,8.62068966 9.94285714,8.77508754 9.94285714,8.96551724 C9.94285714,9.15594694 9.78934153,9.31034483 9.6,9.31034483 Z" id="Path" fill="#FF7956" fill-rule="nonzero"></path>
                        <path d="M7.54285714,11.3793103 L2.4,11.3793103 C2.21065847,11.3793103 2.05714286,11.2249125 2.05714286,11.0344828 C2.05714286,10.8440531 2.21065847,10.6896552 2.4,10.6896552 L7.54285714,10.6896552 C7.73219867,10.6896552 7.88571429,10.8440531 7.88571429,11.0344828 C7.88571429,11.2249125 7.73219867,11.3793103 7.54285714,11.3793103 Z" id="Path" fill="#FF7956" fill-rule="nonzero"></path>
                        <path d="M5.48571429,13.4482759 L2.4,13.4482759 C2.21065847,13.4482759 2.05714286,13.293878 2.05714286,13.1034483 C2.05714286,12.9130186 2.21065847,12.7586207 2.4,12.7586207 L5.48571429,12.7586207 C5.67505581,12.7586207 5.82857143,12.9130186 5.82857143,13.1034483 C5.82857143,13.293878 5.67505581,13.4482759 5.48571429,13.4482759 Z" id="Path" fill="#FF7956" fill-rule="nonzero"></path>
                        <path d="M11.6571429,7.24137931 L5.14285714,7.24137931 C4.95351561,7.24137931 4.8,7.08698142 4.8,6.89655172 C4.8,6.70612203 4.95351561,6.55172414 5.14285714,6.55172414 L11.6571429,6.55172414 C11.8464844,6.55172414 12,6.70612203 12,6.89655172 C12,7.08698142 11.8464844,7.24137931 11.6571429,7.24137931 Z" id="Path" fill="#FF7956" fill-rule="nonzero"></path>
                        <path d="M3.77142857,7.24137931 L2.4,7.24137931 C2.21065847,7.24137931 2.05714286,7.08698142 2.05714286,6.89655172 C2.05714286,6.70612203 2.21065847,6.55172414 2.4,6.55172414 L3.77142857,6.55172414 C3.9607701,6.55172414 4.11428571,6.70612203 4.11428571,6.89655172 C4.11428571,7.08698142 3.9607701,7.24137931 3.77142857,7.24137931 Z" id="Path" fill="#FF7956" fill-rule="nonzero"></path>
                    </g>
                </g>
            </g>
        </g>
    </g>
</svg>