<?xml version="1.0" encoding="UTF-8"?>
<svg width="17px" height="26px" viewBox="0 0 17 26" version="1.1" xmlns="http://www.w3.org/2000/svg" xmlns:xlink="http://www.w3.org/1999/xlink">
    <!-- Generator: Sketch 56.2 (81672) - https://sketch.com -->
    <title>Group</title>
    <desc>Created with Sketch.</desc>
    <g id="Order" stroke="none" stroke-width="1" fill="none" fill-rule="evenodd">
        <g transform="translate(-533.000000, -428.000000)" id="Select">
            <g transform="translate(9.000000, 9.000000)">
                <g id="2" transform="translate(0.000000, 408.000000)">
                    <g id="Col-4" transform="translate(506.000000, 1.000000)">
                        <g id="Top-Title">
                            <g id="Group-10" transform="translate(18.000000, 10.000000)">
                                <g id="Group">
                                    <path d="M8.07130435,17.0077143 C8.07130435,16.9943429 8.07795652,16.9832 8.07869565,16.9705714 C3.93734783,16.5969143 0.68,13.0936 0.68,8.83628571 C0.68,8.42474286 0.702173913,7.92034286 0.749478261,7.35057143 L16.8713913,7.35057143 C16.9186957,7.92034286 16.9408696,8.42474286 16.9408696,8.83628571 C16.9408696,13.0936 13.6827826,16.5969143 9.54217391,16.9705714 C9.54291304,16.9832 9.54956522,16.9943429 9.54956522,17.0077143 L8.07130435,17.0077143" id="Fill-93" fill="#ED7161"></path>
                                    <path d="M0.749478261,7.35057143 C0.885478261,5.70068571 1.23582609,3.47954286 1.91213043,1.196 C2.00526087,0.880285714 2.29352174,0.664857143 2.62095652,0.664857143 L14.999913,0.664857143 C15.3266087,0.664857143 15.6148696,0.880285714 15.708,1.196 C16.3843043,3.47954286 16.7353913,5.70068571 16.8713913,7.35057143 L0.749478261,7.35057143 L0.749478261,7.35057143 Z M5.11478261,24.4362857 L8.07130435,24.4362857 L8.07130435,17.0077143 L9.54956522,17.0077143 L9.54956522,24.4362857 L12.506087,24.4362857 C12.914087,24.4362857 13.2452174,24.7690857 13.2452174,25.1791429 C13.2452174,25.5892 12.914087,25.922 12.506087,25.922 L5.11478261,25.922 C4.70678261,25.922 4.37565217,25.5892 4.37565217,25.1791429 C4.37565217,24.7690857 4.70678261,24.4362857 5.11478261,24.4362857 L5.11478261,24.4362857 Z" id="Fill-94" fill="#E6E6E6"></path>
                                    <path d="M2.2343913,7.35057143 C2.36521739,5.87971429 2.669,4.0092 3.17826087,2.15057143 L14.4426087,2.15057143 C14.9518696,4.0092 15.2556522,5.87971429 15.3864783,7.35057143 L2.2343913,7.35057143" id="Fill-95" fill="#F3F3F3"></path>
                                </g>
                            </g>
                        </g>
                    </g>
                </g>
            </g>
        </g>
    </g>
</svg>