<?xml version="1.0" encoding="UTF-8"?>
<svg width="21px" height="15px" viewBox="0 0 21 15" version="1.1" xmlns="http://www.w3.org/2000/svg" xmlns:xlink="http://www.w3.org/1999/xlink">
    <!-- Generator: Sketch 57.1 (83088) - https://sketch.com -->
    <title>Fill 304</title>
    <desc>Created with Sketch.</desc>
    <g id="Printer-config" stroke="none" stroke-width="1" fill="none" fill-rule="evenodd">
        <g id="Printer-configuration" transform="translate(-569.000000, -63.000000)" fill="#FF4452">
            <g id="Group-10" transform="translate(271.000000, 28.000000)">
                <path d="M316.9,35 L300.1,35 C298.945,35 298.0105,35.9642857 298.0105,37.1428571 L298,47.8571429 C298,49.0357143 298.945,50 300.1,50 L316.9,50 C318.055,50 319,49.0357143 319,47.8571429 L319,37.1428571 C319,35.9642857 318.055,35 316.9,35 L316.9,35 Z M308,38 L310,38 L310,40 L308,40 L308,38 Z M308,42 L310,42 L310,44 L308,44 L308,42 Z M304,38 L306,38 L306,40 L304,40 L304,38 Z M304,42 L306,42 L306,44 L304,44 L304,42 Z M301,42 L303,42 L303,44 L301,44 L301,42 Z M301,38 L303,38 L303,40 L301,40 L301,38 Z M305,46 L313,46 L313,48 L305,48 L305,46 Z M311,42 L313,42 L313,44 L311,44 L311,42 Z M311,38 L313,38 L313,40 L311,40 L311,38 Z M314,42 L316,42 L316,44 L314,44 L314,42 Z M314,38 L316,38 L316,40 L314,40 L314,38 Z" id="Fill-304"></path>
            </g>
        </g>
    </g>
</svg>