<?xml version="1.0" encoding="UTF-8"?>
<svg width="18px" height="24px" viewBox="0 0 18 24" version="1.1" xmlns="http://www.w3.org/2000/svg" xmlns:xlink="http://www.w3.org/1999/xlink">
    <!-- Generator: Sketch 56.2 (81672) - https://sketch.com -->
    <title>food-container</title>
    <desc>Created with Sketch.</desc>
    <g id="2.-Order" stroke="none" stroke-width="1" fill="none" fill-rule="evenodd">
        <g id="Order-case-1---default" transform="translate(-720.000000, -558.000000)">
            <g id="Bottom" transform="translate(0.000000, 541.000000)">
                <g id="3-copy-4" transform="translate(708.000000, 10.000000)">
                    <g id="food-container" transform="translate(12.000000, 7.000000)">
                        <g>
                            <polygon id="Path" fill="#DB8D57" fill-rule="nonzero" points="17.6365665 9.17285156 4.27116478 9.17285156 2.49855924 5.09765625 15.863961 5.09765625"></polygon>
                            <polygon id="Path" fill="#CF8552" fill-rule="nonzero" points="15.863961 5.09765625 14.0915382 5.09765625 15.863961 9.17285156 17.6365665 9.17285156"></polygon>
                            <polygon id="Path" fill="#CF8552" fill-rule="nonzero" points="2.49855924 5.09765625 0.357406644 9.17285156 4.26988636 9.17285156"></polygon>
                            <path d="M16.5254465,23.6484375 L4.26988636,23.6484375 L4.26988636,9.14208984 L17.6365665,9.14208984 L17.6365665,22.5344238 C17.6365665,23.1496582 17.1390828,23.6484375 16.5254465,23.6484375 Z" id="Path" fill="#BF7B4C" fill-rule="nonzero"></path>
                            <path d="M15.863961,9.14208984 L15.863961,22.5344238 C15.863961,23.1496582 15.3664773,23.6484375 14.7528409,23.6484375 L16.5254465,23.6484375 C17.1390828,23.6484375 17.6365665,23.1496582 17.6365665,22.5344238 L17.6365665,9.14208984 L15.863961,9.14208984 Z" id="Path" fill="#A86C43" fill-rule="nonzero"></path>
                            <path d="M15.6519278,16.3952637 C15.6519278,18.9970093 13.5482143,21.1062012 10.9532265,21.1062012 C8.35823866,21.1062012 6.25452517,18.9970093 6.25452517,16.3952637 C6.25452517,13.7935181 8.35823866,11.6843262 10.9532265,11.6843262 C13.5482143,11.6843262 15.6519278,13.7935181 15.6519278,16.3952637 Z" id="Path" fill="#F7E29C" fill-rule="nonzero"></path>
                            <path d="M0.357406644,15.1038208 L0.357406644,22.5344238 C0.357406644,23.1496582 0.85489041,23.6484375 1.46852677,23.6484375 L4.26988636,23.6484375 L4.26988636,9.14208984 L0.357406644,9.14208984 L0.357406644,13.7913208" id="Path" fill="#A86C43" fill-rule="nonzero"></path>
                            <path d="M14.7564935,0.3515625 L3.60620939,0.3515625 C2.99458197,0.3515625 2.49855924,0.848693859 2.49855924,1.46209716 L2.49855924,5.09765625 L15.8641437,5.09765625 L15.8641437,1.46209716 C15.863961,0.848693859 15.3681209,0.3515625 14.7564935,0.3515625 Z M12.8748579,2.72460938 C12.8748579,3.2682495 12.4352678,3.70898438 11.8930398,3.70898438 L6.46966314,3.70898438 C5.92743506,3.70898438 5.48784496,3.2682495 5.48784496,2.72460938 C5.48784496,2.18096925 5.92743506,1.74023438 6.46966314,1.74023438 L11.8930398,1.74023438 C12.4352678,1.74023438 12.8748579,2.18096925 12.8748579,2.72460938 Z" id="Shape" fill="#BF7B4C" fill-rule="nonzero"></path>
                            <path d="M14.7564935,0.3515625 L12.9840706,0.3515625 C13.5956981,0.3515625 14.0915382,0.848693859 14.0915382,1.46209716 L14.0915382,5.09765625 L15.8641437,5.09765625 L15.8641437,1.46209716 C15.863961,0.848693859 15.3681209,0.3515625 14.7564935,0.3515625 Z" id="Path" fill="#A86C43" fill-rule="nonzero"></path>
                        </g>
                    </g>
                </g>
            </g>
        </g>
    </g>
</svg>