<svg width="60" height="60" viewBox="0 0 60 60" fill="none" xmlns="http://www.w3.org/2000/svg">
<g clip-path="url(#clip0)">
<path d="M29.9999 19.178L27.6543 30L29.9999 40.822C35.9673 40.822 40.8219 35.9674 40.8219 30C40.8219 24.0326 35.9673 19.178 29.9999 19.178Z" fill="#87A0AF"/>
<path d="M19.178 30C19.178 35.9674 24.0326 40.822 30 40.822V19.178C24.0326 19.178 19.178 24.0326 19.178 30Z" fill="#B4D2D7"/>
<path d="M59.9999 35.0459V24.9541L54.558 23.372C53.9803 21.2334 53.1311 19.205 52.0481 17.3277L54.7809 12.355L47.6448 5.21896L42.6721 7.95181C40.7949 6.86874 38.7661 6.01959 36.6278 5.44189L35.0458 0H29.9999L27.6543 9.14062L29.9999 15.6624C37.9059 15.6624 44.3375 22.094 44.3375 30C44.3375 37.906 37.9059 44.3376 29.9999 44.3376L27.6543 50.5083L29.9999 60H35.0458L36.6278 54.5581C38.7665 53.9804 40.7949 53.1313 42.6721 52.0482L47.6448 54.781L54.7809 47.645L52.0481 42.6723C53.1311 40.795 53.9798 38.7662 54.558 36.628L59.9999 35.0459Z" fill="#B4D2D7"/>
<path d="M15.6624 30C15.6624 22.094 22.094 15.6624 30 15.6624V0H24.9541L23.372 5.44189C21.2334 6.01959 19.205 6.86874 17.3277 7.95181L12.355 5.21896L5.21896 12.3546L7.95181 17.3277C6.86874 19.205 6.02005 21.2334 5.44189 23.372L0 24.9541V35.0459L5.44189 36.628C6.01959 38.7666 6.86874 40.795 7.95181 42.6723L5.21896 47.645L12.355 54.781L17.3277 52.0482C19.205 53.1313 21.2338 53.9799 23.372 54.5581L24.9541 60H30V44.3376C22.094 44.3376 15.6624 37.906 15.6624 30Z" fill="#E1EBF0"/>
</g>
<defs>
<clipPath id="clip0">
<rect width="60" height="60" fill="white"/>
</clipPath>
</defs>
</svg>
