<?xml version="1.0" encoding="UTF-8"?>
<svg width="14px" height="14px" viewBox="0 0 14 14" version="1.1" xmlns="http://www.w3.org/2000/svg" xmlns:xlink="http://www.w3.org/1999/xlink">
    <!-- Generator: Sketch 57.1 (83088) - https://sketch.com -->
    <title>lan</title>
    <desc>Created with Sketch.</desc>
    <g id="Printer-config" stroke="none" stroke-width="1" fill="none" fill-rule="evenodd">
        <g id="Printer-configuration" transform="translate(-295.000000, -218.000000)" fill="#FFFFFF">
            <g id="Slide" transform="translate(271.000000, 209.000000)">
                <g id="lan" transform="translate(24.000000, 9.000000)">
                    <g id="Group">
                        <g fill-rule="nonzero">
                            <path d="M7.23333333,6.53333333 C7.87739257,6.5325358 8.39920247,6.0107259 8.4,5.36666667 C8.4,5.23780924 8.2955241,5.13333333 8.16666667,5.13333333 L7.93333333,5.13333333 L7.93333333,0.233333333 C7.93333333,0.104475904 7.82885743,-3.8191672e-14 7.7,-3.8191672e-14 L0.7,-3.8191672e-14 C0.571142571,-3.8191672e-14 0.466666667,0.104475904 0.466666667,0.233333333 L0.466666667,5.13333333 L0.233333333,5.13333333 C0.104475904,5.13333333 0,5.23780924 0,5.36666667 C0.0007975275,6.0107259 0.522607429,6.5325358 1.16666667,6.53333333 L7.23333333,6.53333333 Z M0.933333333,0.466666667 L7.46666667,0.466666667 L7.46666667,5.13333333 L0.933333333,5.13333333 L0.933333333,0.466666667 Z M0.506542983,5.6 L7.89345702,5.6 C7.79422201,5.8794759 7.5298991,6.06632486 7.23333333,6.06666667 L1.16666667,6.06666667 C0.870100904,6.06632486 0.605777987,5.8794759 0.506542983,5.6 Z" id="Shape"></path>
                            <polygon id="Path" points="1.16666667 4.9 2.8 4.9 2.8 4.43333333 1.63333333 4.43333333 1.63333333 1.16666667 6.76666667 1.16666667 6.76666667 4.43333333 5.6 4.43333333 5.6 4.9 7.23333333 4.9 7.23333333 0.7 1.16666667 0.7"></polygon>
                            <polygon id="Path" points="3.26666667 4.43333333 3.73333333 4.43333333 3.73333333 4.9 3.26666667 4.9"></polygon>
                            <polygon id="Path" points="3.96666667 4.43333333 4.43333333 4.43333333 4.43333333 4.9 3.96666667 4.9"></polygon>
                            <polygon id="Path" points="4.66666667 4.43333333 5.13333333 4.43333333 5.13333333 4.9 4.66666667 4.9"></polygon>
                            <path d="M13.7666667,12.6 L13.5333333,12.6 L13.5333333,7.7 C13.5333333,7.57114257 13.4288574,7.46666667 13.3,7.46666667 L6.3,7.46666667 C6.17114257,7.46666667 6.06666667,7.57114257 6.06666667,7.7 L6.06666667,12.6 L5.83333333,12.6 C5.7044759,12.6 5.6,12.7044759 5.6,12.8333333 C5.60079753,13.4773926 6.12260743,13.9992025 6.76666667,14 L12.8333333,14 C13.4773926,13.9992025 13.9992025,13.4773926 14,12.8333333 C14,12.7044759 13.8955241,12.6 13.7666667,12.6 Z M6.53333333,7.93333333 L13.0666667,7.93333333 L13.0666667,12.6 L6.53333333,12.6 L6.53333333,7.93333333 Z M12.8333333,13.5333333 L6.76666667,13.5333333 C6.4701009,13.5329915 6.20577799,13.3461426 6.10654298,13.0666667 L13.493457,13.0666667 C13.394222,13.3461426 13.1298991,13.5329915 12.8333333,13.5333333 Z" id="Shape"></path>
                            <polygon id="Path" points="6.76666667 12.3666667 8.4 12.3666667 8.4 11.9 7.23333333 11.9 7.23333333 8.63333333 12.3666667 8.63333333 12.3666667 11.9 11.2 11.9 11.2 12.3666667 12.8333333 12.3666667 12.8333333 8.16666667 6.76666667 8.16666667"></polygon>
                            <polygon id="Path" points="8.86666667 11.9 9.33333333 11.9 9.33333333 12.3666667 8.86666667 12.3666667"></polygon>
                            <polygon id="Path" points="9.56666667 11.9 10.0333333 11.9 10.0333333 12.3666667 9.56666667 12.3666667"></polygon>
                            <polygon id="Path" points="10.2666667 11.9 10.7333333 11.9 10.7333333 12.3666667 10.2666667 12.3666667"></polygon>
                            <path d="M11.9,4.1668457 L11.9,7 L12.3666667,7 L12.3666667,4.1668457 C12.807015,4.05405274 13.1016439,3.63979493 13.0637044,3.18680014 C13.025651,2.73369139 12.6663086,2.37434896 12.2131999,2.33629556 C11.7602051,2.29835611 11.3459473,2.59298503 11.2331543,3.03333333 L8.4,3.03333333 L8.4,3.5 L11.2331543,3.5 C11.3184896,3.82652993 11.5734701,4.08151042 11.9,4.1668457 Z M12.1333333,2.8 C12.3910482,2.8 12.6,3.00895181 12.6,3.26666667 C12.6,3.52438153 12.3910482,3.73333333 12.1333333,3.73333333 C11.8756185,3.73333333 11.6666667,3.52438153 11.6666667,3.26666667 C11.6666667,3.00895181 11.8756185,2.8 12.1333333,2.8 Z" id="Shape"></path>
                            <path d="M5.6,10.9666667 L5.6,10.5 L2.7668457,10.5 C2.68151042,10.1734701 2.42652993,9.91848958 2.1,9.8331543 L2.1,7 L1.63333333,7 L1.63333333,9.8331543 C1.19298503,9.94594726 0.898356113,10.3602051 0.936295558,10.8131999 C0.974348958,11.2663086 1.33369139,11.625651 1.78680014,11.6637044 C2.23979493,11.7016439 2.65405274,11.407015 2.7668457,10.9666667 L5.6,10.9666667 Z M1.86666667,11.2 C1.60895181,11.2 1.4,10.9910482 1.4,10.7333333 C1.4,10.4756185 1.60895181,10.2666667 1.86666667,10.2666667 C2.12438153,10.2666667 2.33333333,10.4756185 2.33333333,10.7333333 C2.33333333,10.9910482 2.12438153,11.2 1.86666667,11.2 Z" id="Shape"></path>
                        </g>
                    </g>
                </g>
            </g>
        </g>
    </g>
</svg>