<?xml version="1.0" encoding="UTF-8"?>
<svg width="22px" height="22px" viewBox="0 0 22 22" version="1.1" xmlns="http://www.w3.org/2000/svg" xmlns:xlink="http://www.w3.org/1999/xlink">
    <!-- Generator: Sketch 57.1 (83088) - https://sketch.com -->
    <title>list</title>
    <desc>Created with Sketch.</desc>
    <g id="4.-Reservation" stroke="none" stroke-width="1" fill="none" fill-rule="evenodd">
        <g id="Reservation---preorder" transform="translate(-890.000000, -561.000000)">
            <g id="kitchen-copy" transform="translate(863.000000, 551.000000)">
                <g id="pay">
                    <g id="save" transform="translate(27.000000, 10.000000)">
                        <g>
                            <polygon id="Path" fill="#424A60" fill-rule="nonzero" points="21.7659574 3.74468085 21.7659574 22 0.234042553 22 0.234042553 0 18.0212766 0"></polygon>
                            <rect id="Rectangle" fill="#E7ECED" fill-rule="nonzero" x="3.5106383" y="12.1702128" width="14.5106383" height="9.82978723"></rect>
                            <rect id="Rectangle" fill="#EBBA16" fill-rule="nonzero" x="3.5106383" y="12.1702128" width="14.5106383" height="5.63434043"></rect>
                            <rect id="Rectangle" fill="#C7CAC7" fill-rule="nonzero" x="4.44680851" y="0" width="12.1702128" height="7.4893617"></rect>
                            <g id="Group" transform="translate(5.148936, 13.574468)" fill="#FFFFFF" fill-rule="nonzero">
                                <path d="M0.70212766,0.936170213 L3.9787234,0.936170213 C4.23757447,0.936170213 4.44680851,0.72693617 4.44680851,0.468085106 C4.44680851,0.209234043 4.23757447,0 3.9787234,0 L0.70212766,0 C0.443276596,0 0.234042553,0.209234043 0.234042553,0.468085106 C0.234042553,0.72693617 0.443276596,0.936170213 0.70212766,0.936170213 Z" id="Path"></path>
                                <path d="M5.38297872,1.87234043 L0.70212766,1.87234043 C0.443276596,1.87234043 0.234042553,2.08157447 0.234042553,2.34042553 C0.234042553,2.5992766 0.443276596,2.80851064 0.70212766,2.80851064 L5.38297872,2.80851064 C5.64182979,2.80851064 5.85106383,2.5992766 5.85106383,2.34042553 C5.85106383,2.08157447 5.64182979,1.87234043 5.38297872,1.87234043 Z" id="Path"></path>
                                <path d="M7.11957447,2.00808511 C6.94638298,1.83489362 6.63276596,1.83489362 6.45957447,2.00808511 C6.3706383,2.09655319 6.31914894,2.21357447 6.31914894,2.34042553 C6.31914894,2.46680851 6.37017021,2.58382979 6.45489362,2.67276596 C6.5433617,2.75702128 6.66038298,2.80851064 6.78723404,2.80851064 C6.91361702,2.80851064 7.0306383,2.75702128 7.11957447,2.67276596 C7.20382979,2.58382979 7.25531915,2.46212766 7.25531915,2.34042553 C7.25531915,2.2187234 7.20382979,2.09655319 7.11957447,2.00808511 Z" id="Path"></path>
                            </g>
                            <rect id="Rectangle" stroke="#424A60" stroke-width="2" stroke-linecap="round" x="12.8723404" y="1.87234043" width="1.87234043" height="3.74468085"></rect>
                            <polygon id="Path" fill="#E7ECED" fill-rule="nonzero" points="11.4680851 7.4893617 4.44680851 7.4893617 4.44680851 0 7.72340426 0"></polygon>
                        </g>
                    </g>
                </g>
            </g>
        </g>
    </g>
</svg>