<?xml version="1.0" encoding="UTF-8"?>
<svg width="26px" height="18px" viewBox="0 0 26 18" version="1.1" xmlns="http://www.w3.org/2000/svg" xmlns:xlink="http://www.w3.org/1999/xlink">
    <!-- Generator: Sketch 57.1 (83088) - https://sketch.com -->
    <title>master-card</title>
    <desc>Created with Sketch.</desc>
    <g id="Symbols" stroke="none" stroke-width="1" fill="none" fill-rule="evenodd">
        <g id="ico/master-card" transform="translate(-2.000000, -6.000000)" fill-rule="nonzero">
            <g id="master-card" transform="translate(2.000000, 6.000000)">
                <path d="M26,16.4166641 C26,17.2655234 25.3119141,17.9536602 24.4631055,17.9536602 L1.53689453,17.9536602 C0.688085938,17.9536602 0,17.2654219 0,16.4166641 L0,1.55984766 C0,0.711039062 0.688085938,0.0229023437 1.53689453,0.0229023437 L24.4630547,0.0229023437 C25.3119141,0.0229023437 26,0.711039062 26,1.55984766 L26,16.4166641 L26,16.4166641 Z" id="Path" fill="#0099DF"></path>
                <path d="M1.09266016,16.4166641 L1.09266016,1.55984766 C1.09266016,0.711039062 1.78084766,0.0229023437 2.62965625,0.0229023437 L1.53684375,0.0229023437 C0.688085938,0.0229023437 0,0.711089844 0,1.55984766 L0,16.4166641 C0,17.2655234 0.688085938,17.9536602 1.53689453,17.9536602 L2.62970703,17.9536602 C1.78089844,17.9536602 1.09266016,17.2654219 1.09266016,16.4166641 Z" id="Path" fill="#202121" opacity="0.15"></path>
                <path d="M16.9958242,7.90039453 C16.9958242,6.98491016 17.4175117,6.16799219 18.0772617,5.6330625 C17.5759492,5.22655859 16.9369687,4.98275781 16.2412148,4.98275781 C14.629875,4.98275781 13.323832,6.28895312 13.323832,7.90034375 C13.323832,9.51168359 14.629875,10.8177773 16.2412148,10.8177773 C16.9370703,10.8177773 17.5759492,10.5741289 18.0772617,10.1674727 C17.4175117,9.63269531 16.9958242,8.81582813 16.9958242,7.90039453 Z" id="Path" fill="#EA001B"></path>
                <path d="M19.9133594,4.98280859 C19.2175039,4.98280859 18.5788281,5.22660937 18.0773125,5.63311328 C18.7371641,6.16804297 19.1588516,6.98496094 19.1588516,7.90044531 C19.1588516,8.81587891 18.7371641,9.63274609 18.0773125,10.1675742 C18.5788281,10.5741797 19.2176055,10.8178789 19.9133594,10.8178789 C21.5248008,10.8178789 22.8308438,9.51178516 22.8308438,7.90044531 C22.8308438,6.28900391 21.5246992,4.98280859 19.9133594,4.98280859 Z" id="Path" fill="#F79F1A"></path>
                <path d="M19.1588008,7.90039453 C19.1588008,6.98491016 18.7371133,6.16799219 18.0772617,5.6330625 C17.4175625,6.16799219 16.9958242,6.98491016 16.9958242,7.90039453 C16.9958242,8.81582812 17.4175117,9.63269531 18.0772617,10.1675234 C18.7370625,9.63269531 19.1588008,8.81582813 19.1588008,7.90039453 Z" id="Path" fill="#FF5F01"></path>
                <path d="M8.42171484,9.25290234 C8.42171484,9.45790625 8.25535547,9.62401172 8.05060547,9.62401172 L3.44560938,9.62401172 C3.24060547,9.62401172 3.0745,9.45790625 3.0745,9.25290234 L3.0745,5.66434375 C3.0745,5.45933984 3.24065625,5.29328516 3.44560938,5.29328516 L8.05060547,5.29328516 C8.25540625,5.29328516 8.42171484,5.45933984 8.42171484,5.66434375 L8.42171484,9.25290234 L8.42171484,9.25290234 Z" id="Path" fill="#FFC715"></path>
                <g id="Group" transform="translate(2.640625, 11.933594)" fill="#34495E">
                    <path d="M5.83187109,0.868664062 L0.433824219,0.868664062 C0.199671875,0.868664062 0.00990234375,0.67884375 0.00990234375,0.444742187 C0.00990234375,0.210589844 0.199621094,0.0208203125 0.433824219,0.0208203125 L5.83187109,0.0208203125 C6.06602344,0.0208203125 6.25579297,0.210539062 6.25579297,0.444742187 C6.25579297,0.67884375 6.06602344,0.868664062 5.83187109,0.868664062 Z" id="Path"></path>
                    <path d="M5.83187109,2.63651172 L0.433824219,2.63651172 C0.199671875,2.63651172 0.00990234375,2.44679297 0.00990234375,2.21258984 C0.00990234375,1.9784375 0.199621094,1.78866797 0.433824219,1.78866797 L5.83187109,1.78866797 C6.06602344,1.78866797 6.25579297,1.97838672 6.25579297,2.21258984 C6.25579297,2.44674219 6.06602344,2.63651172 5.83187109,2.63651172 Z" id="Path"></path>
                </g>
                <g id="Group" transform="translate(3.046875, 5.281250)" fill="#FFA617">
                    <polygon id="Path" points="1.46722266 4.3428125 2.31506641 4.3428125 2.31506641 3.91889063 2.31506641 0.43590625 2.31506641 0.011984375 1.46722266 0.011984375 1.46722266 0.43590625 1.46722266 1.03157031 0.451496094 1.03157031 0.0275742187 1.03157031 0.0275742187 1.87941406 0.451496094 1.87941406 1.46722266 1.87941406 1.46722266 2.47538281 0.451496094 2.47538281 0.0275742187 2.47538281 0.0275742187 3.32317578 0.451496094 3.32317578 1.46722266 3.32317578 1.46722266 3.91889063"></polygon>
                    <path d="M4.95096875,1.87941406 L5.37489063,1.87941406 L5.37489063,1.03157031 L4.95096875,1.03157031 L4.14253125,1.03157031 L4.14253125,0.43590625 L4.14253125,0.011984375 L3.2946875,0.011984375 L3.2946875,0.43590625 L3.2946875,2.89925391 C3.2946875,3.13335547 3.48440625,3.32317578 3.71860938,3.32317578 L4.95096875,3.32317578 L5.37489063,3.32317578 L5.37489063,2.47533203 L4.95096875,2.47533203 L4.14253125,2.47533203 L4.14253125,1.87941406 L4.95096875,1.87941406 Z" id="Path"></path>
                </g>
                <path d="M3.8553125,9.25290234 L3.8553125,5.66434375 C3.8553125,5.45933984 4.02141797,5.29328516 4.22642187,5.29328516 L3.44560937,5.29328516 C3.24060547,5.29328516 3.0745,5.45933984 3.0745,5.66434375 L3.0745,9.25290234 C3.0745,9.45790625 3.24065625,9.62401173 3.44560937,9.62401173 L4.22647266,9.62401173 C4.02141797,9.6240625 3.8553125,9.45790625 3.8553125,9.25290234 Z" id="Path" fill="#202121" opacity="0.15"></path>
            </g>
        </g>
    </g>
</svg>