<?xml version="1.0" encoding="UTF-8"?>
<svg width="14px" height="19px" viewBox="0 0 14 19" version="1.1" xmlns="http://www.w3.org/2000/svg" xmlns:xlink="http://www.w3.org/1999/xlink">
    <!-- Generator: Sketch 56.2 (81672) - https://sketch.com -->
    <title>New delivery</title>
    <desc>Created with Sketch.</desc>
    <g id="3.-Delivery" stroke="none" stroke-width="1" fill="none" fill-rule="evenodd">
        <g id="Delivery-home-1.2" transform="translate(-58.000000, -225.000000)" fill="#EBECEE">
            <g id="Main-menu" transform="translate(0.000000, 76.000000)">
                <g id="Group" transform="translate(0.000000, 59.000000)">
                    <g id="btt-new" transform="translate(41.000000, 77.000000)">
                        <g id="New-delivery" transform="translate(17.000000, 13.000000)">
                            <g id="Fill-879-+-Fill-880">
                                <polygon id="Fill-879" points="7.77777778 8.70872917 6.22222222 8.70872917 6.22222222 11.0837292 3.88888889 11.0837292 3.88888889 12.6670625 6.22222222 12.6670625 6.22222222 15.0420625 7.77777778 15.0420625 7.77777778 12.6670625 10.1111111 12.6670625 10.1111111 11.0837292 7.77777778 11.0837292"></polygon>
                                <path d="M12.4444444,16.6253958 L1.55555556,16.6253958 L1.55555556,5.5420625 L3.11111111,5.5420625 L3.11111111,7.12539583 L10.8888889,7.12539583 L10.8888889,5.5420625 L12.4444444,5.5420625 L12.4444444,16.6253958 Z M4.66666667,3.95872917 L9.33333333,3.95872917 L9.33333333,5.5420625 L4.66666667,5.5420625 L4.66666667,3.95872917 Z M7,1.58372917 C7.57477778,1.58372917 8.07722222,1.90197917 8.34633333,2.37539583 L5.65366667,2.37539583 C5.92277778,1.90197917 6.42522222,1.58372917 7,1.58372917 L7,1.58372917 Z M12.4444444,3.95872917 L10.8888889,3.95872917 L10.8888889,2.37539583 L10.0006667,2.37539583 C9.653,1.01372917 8.44511111,0.000395833333 7,0.000395833333 C5.55488889,0.000395833333 4.347,1.01372917 3.99933333,2.37539583 L3.11111111,2.37539583 L3.11111111,3.95872917 L1.55555556,3.95872917 C0.697666667,3.95872917 0,4.66885417 0,5.5420625 L0,16.6253958 C0,17.4978125 0.697666667,18.2087292 1.55555556,18.2087292 L12.4444444,18.2087292 C13.3023333,18.2087292 14,17.4978125 14,16.6253958 L14,5.5420625 C14,4.66885417 13.3023333,3.95872917 12.4444444,3.95872917 L12.4444444,3.95872917 Z" id="Fill-880"></path>
                            </g>
                        </g>
                    </g>
                </g>
            </g>
        </g>
    </g>
</svg>