<?xml version="1.0" encoding="UTF-8"?>
<svg width="10px" height="10px" viewBox="0 0 10 10" version="1.1" xmlns="http://www.w3.org/2000/svg" xmlns:xlink="http://www.w3.org/1999/xlink">
    <!-- Generator: Sketch 56.2 (81672) - https://sketch.com -->
    <title>passage-of-time</title>
    <desc>Created with Sketch.</desc>
    <g id="1.-Home" stroke="none" stroke-width="1" fill="none" fill-rule="evenodd">
        <g id="Home-final-2" transform="translate(-554.000000, -18.000000)" fill="#1D1D26">
            <g id="layout" transform="translate(242.000000, 9.000000)">
                <g id="1" transform="translate(299.000000, 0.000000)">
                    <g id="1-copy" transform="translate(0.000000, 2.000000)">
                        <g id="passage-of-time" transform="translate(13.000000, 7.000000)">
                            <g>
                                <path d="M9.77229167,3.98333333 C9.73833333,3.91104167 9.66583333,3.86479167 9.585625,3.86479167 L8.97583333,3.86479167 C8.588125,1.76083333 6.740625,0.161458333 4.52625,0.161458333 C2.030625,0.161458333 0,2.19208333 0,4.68770833 C0,7.18333333 2.03041667,9.21375 4.52625,9.21375 C6.136875,9.21375 7.63895833,8.346875 8.44625,6.951875 C8.56,6.755 8.49291667,6.50354167 8.29583333,6.38958333 C8.09916667,6.275625 7.8475,6.34270833 7.73395833,6.53958333 C7.073125,7.68145833 5.84395833,8.39104167 4.52625,8.39104167 C2.484375,8.39104167 0.822916667,6.72979167 0.822916667,4.688125 C0.822916667,2.64604167 2.484375,0.984791667 4.52625,0.984791667 C6.285,0.984791667 7.75854167,2.21833333 8.13395833,3.865 L7.52895833,3.865 C7.44875,3.865 7.37645833,3.91125 7.34229167,3.98354167 C7.30833333,4.05583333 7.319375,4.14104167 7.370625,4.2025 L8.399375,5.436875 C8.43854167,5.48375 8.49625,5.51083333 8.5575,5.51083333 C8.61854167,5.51083333 8.67645833,5.48354167 8.71541667,5.436875 L9.74416667,4.2025 C9.79541667,4.14083333 9.80625,4.055625 9.77229167,3.98333333 Z" id="Path" fill-rule="nonzero"></path>
                                <path d="M4.52625,1.19020833 C4.29895833,1.19020833 4.11479167,1.374375 4.11479167,1.60166667 L4.11479167,4.09833333 C3.92875,4.22875 3.80625,4.44375 3.80625,4.68791667 C3.80625,5.085 4.129375,5.408125 4.52645833,5.408125 C4.63520833,5.408125 4.73770833,5.38208333 4.83020833,5.33854167 L6.26145833,6.16458333 C6.32645833,6.20229167 6.396875,6.22 6.466875,6.22 C6.60895833,6.22 6.74729167,6.14625 6.82354167,6.01416667 C6.93708333,5.81770833 6.86979167,5.56583333 6.67270833,5.45229167 L5.24,4.625 C5.22083333,4.4075 5.10770833,4.2175 4.938125,4.09875 L4.938125,1.60166667 C4.93770833,1.37458333 4.75333333,1.19020833 4.52625,1.19020833 Z M4.52625,4.99625 C4.35604167,4.99625 4.21770833,4.85770833 4.21770833,4.68791667 C4.21770833,4.51791667 4.35625,4.379375 4.52625,4.379375 C4.69625,4.379375 4.83479167,4.51791667 4.83479167,4.68791667 C4.83479167,4.85770833 4.69625,4.99625 4.52625,4.99625 Z" id="Shape" fill-rule="nonzero"></path>
                            </g>
                        </g>
                    </g>
                </g>
            </g>
        </g>
    </g>
</svg>