<svg width="21" height="25" viewBox="0 0 21 25" fill="none" xmlns="http://www.w3.org/2000/svg">
<path d="M17.967 1.87481C16.8734 0.624937 14.8423 0 12.0301 0H4.21834C3.74963 0 3.28093 0.468702 3.12469 0.937406L0 21.4042C0 21.8729 0.312469 22.1853 0.624939 22.1853H5.46822L6.71809 14.5298V14.8423C6.87433 14.3736 7.34303 13.9049 7.81174 13.9049H10.1553C14.6861 13.9049 18.1232 12.0301 19.2169 6.87433C19.2169 6.71809 19.2169 6.56186 19.2169 6.40562C19.0606 6.40562 19.0606 6.40562 19.2169 6.40562C19.3731 4.37457 19.0606 3.12469 17.967 1.87481Z" fill="#263B80"/>
<path d="M19.0606 6.4082C19.0606 6.56444 19.0606 6.72067 19.0606 6.87691C17.967 12.1889 14.5298 13.9075 9.99902 13.9075H7.6555C7.1868 13.9075 6.71809 14.3762 6.56186 14.8449L4.99951 24.3752C4.99951 24.6877 5.15575 25.0001 5.62445 25.0001H9.68655C10.1553 25.0001 10.624 24.6877 10.624 24.219V24.0627L11.4051 19.2195V18.907C11.4051 18.4383 11.8738 18.1258 12.3425 18.1258H12.9675C16.8734 18.1258 19.998 16.5635 20.7792 11.8764C21.0917 10.0016 20.9355 8.28302 19.998 7.18938C19.8418 6.87691 19.5293 6.56444 19.0606 6.4082Z" fill="#139AD6"/>
<path d="M17.9669 5.93355C17.8107 5.93355 17.6544 5.77731 17.4982 5.77731C17.342 5.77731 17.1857 5.77731 17.0295 5.62108C16.4046 5.46484 15.7796 5.46484 14.9985 5.46484H8.9053C8.74907 5.46484 8.59283 5.46484 8.4366 5.62108C8.12413 5.77731 7.9679 6.08978 7.9679 6.40225L6.71802 14.5265V14.8389C6.87425 14.3702 7.34296 13.9015 7.81166 13.9015H10.1552C14.686 13.9015 18.1232 12.0267 19.2168 6.87096C19.2168 6.71472 19.2168 6.55848 19.373 6.40225C19.0606 6.24602 18.9043 6.08978 18.5919 6.08978C18.1232 5.93355 18.1232 5.93355 17.9669 5.93355Z" fill="#232C65"/>
</svg>
