<?xml version="1.0" encoding="UTF-8"?>
<svg width="24px" height="24px" viewBox="0 0 24 24" version="1.1" xmlns="http://www.w3.org/2000/svg" xmlns:xlink="http://www.w3.org/1999/xlink">
    <!-- Generator: Sketch 56.2 (81672) - https://sketch.com -->
    <title>power-off</title>
    <desc>Created with Sketch.</desc>
    <g id="1.-Home" stroke="none" stroke-width="1" fill="none" fill-rule="evenodd">
        <g id="Home-final-2" transform="translate(-194.000000, -24.000000)">
            <g id="Top" transform="translate(5.000000, 0.000000)">
                <g id="power-off" transform="translate(189.000000, 24.000000)">
                    <g id="Path">
                        <path d="M12,11.1724138 C12.4570313,11.1724138 12.8275862,10.8018589 12.8275862,10.3448276 L12.8275862,2.89655172 C12.8275862,2.43952045 12.4570313,2.06896552 12,2.06896552 C11.5429687,2.06896552 11.1724138,2.43952045 11.1724138,2.89655172 L11.1724138,10.3448276 C11.1724138,10.8018589 11.5429687,11.1724138 12,11.1724138 Z" fill="#F1F2F2" fill-rule="nonzero"></path>
                        <path d="M15.6865571,5.05482217 C15.4574353,4.93096712 15.1834591,4.92126884 14.9462554,5.02875807 C14.7090517,5.13644938 14.5358971,5.34880117 14.4781115,5.60277476 L14.4781115,5.60823005 C14.3981007,5.97231952 14.5716595,6.34509698 14.902007,6.51845369 C17.4235587,7.8515625 18.7120151,10.7317484 18.0252559,13.500202 C17.3384968,16.2686557 14.8533136,18.2127559 12.0010102,18.2127559 C9.1487069,18.2127559 6.66352371,16.2686557 5.97676453,13.500202 C5.29000541,10.7317484 6.57846176,7.8515625 9.10021552,6.51845369 C9.43056305,6.34529902 9.60412179,5.97252155 9.52431305,5.60823005 L9.52431305,5.60317888 C9.46713362,5.34960936 9.29498922,5.13725752 9.05839169,5.02936422 C8.82199624,4.92126884 8.54882814,4.9299569 8.31970634,5.05280172 C5.12998386,6.74515086 3.50309803,10.3925108 4.37493264,13.896417 C5.24676724,17.4005253 8.39345369,19.8600485 12.0044451,19.8600485 C15.6152344,19.8600485 18.7619208,17.4005253 19.6337554,13.896417 C20.50559,10.3925108 18.8787042,6.74515086 15.6889817,5.05280172 L15.6865571,5.05482217 Z" fill="#F1F2F2" fill-rule="nonzero"></path>
                        <path d="M12,0 L12,2.06896552 C12.4570313,2.06896552 12.8275862,2.43952045 12.8275862,2.89655172 L12.8275862,10.3448276 C12.8275862,10.8018589 12.4570313,11.1724138 12,11.1724138 L12,18.1982085 C12.1014278,18.1982085 12.2010372,18.204472 12.3032732,18.1982085 C15.0947602,18.0620286 17.4506331,16.0763066 18.0571794,13.3480603 C18.6639278,10.6200161 17.3714305,7.82307383 14.9005927,6.51683731 C14.5704472,6.3434806 14.3968885,5.97070314 14.4768993,5.60641164 L14.4768993,5.60115838 C14.5346848,5.34718479 14.7078394,5.13463091 14.9450431,5.02714169 C15.1822468,4.91965247 15.456223,4.92914871 15.6851428,5.05320579 C18.8768858,6.74474679 20.5051859,10.393319 19.6329472,13.8986395 C18.7607085,17.4037581 15.6122037,19.8636853 12,19.862069 L12,24 C18.6273572,24 24,18.6273572 24,12 C24,5.37264279 18.6273572,0 12,0 L12,0 Z" fill="#FC6671" fill-rule="nonzero"></path>
                        <path d="M11.0996767,19.8119612 C7.67658941,19.419181 4.90813578,16.8434806 4.26986798,13.4575701 C3.63160024,10.0718615 5.27222524,6.66493805 8.31728178,5.05280172 C8.54620148,4.9299569 8.81957167,4.92126884 9.05596712,5.02936422 C9.29236262,5.13725752 9.46470905,5.34960936 9.52188848,5.60317888 L9.52188848,5.60823005 C9.60169717,5.97252155 9.42813848,6.34529902 9.09758891,6.51845369 C6.57724945,7.84974409 5.28939926,10.7281115 5.97696662,13.4945447 C6.6643319,16.2607759 9.14951509,18.2016433 12,18.1982085 L12,11.1724138 C11.5429687,11.1724138 11.1724138,10.8018589 11.1724138,10.3448276 L11.1724138,2.89655172 C11.1724138,2.43952045 11.5429687,2.06896552 12,2.06896552 L12,2.84217094e-14 C5.37264279,2.84217094e-14 0,5.37264279 0,12 C0,18.6273572 5.37264279,24 12,24 L12,19.862069 C11.6991514,19.8618669 11.3985049,19.845299 11.0996767,19.8119612 Z" fill="#FE575A" fill-rule="nonzero"></path>
                    </g>
                </g>
            </g>
        </g>
    </g>
</svg>