<?xml version="1.0" encoding="UTF-8"?>
<svg width="36px" height="36px" viewBox="0 0 36 36" version="1.1" xmlns="http://www.w3.org/2000/svg" xmlns:xlink="http://www.w3.org/1999/xlink">
    <!-- Generator: Sketch 57.1 (83088) - https://sketch.com -->
    <title>printer 1</title>
    <desc>Created with Sketch.</desc>
    <g id="Printer-config" stroke="none" stroke-width="1" fill="none" fill-rule="evenodd">
        <g id="More-Click" transform="translate(-258.000000, -172.000000)">
            <g id="Printer" transform="translate(209.000000, 135.000000)">
                <g id="printer-1" transform="translate(49.000000, 37.000000)">
                    <g id="printer">
                        <g id="48px_printer" fill-rule="nonzero">
                            <path d="M28.173913,0 L7.82608696,0 C6.96164126,0 6.26086957,0.700771696 6.26086957,1.56521739 L6.26086957,8.60869565 C6.26086957,9.04069565 6.66547826,9.39130435 7.164,9.39130435 C7.66252174,9.39130435 8.06713043,9.04069565 8.06713043,8.60869565 L27.9328696,8.60869565 C27.9328696,9.04069565 28.3374783,9.39130435 28.836,9.39130435 C29.3345217,9.39130435 29.7391304,9.04069565 29.7391304,8.60869565 L29.7391304,1.56521739 C29.7391304,0.700771696 29.0383587,0 28.173913,0 Z" id="Path" fill="#4B4B4B"></path>
                            <path d="M28.9565217,7.82608696 L7.04347826,7.82608696 C3.15347263,7.82608696 0,10.9795596 0,14.8695652 L0,26.6086957 C0,27.4731413 0.700771696,28.173913 1.56521739,28.173913 L8.60869565,28.173913 C9.0409185,28.173913 9.39130435,27.8235272 9.39130435,27.3913043 L26.6086957,27.3913043 C26.6086957,27.8235272 26.9590815,28.173913 27.3913043,28.173913 L34.4347826,28.173913 C35.2992283,28.173913 36,27.4731413 36,26.6086957 L36,14.8695652 C36,10.9795596 32.8465274,7.82608696 28.9565217,7.82608696 Z" id="Path" fill="#1271FF"></path>
                            <path d="M6.26086957,21.1304348 L6.26086957,34.4347826 C6.26086957,35.2992283 6.96164126,36 7.82608696,36 L28.173913,36 C29.0383587,36 29.7391304,35.2992283 29.7391304,34.4347826 L29.7391304,21.1304348 L6.26086957,21.1304348 Z" id="Path" fill="#4B4B4B"></path>
                            <circle id="Oval" fill="#FF4452" cx="30.9130435" cy="13.6956522" r="1.95652174"></circle>
                            <circle id="Oval" fill="#72C472" cx="25.4347826" cy="13.6956522" r="1.95652174"></circle>
                            <polygon id="Path" fill="#FFFFFF" points="7.82608696 5.47826087 28.173913 5.47826087 28.173913 7.82608696 7.82608696 7.82608696"></polygon>
                            <polygon id="Path" fill="#FFFFFF" points="7.82608696 21.1304348 28.173913 21.1304348 28.173913 32.8695652 7.82608696 32.8695652"></polygon>
                            <polygon id="Path" fill="#CCCCCC" points="7.82608696 21.1304348 28.173913 21.1304348 28.173913 23.4782609 7.82608696 23.4782609"></polygon>
                            <polygon id="Path" fill="#9B9B9B" points="6.26086957 21.1304348 7.82608696 21.1304348 7.82608696 23.4782609 6.26086957 23.4782609"></polygon>
                            <polygon id="Path" fill="#9B9B9B" points="28.173913 21.1304348 29.7391304 21.1304348 29.7391304 23.4782609 28.173913 23.4782609"></polygon>
                        </g>
                    </g>
                </g>
            </g>
        </g>
    </g>
</svg>