<?xml version="1.0" encoding="UTF-8"?>
<svg width="31px" height="24px" viewBox="0 0 31 24" version="1.1" xmlns="http://www.w3.org/2000/svg" xmlns:xlink="http://www.w3.org/1999/xlink">
    <!-- Generator: Sketch 56.2 (81672) - https://sketch.com -->
    <title>Promotion</title>
    <desc>Created with Sketch.</desc>
    <g id="2.-Order" stroke="none" stroke-width="1" fill="none" fill-rule="evenodd">
        <g id="Order-case-1---default" transform="translate(-139.000000, -559.000000)">
            <g id="Bottom" transform="translate(0.000000, 541.000000)">
                <g id="3" transform="translate(130.000000, 10.000000)">
                    <g id="Promotion" transform="translate(6.000000, 7.253912)">
                        <g id="Group-4" transform="translate(17.500000, 14.500000) rotate(12.000000) translate(-17.500000, -14.500000) translate(3.000000, 3.000000)">
                            <g id="Group-3">
                                <path d="M27.5849416,11.4502066 C26.9778362,11.4972802 26.381434,11.1647856 26.1281265,10.5730883 C25.8748191,9.98139105 26.0460692,9.31938129 26.4979792,8.91121146 L26.2054269,8.2265587 C25.5983216,8.27363231 25.0019193,7.94113776 24.7486119,7.34944047 C24.4953045,6.75774317 24.6659599,6.09573342 25.1184645,5.68756358 L24.8253177,5.00291083 C24.2188069,5.04998443 23.6224047,4.71808575 23.3690972,4.12579259 C23.1151952,3.5340953 23.2864453,2.87208554 23.7389499,2.46391571 L23.5183464,1.94908544 C22.7316663,2.2869428 21.8207109,1.92227136 21.4835623,1.13393751 L0.813437953,10.0183349 C1.15058658,10.8060729 0.786680126,11.7195391 0,12.0573964 L0.220008803,12.5722267 C0.827114176,12.5251531 1.42351642,12.8570518 1.67682385,13.449345 C1.93013128,14.0410423 1.75947581,14.703052 1.30697121,15.1112218 L1.60011808,15.7958746 C2.20722345,15.748801 2.80362569,16.0806997 3.05693313,16.672397 C3.31024056,17.2646901 3.13899046,17.9266999 2.68648587,18.3348697 L2.97963274,19.0195225 C3.58673811,18.9724489 4.18314035,19.3043476 4.43644779,19.8960448 C4.68975522,20.4877421 4.51909974,21.1503478 4.06659515,21.5579217 L4.28660395,22.0733479 C5.07328408,21.7348946 5.98423945,22.1007578 6.32198269,22.8884958 L26.9921071,14.0040984 C26.6549584,13.2157646 27.0188649,12.3028942 27.805545,11.9650369 L27.5849416,11.4502066 Z" id="Fill-1" fill="#FF7058"></path>
                                <path d="M7.55486445,18.5566519 L23.0220779,11.9091444 L20.262454,5.46006104 L4.7946459,12.1081644 L7.55486445,18.5566519 Z M24.0400646,12.3161225 L7.14814548,19.5767786 L3.77725384,11.7005905 L20.669173,4.44053026 L24.0400646,12.3161225 Z" id="Fill-4" fill="#FFD15C"></path>
                                <polygon id="Fill-6" fill="#FFFFFF" points="6.9947934 13.8592428 7.84271921 13.4951672 8.8642736 15.8816201 9.39586244 15.6528066 8.37430805 13.2663538 9.22580158 12.9004906 9.0129282 12.4035364 6.78251463 13.3622886"></polygon>
                                <polygon id="Fill-8" fill="#FFFFFF" points="10.491982 15.1818918 11.0241654 14.9530784 9.78973766 12.0696713 9.2575542 12.2984848"></polygon>
                                <path d="M13.1367256,13.1027879 C13.0843992,13.3750998 12.8852021,13.6217893 12.6289215,13.7320249 C12.0884134,13.9644136 11.5175798,13.7159365 11.2720024,13.1421152 C11.0258304,12.5676981 11.239893,11.9825554 11.7804011,11.7495709 C12.0390601,11.6387393 12.3553971,11.6637658 12.5849198,11.8139246 L12.668761,11.8693404 L13.0118558,11.4176722 L12.9107707,11.355106 C12.4885916,11.0917322 12.0241946,11.0565759 11.5675277,11.2532125 C10.7118719,11.6208633 10.3586685,12.51407 10.7273319,13.3756956 C11.09659,14.2379172 11.9855444,14.5972258 12.8412003,14.2289791 C13.2948941,14.0341302 13.5820948,13.6813761 13.6950723,13.1796549 L13.7218301,13.0592895 L13.1551588,13.0062572 L13.1367256,13.1027879 Z" id="Fill-10" fill="#FFFFFF"></path>
                                <polygon id="Fill-12" fill="#FFFFFF" points="15.1894078 9.74870445 14.5061912 10.0424676 13.9864948 11.7043444 13.4667983 10.4893688 12.9346148 10.7175864 14.168448 13.6015893 14.7006315 13.3727759 14.2879663 12.4092567 14.3747806 12.1458829 15.8405149 12.8829721 16.521353 12.5904007 14.5721939 11.6382031"></polygon>
                                <polygon id="Fill-14" fill="#FFFFFF" points="16.642001 12.5386197 18.5965117 11.6984453 18.3836383 11.2014911 16.9613111 11.8128521 16.6503257 11.0858927 18.0441112 10.4870449 17.8312378 9.99009073 16.4374523 10.5889384 16.1526301 9.92335347 17.5749573 9.31199253 17.3620839 8.81444244 15.4075733 9.65461684"></polygon>
                                <polygon id="Fill-16" fill="#FFFFFF" points="17.5678813 8.72631351 17.7807547 9.22326773 18.6286805 8.85919215 19.6496403 11.245645 20.1818237 11.0174274 19.1602694 8.6303787 20.0117629 8.26451552 19.7988895 7.7675613"></polygon>
                                <path d="M26.1283049,10.5729692 C25.8749975,9.98127188 26.045653,9.31926212 26.4981576,8.91109229 L26.2050107,8.22643953 C25.5984999,8.27351313 25.0020977,7.94101858 24.7487903,7.34932129 C24.4948882,6.757624 24.6661383,6.09561424 25.1186429,5.68744441 L24.825496,5.00279165 C24.2189853,5.04986525 23.622583,4.71796657 23.368681,4.12567341 C23.1153736,3.53397612 23.2866237,2.87196637 23.7385336,2.46379653 L23.5185248,1.94896626 C22.7318447,2.28682363 21.8208893,1.92215219 21.4831461,1.13381833 L2.05934186,9.48253005 L2.05934186,9.767951 L2.66406876,9.97412146 C2.85731973,10.0402628 3.05294918,10.2315366 3.05294918,10.5098071 C3.05294918,10.7874818 2.85791435,10.9787555 2.66466338,11.0448969 L2.05934186,11.2504715 L2.05934186,13.3449488 L2.95126944,13.3449488 C3.31398666,13.3449488 3.60891738,13.6404995 3.60891738,14.0045751 L3.60891738,14.8983777 L24.9117157,14.8983777 L26.9922854,14.0039792 C26.6545422,13.2162413 27.0190433,12.302775 27.8051288,11.9649177 L27.58512,11.4500874 C26.9780146,11.497161 26.3816124,11.1652623 26.1283049,10.5729692" id="Fill-18" fill="#231F20"></path>
                                <path d="M28.5416231,11.8909704 C27.9654379,11.6943339 27.5480158,11.1538812 27.5480158,10.5097475 C27.5480158,9.86561383 27.9654379,9.32456535 28.5416231,9.12852465 L28.5416231,8.38368919 C27.9654379,8.18705263 27.5480158,7.64600415 27.5480158,7.00187045 C27.5480158,6.35773674 27.9654379,5.81728413 28.5416231,5.62064757 L28.5416231,4.8758121 C27.9654379,4.67917554 27.5480158,4.13872293 27.5480158,3.49458922 C27.5480158,2.85045552 27.9654379,2.30940704 28.5416231,2.11336634 L28.5416231,1.55265421 C27.6859673,1.55265421 26.9920476,0.857275823 26.9920476,-0.000178760511 L4.50060711,-0.000178760511 C4.50060711,0.857275823 3.80728207,1.55265421 2.95103159,1.55265421 L2.95103159,2.11336634 C3.52781143,2.30940704 3.94523354,2.85045552 3.94523354,3.49458922 C3.94523354,4.13872293 3.52781143,4.67917554 2.95103159,4.8758121 L2.95103159,5.62064757 C3.52781143,5.81728413 3.94523354,6.35773674 3.94523354,7.00187045 C3.94523354,7.64600415 3.52781143,8.18705263 2.95103159,8.38368919 L2.95103159,9.12852465 C3.52781143,9.32456535 3.94523354,9.86561383 3.94523354,10.5097475 C3.94523354,11.1538812 3.52781143,11.6943339 2.95103159,11.8909704 L2.95103159,12.4510867 C3.80728207,12.4510867 4.50060711,13.1464651 4.50060711,14.0039197 L26.9920476,14.0039197 C26.9920476,13.1464651 27.6859673,12.4510867 28.5416231,12.4510867 L28.5416231,11.8909704 Z" id="Fill-20" fill="#FF7058"></path>
                                <path d="M6.79747036,10.9463141 L25.2892683,10.9463141 L25.2892683,3.23720421 L6.79747036,3.23720421 L6.79747036,10.9463141 Z M5.94618387,11.7993901 L26.1412081,11.7993901 L26.1412081,2.38347348 L5.94618387,2.38347348 L5.94618387,11.7993901 Z" id="Fill-23" fill="#FFD15C"></path>
                            </g>
                            <text id="-%" font-family=".AppleSystemUIFont" font-size="9" font-weight="normal" fill="#FFFFFF">
                                <tspan x="8.34690812" y="10.0620004">-%</tspan>
                            </text>
                        </g>
                    </g>
                </g>
            </g>
        </g>
    </g>
</svg>