<svg width="58" height="68" viewBox="0 0 58 68" fill="none" xmlns="http://www.w3.org/2000/svg">
<path d="M57.9792 5.41284H6.05371V67.0704H57.9792V5.41284Z" fill="#ACB3BA"/>
<path d="M0.020874 51.2786V0.929688H53.0391V63.0485H12.0864" fill="#F4F4F4"/>
<path d="M0.0209961 51.2786H12.0865V63.0485L0.0209961 51.2786Z" fill="#CFD5E0"/>
<path d="M8.41492 9.76651H11.5545C12.2788 9.76651 12.822 9.92303 13.1842 10.2361C13.5463 10.5491 13.7274 10.9849 13.7274 11.5435C13.7274 11.8565 13.6814 12.1174 13.5893 12.3261C13.4972 12.5286 13.3898 12.6944 13.267 12.8233C13.1443 12.946 13.0215 13.035 12.8988 13.0903C12.7821 13.1455 12.6962 13.1823 12.641 13.2007V13.2192C12.7392 13.2314 12.8435 13.2621 12.954 13.3112C13.0706 13.3603 13.178 13.4401 13.2762 13.5506C13.3745 13.655 13.4543 13.7931 13.5156 13.9649C13.5832 14.1368 13.6169 14.3516 13.6169 14.6094C13.6169 14.9961 13.6445 15.3491 13.6998 15.6682C13.7612 15.9813 13.8532 16.2053 13.976 16.3403H12.7422C12.6563 16.1992 12.6041 16.0427 12.5857 15.8708C12.5734 15.6989 12.5673 15.5332 12.5673 15.3736C12.5673 15.0728 12.5489 14.815 12.5121 14.6002C12.4752 14.3792 12.4077 14.1982 12.3095 14.057C12.2113 13.9097 12.0763 13.8023 11.9044 13.7347C11.7387 13.6672 11.5238 13.6335 11.2599 13.6335H9.5658V16.3403H8.41492V9.76651ZM9.5658 12.7588H11.4532C11.8215 12.7588 12.1008 12.6729 12.2911 12.501C12.4814 12.323 12.5765 12.0591 12.5765 11.7092C12.5765 11.5005 12.5458 11.3317 12.4844 11.2028C12.4231 11.0678 12.3371 10.9634 12.2266 10.8898C12.1223 10.8161 11.9995 10.767 11.8584 10.7425C11.7233 10.7179 11.5821 10.7056 11.4348 10.7056H9.5658V12.7588Z" fill="#47BCE9"/>
<path d="M14.8976 9.76651H19.6301V10.7609H16.0485V12.4826H19.3631V13.4217H16.0485V15.346H19.6945V16.3403H14.8976V9.76651Z" fill="#47BCE9"/>
<path d="M20.697 9.76651H23.5972C24.0637 9.76651 24.4443 9.83402 24.7389 9.96906C25.0335 10.1041 25.2606 10.2729 25.4202 10.4754C25.5798 10.678 25.6872 10.899 25.7425 11.1384C25.8039 11.3777 25.8345 11.5987 25.8345 11.8013C25.8345 12.0038 25.8039 12.2248 25.7425 12.4642C25.6872 12.6974 25.5798 12.9153 25.4202 13.1179C25.2606 13.3204 25.0335 13.4892 24.7389 13.6243C24.4443 13.7532 24.0637 13.8176 23.5972 13.8176H21.8479V16.3403H20.697V9.76651ZM21.8479 12.8785H23.5328C23.6617 12.8785 23.7936 12.8601 23.9287 12.8233C24.0637 12.7864 24.1865 12.7281 24.297 12.6483C24.4136 12.5624 24.5057 12.4519 24.5732 12.3169C24.6468 12.1757 24.6837 12.0008 24.6837 11.7921C24.6837 11.5772 24.653 11.3992 24.5916 11.258C24.5302 11.1169 24.4473 11.0064 24.343 10.9266C24.2387 10.8407 24.119 10.7824 23.9839 10.7517C23.8489 10.721 23.7046 10.7056 23.5512 10.7056H21.8479V12.8785Z" fill="#47BCE9"/>
<path d="M29.637 10.5491C29.2871 10.5491 28.9833 10.6197 28.7255 10.7609C28.4738 10.902 28.2682 11.0923 28.1086 11.3317C27.949 11.565 27.8293 11.832 27.7495 12.1327C27.6759 12.4335 27.6391 12.7404 27.6391 13.0534C27.6391 13.3665 27.6759 13.6734 27.7495 13.9741C27.8293 14.2749 27.949 14.545 28.1086 14.7844C28.2682 15.0176 28.4738 15.2048 28.7255 15.346C28.9833 15.4872 29.2871 15.5577 29.637 15.5577C29.9869 15.5577 30.2876 15.4872 30.5393 15.346C30.7971 15.2048 31.0058 15.0176 31.1654 14.7844C31.3249 14.545 31.4416 14.2749 31.5152 13.9741C31.595 13.6734 31.6349 13.3665 31.6349 13.0534C31.6349 12.7404 31.595 12.4335 31.5152 12.1327C31.4416 11.832 31.3249 11.565 31.1654 11.3317C31.0058 11.0923 30.7971 10.902 30.5393 10.7609C30.2876 10.6197 29.9869 10.5491 29.637 10.5491ZM29.637 9.60999C30.128 9.60999 30.5669 9.70206 30.9536 9.8862C31.3464 10.0703 31.6779 10.3189 31.948 10.632C32.218 10.945 32.4237 11.3102 32.5648 11.7276C32.7121 12.145 32.7858 12.5869 32.7858 13.0534C32.7858 13.5261 32.7121 13.9711 32.5648 14.3885C32.4237 14.8058 32.218 15.1711 31.948 15.4841C31.6779 15.7971 31.3464 16.0457 30.9536 16.2299C30.5669 16.4079 30.128 16.4969 29.637 16.4969C29.1459 16.4969 28.704 16.4079 28.3112 16.2299C27.9245 16.0457 27.5961 15.7971 27.326 15.4841C27.0559 15.1711 26.8472 14.8058 26.6999 14.3885C26.5588 13.9711 26.4882 13.5261 26.4882 13.0534C26.4882 12.5869 26.5588 12.145 26.6999 11.7276C26.8472 11.3102 27.0559 10.945 27.326 10.632C27.5961 10.3189 27.9245 10.0703 28.3112 9.8862C28.704 9.70206 29.1459 9.60999 29.637 9.60999Z" fill="#47BCE9"/>
<path d="M33.8333 9.76651H36.9729C37.6971 9.76651 38.2404 9.92303 38.6025 10.2361C38.9647 10.5491 39.1457 10.9849 39.1457 11.5435C39.1457 11.8565 39.0997 12.1174 39.0076 12.3261C38.9156 12.5286 38.8081 12.6944 38.6854 12.8233C38.5626 12.946 38.4399 13.035 38.3171 13.0903C38.2005 13.1455 38.1145 13.1823 38.0593 13.2007V13.2192C38.1575 13.2314 38.2619 13.2621 38.3723 13.3112C38.489 13.3603 38.5964 13.4401 38.6946 13.5506C38.7928 13.655 38.8726 13.7931 38.934 13.9649C39.0015 14.1368 39.0352 14.3516 39.0352 14.6094C39.0352 14.9961 39.0629 15.3491 39.1181 15.6682C39.1795 15.9813 39.2716 16.2053 39.3943 16.3403H38.1606C38.0746 16.1992 38.0225 16.0427 38.0041 15.8708C37.9918 15.6989 37.9856 15.5332 37.9856 15.3736C37.9856 15.0728 37.9672 14.815 37.9304 14.6002C37.8936 14.3792 37.826 14.1982 37.7278 14.057C37.6296 13.9097 37.4946 13.8023 37.3227 13.7347C37.157 13.6672 36.9422 13.6335 36.6782 13.6335H34.9841V16.3403H33.8333V9.76651ZM34.9841 12.7588H36.8716C37.2399 12.7588 37.5191 12.6729 37.7094 12.501C37.8997 12.323 37.9948 12.0591 37.9948 11.7092C37.9948 11.5005 37.9642 11.3317 37.9028 11.2028C37.8414 11.0678 37.7555 10.9634 37.645 10.8898C37.5406 10.8161 37.4179 10.767 37.2767 10.7425C37.1417 10.7179 37.0005 10.7056 36.8532 10.7056H34.9841V12.7588Z" fill="#47BCE9"/>
<path d="M39.528 9.76651H44.8497V10.7609H42.7597V16.3403H41.6088V10.7609H39.528V9.76651Z" fill="#47BCE9"/>
<path d="M45.2552 25.5936H7.80029V27.5598H45.2552V25.5936Z" fill="#CFD5E0"/>
<path d="M45.2552 31.3307H7.80029V33.2969H45.2552V31.3307Z" fill="#CFD5E0"/>
<path d="M45.2552 37.0679H7.80029V39.0341H45.2552V37.0679Z" fill="#CFD5E0"/>
<path d="M30.2562 42.8051H7.80029V44.7712H30.2562V42.8051Z" fill="#CFD5E0"/>
</svg>
