<?xml version="1.0" encoding="UTF-8"?>
<svg width="30px" height="27px" viewBox="0 0 30 27" version="1.1" xmlns="http://www.w3.org/2000/svg" xmlns:xlink="http://www.w3.org/1999/xlink">
    <!-- Generator: Sketch 56.2 (81672) - https://sketch.com -->
    <title>scooter (1)</title>
    <desc>Created with Sketch.</desc>
    <g id="3.-Delivery" stroke="none" stroke-width="1" fill="none" fill-rule="evenodd">
        <g id="Delivery-detail-3" transform="translate(-824.000000, -547.000000)">
            <g id="Group-3" transform="translate(424.000000, 541.000000)">
                <g id="kitchen" transform="translate(377.000000, 0.000000)">
                    <g id="scooter-(1)" transform="translate(23.000000, 6.000000)">
                        <g transform="translate(0.000000, 0.000000)">
                            <polygon id="Path" fill="#003365" fill-rule="nonzero" points="17.2027485 4.74695906 21.4968421 4.74695906 21.4968421 6.50134503 17.2027485 6.50134503"></polygon>
                            <polygon id="Path" fill="#FFD700" fill-rule="nonzero" points="10.7602339 10.7898246 0 10.7898246 0 0.0295906433 4.50292398 0.0295906433 5.38011696 0.614385965 6.25730994 0.0295906433 10.7602339 0.0295906433"></polygon>
                            <polygon id="Path" fill="#FFC200" fill-rule="nonzero" points="10.7602339 0.0295906433 6.25730994 0.0295906433 5.38011696 0.614385965 5.38011696 10.7898246 10.7602339 10.7898246"></polygon>
                            <path d="M6.72350877,25.8190643 C5.42397661,25.8190643 4.36625731,24.7610526 4.36520468,23.4596491 L4.36479532,22.9535673 L9.08444444,22.9535673 L9.08485465,23.4588304 C9.08538012,24.0888304 8.84,24.6814035 8.39391813,25.1273099 C7.94818713,25.5728655 7.35567251,25.818538 6.7254386,25.8190643 C6.72479532,25.8190643 6.72415205,25.8190643 6.72350877,25.8190643 Z" id="Path" fill="#DAD0CB" fill-rule="nonzero"></path>
                            <path d="M24.9121637,25.7605848 C23.6648538,25.7605848 22.6496491,24.745731 22.648655,23.4974854 L22.6483041,23.0120468 L27.1753216,23.0120468 L27.1757317,23.4966667 C27.1767251,24.7439766 26.1621637,25.7595322 24.914152,25.7605848 C24.9133918,25.7605848 24.9127485,25.7605848 24.9121637,25.7605848 Z" id="Path" fill="#C6BCB7" fill-rule="nonzero"></path>
                            <polygon id="Path" fill="#FF9A00" fill-rule="nonzero" points="4.50292398 0.0295906433 6.25730994 0.0295906433 6.25730994 3.24596491 4.50292398 3.24596491"></polygon>
                            <path d="M20.4093567,20.2754386 L20.4093567,9.62023392 C21.0945029,8.93508772 21.4785965,8.55099415 22.1637427,7.86584795 L24.9435088,7.86584795 L26.9881871,19.3708187 L20.4093567,20.2754386 Z" id="Path" fill="#00B0FF" fill-rule="nonzero"></path>
                            <path d="M23.5087719,23.6553216 L11.6959064,23.6553216 L6.7251462,22.485731 L1.75438596,23.6553216 L-1.65976022e-06,23.6553216 L-1.65976022e-06,17.5219298 C-0.00222222222,14.7797661 2.22730994,12.5464912 4.97005848,12.544269 L14.9707602,12.544269 L14.9707602,16.9302339 C14.9710526,17.3204094 15.1234503,17.6879532 15.3998246,17.9644444 C15.6755556,18.2402924 16.0417544,18.3922222 16.4308187,18.3922222 L16.4320468,18.3922222 L23.5087719,18.3922222 L23.5087719,23.6553216 Z" id="Path" fill="#57CAFF" fill-rule="nonzero"></path>
                            <path d="M16.4308187,18.3921637 C16.0417544,18.3921637 15.6755556,18.2402339 15.3998246,17.964386 C15.1234503,17.6878947 14.9710526,17.3203509 14.9707602,16.9301754 L14.9707602,23.6553216 L23.5087719,23.6553216 L23.5087719,18.3921637 L16.4319883,18.3921637 C16.4315789,18.3921637 16.4312865,18.3921637 16.4308187,18.3921637 Z" id="Path" fill="#00B0FF" fill-rule="nonzero"></path>
                            <path d="M6.72251462,26.8716959 C4.46824561,26.8716959 2.63339181,25.0363743 2.63157895,22.7788304 L2.63087719,21.9009357 L10.8180117,21.9009357 L10.8187148,22.7774269 C10.8195906,23.8702924 10.3939766,24.8982456 9.62017544,25.6717544 C8.84701754,26.4446199 7.81912281,26.8708187 6.72584795,26.8716959 C6.72479532,26.8716959 6.72362573,26.8716959 6.72251462,26.8716959 Z M4.5571345,23.6553216 C4.9048538,24.5118713 5.74473684,25.1173099 6.7225731,25.1173099 L6.72444444,25.1173099 C7.34976608,25.1167836 7.93766082,24.8730409 8.37988304,24.4309942 C8.60549708,24.2054386 8.77929825,23.9420468 8.89532164,23.6553216 L4.5571345,23.6553216 Z" id="Shape" fill="#003365" fill-rule="nonzero"></path>
                            <path d="M24.9123392,26.8716959 C22.6566082,26.8716959 20.8205263,25.0363743 20.8187135,22.7788304 L20.8180117,21.9009357 L29.0051462,21.9009357 L29.0058493,22.7774269 C29.0076608,25.0331579 27.172807,26.8698246 24.915731,26.8716959 C24.9145614,26.8716959 24.9134503,26.8716959 24.9123392,26.8716959 Z M22.7444444,23.6553216 C23.0925731,24.5118713 23.9334503,25.1173099 24.9123392,25.1173099 L24.914269,25.1173099 C25.8939181,25.1164912 26.734386,24.5110526 27.081462,23.6553216 L22.7444444,23.6553216 Z" id="Shape" fill="#000A32" fill-rule="nonzero"></path>
                            <path d="M29.9422807,23.6553216 L19.8838012,23.6553216 L19.8830392,22.7788889 C19.8819298,21.4363158 20.4049123,20.1735673 21.3556725,19.2232164 C22.3056725,18.2735673 23.568538,17.75 24.9115789,17.7488889 L24.9157895,17.7488889 C27.6851462,17.7488889 29.9392398,20.0038012 29.9415205,22.7774854 L29.9422807,23.6553216 Z" id="Path" fill="#007DFD" fill-rule="nonzero"></path>
                            <path d="M11.6959064,23.6553216 L1.75438446,23.6553216 L1.75438446,21.0237427 C1.75239766,18.6076608 3.71964912,16.6397661 6.13964912,16.6377778 L7.30994152,16.6377778 L7.31362573,16.6377778 C8.48309942,16.6377778 9.58315789,17.0937427 10.4108772,17.9219883 C11.2385965,18.7502339 11.6949708,19.8515205 11.6959064,21.0230409 L11.6959064,23.6553216 Z" id="Path" fill="#00B0FF" fill-rule="nonzero"></path>
                            <path d="M23.3333333,9.62023392 L20.4093567,9.62023392 L20.4093567,3.7722807 L23.3333333,3.7722807 C24.945614,3.7722807 26.2573099,5.08397661 26.2573099,6.69625731 C26.2573099,8.30853801 24.945614,9.62023392 23.3333333,9.62023392 Z" id="Path" fill="#007DFD" fill-rule="nonzero"></path>
                            <path d="M14.0935673,14.2985965 L4.73684211,14.2985965 C3.28578947,14.2985965 2.10526316,13.1180702 2.10526316,11.6670175 C2.10526316,10.2159649 3.28578947,9.0354386 4.73684211,9.0354386 L14.0935673,9.0354386 C15.5446199,9.0354386 16.7251462,10.2159649 16.7251462,11.6670175 C16.7251462,13.1180702 15.5446784,14.2985965 14.0935673,14.2985965 Z" id="Path" fill="#004984" fill-rule="nonzero"></path>
                            <polygon id="Path" fill="#FF6600" fill-rule="nonzero" points="5.38011696 0.0295906433 6.25730994 0.0295906433 6.25730994 3.24596491 5.38011696 3.24596491"></polygon>
                        </g>
                    </g>
                </g>
            </g>
        </g>
    </g>
</svg>