<?xml version="1.0" encoding="UTF-8"?>
<svg width="26px" height="16px" viewBox="0 0 26 16" version="1.1" xmlns="http://www.w3.org/2000/svg" xmlns:xlink="http://www.w3.org/1999/xlink">
    <!-- Generator: Sketch 56.2 (81672) - https://sketch.com -->
    <title>Group</title>
    <desc>Created with Sketch.</desc>
    <g id="Order" stroke="none" stroke-width="1" fill="none" fill-rule="evenodd">
        <g transform="translate(-183.000000, -427.000000)" id="Select">
            <g transform="translate(9.000000, 9.000000)">
                <g id="2" transform="translate(0.000000, 408.000000)">
                    <g id="Col-2" transform="translate(127.000000, 1.000000)">
                        <g id="Top-Title">
                            <g id="Group-16" transform="translate(33.000000, 9.000000)">
                                <g id="Group" transform="translate(14.000000, 0.000000)">
                                    <path d="M20.2396316,12.9466316 C21.9132105,13.8997368 24.1129474,13.7868421 25.6442105,12.6886842 C25.8029474,12.5751053 25.9055789,12.3992632 25.9254211,12.2049474 C26.0889474,10.6682105 25.5080526,9.18005263 24.3825263,8.13731579 C25.5080526,7.09526316 26.0889474,5.60778947 25.9254211,4.07242105 C25.9055789,3.87810526 25.8029474,3.70226316 25.6435263,3.58868421 C24.1115789,2.49052632 21.9104737,2.37831579 20.2396316,3.33073684 C17.9899474,1.57436842 15.1771579,0.612368421 12.2610526,0.612368421 C7.24510526,0.612368421 2.70057895,3.45457895 0.684210526,7.85405263 C0.601421053,8.03468421 0.601421053,8.24268421 0.684210526,8.42331579 C2.70057895,12.8227895 7.24510526,15.665 12.2610526,15.665 C15.1778421,15.665 17.9906316,14.703 20.2396316,12.9466316 Z" id="Fill-17" fill="#48A0DC"></path>
                                    <path d="M10.8926316,5.40184211 L10.8926316,10.8755263 C10.8926316,11.2532105 10.5867895,11.5597368 10.2084211,11.5597368 C9.83005263,11.5597368 9.52421053,11.2532105 9.52421053,10.8755263 L9.52421053,5.40184211 C9.52421053,5.02415789 9.83005263,4.71763158 10.2084211,4.71763158 C10.5867895,4.71763158 10.8926316,5.02415789 10.8926316,5.40184211 L10.8926316,5.40184211 Z M6.78736842,6.77026316 C7.54273684,6.77026316 8.15578947,7.38263158 8.15578947,8.13868421 C8.15578947,8.89473684 7.54273684,9.50710526 6.78736842,9.50710526 C6.03131579,9.50710526 5.41894737,8.89473684 5.41894737,8.13868421 C5.41894737,7.38263158 6.03131579,6.77026316 6.78736842,6.77026316 L6.78736842,6.77026316 Z" id="Fill-18" fill="#FFFFFF"></path>
                                </g>
                            </g>
                        </g>
                    </g>
                </g>
            </g>
        </g>
    </g>
</svg>