<?xml version="1.0" encoding="UTF-8"?>
<svg width="20px" height="27px" viewBox="0 0 20 27" version="1.1" xmlns="http://www.w3.org/2000/svg" xmlns:xlink="http://www.w3.org/1999/xlink">
    <!-- Generator: Sketch 56.2 (81672) - https://sketch.com -->
    <title>shipper</title>
    <desc>Created with Sketch.</desc>
    <g id="3.-Delivery" stroke="none" stroke-width="1" fill="none" fill-rule="evenodd">
        <g id="Delivery-detail-4" transform="translate(-846.000000, -547.000000)">
            <g id="Group-3" transform="translate(424.000000, 541.000000)">
                <g id="kitchen" transform="translate(377.000000, 0.000000)">
                    <g id="shipper" transform="translate(45.000000, 6.000000)">
                        <g id="delivery-man" transform="translate(0.000000, 0.000000)">
                            <path d="M10,1.34745565 C9.74863636,1.34745565 9.54545455,1.14675166 9.54545455,0.898453437 L9.54545455,0.44945122 C9.54545455,0.201152993 9.74863636,0.000449002217 10,0.000449002217 C10.2513636,0.000449002217 10.4545455,0.201152993 10.4545455,0.44945122 L10.4545455,0.898453437 C10.4545455,1.14675166 10.2513636,1.34745565 10,1.34745565 Z" id="Path" fill="#D3374E" fill-rule="nonzero"></path>
                            <polygon id="Path" fill="#F6BB42" fill-rule="nonzero" points="9.1 22.0096397 8.63636364 23.8056486 2.73636364 23.8056486 4.55454545 22.0096397"></polygon>
                            <path d="M20,26.935194 L20,26.939684 L17.2818182,26.939684 L17.2818182,26.935194 L17.2818182,23.8051996 L15.4636364,22.0091907 L10.9181818,22.0091907 L9.1,22.0091907 L4.55454545,22.0091907 L2.73636364,23.8051996 L2.73636364,26.939235 L0,26.939235 L0,26.934745 L0,22.9027051 C0,20.9136253 1.62727273,19.3106874 3.63636364,19.3106874 L6.81818182,19.3106874 L8.63636364,20.2042018 L10,19.7596896 L11.3636364,20.2042018 L13.1818182,19.3106874 L16.3636364,19.3106874 C18.3727273,19.3106874 20,20.9136253 20,22.9027051 L20,26.935194 Z" id="Path" fill="#ED5565" fill-rule="nonzero"></path>
                            <path d="M16.3636364,19.3111364 L14.9986364,19.3111364 C17.0077273,19.3111364 18.635,20.9140743 18.635,22.9031541 L18.635,26.935194 L18.635,26.939684 L20,26.939684 L20,26.935194 L20,22.9031541 C20,20.9140743 18.3727273,19.3111364 16.3636364,19.3111364 Z" id="Path" fill="#DA4453" fill-rule="nonzero"></path>
                            <polygon id="Path" fill="#FFCE54" fill-rule="nonzero" points="8.63636364 25.1522062 11.3636364 25.1522062 11.3636364 23.8056486 17.2818182 23.8056486 17.2818182 26.935194 17.2818182 26.939684 2.73636364 26.939684 2.73636364 23.8056486 8.63636364 23.8056486"></polygon>
                            <polygon id="Path" fill="#E6E9ED" fill-rule="nonzero" points="8.63636364 23.8056486 11.3636364 23.8056486 11.3636364 25.1522062 8.63636364 25.1522062"></polygon>
                            <path d="M13.1818182,17.1873559 L13.1818182,19.3106874 L11.3636364,20.2042018 L10,19.7596896 L8.63636364,20.2042018 L6.81818182,19.3106874 L6.81818182,17.1873559 C7.76818182,17.6817073 8.85,17.9641297 10,17.9641297 C11.15,17.9641297 12.2318182,17.6817073 13.1818182,17.1873559 Z" id="Path" fill="#FFCE54" fill-rule="nonzero"></path>
                            <polygon id="Path" fill="#F6BB42" fill-rule="nonzero" points="17.2818182 23.8056486 11.3636364 23.8056486 10.9181818 22.0096397 15.4636364 22.0096397"></polygon>
                            <polygon id="Path" fill="#CCD1D9" fill-rule="nonzero" points="10.9181818 22.0096397 11.3636364 23.8056486 8.63636364 23.8056486 9.1 22.0096397"></polygon>
                            <path d="M10,7.18403548 C6.28181818,7.18403548 4.21818182,7.8575388 3.18181818,8.37838137 L3.18181818,7.18403548 C3.18181818,3.46629712 6.23636364,0.449002217 10,0.449002217 C13.7681818,0.449002217 16.8181818,3.46629712 16.8181818,7.18403548 L16.8181818,8.37838137 C15.7818182,7.8575388 13.7181818,7.18403548 10,7.18403548 Z M11.3636364,4.04101996 C11.3636364,3.3001663 10.7545455,2.6940133 10,2.6940133 C9.25,2.6940133 8.63636364,3.3001663 8.63636364,4.04101996 C8.63636364,4.78636364 9.25,5.38802661 10,5.38802661 C10.7545455,5.38802661 11.3636364,4.78636364 11.3636364,4.04101996 Z" id="Shape" fill="#ED5565" fill-rule="nonzero"></path>
                            <path d="M10,0.449002217 C9.76954545,0.449002217 9.54227273,0.460676275 9.31772727,0.483126386 C12.765,0.821674058 15.4531818,3.69394124 15.4531818,7.18403548 L15.4531818,7.84900776 C16.0309091,8.02277162 16.4804545,8.20865854 16.8181818,8.37838137 L16.8181818,7.18403548 C16.8181818,3.46629712 13.7681818,0.449002217 10,0.449002217 Z" id="Path" fill="#DA4453" fill-rule="nonzero"></path>
                            <path d="M10,2.6940133 C10.7545455,2.6940133 11.3636364,3.3001663 11.3636364,4.04101996 C11.3636364,4.78636364 10.7545455,5.38802661 10,5.38802661 C9.25,5.38802661 8.63636364,4.78636364 8.63636364,4.04101996 C8.63636364,3.3001663 9.25,2.6940133 10,2.6940133 Z" id="Path" fill="#FFCE54" fill-rule="nonzero"></path>
                            <path d="M16.8181818,8.37838137 C17.4772727,8.71019401 17.7272727,8.98004435 17.7272727,8.98004435 L16.8181818,8.98004435 L3.18181818,8.98004435 L2.27272727,8.98004435 C2.27272727,8.98004435 2.52272727,8.71019401 3.18181818,8.37838137 C4.21818182,7.8575388 6.28181818,7.18403548 10,7.18403548 C13.7181818,7.18403548 15.7818182,7.8575388 16.8181818,8.37838137 Z" id="Path" fill="#FFCE54" fill-rule="nonzero"></path>
                            <path d="M16.8181818,8.98004435 L16.8181818,11.2295455 C16.8181818,13.8113082 15.3454545,16.0563193 13.1818182,17.1878049 C12.2318182,17.6821563 11.15,17.9645787 10,17.9645787 C8.85,17.9645787 7.76818182,17.6817073 6.81818182,17.1878049 C4.65454545,16.0563193 3.18181818,13.8113082 3.18181818,11.2295455 L3.18181818,8.98004435 L16.8181818,8.98004435 Z" id="Path" fill="#EAC6BB" fill-rule="nonzero"></path>
                            <path d="M15.4531818,8.98004435 L15.4531818,11.2295455 C15.4531818,13.8113082 13.9804545,16.0563193 11.8168182,17.1878049 C11.0572727,17.5829268 10.2131818,17.8397561 9.31727273,17.9282095 C9.54227273,17.9502106 9.76909091,17.9645787 10,17.9645787 C11.15,17.9645787 12.2318182,17.6817073 13.1818182,17.1878049 C15.3454545,16.0563193 16.8181818,13.8113082 16.8181818,11.2295455 L16.8181818,8.98004435 L15.4531818,8.98004435 Z" id="Path" fill="#D3B1A9" fill-rule="nonzero"></path>
                            <path d="M10.9086364,25.6003104 L9.09136364,25.6003104 C8.84,25.6003104 8.63681818,25.3996064 8.63681818,25.1513082 C8.63681818,24.90301 8.84,24.702306 9.09136364,24.702306 L10.9086364,24.702306 C11.16,24.702306 11.3631818,24.90301 11.3631818,25.1513082 C11.3631818,25.3996064 11.16,25.6003104 10.9086364,25.6003104 Z" id="Path" fill="#E6E9ED" fill-rule="nonzero"></path>
                        </g>
                    </g>
                </g>
            </g>
        </g>
    </g>
</svg>