<?xml version="1.0" encoding="UTF-8"?>
<svg width="19px" height="26px" viewBox="0 0 19 26" version="1.1" xmlns="http://www.w3.org/2000/svg" xmlns:xlink="http://www.w3.org/1999/xlink">
    <!-- Generator: Sketch 56.2 (81672) - https://sketch.com -->
    <title>Group</title>
    <desc>Created with Sketch.</desc>
    <g id="Order" stroke="none" stroke-width="1" fill="none" fill-rule="evenodd">
        <g transform="translate(-35.000000, -137.000000)" id="Select">
            <g transform="translate(9.000000, 9.000000)">
                <g id="1" transform="translate(0.000000, 113.000000)">
                    <g id="Col-1">
                        <g id="Top-Title">
                            <g id="Group-4" transform="translate(26.000000, 15.000000)">
                                <g id="Group">
                                    <path d="M8.7243,0.58175 L10.66975,0.58175 C10.84915,0.58175 10.9941,0.72735 10.9941,0.90675 L10.9941,20.08175 L8.39995,20.08175 L8.39995,0.90675 C8.39995,0.72735 8.5449,0.58175 8.7243,0.58175" id="Fill-294" fill="#EEAF4B"></path>
                                    <path d="M16.51065,2.58505 L18.44765,2.9055 C18.6251,2.9354 18.7447,3.10375 18.71415,3.2812 L15.52525,22.0311 L12.94865,21.60405 L16.1382,2.8509 C16.1681,2.67475 16.3345,2.5558 16.51065,2.58505" id="Fill-295" fill="#EEAF4B"></path>
                                    <path d="M11.60445,3.8701 L13.56355,3.9858 C13.74295,3.99685 13.87945,4.15155 13.8684,4.3316 L12.65225,23.3129 L10.0451,23.1582 L11.2619,4.17365 C11.27295,3.9949 11.42635,3.85905 11.60445,3.8701" id="Fill-296" fill="#EEAF4B"></path>
                                    <path d="M2.88275,2.58505 L0.9464,2.9055 C0.76895,2.9354 0.64935,3.10375 0.6799,3.2812 L3.8688,22.0311 L6.4454,21.60405 L3.25585,2.8509 C3.22595,2.67475 3.0589,2.5558 2.88275,2.58505" id="Fill-297" fill="#EEAF4B"></path>
                                    <path d="M4.8321,4.48175 L6.7782,4.48175 C6.9576,4.48175 7.10255,4.62735 7.10255,4.80675 L7.10255,23.98175 L4.5084,23.98175 L4.5084,4.80675 C4.5084,4.62735 4.65335,4.48175 4.8321,4.48175" id="Fill-298" fill="#EEAF4B"></path>
                                    <path d="M18.62055,11.85795 C18.49705,11.7143 18.31765,11.63175 18.12915,11.63175 L13.04875,11.63175 C12.818,11.63175 12.60415,11.7546 12.48845,11.9548 C11.89695,12.97335 10.8537,13.58175 9.6967,13.58175 C8.541,13.58175 7.49775,12.97335 6.9056,11.95415 C6.7899,11.7546 6.5754,11.63175 6.3453,11.63175 L1.2649,11.63175 C1.0764,11.63175 0.897,11.7143 0.7735,11.85795 C0.65065,12.00095 0.5954,12.19075 0.62335,12.37795 L2.56945,25.37795 C2.61755,25.69645 2.8899,25.93175 3.211,25.93175 L16.18305,25.93175 C16.50415,25.93175 16.7765,25.69645 16.8246,25.37795 L18.7707,12.37795 C18.79865,12.19075 18.7434,12.00095 18.62055,11.85795" id="Fill-299" fill="#ED7161"></path>
                                </g>
                            </g>
                        </g>
                    </g>
                </g>
            </g>
        </g>
    </g>
</svg>