<?xml version="1.0" encoding="UTF-8"?>
<svg width="25px" height="24px" viewBox="0 0 25 24" version="1.1" xmlns="http://www.w3.org/2000/svg" xmlns:xlink="http://www.w3.org/1999/xlink">
    <!-- Generator: Sketch 56.2 (81672) - https://sketch.com -->
    <title>split_checked</title>
    <desc>Created with Sketch.</desc>
    <g id="2.-Order" stroke="none" stroke-width="1" fill="none" fill-rule="evenodd">
        <g id="Order-case-1-v2-after-split-1" transform="translate(-437.000000, -560.000000)">
            <g id="Bottom" transform="translate(0.000000, 541.000000)">
                <g id="3-copy-2" transform="translate(421.000000, 10.000000)">
                    <g id="split_checked" transform="translate(16.000000, 9.000000)">
                        <g id="Split-check-2">
                            <g id="Page-1" stroke-width="1" transform="translate(3.142857, 0.000000)">
                                <path d="M15.2798794,2.90843311 L0.878716513,2.90843311 C0.393274184,2.90843311 8.7862865e-05,3.30986202 8.7862865e-05,3.80447979 L8.7862865e-05,20.6013228 C8.7862865e-05,21.0963886 0.393274184,21.4973695 0.878716513,21.4973695 L15.2798794,21.4973695 C15.7648824,21.4973695 16.1585081,21.0963886 16.1585081,20.6013228 L16.1585081,3.80447979 C16.1585081,3.30986202 15.7648824,2.90843311 15.2798794,2.90843311" id="Fill-1" fill="#FF5E3B"></path>
                                <polygon id="Fill-3" fill="#F2F2F2" points="1.75769661 19.7055001 14.4011629 19.7055001 14.4011629 4.70030245 1.75769661 4.70030245"></polygon>
                                <path d="M11.9924024,1.71413729 L10.701697,1.71413729 C10.2549143,0.704292689 9.2616246,0 8.10447067,0 C6.94775605,0 5.95446636,0.704292689 5.50768369,1.71413729 L4.21741752,1.71413729 C3.63532604,1.71413729 3.16306314,2.19531436 3.16306314,2.78894528 L3.16306314,5.45109996 L13.0463175,5.45109996 L13.0463175,2.78894528 C13.0463175,2.19531436 12.5744939,1.71413729 11.9924024,1.71413729" id="Fill-5" fill="#40596B"></path>
                                <path d="M8.98577914,2.12484029 C8.98577914,2.6355869 8.5798527,3.04911244 8.07947368,3.04911244 C7.57865535,3.04911244 7.17272892,2.6355869 7.17272892,2.12484029 C7.17272892,1.61409368 7.57865535,1.20012012 8.07947368,1.20012012 C8.5798527,1.20012012 8.98577914,1.61409368 8.98577914,2.12484029" id="Fill-6" fill="#FFFFFF"></path>
                                <polygon id="Fill-9" fill="#91A2B7" points="2.91497976 9.45016671 13.4888362 9.45016671 13.4888362 9.00214337 2.91497976 9.00214337"></polygon>
                                <polygon id="Fill-10" fill="#91A2B7" points="2.91497976 13.540724 13.4888362 13.540724 13.4888362 13.003096 2.91497976 13.003096"></polygon>
                                <polygon id="Fill-11" fill="#91A2B7" points="5.34412955 17.5416766 11.1887673 17.5416766 11.1887673 17.0040486 5.34412955 17.0040486"></polygon>
                            </g>
                            <rect id="Rectangle" fill="#FF5E3B" x="0" y="12.2941176" width="22" height="1.29411765"></rect>
                        </g>
                        <g id="checked" transform="translate(13.000000, 12.000000)">
                            <circle id="Oval" fill="#FFFFFF" cx="5.64705882" cy="6.35294118" r="4.94117647"></circle>
                            <g id="icon" stroke-width="1" fill="#28B135">
                                <path d="M6,0 C2.6865,0 0,2.6865 0,6 C0,9.3135 2.6865,12 6,12 C9.3135,12 12,9.3135 12,6 C12,2.6865 9.3135,0 6,0 Z M5.07,8.768625 L2.30925,6.0075 L3.36975,4.947 L5.069625,6.647625 L8.676,3.04125 L9.7365,4.10175 L5.07,8.768625 Z" id="Shape" fill-rule="nonzero"></path>
                            </g>
                        </g>
                    </g>
                </g>
            </g>
        </g>
    </g>
</svg>