<?xml version="1.0" encoding="UTF-8"?>
<svg width="30px" height="30px" viewBox="0 0 30 30" version="1.1" xmlns="http://www.w3.org/2000/svg" xmlns:xlink="http://www.w3.org/1999/xlink">
    <!-- Generator: Sketch 56.2 (81672) - https://sketch.com -->
    <title>store (1)</title>
    <desc>Created with Sketch.</desc>
    <g id="1.-Home" stroke="none" stroke-width="1" fill="none" fill-rule="evenodd">
        <g id="Home-final-2" transform="translate(-17.000000, -88.000000)">
            <g id="Main-menu" transform="translate(0.000000, 76.000000)">
                <g id="Group-2">
                    <g id="store-(1)" transform="translate(17.000000, 12.000000)">
                        <g>
                            <polygon id="Path" fill="#F0785A" fill-rule="nonzero" points="0.833333333 5.83333333 0.833333333 11.2795745 0.833333333 15.4069326 0.833333333 30 3.45679012 30 29.1666667 30 29.1666667 11.2795745 29.1666667 5.83333333"></polygon>
                            <rect id="Rectangle" fill="#B35A5B" fill-rule="nonzero" x="2.5" y="15" width="14.1666667" height="11.6666667"></rect>
                            <rect id="Rectangle" fill="#B0D3F0" fill-rule="nonzero" x="3.33333333" y="15.8333333" width="12.5" height="10"></rect>
                            <path d="M8.11891759,5.83333333 L0.982698613,5.83333333 C0.883686325,5.83333333 0.811915513,5.73734848 0.839156989,5.64083333 L2.96713537,0.961439394 C3.23326363,0.375454545 3.812145,0 4.44970031,0 L9.16666667,0 L8.11891759,5.83333333 Z" id="Path" fill="#ED7161" fill-rule="nonzero"></path>
                            <polygon id="Path" fill="#ED7161" fill-rule="nonzero" points="22.5 5.83333333 15 5.83333333 15 0 21.4285714 0"></polygon>
                            <path d="M11.25,13.3333333 L11.25,13.3333333 C9.17892857,13.3333333 7.5,11.6544048 7.5,9.58333333 L7.5,5.83333333 L15,5.83333333 L15,9.58333333 C15,11.6544048 13.3210714,13.3333333 11.25,13.3333333 Z" id="Path" fill="#F0C419" fill-rule="nonzero"></path>
                            <path d="M26.25,13.3333333 L26.25,13.3333333 C24.1789286,13.3333333 22.5,11.6544048 22.5,9.58333333 L22.5,5.83333333 L29.9426786,5.83333333 C29.9742857,5.83333333 30,5.85904762 30,5.89065476 L30,9.58333333 C30,11.6544048 28.3210714,13.3333333 26.25,13.3333333 Z" id="Path" fill="#F0C419" fill-rule="nonzero"></path>
                            <polygon id="Path" fill="#F3D55B" fill-rule="nonzero" points="15 5.83333333 7.5 5.83333333 8.57142857 0 15 0"></polygon>
                            <path d="M29.8595693,5.83333333 L22.7140176,5.83333333 L21.6666667,0 L26.3818405,0 C27.0191536,0 27.597815,0.375454545 27.8643658,0.961969697 L29.9946775,5.6525 C30.019814,5.74318182 29.9527835,5.83333333 29.8595693,5.83333333 Z" id="Path" fill="#F3D55B" fill-rule="nonzero"></path>
                            <path d="M4.58333333,13.3333333 L4.58333333,13.3333333 C2.5122619,13.3333333 0.833333333,11.6544048 0.833333333,9.58333333 L0.833333333,5.98440476 C0.833333333,5.90083333 0.900833333,5.83333333 0.984404762,5.83333333 L8.33333333,5.83333333 L8.33333333,9.58333333 C8.33333333,11.6544048 6.65440476,13.3333333 4.58333333,13.3333333 Z" id="Path" fill="#D36259" fill-rule="nonzero"></path>
                            <path d="M18.75,13.3333333 L18.75,13.3333333 C16.6789286,13.3333333 15,11.6544048 15,9.58333333 L15,5.83333333 L22.5,5.83333333 L22.5,9.58333333 C22.5,11.6544048 20.8210714,13.3333333 18.75,13.3333333 Z" id="Path" fill="#D36259" fill-rule="nonzero"></path>
                            <rect id="Rectangle" fill="#B35A5B" fill-rule="nonzero" x="19.1666667" y="15" width="8.33333333" height="15"></rect>
                            <rect id="Rectangle" fill="#B0D3F0" fill-rule="nonzero" x="20" y="15.8333333" width="5.83333333" height="13.3333333"></rect>
                            <path d="M25.4166667,24.1666667 C25.18625,24.1666667 25,23.9431667 25,23.6666667 L25,22.1666667 C25,21.8901667 25.18625,21.6666667 25.4166667,21.6666667 C25.6470833,21.6666667 25.8333333,21.8901667 25.8333333,22.1666667 L25.8333333,23.6666667 C25.8333333,23.9431667 25.6470833,24.1666667 25.4166667,24.1666667 Z" id="Path" fill="#FFFFFF" fill-rule="nonzero"></path>
                            <g id="Group" transform="translate(8.333333, 16.666667)" fill="#FFFFFF" fill-rule="nonzero">
                                <path d="M0.803571429,3.125 C0.940714286,3.125 1.07785714,3.07395833 1.18232143,2.97239583 L3.32517857,0.8890625 C3.53464286,0.685416667 3.53464286,0.35625 3.32517857,0.152604167 C3.11571429,-0.0510416667 2.77714286,-0.0510416667 2.56767857,0.152604167 L0.424821429,2.2359375 C0.215357143,2.43958333 0.215357143,2.76875 0.424821429,2.97239583 C0.529285714,3.07395833 0.666428571,3.125 0.803571429,3.125 Z" id="Path"></path>
                                <path d="M0.803571429,5.72916667 C0.940714286,5.72916667 1.07785714,5.678125 1.18232143,5.5765625 L2.25375,4.53489583 C2.46321429,4.33125 2.46321429,4.00208333 2.25375,3.7984375 C2.04428571,3.59479167 1.70571429,3.59479167 1.49625,3.7984375 L0.424821429,4.84010417 C0.215357143,5.04375 0.215357143,5.37291667 0.424821429,5.5765625 C0.529285714,5.678125 0.666428571,5.72916667 0.803571429,5.72916667 Z" id="Path"></path>
                                <path d="M2.56607143,2.75520833 C2.46910714,2.85364583 2.41071429,2.98958333 2.41071429,3.125 C2.41071429,3.26041667 2.46910714,3.39583333 2.56607143,3.48958333 C2.66732143,3.58802083 2.80125,3.64583333 2.94642857,3.64583333 C3.08571429,3.64583333 3.225,3.58854167 3.32678571,3.49479167 C3.42321429,3.39583333 3.48214286,3.26041667 3.48214286,3.125 C3.48214286,2.98958333 3.42321429,2.85364583 3.32678571,2.75520833 C3.12857143,2.5625 2.76428571,2.5625 2.56607143,2.75520833 Z" id="Path"></path>
                                <path d="M3.63910714,2.4515625 C3.74357143,2.553125 3.88071429,2.60416667 4.01785714,2.60416667 C4.155,2.60416667 4.29214286,2.553125 4.39660714,2.4515625 L6.00375,0.8890625 C6.21321429,0.685416667 6.21321429,0.35625 6.00375,0.152604167 C5.79428571,-0.0510416667 5.45571429,-0.0510416667 5.24625,0.152604167 L3.63910714,1.71510417 C3.42964286,1.91875 3.42964286,2.24791667 3.63910714,2.4515625 Z" id="Path"></path>
                                <path d="M5.24625,2.75677083 L0.424821429,7.44427083 C0.215357143,7.64791667 0.215357143,7.97708333 0.424821429,8.18072917 C0.529285714,8.28229167 0.666428571,8.33333333 0.803571429,8.33333333 C0.940714286,8.33333333 1.07785714,8.28229167 1.18232143,8.18072917 L6.00375,3.49322917 C6.21321429,3.28958333 6.21321429,2.96041667 6.00375,2.75677083 C5.79428571,2.553125 5.45571429,2.553125 5.24625,2.75677083 Z" id="Path"></path>
                                <path d="M7.07678571,1.71354167 C6.87857143,1.52083333 6.51428571,1.52083333 6.31607143,1.71354167 C6.21910714,1.81197917 6.16071429,1.94791667 6.16071429,2.08333333 C6.16071429,2.21875 6.21910714,2.35416667 6.31607143,2.453125 C6.41732143,2.546875 6.55714286,2.60416667 6.69642857,2.60416667 C6.83571429,2.60416667 6.975,2.546875 7.07678571,2.453125 C7.17321429,2.35416667 7.23214286,2.21875 7.23214286,2.08333333 C7.23214286,1.94791667 7.17321429,1.81197917 7.07678571,1.71354167 Z" id="Path"></path>
                            </g>
                            <path d="M3.64070455,30 L0.484931854,30 L0.0031505555,26.9472222 C-0.0199917776,26.8005556 0.0873044941,26.6666667 0.228262341,26.6666667 L4.16666667,26.6666667 L3.64070455,30 Z" id="Path" fill="#CB8252" fill-rule="nonzero"></path>
                            <rect id="Rectangle" fill="#7F6E5D" fill-rule="nonzero" x="1.66666667" y="20.8333333" width="1" height="5.83333333"></rect>
                            <path d="M3.96644646,19.2688044 C4.11371116,18.8814004 4.21883102,18.4491018 4.13938559,18.0359716 C4.10499154,17.8568981 4.02651495,17.6848867 3.91848854,17.5491944 C3.73634536,17.3196776 3.65689993,16.9897788 3.71939055,16.6861105 C3.77849019,16.398584 3.74312729,16.0757473 3.6147551,15.8179823 C3.38077862,15.3483557 2.91524778,15.0855464 2.45262347,15.0169436 C2.11255828,14.9665004 1.73713018,15.0204747 1.48523003,15.2908504 L1.1858564,15.5602173 C0.845791204,15.7271845 0.585171439,16.0969334 0.510570242,16.5171256 C0.470363104,16.7451291 0.484895804,16.9842301 0.547870841,17.2051714 C0.641848971,17.5345658 0.563856811,17.8906951 0.384135747,18.1676285 C-0.0208421781,18.791107 -0.12789974,19.6844568 0.170505047,20.391671 C0.208290069,20.48146 0.257216828,20.5702401 0.314378784,20.6504448 C0.510085819,20.9243516 0.583718169,21.287543 0.501850622,21.6310614 C0.482958111,21.7097529 0.470363104,21.7904621 0.463096753,21.8706668 C0.431124812,22.2373892 0.502819469,22.604616 0.575482972,22.9637719 C0.651053015,23.3370519 0.744062299,23.7400934 1.00565091,23.97415 C1.36024881,24.291438 1.87373756,24.1683565 2.27968433,23.9504417 C2.85324159,23.6422335 3.38416958,23.1347745 3.58665855,22.4386577 C3.70485784,22.0325896 3.67676129,21.5614498 3.51835485,21.1800989 C3.35849515,20.7947125 3.35849515,20.3371923 3.59004951,20.0047713 C3.74458056,19.7833255 3.86810852,19.5280827 3.96644646,19.2688044 Z" id="Path" fill="#24AE5F" fill-rule="nonzero"></path>
                        </g>
                    </g>
                </g>
            </g>
        </g>
    </g>
</svg>