<?xml version="1.0" encoding="UTF-8"?>
<svg width="22px" height="22px" viewBox="0 0 22 22" version="1.1" xmlns="http://www.w3.org/2000/svg" xmlns:xlink="http://www.w3.org/1999/xlink">
    <!-- Generator: Sketch 56.2 (81672) - https://sketch.com -->
    <title>technics</title>
    <desc>Created with Sketch.</desc>
    <g id="4.-Reservation" stroke="none" stroke-width="1" fill="none" fill-rule="evenodd">
        <g id="Reservation----create-new" transform="translate(-701.000000, -551.000000)">
            <g id="kitchen-copy" transform="translate(686.000000, 541.000000)">
                <g id="pay">
                    <g id="table-(2)" transform="translate(15.000000, 10.000000)">
                        <g id="Path">
                            <polygon fill="#CCCCCC" fill-rule="nonzero" points="9.42330952 0.0239646051 8.42207032 2.18815279 4.3556586 4.36959548 1.89726117 2.18815279 0.896021963 0.0239646051"></polygon>
                            <polygon fill="#CCCCCC" fill-rule="nonzero" points="21.2070905 0.0239646051 20.2058513 2.18815279 16.8766304 3.33727403 13.6810422 2.18815279 12.679803 0.0239646051"></polygon>
                            <polygon fill="#8F8F8F" fill-rule="nonzero" points="9.42330952 0.0239646051 8.42207032 2.18815279 3.5726949 2.18815279 2.5714557 0.0239646051"></polygon>
                            <polygon fill="#8F8F8F" fill-rule="nonzero" points="21.2070905 0.0239646051 20.2058513 2.18815279 15.3564759 2.18815279 14.3552367 0.0239646051"></polygon>
                            <polyline fill="#F24125" fill-rule="nonzero" points="11.3793103 6.83286194 14.325393 10.0743513 17.2714757 6.83286194 11.3793103 6.83286194"></polyline>
                            <polyline fill="#9E3B2B" fill-rule="nonzero" points="17.2714757 6.83286194 14.5936635 4.66454447 11.3793103 6.83286194 14.325393 10.0743513 17.2714757 6.83286194"></polyline>
                            <polyline fill="#F7B239" fill-rule="nonzero" points="17.2857143 6.72288935 17.2857143 21.9482094 19.4966166 21.9482094 20.2880915 8.60006932 20.3993403 6.72288935 18.9781034 5.37368363 17.2857143 6.72288935"></polyline>
                            <polyline fill="#F7B239" fill-rule="nonzero" points="1.25858582 6.74093462 1.36983462 8.61588973 2.16130952 21.9482094 4.37288206 21.9482094 4.37288206 6.74093462 2.61320751 5.25444244 1.25858582 6.74093462"></polyline>
                            <polygon fill="#F7B239" fill-rule="nonzero" points="20.4955312 2.18815279 15.3215614 2.18815279 11.6644427 2.18815279 5.7390357 3.41101128 2.47697956 2.18815279 0 2.18815279 0 6.83286194 0.998019228 6.83286194 5.82443596 6.83286194 15.3066815 6.83286194 17.8532779 6.83286194 18.5329726 6.83286194 21.0019808 6.83286194 22 6.83286194 22 2.18815279"></polygon>
                            <polyline fill="#E5A030" fill-rule="nonzero" points="4.37288206 6.83286194 1.25858582 6.83286194 1.36983462 8.82376759 4.37288206 8.82376759 4.37288206 6.83286194"></polyline>
                            <polyline fill="#E5A030" fill-rule="nonzero" points="20.3993403 6.83286194 17.2857143 6.83286194 17.2857143 8.82376759 20.2880915 8.82376759 20.3993403 6.83286194"></polyline>
                            <polygon fill="#F24125" fill-rule="nonzero" points="3.12367866 2.18815279 7.34510151 6.83286194 8.95083721 8.59960636 10.5565729 6.83286194 14.7786659 2.18815279 8.42207032 2.18815279"></polygon>
                        </g>
                    </g>
                </g>
            </g>
        </g>
    </g>
</svg>