<?xml version="1.0" encoding="UTF-8"?>
<svg width="24px" height="36px" viewBox="0 0 24 36" version="1.1" xmlns="http://www.w3.org/2000/svg" xmlns:xlink="http://www.w3.org/1999/xlink">
    <!-- Generator: Sketch 56.2 (81672) - https://sketch.com -->
    <title>table reserved</title>
    <desc>Created with Sketch.</desc>
    <g id="1.-Home" stroke="none" stroke-width="1" fill="none" fill-rule="evenodd">
        <g id="Home-final-2" transform="translate(-21.000000, -355.000000)">
            <g id="Main-menu" transform="translate(0.000000, 76.000000)">
                <g id="Group" transform="translate(0.000000, 221.000000)">
                    <g id="table-reserved" transform="translate(21.000000, 58.373802)">
                        <g>
                            <polygon id="Path" fill="#FDDFAE" fill-rule="nonzero" points="19.862069 10 4.13793103 10 4.13793103 0 19.862069 0"></polygon>
                            <polygon id="Path" fill="#FAC15B" fill-rule="nonzero" points="12.4137931 0 19.862069 0 19.862069 10 12.4137931 10"></polygon>
                            <polygon id="Path" fill="#F9B232" fill-rule="nonzero" points="10.7586207 9.16666667 12.4137931 9.16666667 12.4137931 15.8333333 10.7586207 15.8333333"></polygon>
                            <polygon id="Path" fill="#FB8454" fill-rule="nonzero" points="12.4137931 9.16666667 13.2413793 9.16666667 13.2413793 15.8333333 12.4137931 15.8333333"></polygon>
                            <polygon id="Path" fill="#77AAD4" fill-rule="nonzero" points="10.7586207 24.1666667 12.4137931 24.1666667 12.4137931 30 10.7586207 30"></polygon>
                            <polygon id="Path" fill="#4A8EC6" fill-rule="nonzero" points="12.4137931 24.1666667 13.2413793 24.1666667 13.2413793 30 12.4137931 30"></polygon>
                            <path d="M15.7241379,34.1666667 L7.44827586,34.1666667 L7.44827586,32.8846154 C9.15948276,32.8846154 10.5517241,31.5905449 10.5517241,30 L12.6206897,30 C12.6206897,31.5905449 14.012931,32.8846154 15.7241379,32.8846154 L15.7241379,34.1666667 Z" id="Path" fill="#77AAD4" fill-rule="nonzero"></path>
                            <path d="M12.6206897,30 L11.5862069,30 L11.5862069,34.1666667 L15.7241379,34.1666667 L15.7241379,32.8846154 C14.012931,32.8846154 12.6206897,31.5905449 12.6206897,30 Z" id="Path" fill="#4A8EC6" fill-rule="nonzero"></path>
                            <path d="M20.1393654,25.8333333 C19.17679,25.8333333 18.2515732,25.5818127 17.4262436,25.1004164 C16.601179,25.5818127 15.6756971,25.8333333 14.7131218,25.8333333 C13.7505464,25.8333333 12.8253296,25.5818127 12,25.1004164 C11.1749354,25.5818127 10.2494535,25.8333333 9.28687819,25.8333333 C8.3243028,25.8333333 7.39908593,25.5818127 6.57375638,25.1004164 C5.74869177,25.5818127 4.8232099,25.8333333 3.86063457,25.8333333 C2.65271246,25.8333333 1.503345,25.4374212 0.537060359,24.6877911 L0,24.27133 L2.38325496,14.1666667 L21.616745,14.1666667 L24,24.27133 L23.4629396,24.6877911 C22.4966549,25.4374212 21.3472875,25.8333333 20.1393654,25.8333333 L20.1393654,25.8333333 Z" id="Path" fill="#41C8F3" fill-rule="nonzero"></path>
                            <path d="M19.862069,10 L4.13793103,10 L4.13793103,0 L19.862069,0 L19.862069,10 Z M6.17122473,8 L17.8287753,8 L17.8287753,2 L6.17122473,2 L6.17122473,8 Z" id="Shape" fill="#FAC15B" fill-rule="nonzero"></path>
                            <polygon id="Path" fill="#F9B232" fill-rule="nonzero" points="8.27586207 4.16666667 15.7241379 4.16666667 15.7241379 5.83333333 8.27586207 5.83333333"></polygon>
                            <polygon id="Path" fill="#A4C6E2" fill-rule="nonzero" points="6.62068966 33.3333333 17.3793103 33.3333333 17.3793103 35 6.62068966 35"></polygon>
                            <polygon id="Path" fill="#77AAD4" fill-rule="nonzero" points="11.5862069 33.3333333 17.3793103 33.3333333 17.3793103 35 11.5862069 35"></polygon>
                            <polygon id="Path" fill="#F9B232" fill-rule="nonzero" points="12.4137931 2 17.9357907 2 17.9357907 8 12.4137931 8 12.4137931 10 19.862069 10 19.862069 0 12.4137931 0"></polygon>
                            <polygon id="Path" fill="#FB8454" fill-rule="nonzero" points="11.5862069 4.16666667 15.7241379 4.16666667 15.7241379 5.83333333 11.5862069 5.83333333"></polygon>
                        </g>
                    </g>
                </g>
            </g>
        </g>
    </g>
</svg>