<?xml version="1.0" encoding="UTF-8"?>
<svg width="25px" height="18px" viewBox="0 0 25 18" version="1.1" xmlns="http://www.w3.org/2000/svg" xmlns:xlink="http://www.w3.org/1999/xlink">
    <!-- Generator: Sketch 56.2 (81672) - https://sketch.com -->
    <title>back</title>
    <desc>Created with Sketch.</desc>
    <g id="2.-Order" stroke="none" stroke-width="1" fill="none" fill-rule="evenodd">
        <g id="Order-case-1---default" transform="translate(-23.000000, -562.000000)">
            <g id="Bottom" transform="translate(0.000000, 541.000000)">
                <g id="more" transform="translate(23.000000, 21.000000)">
                    <g id="back" transform="translate(0.000000, 0.868421)">
                        <g>
                            <path d="M21.9652344,16.9854747 C21.7978027,16.9854747 21.629248,16.9470633 21.4704102,16.86825 C21.033252,16.6513924 20.7517578,16.1693671 20.7517578,15.6375253 L20.7517578,13.2043196 C20.7517578,11.01175 19.1455566,9.22798734 17.1709961,9.22798734 L10.7326172,9.22798734 L10.7326172,11.9569177 C10.7326172,12.4379209 10.5017578,12.8825032 10.1269043,13.123462 C9.93876953,13.2443449 9.72880859,13.3048133 9.51879883,13.3048133 C9.31010742,13.3048133 9.10146484,13.2451519 8.91425781,13.1257753 L0.609228516,7.8284462 C0.232470703,7.58807911 0,7.14231329 0,6.6596962 C0,6.17713291 0.232470703,5.7312057 0.609228516,5.49083861 L8.91425781,0.193617089 C9.10146484,0.0742943038 9.31010742,0.0145253165 9.51879883,0.0145253165 C9.72880859,0.0145253165 9.93881836,0.0749398734 10.1269043,0.195822785 C10.5017578,0.436889241 10.7326172,0.881471519 10.7326172,1.36247468 L10.7326172,3.70148101 L18.3240723,3.70148101 C22.0052734,3.70153481 25,7.02724051 25,11.1150411 C25,12.6367563 24.5878906,14.0988639 23.8083008,15.3433608 C23.5098145,15.8198987 23.1623535,16.2566266 22.7754395,16.6415475 C22.548291,16.867443 22.2586914,16.9854747 21.9652344,16.9854747 Z" id="Path" fill="#FCB63E" fill-rule="nonzero"></path>
                            <g id="Group" opacity="0.2" transform="translate(17.285156, 3.658228)" fill="#FFFFFF" fill-rule="nonzero">
                                <path d="M1.03891602,0.043306962 L0.0169921875,0.043306962 C3.47587891,0.316436709 6.21484375,3.52836076 6.21484375,7.43760759 C6.21484375,8.95932278 5.80273438,10.4214304 5.02314453,11.6659272 C4.72470703,12.1424114 3.94345703,13.0077975 3.91933594,13.0283481 C3.99956055,13.1001139 4.08837891,13.161981 4.18525391,13.2100222 C4.34414063,13.2888354 4.51264648,13.3272468 4.68007813,13.3272468 C4.97348633,13.3272468 5.26318359,13.2092152 5.4902832,12.9832658 C5.87714844,12.5983987 6.22470703,12.1616171 6.52314453,11.6850791 C7.30273438,10.4406361 7.71484375,8.97858228 7.71484375,7.45681329 C7.71484375,3.36901266 4.72011719,0.043306962 1.03891602,0.043306962 Z" id="Path"></path>
                            </g>
                            <g id="Group" opacity="0.1" transform="translate(0.000000, 5.433544)" fill="#000000" fill-rule="nonzero">
                                <path d="M10.6794922,5.87306962 C10.4914551,5.99395253 10.2814453,6.05442089 10.0714355,6.05442089 C9.86274414,6.05442089 9.65405273,5.99481329 9.4668457,5.87538291 L1.16186523,0.578107595 C0.951171875,0.443721519 0.785742188,0.245047468 0.680712891,0.0117278481 L0.609228516,0.0572943038 C0.232470703,0.297661392 0,0.743481013 0,1.2261519 C0,1.70876899 0.232470703,2.15458861 0.609228516,2.39500949 L8.91420898,7.69223101 C9.10141602,7.81160759 9.31005859,7.87126899 9.51875,7.87126899 C9.72875977,7.87126899 9.93876953,7.81080063 10.1268555,7.68991772 C10.501709,7.44901266 10.7325684,7.00437658 10.7325684,6.52337342 L10.7325684,5.83627215 C10.7151367,5.84886076 10.6976562,5.86139557 10.6794922,5.87306962 Z" id="SVGCleanerId_0"></path>
                                <g id="SVGCleanerId_0_1_">
                                    <path d="M10.6794922,5.87306962 C10.4914551,5.99395253 10.2814453,6.05442089 10.0714355,6.05442089 C9.86274414,6.05442089 9.65405273,5.99481329 9.4668457,5.87538291 L1.16186523,0.578107595 C0.951171875,0.443721519 0.785742188,0.245047468 0.680712891,0.0117278481 L0.609228516,0.0572943038 C0.232470703,0.297661392 0,0.743481013 0,1.2261519 C0,1.70876899 0.232470703,2.15458861 0.609228516,2.39500949 L8.91420898,7.69223101 C9.10141602,7.81160759 9.31005859,7.87126899 9.51875,7.87126899 C9.72875977,7.87126899 9.93876953,7.81080063 10.1268555,7.68991772 C10.501709,7.44901266 10.7325684,7.00437658 10.7325684,6.52337342 L10.7325684,5.83627215 C10.7151367,5.84886076 10.6976562,5.86139557 10.6794922,5.87306962 Z"></path>
                                </g>
                            </g>
                        </g>
                    </g>
                </g>
            </g>
        </g>
    </g>
</svg>