<?xml version="1.0" encoding="UTF-8"?>
<svg width="28px" height="27px" viewBox="0 0 28 27" version="1.1" xmlns="http://www.w3.org/2000/svg" xmlns:xlink="http://www.w3.org/1999/xlink">
    <!-- Generator: Sketch 56.2 (81672) - https://sketch.com -->
    <title>checked_customer</title>
    <desc>Created with Sketch.</desc>
    <g id="3.-Delivery" stroke="none" stroke-width="1" fill="none" fill-rule="evenodd">
        <g id="Create-delivery-Order-2" transform="translate(-472.000000, -558.000000)">
            <g id="3-copy-6" transform="translate(458.000000, 550.000000)">
                <g id="checked_customer" transform="translate(14.000000, 8.000000)">
                    <g id="Group-3">
                        <g id="VIP-Customer" transform="translate(0.000000, 0.000000)">
                            <g id="tuxedo" transform="translate(0.000000, -0.000000)">
                                <path d="M21.5943474,3.71556261 L14.2811871,0.0703968291 C14.188506,0.0239870492 14.0863148,0 13.9827402,0 L8.2652163,0 C8.16112301,0 8.05858588,0.0243347102 7.96538604,0.0709182983 L7.51166371,0.29862168 L0.383001143,3.71086947 C0.144381928,3.82524263 -0.00536029779,4.06928501 2.465358e-05,4.33488099 L0.374009694,22.1218159 C0.381617843,22.4890963 0.680237698,22.782851 1.04560175,22.782851 L20.9220637,22.782851 C21.2874277,22.782851 21.5858746,22.4890963 21.5936557,22.1218159 L21.967645,4.33488099 C21.9730257,4.07328282 21.8276063,3.83184775 21.5943474,3.71556261 Z" id="Path" fill="#3A4052" fill-rule="nonzero"></path>
                                <path d="M8.2652163,0 C8.16112301,0 8.05858588,0.0243347102 7.96538604,0.0709182983 L7.51166371,0.29862168 L0.383001143,3.71086947 C0.144381928,3.82524263 -0.00536029779,4.06928501 0.000172912475,4.33488099 L0.374009694,22.1218159 C0.381617843,22.4890963 0.680237698,22.782851 1.04560175,22.782851 L10.9839192,22.782851 L10.9839192,0 L8.2652163,0 Z" id="Path" fill="#494F60" fill-rule="nonzero"></path>
                                <path d="M5.76922471,5.8822209 L10.0185488,17.7940616 L10.0185488,17.7942354 L10.9837462,20.5000813 L12.1166687,17.3242278 L15.8600509,6.83057932 L17.6692341,1.75905191 L14.2811871,0.0702230208 C14.188506,0.0239870492 14.0863148,0 13.9827402,0 L8.2652163,0 C8.16112301,0 8.05858588,0.0243347102 7.96538604,0.0709182983 L7.51166371,0.29862168 L4.32212022,1.82527707 L5.76922471,5.88187328 L5.76922471,5.8822209 Z" id="Path" fill="#E4E7EA" fill-rule="nonzero"></path>
                                <path d="M8.2652163,-5.68434189e-14 C8.16112301,-5.68434189e-14 8.05858588,0.0243347102 7.96538604,0.0709182983 L7.51166371,0.29862168 L4.32212022,1.82527707 L5.76922471,5.88187328 C5.76922471,5.88204709 5.76922471,5.88204709 5.76939766,5.8822209 L10.0185488,17.7940616 C10.0185488,17.7940616 10.0185488,17.7942354 10.0187217,17.7942354 L10.9839192,20.5000813 L10.9839192,-5.68434189e-14 L8.2652163,-5.68434189e-14 Z" id="Path" fill="#F2F3F4" fill-rule="nonzero"></path>
                                <path d="M12.2766128,5.71083503 L9.69087964,5.71083503 C9.31980949,5.71083503 9.01911469,6.01328072 9.01911469,6.38612323 L9.01911469,20.0027842 C9.01911469,20.3756267 9.31980949,20.6780724 9.69087964,20.6780724 L12.2766128,20.6780724 C12.647683,20.6780724 12.9485507,20.3756267 12.9485507,20.0027842 L12.9485507,6.38612323 C12.9485507,6.01328072 12.647683,5.71083503 12.2766128,5.71083503 Z" id="Path" fill="#F4F4F6" fill-rule="nonzero"></path>
                                <path d="M9.69087964,5.71083503 C9.31980949,5.71083503 9.01911469,6.01328072 9.01911469,6.38612323 L9.01911469,20.0027842 C9.01911469,20.3756267 9.31980949,20.6780724 9.69087964,20.6780724 L10.9837462,20.6780724 L10.9837462,5.71083503 L9.69087964,5.71083503 Z" id="Path" fill="#FDFDFD" fill-rule="nonzero"></path>
                                <path d="M19.7682187,7.95014979 L19.3611827,6.25454199 C19.3611827,6.25436818 19.3611827,6.25419433 19.3610098,6.25384671 L18.3658985,2.10634301 L17.5500974,1.69960566 L15.6278295,7.08835344 L10.9837462,20.1069019 L10.0645435,17.5298561 C10.0645435,17.5296823 6.01752703,6.18501424 6.01752703,6.18501424 L6.01752703,6.18484043 L4.44194856,1.76791671 L3.58447558,2.17847801 L2.60648262,6.25419433 C2.60648262,6.25436818 2.60630972,6.25454199 2.60630972,6.25454199 L2.19944668,7.95014979 C2.15154994,8.15021589 2.19685298,8.36140642 2.32273326,8.52375372 L3.87341234,10.5242407 L2.63017167,12.1616191 C2.44065959,12.4110498 2.44723025,12.7586885 2.64573377,13.0009927 L10.2225855,22.2408822 L10.6669706,22.782851 L11.3006948,22.782851 L19.3219316,13.0008189 C19.5204351,12.7586885 19.5270058,12.4110498 19.3374937,12.1616191 L18.094253,10.5242407 L19.6449321,8.52357987 C19.7708124,8.36140642 19.8161154,8.15021589 19.7682187,7.95014979 Z" id="Path" fill="#494F60" fill-rule="nonzero"></path>
                                <path d="M10.9837462,20.1069019 L10.0645435,17.5298561 C10.0645435,17.5296823 6.01752703,6.18501424 6.01752703,6.18501424 L6.01752703,6.18484043 L4.44194856,1.76791671 L3.58447558,2.17847801 L2.60648262,6.25419433 C2.60648262,6.25436818 2.60630972,6.25454199 2.60630972,6.25454199 L2.19944668,7.95014979 C2.15154994,8.15021589 2.19685298,8.36140642 2.32273326,8.52375372 L3.87341234,10.5242407 L2.63017167,12.1616191 C2.44065959,12.4110498 2.44723025,12.7586885 2.64573377,13.0009927 L10.2225855,22.2408822 L10.6669706,22.782851 L10.9837462,22.782851 L10.9837462,20.1067281 L10.9837462,20.1069019 Z" id="Path" fill="#6D7280" fill-rule="nonzero"></path>
                                <path d="M8.65288604,2.77572132 L9.2451113,3.85235845 C9.36338344,4.0675468 9.58851546,4.20104006 9.83301372,4.20104006 L12.4151157,4.20104006 C12.659614,4.20104006 12.884746,4.0675468 13.0030181,3.85235845 L13.5950704,2.77572132 L14.9105885,0.383966952 L14.2811871,0.0702230208 C14.188506,0.0239870492 14.0863148,0 13.9827402,0 L8.2652163,0 C8.16112301,0 8.05858588,0.0243347102 7.96538604,0.0709182983 L7.51166371,0.29862168 L7.33650338,0.382402589 L8.65288604,2.77572132 Z" id="Path" fill="#D7DCE0" fill-rule="nonzero"></path>
                                <path d="M8.2652163,0 C8.16112301,0 8.05858588,0.0243347102 7.96538604,0.0709182983 L7.51166371,0.29862168 L7.33650338,0.382402589 L8.65288604,2.77589513 L9.2451113,3.85253226 C9.36338344,4.0675468 9.58851546,4.20104006 9.83301372,4.20104006 L10.9837462,4.20104006 L10.9837462,0 L8.2652163,0 Z" id="Path" fill="#E6EAED" fill-rule="nonzero"></path>
                                <path d="M15.0627515,2.6686486 C14.8803288,2.367072 14.4978464,2.25739202 14.1847019,2.41730583 L12.0973025,3.4821232 C11.8716518,3.59719163 11.7295177,3.82993572 11.7295177,4.08423345 L11.7295177,5.8380708 C11.7295177,6.09236849 11.8716518,6.32511262 12.0973025,6.44035487 L14.1847019,7.50499843 C14.2818788,7.55471079 14.3856263,7.57817641 14.4881633,7.57817641 C14.7158891,7.57817641 14.9370441,7.46154361 15.0627515,7.25365566 C15.0878238,7.21228663 15.6745158,6.22725231 15.6745158,4.96115215 C15.6745158,3.6950519 15.0878238,2.71001763 15.0627515,2.6686486 Z" id="Path" fill="#E86752" fill-rule="nonzero"></path>
                                <path d="M9.87036281,3.4821232 L7.78296342,2.41730583 C7.46981891,2.25756583 7.08716362,2.36724585 6.90491385,2.66882241 C6.87984155,2.71019144 6.29314953,3.69522575 6.29314953,4.96115215 C6.29314953,6.22725231 6.87984155,7.21228663 6.90491385,7.25365566 C7.03062123,7.46171742 7.25177629,7.57835022 7.47950201,7.57835022 C7.5818662,7.57835022 7.68578658,7.55471079 7.78296342,7.50517224 L9.87036281,6.44035487 C10.0960136,6.32528648 10.2381476,6.09254234 10.2381476,5.8380708 L10.2381476,4.08423345 C10.2381476,3.82993572 10.0960136,3.59719163 9.87036281,3.4821232 Z" id="Path" fill="#ED917F" fill-rule="nonzero"></path>
                                <path d="M10.9837462,2.86089283 C9.83180332,2.86089283 8.8944448,3.80316756 8.8944448,4.96115215 C8.8944448,6.1193105 9.83180332,7.06141143 10.9837462,7.06141143 C12.135862,7.06141143 13.0730476,6.1193105 13.0730476,4.96115215 C13.0730476,3.80316756 12.135862,2.86089283 10.9837462,2.86089283 L10.9837462,2.86089283 Z" id="Path" fill="#E35336" fill-rule="nonzero"></path>
                                <path d="M13.0730476,4.96115215 C13.0730476,3.80316756 12.135862,2.86089283 10.9837462,2.86089283 L10.9837462,7.06141143 C12.135862,7.06141143 13.0730476,6.1193105 13.0730476,4.96115215 Z" id="Path" fill="#E35336" fill-rule="nonzero"></path>
                                <path d="M10.9837462,2.86089283 C9.83180332,2.86089283 8.8944448,3.80316756 8.8944448,4.96115215 C8.8944448,6.1193105 9.83180332,7.06141143 10.9837462,7.06141143 L10.9837462,2.86089283 Z" id="Path" fill="#E9765F" fill-rule="nonzero"></path>
                            </g>
                        </g>
                        <g id="checked" transform="translate(16.000000, 15.000000)">
                            <circle id="Oval" fill="#FFFFFF" cx="5.64705882" cy="6.35294118" r="4.94117647"></circle>
                            <g id="icon" stroke-width="1" fill="#28B135">
                                <path d="M6,0 C2.6865,0 0,2.6865 0,6 C0,9.3135 2.6865,12 6,12 C9.3135,12 12,9.3135 12,6 C12,2.6865 9.3135,0 6,0 Z M5.07,8.768625 L2.30925,6.0075 L3.36975,4.947 L5.069625,6.647625 L8.676,3.04125 L9.7365,4.10175 L5.07,8.768625 Z" id="Shape" fill-rule="nonzero"></path>
                            </g>
                        </g>
                    </g>
                </g>
            </g>
        </g>
    </g>
</svg>