<?xml version="1.0" encoding="UTF-8"?>
<svg width="23px" height="24px" viewBox="0 0 23 24" version="1.1" xmlns="http://www.w3.org/2000/svg" xmlns:xlink="http://www.w3.org/1999/xlink">
    <!-- Generator: Sketch 56.2 (81672) - https://sketch.com -->
    <title>checked_time</title>
    <desc>Created with Sketch.</desc>
    <g id="3.-Delivery" stroke="none" stroke-width="1" fill="none" fill-rule="evenodd">
        <g id="Create-delivery-Order-2" transform="translate(-329.000000, -561.000000)">
            <g id="3-copy-8" transform="translate(314.000000, 550.000000)">
                <g id="checked_time" transform="translate(15.000000, 11.000000)">
                    <g id="time" stroke-width="1">
                        <g id="circular-clock">
                            <circle id="Oval" fill="#FF9E24" fill-rule="nonzero" cx="10" cy="10" r="10"></circle>
                            <circle id="Oval" fill="#FFFFFF" fill-rule="nonzero" cx="10" cy="10" r="8.10425781"></circle>
                            <path d="M13.3847266,7.68769531 C13.6808984,7.39152344 13.6808984,6.91144531 13.3847266,6.6153125 C13.0885547,6.31914063 12.6084766,6.31914063 12.3123438,6.6153125 L9.43714844,9.49050781 L10.5095312,10.5628906 L13.3847266,7.68769531 Z" id="Path" fill="#181818" fill-rule="nonzero"></path>
                            <path d="M9.54019531,9.78957031 L5.27480469,14.0549609 C5.08972656,14.2400391 5.08972656,14.5401172 5.27480469,14.7252344 C5.36738281,14.8177344 5.48863281,14.8640625 5.60992188,14.8640625 C5.73121094,14.8640625 5.85253906,14.8177734 5.94503906,14.7252344 L10.2104297,10.4598437 L9.54019531,9.78957031 Z" id="Path" fill="#EE3840" fill-rule="nonzero"></path>
                            <path d="M6.68226563,5.60992188 C6.38609375,5.31375 5.90601563,5.31375 5.60988281,5.60992188 C5.31371094,5.90609375 5.31371094,6.38617187 5.60988281,6.68230469 L9.49046875,10.5628906 L10.5628516,9.49050781 L6.68226563,5.60992188 Z" id="Path" fill="#181818" fill-rule="nonzero"></path>
                            <path d="M10,11.1848437 C9.34667969,11.1848437 8.81515625,10.6533203 8.81515625,10 C8.81515625,9.34667969 9.34667969,8.81515625 10,8.81515625 C10.6533203,8.81515625 11.1848437,9.34667969 11.1848437,10 C11.1848437,10.6533203 10.6533203,11.1848437 10,11.1848437 Z" id="Path" fill="#524E4D" fill-rule="nonzero"></path>
                            <g id="Group" transform="translate(3.281250, 3.281250)" fill="#7A7674" fill-rule="nonzero">
                                <path d="M1.22113281,7.19269531 L0.510234375,7.19269531 C0.248476563,7.19269531 0.0362890625,6.98046875 0.0362890625,6.71875 C0.0362890625,6.45703125 0.248476563,6.24480469 0.510234375,6.24480469 L1.22113281,6.24480469 C1.48289062,6.24480469 1.69507812,6.45703125 1.69507812,6.71875 C1.69507812,6.98046875 1.48289063,7.19269531 1.22113281,7.19269531 Z" id="Path"></path>
                                <path d="M6.71875,1.69503906 C6.45699219,1.69503906 6.24480469,1.4828125 6.24480469,1.22109375 L6.24480469,0.510234375 C6.24480469,0.248515625 6.45699219,0.0362890625 6.71875,0.0362890625 C6.98050781,0.0362890625 7.19269531,0.248515625 7.19269531,0.510234375 L7.19269531,1.22113281 C7.19269531,1.4828125 6.98050781,1.69503906 6.71875,1.69503906 Z" id="Path"></path>
                                <path d="M12.9272656,7.19269531 L12.2163672,7.19269531 C11.9546094,7.19269531 11.7424219,6.98046875 11.7424219,6.71875 C11.7424219,6.45703125 11.9546094,6.24480469 12.2163672,6.24480469 L12.9272656,6.24480469 C13.1890234,6.24480469 13.4012109,6.45703125 13.4012109,6.71875 C13.4012109,6.98046875 13.1890234,7.19269531 12.9272656,7.19269531 Z" id="Path"></path>
                                <path d="M6.71875,13.4012109 C6.45699219,13.4012109 6.24480469,13.1889844 6.24480469,12.9272656 L6.24480469,12.2163672 C6.24480469,11.9546484 6.45699219,11.7424219 6.71875,11.7424219 C6.98050781,11.7424219 7.19269531,11.9546484 7.19269531,12.2163672 L7.19269531,12.9272656 C7.19269531,13.1889844 6.98050781,13.4012109 6.71875,13.4012109 Z" id="Path"></path>
                            </g>
                        </g>
                    </g>
                    <g id="checked" transform="translate(11.000000, 12.000000)">
                        <circle id="Oval" fill="#FFFFFF" cx="5.64705882" cy="6.35294118" r="4.94117647"></circle>
                        <g id="icon" stroke-width="1" fill="#28B135">
                            <path d="M6,0 C2.6865,0 0,2.6865 0,6 C0,9.3135 2.6865,12 6,12 C9.3135,12 12,9.3135 12,6 C12,2.6865 9.3135,0 6,0 Z M5.07,8.768625 L2.30925,6.0075 L3.36975,4.947 L5.069625,6.647625 L8.676,3.04125 L9.7365,4.10175 L5.07,8.768625 Z" id="Shape" fill-rule="nonzero"></path>
                        </g>
                    </g>
                </g>
            </g>
        </g>
    </g>
</svg>