<svg width="16" height="20" viewBox="0 0 16 20" fill="none" xmlns="http://www.w3.org/2000/svg">
<path fill-rule="evenodd" clip-rule="evenodd" d="M8.7492 1.68421H12.4449V4.34349H0.0349121V1.68421H3.7306V0H8.7492V1.68421ZM7.41955 1.32964H5.06024V1.68421H7.41955V1.32964Z" fill="white"/>
<path d="M11.2639 9.49823L11.5148 5.67285H0.964844L1.80766 18.526H6.86791C6.20925 17.5923 5.82184 16.4542 5.82184 15.2272C5.82184 12.1628 8.23709 9.65198 11.2639 9.49823Z" fill="white"/>
<path fill-rule="evenodd" clip-rule="evenodd" d="M7.15161 15.2271C7.15161 12.7972 9.12852 10.8203 11.5585 10.8203C13.9884 10.8203 15.9654 12.7972 15.9654 15.2271C15.9654 17.6571 13.9884 19.634 11.5585 19.634C9.12852 19.634 7.15161 17.6571 7.15161 15.2271ZM13.0194 17.6283L13.9596 16.6881L12.4987 15.2271L13.9596 13.7662L13.0194 12.826L11.5585 14.2869L10.0975 12.826L9.15733 13.7662L10.6183 15.2271L9.15733 16.6881L10.0975 17.6283L11.5585 16.1673L13.0194 17.6283Z" fill="white"/>
</svg>
