<?xml version="1.0" encoding="UTF-8"?>
<svg width="29px" height="28px" viewBox="0 0 29 28" version="1.1" xmlns="http://www.w3.org/2000/svg" xmlns:xlink="http://www.w3.org/1999/xlink">
    <!-- Generator: Sketch 56.2 (81672) - https://sketch.com -->
    <title>delivery</title>
    <desc>Created with Sketch.</desc>
    <g id="1.-Home" stroke="none" stroke-width="1" fill="none" fill-rule="evenodd">
        <g id="Home-final-2" transform="translate(-18.000000, -297.000000)">
            <g id="Main-menu" transform="translate(0.000000, 76.000000)">
                <g id="Group" transform="translate(0.000000, 221.000000)">
                    <g id="delivery" transform="translate(18.000000, 0.373802)">
                        <g>
                            <path d="M6.37551344,1.47127484 L0.91456911,21.393392 C0.622562267,22.4586646 1.24941804,23.558957 2.31469068,23.8509639 C2.33652927,23.8569502 2.35846796,23.8625651 2.38049724,23.8678063 L16.0486976,27.1197462 C16.3631479,27.1945602 16.6910459,27.1920464 17.0043121,27.1124199 L26.6516248,24.6602523 C27.7101547,24.3911937 28.3570894,23.3226965 28.1048695,22.2600285 L22.8215438,0 L8.30436017,0 C7.40341698,1.053679e-15 6.61368911,0.602384175 6.37551344,1.47127484 Z" id="Fill-1" fill="#FBB148"></path>
                            <polygon id="Fill-3" fill="#E49337" points="16.5714286 27.1764706 28.1714286 24.1504485 22.6446113 0"></polygon>
                            <polygon id="Fill-4" fill="#E9AD2E" points="22.4010204 21.0912828 28.1714286 23.8823529 22.3714286 0"></polygon>
                            <polygon id="Fill-5" fill="#A56630" points="16.5714286 27.1764706 23.2 21.3280467 23.1694536 0"></polygon>
                            <polygon id="Fill-6" fill="#935435" points="17.7882767 4.99808826 9.56377218 5.8360352 4.70853978 4.94050349 4.14285714 6.94488189 10.8742635 7.41176471 20.7033951 7.06160259 22.3714286 0"></polygon>
                            <polygon id="Fill-7" fill="#42210B" points="9.79834541 4.94117647 18.2285714 4.38390491 10.0413338 4.11764706 4.14285714 4.29618193"></polygon>
                            <path d="M6.15707314,0.748557092 L3.49504831,4.06713175 C3.14947189,4.49793957 3.2185656,5.12732336 3.64937343,5.47289978 C3.84245854,5.62778475 4.08612626,5.70555359 4.33323774,5.69116147 L10.5537911,5.32886784 L18.2711481,5.75758572 C18.9877507,5.79739473 19.6707433,5.45017815 20.0608469,4.84774704 L23.2,0 L7.71716629,0 C7.11052105,-5.54694891e-16 6.53666408,0.275345545 6.15707314,0.748557092 Z" id="Fill-2" fill="#FFCD5E"></path>
                        </g>
                    </g>
                </g>
            </g>
        </g>
    </g>
</svg>