<svg width="17" height="16" viewBox="0 0 17 16" fill="none" xmlns="http://www.w3.org/2000/svg">
<path fill-rule="evenodd" clip-rule="evenodd" d="M4.40819 9.13503H5.48122V10.2081V13.5002C5.48122 14.0524 5.92894 14.5002 6.48122 14.5002H10.9194C11.4717 14.5002 11.9194 14.0524 11.9194 13.5002V10.2081V9.13503H12.9924H14.6879C15.1274 9.13503 15.3531 8.60876 15.0501 8.29037L8.70694 1.62384L2.35229 8.29003C2.0489 8.6083 2.27449 9.13503 2.7142 9.13503H4.40819ZM4.40819 10.2081H1.54679C0.603152 10.2081 0.119012 9.07767 0.770112 8.39465L7.98317 0.82796C8.37745 0.41435 9.03755 0.414655 9.43144 0.828631L16.6312 8.39537C17.2813 9.07865 16.797 10.2081 15.8538 10.2081H12.9924V13.5732C12.9924 14.6778 12.097 15.5732 10.9924 15.5732H6.40819C5.30362 15.5732 4.40819 14.6778 4.40819 13.5732V10.2081Z" fill="black"/>
</svg>
