<?xml version="1.0" encoding="UTF-8"?>
<svg width="24px" height="24px" viewBox="0 0 24 24" version="1.1" xmlns="http://www.w3.org/2000/svg" xmlns:xlink="http://www.w3.org/1999/xlink">
    <!-- Generator: Sketch 56.2 (81672) - https://sketch.com -->
    <title>list</title>
    <desc>Created with Sketch.</desc>
    <g id="3.-Delivery" stroke="none" stroke-width="1" fill="none" fill-rule="evenodd">
        <g id="Create-delivery-Order-1" transform="translate(-645.000000, -561.000000)">
            <g id="kitchen-copy" transform="translate(622.000000, 551.000000)">
                <g id="pay">
                    <g id="list" transform="translate(23.000000, 10.000000)">
                        <g transform="translate(0.000000, -0.000000)">
                            <path d="M21.24225,3.98357813 L18.8571562,3.98357813 C18.6512813,3.98357813 18.4845,4.15040625 18.4845,4.35623438 L18.4845,19.7599688 C18.4845,19.9658438 18.6513281,20.132625 18.8571562,20.132625 L23.2298438,20.132625 C23.4357187,20.132625 23.6025,19.9657969 23.6025,19.7599688 L23.6025,6.34382813 C23.6025,5.0424375 22.5436406,3.98357813 21.24225,3.98357813 Z" id="Path" fill="#CCCCCC" fill-rule="nonzero"></path>
                            <path d="M18.882,19.7600156 L18.882,6.34382813 C18.882,5.11429688 19.8271875,4.10184375 21.0290156,3.99365625 C21.0016875,3.98728125 20.973375,3.98357813 20.9440781,3.98357813 C20.9440781,3.98357813 20.9440781,3.98357813 20.9439844,3.98357813 L9.51539062,3.98610938 C9.50957812,3.98610938 9.5038125,3.98625 9.498,3.98648438 C8.18432812,4.04807813 7.15523437,5.1271875 7.15523437,6.44320313 L7.15523437,19.7599688 C7.15523437,19.9658438 7.32210937,20.132625 7.52789062,20.132625 L18.8570625,20.132625 C18.9301875,20.132625 18.99825,20.11125 19.0558125,20.0748281 C18.9515156,20.0088281 18.882,19.8926719 18.882,19.7600156 Z" id="Path" fill="#F2F2F2" fill-rule="nonzero"></path>
                            <path d="M13.8882188,0.0084375 L2.36025,0.0084375 C2.15442187,0.0084375 1.98759375,0.175265625 1.98759375,0.38109375 L1.98759375,17.772375 C1.98759375,19.0738125 3.04640625,20.132625 4.34784375,20.132625 L15.8758125,20.132625 C16.0816875,20.132625 16.2484687,19.9657969 16.2484687,19.7599688 L16.2484687,2.3686875 C16.2484687,1.06729688 15.1896094,0.0084375 13.8882188,0.0084375 Z" id="SVGCleanerId_0" fill="#CCCCCC" fill-rule="nonzero"></path>
                            <path d="M13.8882188,0.0084375 L2.36025,0.0084375 C2.15442187,0.0084375 1.98759375,0.175265625 1.98759375,0.38109375 L1.98759375,17.772375 C1.98759375,19.0738125 3.04640625,20.132625 4.34784375,20.132625 L15.8758125,20.132625 C16.0816875,20.132625 16.2484687,19.9657969 16.2484687,19.7599688 L16.2484687,2.3686875 C16.2484687,1.06729688 15.1896094,0.0084375 13.8882188,0.0084375 Z" id="SVGCleanerId_0_1_" fill="#CCCCCC" fill-rule="nonzero"></path>
                            <path d="M13.8220781,0.010125 C13.8111094,0.009140625 13.8000469,0.0084375 13.7888437,0.0084375 C13.7888437,0.0084375 13.7888437,0.0084375 13.78875,0.0084375 L2.36015625,0.01096875 C2.35434375,0.01096875 2.34857812,0.011109375 2.34276563,0.01134375 C1.02904688,0.072984375 0,1.15209375 0,2.4680625 L0,3.56123438 C0,3.7670625 0.166875,3.93389063 0.37265625,3.93389063 L11.1552656,3.93389063 C11.3610937,3.93389063 11.5279219,3.76701563 11.5279219,3.56123438 L11.5279219,2.3686875 C11.5279688,1.08942188 12.5511563,0.045375 13.8220781,0.010125 Z" id="Path" fill="#F2F2F2" fill-rule="nonzero"></path>
                            <path d="M6.7329375,8.10782813 L4.34784375,8.10782813 C4.14201562,8.10782813 3.9751875,7.941 3.9751875,7.73517188 L3.9751875,5.35007813 C3.9751875,5.14420313 4.1420625,4.97742188 4.34784375,4.97742188 L6.7329375,4.97742188 C6.93876563,4.97742188 7.10559375,5.14425 7.10559375,5.35007813 L7.10559375,7.73517188 C7.10559375,7.941 6.93871875,8.10782813 6.7329375,8.10782813 Z M4.7205,7.36246875 L6.36023438,7.36246875 L6.36023438,5.72273438 L4.7205,5.72273438 L4.7205,7.36246875 L4.7205,7.36246875 Z" id="Shape" fill="#FF7452" fill-rule="nonzero"></path>
                            <path d="M13.7887969,6.81590625 L8.91923438,6.81590625 C8.71340625,6.81590625 8.54657813,6.64907813 8.54657813,6.44325 C8.54657813,6.23742188 8.71345313,6.07059375 8.91923438,6.07059375 L13.7887969,6.07059375 C13.9946719,6.07059375 14.1614531,6.23742188 14.1614531,6.44325 C14.1614531,6.64907813 13.9946719,6.81590625 13.7887969,6.81590625 Z" id="Path" fill="#808080" fill-rule="nonzero"></path>
                            <path d="M6.7329375,12.5798906 L4.34784375,12.5798906 C4.14201562,12.5798906 3.9751875,12.4130625 3.9751875,12.2072344 L3.9751875,9.82214062 C3.9751875,9.61626563 4.1420625,9.44948438 4.34784375,9.44948438 L6.7329375,9.44948438 C6.93876563,9.44948438 7.10559375,9.6163125 7.10559375,9.82214062 L7.10559375,12.2072344 C7.10559375,12.4130625 6.93871875,12.5798906 6.7329375,12.5798906 Z M4.7205,11.8345313 L6.36023438,11.8345313 L6.36023438,10.1947969 L4.7205,10.1947969 L4.7205,11.8345313 L4.7205,11.8345313 Z" id="Shape" fill="#FF7452" fill-rule="nonzero"></path>
                            <path d="M13.7887969,11.2879687 L8.91923438,11.2879687 C8.71340625,11.2879687 8.54657813,11.1211406 8.54657813,10.9153125 C8.54657813,10.7094375 8.71345313,10.5426563 8.91923438,10.5426563 L13.7887969,10.5426563 C13.9946719,10.5426563 14.1614531,10.7094844 14.1614531,10.9153125 C14.1614531,11.1211406 13.9946719,11.2879687 13.7887969,11.2879687 Z" id="Path" fill="#808080" fill-rule="nonzero"></path>
                            <path d="M6.7329375,17.0519063 L4.34784375,17.0519063 C4.14201562,17.0519063 3.9751875,16.8850781 3.9751875,16.67925 L3.9751875,14.2941563 C3.9751875,14.0882813 4.1420625,13.9215 4.34784375,13.9215 L6.7329375,13.9215 C6.93876563,13.9215 7.10559375,14.0883281 7.10559375,14.2941563 L7.10559375,16.67925 C7.10559375,16.885125 6.93871875,17.0519063 6.7329375,17.0519063 Z M4.7205,16.3065938 L6.36023438,16.3065938 L6.36023438,14.6668594 L4.7205,14.6668594 L4.7205,16.3065938 L4.7205,16.3065938 Z" id="Shape" fill="#FF7452" fill-rule="nonzero"></path>
                            <path d="M13.7887969,15.7599844 L8.91923438,15.7599844 C8.71340625,15.7599844 8.54657813,15.5931563 8.54657813,15.3873281 C8.54657813,15.1815 8.71345313,15.0146719 8.91923438,15.0146719 L13.7887969,15.0146719 C13.9946719,15.0146719 14.1614531,15.1815 14.1614531,15.3873281 C14.1614531,15.5931563 13.9946719,15.7599844 13.7887969,15.7599844 Z" id="Path" fill="#808080" fill-rule="nonzero"></path>
                            <path d="M18.8571562,13.4245781 C16.0213594,13.4245781 13.7143125,15.7316719 13.7143125,18.5674219 C13.7143125,21.4031719 16.0213594,23.7103125 18.8571562,23.7103125 C21.6929531,23.7103125 24,21.4032188 24,18.5674687 C24,15.7317188 21.6929063,13.4245781 18.8571562,13.4245781 Z" id="Path" fill="#FFD652" fill-rule="nonzero"></path>
                            <circle id="Oval" fill="#FB9D46" fill-rule="nonzero" cx="18.8571563" cy="18.5674687" r="3.67701563"></circle>
                            <circle id="Oval" fill="#B2B2B2" fill-rule="nonzero" cx="18.8571563" cy="18.5674688" r="2.98134375"></circle>
                            <circle id="Oval" fill="#E5E5E5" fill-rule="nonzero" cx="18.8571563" cy="18.5674688" r="2.08696875"></circle>
                            <path d="M20.2484531,18.940125 L18.8571562,18.940125 C18.6512813,18.940125 18.4845,18.7732969 18.4845,18.5674687 L18.4845,17.1761719 C18.4845,16.9702969 18.6513281,16.8035156 18.8571562,16.8035156 C19.0630313,16.8035156 19.2298125,16.9703438 19.2298125,17.1761719 L19.2298125,18.1948125 L20.2484531,18.1948125 C20.4543281,18.1948125 20.6211094,18.3616406 20.6211094,18.5674687 C20.6211094,18.7732969 20.4543281,18.940125 20.2484531,18.940125 Z" id="Path" fill="#E24642" fill-rule="nonzero"></path>
                        </g>
                    </g>
                </g>
            </g>
        </g>
    </g>
</svg>