<?xml version="1.0" encoding="UTF-8"?>
<svg width="36px" height="28px" viewBox="0 0 36 28" version="1.1" xmlns="http://www.w3.org/2000/svg" xmlns:xlink="http://www.w3.org/1999/xlink">
    <!-- Generator: Sketch 56.2 (81672) - https://sketch.com -->
    <title>Manual</title>
    <desc>Created with Sketch.</desc>
    <g id="1.-Home" stroke="none" stroke-width="1" fill="none" fill-rule="evenodd">
        <g id="Home-final-2" transform="translate(-15.000000, -417.000000)">
            <g id="Main-menu" transform="translate(0.000000, 76.000000)">
                <g id="Group" transform="translate(0.000000, 221.000000)">
                    <g id="Manual" transform="translate(15.000000, 120.373802)">
                        <g>
                            <rect id="Rectangle-path" fill="#FFD15C" fill-rule="nonzero" x="4.16666667" y="16.0891081" width="8.33333333" height="1.64705882"></rect>
                            <path d="M2.78202255,20.2067551 C2.25819861,20.2067551 1.80920666,19.6831588 1.88403865,19.1595625 L1.88403865,19.1595625 C2.78202255,12.8764065 0.0880708584,6.7428494 0.0880708584,6.66804993 L0.0880708584,6.66804993 C-0.136425116,6.21925307 0.0880708584,5.69565674 0.537062807,5.47125831 L0.537062807,5.47125831 C0.986054755,5.24685988 1.50987869,5.47125831 1.73437467,5.92005516 L1.73437467,5.92005516 C1.88403865,6.14445359 4.35349437,11.9040133 3.82967043,18.3367682 L12.4353494,18.3367682 C12.9591734,18.3367682 13.3333333,18.7855651 13.3333333,19.2343619 L13.3333333,19.2343619 C13.3333333,19.7579583 12.8843414,20.1319557 12.4353494,20.1319557 L2.78202255,20.2067551 Z" id="Shape" fill="#40596B" fill-rule="nonzero"></path>
                            <g id="Group" transform="translate(2.500000, 17.294118)" fill="#40596B" fill-rule="nonzero">
                                <path d="M0.626877012,10.2858941 L0.626877012,10.2858941 C0.117117299,10.136301 -0.101351149,9.61272506 0.0442944832,9.16394568 L2.44744741,1.08591677 C2.59309305,0.562340824 3.10285276,0.337951133 3.53978965,0.487544261 L3.53978965,0.487544261 C4.04954937,0.637137388 4.26801782,1.16071334 4.12237218,1.60949272 L1.71921925,9.61272506 C1.57357362,10.136301 1.13663672,10.4354873 0.626877012,10.2858941 Z" id="Shape"></path>
                                <path d="M9.11523745,9.65271013 L6.70467029,1.59936421 C6.55857531,1.1519561 6.85076527,0.629979976 7.28905021,0.480843941 L7.28905021,0.480843941 C7.80038264,0.331707905 8.23866757,0.629979976 8.38476255,1.07738808 L10.7953297,9.13073401 C10.9414247,9.65271013 10.6492347,10.1001182 10.2109498,10.2492543 L10.2109498,10.2492543 C9.77266485,10.4729583 9.26133243,10.1746863 9.11523745,9.65271013 Z" id="Shape"></path>
                            </g>
                            <polygon id="Rectangle-path" fill="#40596B" fill-rule="nonzero" points="3.33333333 22.6773434 11.6666667 22.6773434 11.6666667 24.3244022 3.33333333 24.3244022"></polygon>
                            <rect id="Rectangle-path" fill="#40596B" fill-rule="nonzero" x="16.6666667" y="12.7949904" width="2.5" height="14"></rect>
                            <rect id="Rectangle-path" fill="#40596B" fill-rule="nonzero" x="30" y="12.7949904" width="2.5" height="14"></rect>
                            <path d="M34.6665554,11.971461 L14.5700419,11.971461 C13.8743933,11.971461 13.3333333,12.3317551 13.3333333,12.7949904 C13.3333333,13.2582257 13.8743933,13.6185198 14.5700419,13.6185198 L34.5892611,13.6185198 C35.2849096,13.6185198 35.8259696,13.2582257 35.8259696,12.7949904 C35.9032639,12.3832257 35.3622039,11.971461 34.6665554,11.971461 Z" id="Shape" fill="#40596B" fill-rule="nonzero"></path>
                            <polygon id="Shape" fill="#42C8F3" fill-rule="nonzero" points="22.4253731 18.5596963 17.5 11.971461 32.5 11.971461"></polygon>
                            <polygon id="Shape" fill="#F2F2F2" fill-rule="nonzero" points="31.6666667 11.971461 30.4113924 11.971461 24.0611814 15.9902845 20.8860759 11.971461 20 11.971461 23.9135021 16.9126375"></polygon>
                            <g id="Group" transform="translate(21.666667, 0.000000)" fill-rule="nonzero">
                                <ellipse id="Oval" fill="#61DC00" cx="6.66666667" cy="6.58823529" rx="6.66666667" ry="6.58823529"></ellipse>
                                <path d="M9.87878788,5.39037433 L7.87878788,5.39037433 L7.87878788,3.41390374 C7.87878788,2.75508021 7.33333333,2.27593583 6.72727273,2.27593583 L6.72727273,2.27593583 C6.06060606,2.27593583 5.57575758,2.81497326 5.57575758,3.41390374 L5.57575758,5.39037433 L3.57575758,5.39037433 C2.90909091,5.39037433 2.42424242,5.92941176 2.42424242,6.52834225 C2.42424242,7.18716578 2.96969697,7.66631016 3.57575758,7.66631016 L5.45454545,7.66631016 L5.45454545,9.64278075 C5.45454545,10.3016043 6,10.7807487 6.60606061,10.7807487 L6.60606061,10.7807487 C7.27272727,10.7807487 7.75757576,10.2417112 7.75757576,9.64278075 L7.75757576,7.66631016 L9.75757576,7.66631016 C10.4242424,7.66631016 10.9090909,7.12727273 10.9090909,6.52834225 C11.030303,5.92941176 10.4848485,5.39037433 9.87878788,5.39037433 Z" id="Shape" fill="#FFFFFF"></path>
                            </g>
                        </g>
                    </g>
                </g>
            </g>
        </g>
    </g>
</svg>