<?xml version="1.0" encoding="UTF-8"?>
<svg width="29px" height="30px" viewBox="0 0 29 30" version="1.1" xmlns="http://www.w3.org/2000/svg" xmlns:xlink="http://www.w3.org/1999/xlink">
    <!-- Generator: Sketch 56.2 (81672) - https://sketch.com -->
    <title>More</title>
    <desc>Created with Sketch.</desc>
    <g id="1.-Home" stroke="none" stroke-width="1" fill="none" fill-rule="evenodd">
        <g id="Home-final-2" transform="translate(-16.000000, -549.000000)">
            <g id="Bottom" transform="translate(8.000000, 541.000000)">
                <g id="more">
                    <g id="More" transform="translate(7.320000, 8.000000)">
                        <g id="53">
                            <g id="Group" transform="translate(0.680000, 0.000000)" fill-rule="nonzero">
                                <g id="Shape">
                                    <path d="M23.6910053,0.43537415 L27.1280423,0.43537415 C28.1100529,0.43537415 28.9693122,1.19727891 28.9693122,2.06802721 L28.9693122,6.20408163 C28.9693122,7.07482993 28.1100529,7.83673469 27.1280423,7.83673469 L23.6910053,7.83673469 C22.7089947,7.83673469 21.8497354,7.07482993 21.8497354,6.20408163 L21.8497354,2.06802721 C21.8497354,1.19727891 22.7089947,0.43537415 23.6910053,0.43537415 Z" fill="#21DFFE"></path>
                                    <path d="M16.4486772,0.43537415 L13.0116402,0.43537415 C12.0296296,0.43537415 11.1703704,1.19727891 11.1703704,2.06802721 L11.1703704,6.20408163 C11.1703704,7.07482993 12.0296296,7.83673469 13.0116402,7.83673469 L16.4486772,7.83673469 C17.4306878,7.83673469 18.2899471,7.07482993 18.2899471,6.20408163 L18.2899471,2.06802721 C18.2899471,1.19727891 17.4306878,0.43537415 16.4486772,0.43537415 Z" fill="#4ABAA5"></path>
                                    <path d="M2.33227513,0.43537415 L5.76931217,0.43537415 C6.75132275,0.43537415 7.61058201,1.19727891 7.61058201,2.06802721 L7.61058201,6.20408163 C7.61058201,7.07482993 6.75132275,7.83673469 5.76931217,7.83673469 L2.33227513,7.83673469 C1.35026455,7.83673469 0.491005291,7.07482993 0.491005291,6.20408163 L0.491005291,2.06802721 C0.491005291,1.19727891 1.35026455,0.43537415 2.33227513,0.43537415 Z" fill="#F05540"></path>
                                </g>
                                <g transform="translate(0.000000, 10.884354)" id="Shape">
                                    <path d="M13.0116402,0.217687075 L16.4486772,0.217687075 C17.4306878,0.217687075 18.2899471,0.979591837 18.2899471,1.85034014 L18.2899471,5.98639456 C18.2899471,6.85714286 17.4306878,7.61904762 16.4486772,7.61904762 L13.0116402,7.61904762 C12.0296296,7.61904762 11.1703704,6.85714286 11.1703704,5.98639456 L11.1703704,1.85034014 C11.1703704,0.870748299 12.0296296,0.217687075 13.0116402,0.217687075 Z" fill="#B5EC7A"></path>
                                    <path d="M2.33227513,0.217687075 L5.76931217,0.217687075 C6.75132275,0.217687075 7.61058201,0.979591837 7.61058201,1.85034014 L7.61058201,5.98639456 C7.61058201,6.85714286 6.75132275,7.61904762 5.76931217,7.61904762 L2.33227513,7.61904762 C1.35026455,7.61904762 0.491005291,6.85714286 0.491005291,5.98639456 L0.491005291,1.85034014 C0.491005291,0.870748299 1.35026455,0.217687075 2.33227513,0.217687075 Z" fill="#3B7CFF"></path>
                                    <path d="M27.1280423,0.326530612 L23.6910053,0.326530612 C22.7089947,0.326530612 21.8497354,1.08843537 21.8497354,1.95918367 L21.8497354,6.0952381 C21.8497354,6.96598639 22.7089947,7.72789116 23.6910053,7.72789116 L27.1280423,7.72789116 C28.1100529,7.72789116 28.9693122,6.96598639 28.9693122,6.0952381 L28.9693122,1.95918367 C28.9693122,1.08843537 28.1100529,0.326530612 27.1280423,0.326530612 Z" fill="#9C78FD"></path>
                                </g>
                                <g transform="translate(0.000000, 21.768707)" id="Shape">
                                    <path d="M5.76931217,0 L2.33227513,0 C1.35026455,0 0.491005291,0.761904762 0.491005291,1.63265306 L0.491005291,5.76870748 C0.491005291,6.63945578 1.35026455,7.40136054 2.33227513,7.40136054 L5.76931217,7.40136054 C6.75132275,7.40136054 7.61058201,6.63945578 7.61058201,5.76870748 L7.61058201,1.63265306 C7.61058201,0.653061224 6.75132275,0 5.76931217,0 Z" fill="#415A6B"></path>
                                    <path d="M23.6910053,0 L27.1280423,0 C28.1100529,0 28.9693122,0.761904762 28.9693122,1.63265306 L28.9693122,5.76870748 C28.9693122,6.63945578 28.1100529,7.40136054 27.1280423,7.40136054 L23.6910053,7.40136054 C22.7089947,7.40136054 21.8497354,6.63945578 21.8497354,5.76870748 L21.8497354,1.63265306 C21.8497354,0.979591837 22.7089947,0 23.6910053,0 Z" fill="#FF7466"></path>
                                    <path d="M13.0116402,0 L16.4486772,0 C17.4306878,0 18.2899471,0.761904762 18.2899471,1.63265306 L18.2899471,5.76870748 C18.2899471,6.63945578 17.4306878,7.40136054 16.4486772,7.40136054 L13.0116402,7.40136054 C12.0296296,7.40136054 11.1703704,6.63945578 11.1703704,5.76870748 L11.1703704,1.63265306 C11.1703704,0.653061224 12.0296296,0 13.0116402,0 Z" fill="#F8A700"></path>
                                </g>
                            </g>
                        </g>
                    </g>
                </g>
            </g>
        </g>
    </g>
</svg>