<?xml version="1.0" encoding="UTF-8"?>
<svg width="31px" height="17px" viewBox="0 0 31 17" version="1.1" xmlns="http://www.w3.org/2000/svg" xmlns:xlink="http://www.w3.org/1999/xlink">
    <!-- Generator: Sketch 56.2 (81672) - https://sketch.com -->
    <title>print</title>
    <desc>Created with Sketch.</desc>
    <g id="3.-Delivery" stroke="none" stroke-width="1" fill="none" fill-rule="evenodd">
        <g id="Create-delivery-Order-1" transform="translate(-840.000000, -562.000000)">
            <g id="kitchen" transform="translate(812.000000, 551.000000)">
                <g id="print" transform="translate(28.000000, 11.000000)">
                    <g id="Group">
                        <path d="M29.6957462,16.9731276 L1.2911194,16.9731276 C0.577775932,16.9731276 0,16.5865998 0,16.1103424 L0,4.63745625 C0,4.16119882 0.577775932,3.77467105 1.2911194,3.77467105 L29.6957462,3.77467105 C30.4084441,3.77467105 30.9868656,4.16119882 30.9868656,4.63745625 L30.9868656,16.1103424 C30.9868656,16.5865998 30.4084441,16.9731276 29.6957462,16.9731276" id="Fill-1" fill="#40596B"></path>
                        <polygon id="Fill-3" fill="#334A5E" points="3.10643328 16.9733174 27.8797868 16.9733174 27.8797868 8.74116875 3.10643328 8.74116875"></polygon>
                        <path d="M29.6957462,6.22489007 C29.6957462,6.78740968 29.2309432,7.24236086 28.6576862,7.24236086 C28.0844292,7.24236086 27.6189806,6.78740968 27.6189806,6.22489007 C27.6189806,5.66300321 28.0844292,5.20741927 28.6576862,5.20741927 C29.2309432,5.20741927 29.6957462,5.66300321 29.6957462,6.22489007" id="Fill-9" fill="#FFD15C"></path>
                        <path d="M26.3279904,6.22489007 C26.3279904,6.78740968 25.8631874,7.24236086 25.2899304,7.24236086 C24.7166734,7.24236086 24.2512248,6.78740968 24.2512248,6.22489007 C24.2512248,5.66300321 24.7166734,5.20741927 25.2899304,5.20741927 C25.8631874,5.20741927 26.3279904,5.66300321 26.3279904,6.22489007" id="Fill-10" fill="#FF7058"></path>
                        <polygon id="Fill-6" fill="#FFFFFF" points="5.74806357 9.38341555 25.2394476 9.38341555 25.2394476 8.74116875 5.74806357 8.74116875"></polygon>
                        <rect id="Rectangle-5" fill="#BEBEBE" x="6.60511364" y="0" width="17.1732955" height="3.77467105"></rect>
                    </g>
                </g>
            </g>
        </g>
    </g>
</svg>