<?xml version="1.0" encoding="UTF-8"?>
<svg width="16px" height="14px" viewBox="0 0 16 14" version="1.1" xmlns="http://www.w3.org/2000/svg" xmlns:xlink="http://www.w3.org/1999/xlink">
    <!-- Generator: Sketch 56.2 (81672) - https://sketch.com -->
    <title>warning</title>
    <desc>Created with Sketch.</desc>
    <g id="3.-Delivery" stroke="none" stroke-width="1" fill="none" fill-rule="evenodd">
        <g id="Delivery-home-1.2" transform="translate(-786.000000, -112.000000)">
            <g id="Table" transform="translate(255.000000, 83.000000)">
                <g id="warning" transform="translate(531.000000, 29.000000)">
                    <g id="Path">
                        <path d="M15.6702813,10.3272483 L10.0176875,1.13042101 C9.58596875,0.437013889 8.83525,0.0172873264 8,0.0172873264 C7.16475,0.0172873264 6.414,0.437013889 5.98228125,1.13042101 L0.3296875,10.3272483 C-0.1019375,11.0480599 -0.11134375,11.9057118 0.31096875,12.6264931 C0.73325,13.3472439 1.49334375,13.7760851 2.347375,13.7760851 L13.6525625,13.7760851 C14.5065938,13.7760851 15.2667188,13.3472439 15.6889688,12.6264931 C16.1113437,11.9057118 16.1019375,11.0480599 15.6702813,10.3272483 Z" fill="#E50027" fill-rule="nonzero"></path>
                        <path d="M15.6890312,12.6264931 C15.26675,13.3472439 14.5066562,13.7760851 13.652625,13.7760851 L8,13.7760851 L8,0.0173177083 C8.83521875,0.0173177083 9.586,0.437044271 10.0177188,1.13045139 L15.6703125,10.3272786 C16.1019375,11.0480599 16.1113437,11.9057118 15.6890312,12.6264931 Z" fill="#C1001F" fill-rule="nonzero"></path>
                        <path d="M2.34715625,12.8637153 C1.82753125,12.8637153 1.3830625,12.6124566 1.1264375,12.174987 C0.86984375,11.7370616 0.87440625,11.2305035 1.14109375,10.7859245 L6.7884375,1.5965408 C7.046875,1.18134115 7.5014375,0.929626736 7.99996875,0.929626736 C8.4985,0.929626736 8.95309375,1.18131076 9.2151875,1.60279948 L14.8634687,10.7930339 C15.1255937,11.2305339 15.1301562,11.7370616 14.8735312,12.1749566 C14.6169375,12.6124566 14.1724375,12.8637153 13.6528125,12.8637153 L2.34715625,12.8637153 L2.34715625,12.8637153 Z" fill="#FD003A" fill-rule="nonzero"></path>
                        <path d="M13.6528437,12.8637153 C14.1724687,12.8637153 14.6169375,12.6124566 14.8735625,12.174987 C15.1301562,11.7370616 15.1255938,11.2305035 14.8635,10.7930642 L9.2151875,1.6027691 C8.9530625,1.18134115 8.49853125,0.929596354 7.99996875,0.929596354 L7.99996875,12.8637153 L13.6528437,12.8637153 Z" fill="#E50027" fill-rule="nonzero"></path>
                        <path d="M8.9384375,3.73986545 L8.9384375,7.38940538 C8.9384375,7.89122396 8.516125,8.30177517 8,8.30177517 C7.483875,8.30177517 7.06153125,7.89119358 7.06153125,7.38940538 L7.06153125,3.73986545 C7.06153125,3.23804688 7.48384375,2.82746528 8,2.82746528 C8.51615625,2.82746528 8.9384375,3.23804688 8.9384375,3.73986545 Z" fill="#E1E4FB" fill-rule="nonzero"></path>
                        <path d="M8.9384375,3.73986545 L8.9384375,7.38940538 C8.9384375,7.89122396 8.516125,8.30177517 8,8.30177517 L8,2.82746528 C8.516125,2.82746528 8.9384375,3.23804688 8.9384375,3.73986545 Z" fill="#C5C9F7" fill-rule="nonzero"></path>
                        <path d="M8,9.21417535 C7.2210625,9.21417535 6.5923125,9.82542969 6.5923125,10.5827604 C6.5923125,11.34 7.22103125,11.9513455 8,11.9513455 C8.77896875,11.9513455 9.4076875,11.3400304 9.4076875,10.5827604 C9.4076875,9.82546007 8.77890625,9.21417535 8,9.21417535 Z" fill="#E1E4FB" fill-rule="nonzero"></path>
                        <path d="M9.4076875,10.58273 C9.4076875,11.3399696 8.77896875,11.9513151 8,11.9513151 L8,9.21417535 C8.77890625,9.21417535 9.4076875,9.82546007 9.4076875,10.58273 Z" fill="#C5C9F7" fill-rule="nonzero"></path>
                    </g>
                </g>
            </g>
        </g>
    </g>
</svg>