<?xml version="1.0" encoding="UTF-8"?>
<svg width="26px" height="18px" viewBox="0 0 26 18" version="1.1" xmlns="http://www.w3.org/2000/svg" xmlns:xlink="http://www.w3.org/1999/xlink">
    <!-- Generator: Sketch 56.2 (81672) - https://sketch.com -->
    <title>technics</title>
    <desc>Created with Sketch.</desc>
    <g id="4.-Reservation" stroke="none" stroke-width="1" fill="none" fill-rule="evenodd">
        <g id="Reservation----create-new" transform="translate(-413.000000, -553.000000)">
            <g id="kitchen-copy-3" transform="translate(395.000000, 541.000000)">
                <g id="pay">
                    <g id="dinner-2" transform="translate(18.000000, 12.000000)">
                        <g id="dinner-(2)">
                            <path d="M13,5.08179199 C12.2793125,5.08179199 11.6124531,4.65547852 11.1222617,3.88138184 C10.7693828,3.32419922 10.5502109,2.65640625 10.5502109,2.13864258 C10.5502109,0.96965332 11.649168,0.0186767578 12.9999492,0.0186767578 C14.3507305,0.0186767578 15.4496875,0.969697266 15.4496875,2.13864258 C15.4496875,2.6564502 15.2305156,3.32415527 14.8776367,3.88133789 C14.3875469,4.65552246 13.7206875,5.08179199 13,5.08179199 Z M13,1.50130371 C12.5939023,1.50130371 12.2635195,1.78721191 12.2635195,2.13864258 C12.2635195,2.63069824 12.7159297,3.44184082 13,3.58795898 C13.2841211,3.44184082 13.7364805,2.6306543 13.7364805,2.13864258 C13.7365313,1.78721191 13.4061484,1.50130371 13,1.50130371 Z" id="Shape" fill="#545257" fill-rule="nonzero"></path>
                            <path d="M13,0.0186767578 L13,1.50130371 C13.4060977,1.50130371 13.7364805,1.78721191 13.7364805,2.13864258 C13.7364805,2.63069824 13.2840703,3.44184082 13,3.58795898 L13,5.08179199 C13.7206875,5.08179199 14.3875977,4.65547852 14.8777383,3.88133789 C15.2306172,3.32419922 15.4497891,2.65640625 15.4497891,2.13864258 C15.4497891,0.969697266 14.350832,0.0186767578 13,0.0186767578 Z" id="Path" fill="#424145" fill-rule="nonzero"></path>
                            <path d="M24.2585586,16.2708398 C24.1207891,16.8668262 23.5161367,17.2957764 22.8137813,17.2957764 L3.18616797,17.2957764 C2.4838125,17.2957764 1.87916016,16.8667822 1.74139063,16.2708398 L1.07239844,13.3760742 L24.9275508,13.3760742 L24.2585586,16.2708398 Z" id="Path" fill="#00D9E1" fill-rule="nonzero"></path>
                            <g id="Group" transform="translate(1.066406, 13.359375)" fill="#00A3AA" fill-rule="nonzero">
                                <path d="M11.9336445,0.0166992187 L11.9336445,3.93640137 L21.7474766,3.93640137 C22.449832,3.93640137 23.0544844,3.50740723 23.1922539,2.91146484 L23.8612461,0.0166992187 L11.9336445,0.0166992187 Z" id="Path"></path>
                                <polygon id="Path" points="23.5841836 1.21526367 23.8611445 0.0166992187 0.00604296875 0.0166992187 0.283054688 1.21526367"></polygon>
                            </g>
                            <path d="M13,3.61538086 C6.15082813,3.61538086 0.535132813,7.58474121 0.003453125,12.6295752 C-0.0177226562,12.830625 0.0598710938,13.0300049 0.217039063,13.1791553 C0.374207031,13.3283057 0.596832031,13.413999 0.830070313,13.413999 L25.1699805,13.413999 C25.4033711,13.413999 25.6260469,13.3289648 25.7833164,13.1796826 C25.9405859,13.0304443 26.0177734,12.8307568 25.9965469,12.6295752 C25.4648672,7.58469727 19.8492227,3.61538086 13,3.61538086 Z" id="Path" fill="#DFDEE1" fill-rule="nonzero"></path>
                            <path d="M25.9965977,12.6295752 C25.4648672,7.58469727 19.8492734,3.61538086 13.0000508,3.61538086 L13.0000508,13.413999 L25.1699805,13.413999 C25.4033711,13.413999 25.6260469,13.3289648 25.7833164,13.1796826 C25.9406367,13.0304443 26.0177734,12.8307568 25.9965977,12.6295752 Z" id="Path" fill="#AEACB3" fill-rule="nonzero"></path>
                        </g>
                    </g>
                </g>
            </g>
        </g>
    </g>
</svg>