<?xml version="1.0" encoding="UTF-8"?>
<svg width="13px" height="14px" viewBox="0 0 13 14" version="1.1" xmlns="http://www.w3.org/2000/svg" xmlns:xlink="http://www.w3.org/1999/xlink">
    <!-- Generator: Sketch 56.2 (81672) - https://sketch.com -->
    <title>search</title>
    <desc>Created with Sketch.</desc>
    <g id="3.-Delivery" stroke="none" stroke-width="1" fill="none" fill-rule="evenodd">
        <g id="Delivery-home-1.2" transform="translate(-514.000000, -32.000000)">
            <g id="Search" transform="translate(255.000000, 21.000000)">
                <g id="-Round-/-Action-/-search" transform="translate(257.000000, 9.000000)">
                    <g>
                        <polygon id="Path" points="0 0 18 0 18 18 0 18"></polygon>
                        <path d="M11.625,10.5 L11.0325,10.5 L10.8225,10.2975 C11.7225,9.2475 12.1875,7.815 11.9325,6.2925 C11.58,4.2075 9.84,2.5425 7.74,2.2875 C4.5675,1.8975 1.8975,4.5675 2.2875,7.74 C2.5425,9.84 4.2075,11.58 6.2925,11.9325 C7.815,12.1875 9.2475,11.7225 10.2975,10.8225 L10.5,11.0325 L10.5,11.625 L13.6875,14.8125 C13.995,15.12 14.4975,15.12 14.805,14.8125 C15.1125,14.505 15.1125,14.0025 14.805,13.695 L11.625,10.5 Z M7.125,10.5 C5.2575,10.5 3.75,8.9925 3.75,7.125 C3.75,5.2575 5.2575,3.75 7.125,3.75 C8.9925,3.75 10.5,5.2575 10.5,7.125 C10.5,8.9925 8.9925,10.5 7.125,10.5 Z" id="🔹Icon-Color" fill="#FFFFFF"></path>
                    </g>
                </g>
            </g>
        </g>
    </g>
</svg>