<svg width="24" height="24" viewBox="0 0 24 24" fill="none" xmlns="http://www.w3.org/2000/svg">
<path d="M2.3999 2.40002H21.5999V21.6H2.3999V2.40002Z" fill="#FF4452"/>
<path opacity="0.109891" d="M2.3999 13.9597L8.0991 8.22083L15.8399 15.84L9.7599 21.6H2.3999V13.9597Z" fill="#000064"/>
<path d="M8.38 15.9405C8.25059 15.9405 8.13394 15.8625 8.08442 15.7429C8.0349 15.6234 8.06227 15.4858 8.15376 15.3942L15.3941 8.15361C15.4744 8.07042 15.5934 8.03706 15.7053 8.06635C15.8172 8.09563 15.9045 8.183 15.9338 8.29489C15.9631 8.40677 15.9297 8.52574 15.8466 8.60609L8.60624 15.8467C8.54624 15.9067 8.46486 15.9405 8.38 15.9405Z" fill="white"/>
<path d="M15.6207 15.9405C15.5358 15.9405 15.4544 15.9067 15.3944 15.8467L8.15379 8.60609C8.03252 8.48053 8.03426 8.28094 8.15769 8.15751C8.28113 8.03407 8.48071 8.03234 8.60627 8.15361L15.8469 15.3943C15.9384 15.4858 15.9658 15.6234 15.9163 15.7429C15.8667 15.8625 15.7501 15.9405 15.6207 15.9405Z" fill="white"/>
</svg>
