<svg width="16" height="17" viewBox="0 0 16 17" fill="none" xmlns="http://www.w3.org/2000/svg">
<path fill-rule="evenodd" clip-rule="evenodd" d="M1.77636 6.90701C1.75005 6.91134 1.72386 6.91344 1.69806 6.91344C1.46833 6.91344 1.26574 6.74733 1.22706 6.51324C1.18418 6.25292 1.36029 6.00713 1.62051 5.96406C1.63479 5.96167 3.07128 5.71722 5.12086 4.9006C6.77931 4.23982 9.15034 3.07387 11.5098 1.15497H11.2356C10.9717 1.15497 10.7577 0.94101 10.7577 0.677095C10.7577 0.41318 10.9717 0.199219 11.2356 0.199219H12.7986C13.0625 0.199219 13.2765 0.41318 13.2765 0.677095V2.24007C13.2765 2.50398 13.0625 2.71794 12.7986 2.71794C12.5347 2.71794 12.3207 2.50398 12.3207 2.24007V1.72565C9.79012 3.83054 7.22476 5.09366 5.44575 5.79993C3.30726 6.64892 1.83785 6.89687 1.77636 6.90701ZM14.7181 4.03816H12.7986C12.5347 4.03816 12.3208 4.25212 12.3208 4.51603V16.0328C12.3208 16.2968 12.5347 16.5107 12.7986 16.5107H14.7181C14.982 16.5107 15.196 16.2968 15.196 16.0328V4.51603C15.196 4.25212 14.982 4.03816 14.7181 4.03816ZM8.95971 5.95763H10.8792C11.1431 5.95763 11.3571 6.17159 11.3571 6.4355V16.0328C11.3571 16.2968 11.1431 16.5107 10.8792 16.5107H8.95971C8.69579 16.5107 8.48183 16.2968 8.48183 16.0328V6.4355C8.48183 6.17159 8.69579 5.95763 8.95971 5.95763ZM7.04024 7.87709H5.12077C4.85686 7.87709 4.6429 8.09106 4.6429 8.35497V16.0328C4.6429 16.2968 4.85686 16.5107 5.12077 16.5107H7.04024C7.30416 16.5107 7.51812 16.2968 7.51812 16.0328V8.35497C7.51812 8.09106 7.30416 7.87709 7.04024 7.87709ZM3.2013 9.79656H1.28183C1.01792 9.79656 0.803955 10.0105 0.803955 10.2744V16.0328C0.803955 16.2968 1.01792 16.5107 1.28183 16.5107H3.2013C3.46521 16.5107 3.67918 16.2968 3.67918 16.0328V10.2744C3.67918 10.0105 3.46521 9.79656 3.2013 9.79656Z" fill="#1D1D26"/>
</svg>
