<?xml version="1.0" encoding="UTF-8"?>
<svg width="14px" height="16px" viewBox="0 0 14 16" version="1.1" xmlns="http://www.w3.org/2000/svg" xmlns:xlink="http://www.w3.org/1999/xlink">
    <!-- Generator: Sketch 57.1 (83088) - https://sketch.com -->
    <title>Shape</title>
    <desc>Created with Sketch.</desc>
    <g id="Printer-config" stroke="none" stroke-width="1" fill="none" fill-rule="evenodd">
        <g id="Printer-configuration" transform="translate(-679.000000, -217.000000)" fill="#000000" fill-rule="nonzero">
            <g id="Slide" transform="translate(271.000000, 209.000000)">
                <g id="bluetooth-searching-signal-indicator" transform="translate(408.000000, 8.000000)">
                    <path d="M8.69217391,7.76086957 L10.4771739,9.54586957 C10.71,9.00257826 10.7876087,8.38173913 10.7876087,7.76086957 C10.7876087,7.14 10.6323609,6.51913043 10.4771739,5.97586957 L8.69217391,7.76086957 Z M12.8054348,3.6476087 L11.8741304,4.65652174 C12.3397826,5.58782609 12.6502174,6.67434783 12.6502174,7.76086957 C12.6502174,8.8473913 12.3397826,9.93391304 11.8741304,10.8652174 L12.8054348,11.7965217 C13.5815217,10.6323913 13.9695652,9.15785652 13.9695652,7.6832913 C13.9695652,6.20872609 13.5815217,4.81173913 12.8054348,3.6476087 Z M9.85630435,4.42369565 L5.4326087,0 L4.65652174,0 L4.65652174,5.89826087 L1.08652174,2.32826087 L0,3.41478261 L4.34608696,7.76086957 L0,12.1069565 L1.08652174,13.1934783 L4.65652174,9.62347826 L4.65652174,15.5217391 L5.4326087,15.5217391 L9.85630435,11.0980435 L6.51913043,7.76086957 L9.85630435,4.42369565 Z M6.20869565,2.94913043 L7.68326087,4.42369565 L6.20869565,5.89826087 L6.20869565,2.94913043 Z M7.68326087,11.0980435 L6.20869565,12.5726087 L6.20869565,9.62347826 L7.68326087,11.0980435 Z" id="Shape"></path>
                </g>
            </g>
        </g>
    </g>
</svg>