<?xml version="1.0" encoding="UTF-8"?>
<svg width="15px" height="17px" viewBox="0 0 15 17" version="1.1" xmlns="http://www.w3.org/2000/svg" xmlns:xlink="http://www.w3.org/1999/xlink">
    <!-- Generator: Sketch 57.1 (83088) - https://sketch.com -->
    <title>cancel</title>
    <desc>Created with Sketch.</desc>
    <g id="Printer-config" stroke="none" stroke-width="1" fill="none" fill-rule="evenodd">
        <g id="Printer-configuration" transform="translate(-713.000000, -562.000000)" fill="#FF4452">
            <g id="print-report-copy" transform="translate(695.000000, 550.000000)">
                <g id="delete" transform="translate(18.000000, 12.000000)">
                    <g transform="translate(0.000000, -0.000000)">
                        <path d="M11.6669668,1.43157895 L8.20225762,1.43157895 L8.20225762,0 L3.49732687,0 L3.49732687,1.43157895 L0.0326177285,1.43157895 L0.0326177285,3.69196676 L11.6669668,3.69196676 L11.6669668,1.43157895 Z M4.74386427,1.13019391 L6.95572022,1.13019391 L6.95572022,1.43157895 L4.74386427,1.43157895 L4.74386427,1.13019391 Z" id="Shape" fill-rule="nonzero"></path>
                        <path d="M10.5599169,8.07372853 L10.795097,4.82216066 L0.904529086,4.82216066 L1.69466759,15.7473684 L6.43865651,15.7473684 C5.82116343,14.9537086 5.45796399,13.9863003 5.45796399,12.9433573 C5.45796399,10.3386371 7.72225762,8.20441662 10.5599169,8.07372853 Z" id="Path" fill-rule="nonzero"></path>
                        <path d="M10.8359418,9.19755568 C8.55785319,9.19755568 6.70450139,10.877928 6.70450139,12.9433573 C6.70450139,15.0087867 8.55785319,16.6891967 10.8359418,16.6891967 C13.1140305,16.6891967 14.9673823,15.0088244 14.9673823,12.9433573 C14.9673823,10.8778903 13.1140305,9.19755568 10.8359418,9.19755568 Z M13.0870222,14.1851767 L12.2055956,14.9843368 L10.8359418,13.7425175 L9.46628809,14.9843368 L8.5848615,14.1851767 L9.95451524,12.9433573 L8.5848615,11.701538 L9.46628809,10.9023778 L10.8359418,12.1441972 L12.2055956,10.9023778 L13.0870222,11.701538 L11.7173684,12.9433573 L13.0870222,14.1851767 Z" id="Shape" fill-rule="nonzero"></path>
                    </g>
                </g>
            </g>
        </g>
    </g>
</svg>