<svg width="16" height="16" viewBox="0 0 16 16" fill="none" xmlns="http://www.w3.org/2000/svg">
<path fill-rule="evenodd" clip-rule="evenodd" d="M15.4668 6.54563L13.5651 6.18906C13.4495 5.80441 13.298 5.43543 13.1102 5.08833L14.2106 3.47951C14.3125 3.33061 14.2913 3.10661 14.1636 2.97927L12.8069 1.6222C12.6792 1.49453 12.4555 1.47396 12.3073 1.57551L10.6975 2.67657C10.3402 2.48392 9.95984 2.32947 9.5631 2.2129L9.20849 0.32098C9.17518 0.143673 9.00278 0 8.82188 0H6.90318C6.72261 0 6.54988 0.143673 6.51625 0.32098L6.15771 2.23151C5.77731 2.34776 5.41257 2.49927 5.06906 2.68604L3.48016 1.59902C3.33127 1.49714 3.10727 1.51804 2.97992 1.64571L1.62286 3.00278C1.49518 3.13045 1.47461 3.35412 1.57616 3.50302L2.67004 5.10171C2.48588 5.44522 2.33665 5.80963 2.22237 6.18939L0.320653 6.54563C0.143673 6.57927 0 6.752 0 6.93257V8.85126C0 9.03184 0.143673 9.20457 0.320653 9.23853L2.22106 9.59478C2.33698 9.98269 2.4898 10.3549 2.67853 10.7047L1.59706 12.2857C1.49518 12.4346 1.51608 12.6586 1.64376 12.7856L3.00049 14.1424C3.12816 14.2704 3.35184 14.2906 3.50073 14.1897L5.08114 13.1079C5.42106 13.2918 5.78188 13.4413 6.15837 13.5569L6.51657 15.4681C6.5502 15.6454 6.72294 15.7884 6.90351 15.7884H8.82253C9.00343 15.7884 9.17551 15.6454 9.20947 15.4681L9.56441 13.5758C9.95625 13.4602 10.3331 13.3078 10.687 13.1184L12.2873 14.2136C12.4362 14.3154 12.6602 14.2945 12.7876 14.1662L14.1437 12.8101C14.272 12.6821 14.2922 12.4591 14.191 12.3099L13.102 10.7187C13.2944 10.3647 13.4488 9.98825 13.5667 9.59543L15.4668 9.23918C15.6434 9.20522 15.7868 9.03249 15.7868 8.85192V6.93322C15.7881 6.752 15.6441 6.57927 15.4668 6.54563ZM7.8942 11.1873C6.07608 11.1873 4.60179 9.71298 4.60179 7.89388C4.60179 6.07608 6.07608 4.60147 7.8942 4.60147C9.71298 4.60147 11.1876 6.07608 11.1876 7.89388C11.1876 9.71298 9.71232 11.1873 7.8942 11.1873ZM9.25486 7.8942C9.25486 8.64567 8.64567 9.25486 7.89421 9.25486C7.14274 9.25486 6.53355 8.64567 6.53355 7.8942C6.53355 7.14274 7.14274 6.53355 7.89421 6.53355C8.64567 6.53355 9.25486 7.14274 9.25486 7.8942Z" fill="#1D1D26"/>
</svg>
