<svg width="64" height="64" viewBox="0 0 64 64" fill="none" xmlns="http://www.w3.org/2000/svg">
<g clip-path="url(#clip0)">
<path d="M62.865 23.5314C59.1521 9.96838 46.7411 0 32 0C14.3269 0 0 14.3269 0 32C0 46.7411 9.96838 59.1521 23.5314 62.865L62.865 23.5314Z" fill="#006064"/>
<path d="M62.8649 23.5327L51.6666 12.3343L50.6919 13.3089C45.9084 8.52528 39.2997 5.56641 31.9999 5.56641C17.4004 5.56641 5.56519 17.4015 5.56519 32.0012C5.56519 39.3009 8.52394 45.9097 13.3078 50.6935L12.3332 51.6682L23.5314 62.8664C26.2289 63.6047 29.0681 64.0012 31.9999 64.0012C49.6729 64.0012 63.9999 49.6742 63.9999 32.0012C63.9999 29.0693 63.6034 26.2302 62.8649 23.5327Z" fill="#263238"/>
<path d="M32.0002 4.17383L25.0437 32L32.0002 59.8261C47.3681 59.8261 59.8263 47.368 59.8263 32C59.8263 16.632 47.3681 4.17383 32.0002 4.17383Z" fill="#B2EBF2"/>
<path d="M4.17383 32C4.17383 47.3678 16.632 59.8261 32 59.8261V4.17383C16.6321 4.17383 4.17383 16.6321 4.17383 32Z" fill="white"/>
<path d="M31.9999 6.95703L25.739 32.0005L31.9999 57.044C45.831 57.044 57.0434 45.8317 57.0434 32.0005C57.0434 18.1694 45.831 6.95703 31.9999 6.95703Z" fill="#00ACC1"/>
<path d="M6.9563 32.0005C6.9563 45.8317 18.1687 57.044 31.9998 57.044V6.95703C18.1687 6.95703 6.9563 18.1694 6.9563 32.0005Z" fill="#00BCD4"/>
<path d="M36.1738 51.4785H31.9999L29.2173 37.5655L31.9999 23.6523H36.1738V51.4785Z" fill="#E0F7FA"/>
<path d="M32 23.6523H27.8262V51.4785H32V23.6523Z" fill="white"/>
<path d="M36.1738 20.8694H31.9999L29.2173 16.9096L31.9999 12.5215H36.1738V20.8694Z" fill="#E0F7FA"/>
<path d="M32 12.5215H27.8262V20.8694H32V12.5215Z" fill="white"/>
</g>
<defs>
<clipPath id="clip0">
<rect width="64" height="64" fill="white"/>
</clipPath>
</defs>
</svg>
