<svg width="16" height="17" viewBox="0 0 16 17" fill="none" xmlns="http://www.w3.org/2000/svg">
<path fill-rule="evenodd" clip-rule="evenodd" d="M12.6062 2.69049L4.82672 6.3478V8.69635L3.4696 8.0929V5.74435L11.2491 2.08706L8.63613 0.92526C8.28625 0.769705 7.71376 0.769705 7.36387 0.92526L0.929598 3.78618C0.416997 4.0141 -0.00130413 4.65953 3.05541e-06 5.22053L0.0158462 11.9273C0.0171795 12.4943 0.444814 13.1404 0.966121 13.3633L7.38353 16.1066C7.72196 16.2513 8.27579 16.2513 8.61425 16.1067L15.0339 13.3632C15.5551 13.1405 15.9828 12.4944 15.9841 11.9275L16 5.22053C16.0013 4.65953 15.583 4.0141 15.0704 3.78618L12.6062 2.69049ZM14.5464 8.05891L14.1698 8.23363L14.1622 10.8834C14.1618 10.9992 14.0596 11.137 13.934 11.1912L13.3703 11.4345C13.2467 11.4879 13.1467 11.4384 13.1466 11.3241L13.1447 8.70921L12.78 8.87841C12.6084 8.95799 12.5011 8.83321 12.5862 8.65355L13.4581 6.81418C13.5461 6.6285 13.7667 6.52139 13.8551 6.6221L14.7497 7.64202C14.839 7.74382 14.7257 7.97574 14.5464 8.05891ZM10.8653 12.3143C10.8662 12.4252 10.7725 12.5558 10.6561 12.6061L10.1333 12.8318C10.0187 12.8813 9.9249 12.8325 9.92359 12.723L9.89298 10.2178L9.55473 10.3747C9.39564 10.4485 9.29413 10.3274 9.37156 10.1565L10.164 8.40801C10.2439 8.23161 10.4482 8.13242 10.5316 8.2301L11.3761 9.21927C11.4604 9.31802 11.3575 9.53828 11.1915 9.61527L10.8428 9.77705L10.8653 12.3143ZM15.1687 11.5869C15.1683 11.6451 15.116 11.714 15.0519 11.741L9.08074 14.2495C9.02503 14.2729 8.9792 14.2484 8.97839 14.1947L8.97381 13.9029C8.97297 13.8491 9.01747 13.7862 9.07329 13.7624L15.055 11.2143C15.1192 11.1869 15.1711 11.212 15.1707 11.2704L15.1687 11.5869Z" fill="#1D1D26"/>
</svg>
