<svg width="24" height="24" viewBox="0 0 24 24" fill="none" xmlns="http://www.w3.org/2000/svg">
<g opacity="0.5">
<path d="M14.7656 15.4688H0.703125C0.314758 15.4688 0 15.154 0 14.7656V0.703125C0 0.314758 0.314758 0 0.703125 0H14.7656C15.154 0 15.4688 0.314758 15.4688 0.703125V14.7656C15.4688 15.154 15.154 15.4688 14.7656 15.4688Z" fill="#FFE277"/>
<path d="M14.7656 0H12.0938V15.4688H14.7656C15.154 15.4688 15.4688 15.154 15.4688 14.7656V0.703125C15.4688 0.314758 15.154 0 14.7656 0Z" fill="#FFCD00"/>
<path d="M23.2969 24H9.23438C8.84601 24 8.53125 23.6852 8.53125 23.2969V9.23438C8.53125 8.84601 8.84601 8.53125 9.23438 8.53125H23.2969C23.6852 8.53125 24 8.84601 24 9.23438V23.2969C24 23.6852 23.6852 24 23.2969 24Z" fill="#0051BD"/>
<path d="M23.2969 8.53125H12.0938V24H23.2969C23.6852 24 24 23.6852 24 23.2969V9.23438C24 8.84601 23.6852 8.53125 23.2969 8.53125Z" fill="#00347B"/>
<path d="M9.23438 8.53125C8.84601 8.53125 8.53125 8.84601 8.53125 9.23438V15.4688H14.7656C15.154 15.4688 15.4688 15.154 15.4688 14.7656V8.53125H9.23438Z" fill="#00ECCF"/>
<path d="M12.0938 8.53125V15.4688H14.7656C15.154 15.4688 15.4688 15.154 15.4688 14.7656V8.53125H12.0938Z" fill="#00CAB1"/>
</g>
</svg>
