<?xml version="1.0" encoding="UTF-8"?>
<svg width="18px" height="18px" viewBox="0 0 18 18" version="1.1" xmlns="http://www.w3.org/2000/svg" xmlns:xlink="http://www.w3.org/1999/xlink">
    <!-- Generator: Sketch 57.1 (83088) - https://sketch.com -->
    <title>pulse-chart</title>
    <desc>Created with Sketch.</desc>
    <g id="Printer-config" stroke="none" stroke-width="1" fill="none" fill-rule="evenodd">
        <g id="Printer-configuration" transform="translate(-875.000000, -561.000000)">
            <g id="print-report" transform="translate(860.000000, 550.000000)">
                <g id="printer" transform="translate(15.000000, 11.000000)">
                    <g id="48px_printer">
                        <path d="M14.0869565,0 L3.91304348,0 C3.48082063,0 3.13043478,0.350385848 3.13043478,0.782608696 L3.13043478,4.30434783 C3.13043478,4.52034783 3.33273913,4.69565217 3.582,4.69565217 C3.83126087,4.69565217 4.03356522,4.52034783 4.03356522,4.30434783 L13.9664348,4.30434783 C13.9664348,4.52034783 14.1687391,4.69565217 14.418,4.69565217 C14.6672609,4.69565217 14.8695652,4.52034783 14.8695652,4.30434783 L14.8695652,0.782608696 C14.8695652,0.350385848 14.5191794,0 14.0869565,0 Z" id="Path" fill="#4B4B4B" fill-rule="nonzero"></path>
                        <path d="M14.4782609,3.91304348 L3.52173913,3.91304348 C1.57673632,3.91304348 0,5.48977979 0,7.43478261 L0,13.3043478 C0,13.7365707 0.350385848,14.0869565 0.782608696,14.0869565 L4.30434783,14.0869565 C4.52045925,14.0869565 4.69565217,13.9117636 4.69565217,13.6956522 L13.3043478,13.6956522 C13.3043478,13.9117636 13.4795408,14.0869565 13.6956522,14.0869565 L17.2173913,14.0869565 C17.6496142,14.0869565 18,13.7365707 18,13.3043478 L18,7.43478261 C18,5.48977979 16.4232637,3.91304348 14.4782609,3.91304348 Z" id="Path" fill="#0E0E55" fill-rule="nonzero"></path>
                        <path d="M3.13043478,10.5652174 L3.13043478,17.2173913 C3.13043478,17.6496142 3.48082063,18 3.91304348,18 L14.0869565,18 C14.5191794,18 14.8695652,17.6496142 14.8695652,17.2173913 L14.8695652,10.5652174 L3.13043478,10.5652174 Z" id="Path" fill="#4B4B4B" fill-rule="nonzero"></path>
                        <circle id="Oval" fill="#E86C60" fill-rule="nonzero" cx="14.2826087" cy="7.23913043" r="1"></circle>
                        <circle id="Oval" fill="#72C472" fill-rule="nonzero" cx="12.326087" cy="7.23913043" r="1"></circle>
                        <polygon id="Path" fill="#FFFFFF" fill-rule="nonzero" points="3.91304348 2.73913043 14.0869565 2.73913043 14.0869565 3.91304348 3.91304348 3.91304348"></polygon>
                        <polygon id="Path" fill="#FFFFFF" fill-rule="nonzero" points="3.91304348 10.5652174 14.0869565 10.5652174 14.0869565 16.4347826 3.91304348 16.4347826"></polygon>
                        <polygon id="Path" fill="#CCCCCC" fill-rule="nonzero" points="3.91304348 10.5652174 14.0869565 10.5652174 14.0869565 11.7391304 3.91304348 11.7391304"></polygon>
                        <polygon id="Path" fill="#9B9B9B" fill-rule="nonzero" points="3.13043478 10.5652174 3.91304348 10.5652174 3.91304348 11.7391304 3.13043478 11.7391304"></polygon>
                        <polygon id="Path" fill="#9B9B9B" fill-rule="nonzero" points="14.0869565 10.5652174 14.8695652 10.5652174 14.8695652 11.7391304 14.0869565 11.7391304"></polygon>
                    </g>
                </g>
            </g>
        </g>
    </g>
</svg>