<svg width="30" height="23" viewBox="0 0 30 23" fill="none" xmlns="http://www.w3.org/2000/svg">
<path d="M25.6089 17.6402V9.64003H28.2704C28.6413 9.64003 28.942 9.33933 28.942 8.96839C28.942 8.59745 28.6413 8.29675 28.2704 8.29675H25.6089V4.6443C25.6089 4.27336 25.3082 3.97266 24.9372 3.97266C24.5663 3.97266 24.2656 4.27336 24.2656 4.6443V8.29675H22.5728V4.6443C22.5728 4.27336 22.2721 3.97266 21.9012 3.97266C21.5302 3.97266 21.2295 4.27336 21.2295 4.6443V8.29675H19.4682V4.6443C19.4682 4.27336 19.1675 3.97266 18.7966 3.97266C18.4256 3.97266 18.1249 4.27336 18.1249 4.6443V8.29675H17.193V4.6443C17.193 4.27336 16.8923 3.97266 16.5214 3.97266C16.1504 3.97266 15.8497 4.27336 15.8497 4.6443V8.29675H14.543V4.6443C14.543 4.27336 14.2423 3.97266 13.8713 3.97266C13.5004 3.97266 13.1997 4.27336 13.1997 4.6443V8.29675H12.2475V4.6443C12.2475 4.27336 11.9468 3.97266 11.5758 3.97266C11.2049 3.97266 10.9042 4.27336 10.9042 4.6443V8.29675H9.59508V4.6443C9.59508 4.27336 9.29437 3.97266 8.92343 3.97266C8.5525 3.97266 8.25179 4.27336 8.25179 4.6443V8.29675H7.19245V4.6443C7.19245 4.27336 6.89175 3.97266 6.52081 3.97266C6.14987 3.97266 5.84917 4.27336 5.84917 4.6443V8.29675H5.13563V4.6443C5.13563 4.27336 4.83493 3.97266 4.46399 3.97266C4.09305 3.97266 3.79235 4.27336 3.79235 4.6443V8.29675H1.06727C0.696333 8.29675 0.39563 8.59745 0.39563 8.96839C0.39563 9.33933 0.696333 9.64003 1.06727 9.64003H3.79235V17.6402C3.79235 18.0112 4.09305 18.3119 4.46399 18.3119C4.83493 18.3119 5.13563 18.0112 5.13563 17.6402V9.64003H5.84911V14.364C5.84911 14.7349 6.14981 15.0356 6.52075 15.0356C6.89169 15.0356 7.19239 14.7349 7.19239 14.364V9.64003H8.25173V14.364C8.25173 14.7349 8.55243 15.0356 8.92337 15.0356C9.29431 15.0356 9.59501 14.7349 9.59501 14.364V9.64003H10.9041V14.364C10.9041 14.7349 11.2048 15.0356 11.5758 15.0356C11.9467 15.0356 12.2474 14.7349 12.2474 14.364V9.64003H13.1996V14.364C13.1996 14.7349 13.5003 15.0356 13.8713 15.0356C14.2422 15.0356 14.5429 14.7349 14.5429 14.364V9.64003H15.8497V14.364C15.8497 14.7349 16.1504 15.0356 16.5213 15.0356C16.8922 15.0356 17.1929 14.7349 17.1929 14.364V9.64003H18.1249V14.364C18.1249 14.7349 18.4256 15.0356 18.7965 15.0356C19.1674 15.0356 19.4681 14.7349 19.4681 14.364V9.64003H21.2294V14.364C21.2294 14.7349 21.5302 15.0356 21.9011 15.0356C22.272 15.0356 22.5727 14.7349 22.5727 14.364V9.64003H24.2655V17.6402C24.2655 18.0112 24.5662 18.3119 24.9372 18.3119C25.3081 18.3119 25.6089 18.0112 25.6089 17.6402Z" fill="black"/>
<path d="M0.671642 5.40918C1.04258 5.40918 1.34328 5.10847 1.34328 4.73754V1.99954C1.34328 1.6689 1.61226 1.39992 1.9429 1.39992H4.16655C4.53748 1.39992 4.83819 1.09922 4.83819 0.728282C4.83819 0.357344 4.53748 0.0566406 4.16655 0.0566406H1.9429C0.871535 0.0565767 0 0.928176 0 1.99954V4.73754C0 5.10841 0.300704 5.40918 0.671642 5.40918Z" fill="black"/>
<path d="M4.16655 20.9917H1.9429C1.61226 20.9917 1.34328 20.7227 1.34328 20.3921V17.6541C1.34328 17.2831 1.04258 16.9824 0.671642 16.9824C0.300704 16.9824 0 17.2831 0 17.6541V20.3921C0 21.4634 0.871535 22.335 1.9429 22.335H4.16655C4.53748 22.335 4.83819 22.0343 4.83819 21.6633C4.83819 21.2924 4.53748 20.9917 4.16655 20.9917Z" fill="black"/>
<path d="M27.9979 0.0566406H25.7742C25.4032 0.0566406 25.1025 0.357344 25.1025 0.728282C25.1025 1.09922 25.4032 1.39992 25.7742 1.39992H27.9979C28.3285 1.39992 28.5975 1.6689 28.5975 1.99954V4.73754C28.5975 5.10847 28.8982 5.40918 29.2691 5.40918C29.6401 5.40918 29.9408 5.10847 29.9408 4.73754V1.99954C29.9408 0.92824 29.0692 0.0566406 27.9979 0.0566406Z" fill="black"/>
<path d="M29.2691 16.9824C28.8982 16.9824 28.5975 17.2831 28.5975 17.6541V20.3921C28.5975 20.7227 28.3285 20.9917 27.9979 20.9917H25.7742C25.4032 20.9917 25.1025 21.2924 25.1025 21.6633C25.1025 22.0343 25.4032 22.335 25.7742 22.335H27.9979C29.0692 22.335 29.9408 21.4634 29.9408 20.3921V17.6541C29.9408 17.2831 29.6401 16.9824 29.2691 16.9824Z" fill="black"/>
<path d="M21.9439 17.0918H6.78468C6.41374 17.0918 6.11304 17.3925 6.11304 17.7634C6.11304 18.1344 6.41374 18.4351 6.78468 18.4351H21.9438C22.3148 18.4351 22.6155 18.1344 22.6155 17.7634C22.6155 17.3925 22.3148 17.0918 21.9439 17.0918Z" fill="black"/>
</svg>
