<?xml version="1.0" encoding="UTF-8"?>
<svg width="18px" height="18px" viewBox="0 0 18 18" version="1.1" xmlns="http://www.w3.org/2000/svg" xmlns:xlink="http://www.w3.org/1999/xlink">
    <!-- Generator: Sketch 57.1 (83088) - https://sketch.com -->
    <title>Settings</title>
    <desc>Created with Sketch.</desc>
    <g id="Printer-config" stroke="none" stroke-width="1" fill="none" fill-rule="evenodd">
        <g id="Printer-configuration" transform="translate(-133.000000, -561.000000)">
            <g id="Bottom" transform="translate(0.000000, 541.000000)">
                <g id="settings" transform="translate(119.000000, 9.000000)">
                    <g id="Settings" transform="translate(14.000000, 11.000000)">
                        <g transform="translate(0.000000, -0.000000)">
                            <path d="M7.82608696,7.3173913 L5.31,4.80130435 L5.64886957,3.78547826 C5.69580531,3.64476087 5.65913692,3.48960205 5.55417391,3.38478261 L3.34095652,1.17156522 C3.18815223,1.01880707 2.94045646,1.01880707 2.78765217,1.17156522 L0.574043478,3.38478261 C0.421285328,3.5375869 0.421285328,3.78528267 0.574043478,3.93808696 L2.78765217,6.15208696 C2.89256301,6.25662274 3.04750135,6.29297191 3.18795652,6.246 L4.2033913,5.90791304 L6.71947826,8.424 C6.87208696,8.5766087 7.07243478,8.65291304 7.27278261,8.65291304 C7.47313043,8.65291304 7.67308696,8.5766087 7.82608696,8.4236087 C8.13160326,8.11800012 8.13160326,7.62260858 7.82608696,7.317 L7.82608696,7.3173913 Z" id="Path" fill="#8E8E8E" fill-rule="nonzero"></path>
                            <path d="M7.72317391,12.2333478 L12.6927391,17.2033043 C13.7732963,18.2838614 15.5252255,18.2838614 16.6057826,17.2033043 C17.6863397,16.1227472 17.6863397,14.370818 16.6057826,13.2902609 L11.6362174,8.32069565 L7.72317391,12.2337391 L7.72317391,12.2333478 Z" id="Path" fill="#E86C60" fill-rule="nonzero"></path>
                            <path d="M14.9947826,15.9836089 C14.890985,15.9837159 14.7914238,15.9424551 14.7181304,15.8689565 L11.408087,12.5593043 C11.3063648,12.4610578 11.265569,12.3155695 11.3013794,12.178758 C11.3371898,12.0419465 11.4440334,11.9351028 11.580845,11.8992924 C11.7176565,11.863482 11.8631448,11.9042779 11.9613913,12.006 L15.2718261,15.3156522 C15.3837535,15.4276133 15.4171907,15.5959857 15.3565383,15.7422196 C15.295886,15.8884534 15.1530957,15.9837333 14.9947826,15.9836089 L14.9947826,15.9836089 Z" id="Path" fill="#C9514B" fill-rule="nonzero"></path>
                            <path d="M17.55,3.62582609 C17.507639,3.49662104 17.4013614,3.39858725 17.2691635,3.36677364 C17.1369656,3.33496003 16.9977229,3.37390903 16.9012174,3.46969565 L14.8507826,5.52013043 L12.6371739,3.30613043 L14.6876087,1.25608696 C14.7838477,1.15982037 14.8231436,1.02045728 14.7913703,0.888095396 C14.7595971,0.755733512 14.6613209,0.649394367 14.5318696,0.607304348 C13.9345309,0.412761177 13.3041048,0.340628821 12.6782609,0.395217391 C10.2721304,0.603391304 8.34808696,2.73795652 8.38956522,5.15269565 C8.39582609,5.52482609 8.44630435,5.8946087 8.54021739,6.255 L1.20365217,12.731087 C0.578347826,13.2836087 0.219913043,14.0470435 0.194086957,14.880913 C0.16826087,15.7147826 0.478565217,16.4989565 1.06826087,17.0890435 C1.65012759,17.675956 2.45085635,17.9928993 3.27678261,17.9632174 C4.10265672,17.9409938 4.88177007,17.5750531 5.42621739,16.9536522 L11.901913,9.61708696 C12.5951629,9.79807354 13.3206364,9.81801737 14.0227826,9.6753913 C15.7253478,9.33613043 17.1281739,8.04365217 17.5965652,6.38334783 C17.8545069,5.47987241 17.8384368,4.5201591 17.5503913,3.62582609 L17.55,3.62582609 Z M3.52173913,15.2608696 C3.08951628,15.2608696 2.73913043,14.9104837 2.73913043,14.4782609 C2.73913043,14.046038 3.08951628,13.6956522 3.52173913,13.6956522 C3.95396198,13.6956522 4.30434783,14.046038 4.30434783,14.4782609 C4.30434783,14.9104837 3.95396198,15.2608696 3.52173913,15.2608696 Z" id="Shape" fill="#B3B3B3" fill-rule="nonzero"></path>
                        </g>
                    </g>
                </g>
            </g>
        </g>
    </g>
</svg>