<svg width="16" height="18" viewBox="0 0 16 18" fill="none" xmlns="http://www.w3.org/2000/svg">
<path fill-rule="evenodd" clip-rule="evenodd" d="M6.27741 15.8099V17.3709H4.71643V15.8099H3.15546V17.3709H1.59448V15.8099V14.2489V11.127H6.27741V14.2489V15.8099ZM3.15546 12.6879V14.2489H4.71643V12.6879H3.15546Z" fill="#007AFF"/>
<path fill-rule="evenodd" clip-rule="evenodd" d="M6.27741 4.88215V6.44312H4.71643V4.88215H3.15546V6.44312H1.59448V4.88215V3.32117V0.199219H6.27741V3.32117V4.88215ZM3.15546 1.76019V3.32117H4.71643V1.76019H3.15546Z" fill="#007AFF"/>
<rect x="0.0334473" y="8.00391" width="7.80488" height="1.56098" fill="#007AFF"/>
<path d="M10.1798 12.7534L9.07617 13.8574L12.5212 17.3029L15.9663 13.8574L14.8627 12.7534L13.3017 14.3144V3.25411L14.8627 4.81509L15.9663 3.71109L12.5212 0.265625L9.07617 3.71109L10.1798 4.81509L11.7408 3.25411V14.3144L10.1798 12.7534Z" fill="#007AFF"/>
</svg>
