<svg width="24" height="24" viewBox="0 0 24 24" fill="none" xmlns="http://www.w3.org/2000/svg">
<path d="M19.32 6.26279C19.1145 6.02429 18.7845 5.93729 18.489 6.04679C18.195 6.15629 18 6.43679 18 6.75029V9.00029H13.5C13.086 9.00029 12.75 9.33629 12.75 9.75029V14.2503C12.75 14.6643 13.086 15.0003 13.5 15.0003H18V17.2503C18 17.5638 18.195 17.8443 18.489 17.9538C18.5745 17.9853 18.6615 18.0003 18.75 18.0003C18.966 18.0003 19.1745 17.9073 19.32 17.7378L23.82 12.4878C24.06 12.2058 24.06 11.7933 23.82 11.5128L19.32 6.26279Z" fill="#FFC107"/>
<path d="M10.5 9.00029H6V6.75029C6 6.43679 5.805 6.15629 5.511 6.04679C5.217 5.93729 4.884 6.02429 4.68 6.26279L0.18 11.5128C-0.06 11.7948 -0.06 12.2073 0.18 12.4878L4.68 17.7378C4.8255 17.9073 5.034 18.0003 5.25 18.0003C5.3385 18.0003 5.4255 17.9853 5.511 17.9538C5.805 17.8443 6 17.5638 6 17.2503V15.0003H10.5C10.914 15.0003 11.25 14.6643 11.25 14.2503V9.75029C11.25 9.33629 10.914 9.00029 10.5 9.00029Z" fill="#2196F3"/>
</svg>
