<svg width="20" height="20" viewBox="0 0 20 20" fill="none" xmlns="http://www.w3.org/2000/svg">
<path fill-rule="evenodd" clip-rule="evenodd" d="M20 13.5352C20 10.62 18.0357 8.07297 15.2658 7.30545C15.0917 3.24768 11.7366 0 7.63672 0C3.42575 0 0 3.42575 0 7.63672C0 9.00909 0.365295 10.3453 1.05896 11.5184L0.0280762 15.2452L3.75504 14.2145C4.83337 14.8521 6.0498 15.2113 7.3053 15.2655C8.07266 18.0356 10.6198 20 13.5352 20C14.6988 20 15.8304 19.6901 16.8246 19.1013L19.9718 19.9718L19.1013 16.8246C19.6901 15.8304 20 14.6988 20 13.5352ZM3.93997 12.9474L1.70883 13.5646L2.32605 11.3335L2.18536 11.1134C1.52237 10.0761 1.17188 8.8739 1.17188 7.63672C1.17188 4.07196 4.07196 1.17188 7.63672 1.17188C11.2015 1.17188 14.1016 4.07196 14.1016 7.63672C14.1016 11.2015 11.2015 14.1016 7.63672 14.1016C6.39954 14.1016 5.19745 13.7511 4.16 13.0881L3.93997 12.9474ZM16.6356 17.8331L18.2912 18.2912L17.8331 16.6356L17.977 16.4145C18.5338 15.5574 18.8281 14.5616 18.8281 13.5352C18.8281 11.2439 17.3466 9.2305 15.2225 8.517C14.8178 12.0258 12.0258 14.8178 8.51715 15.2223C9.2305 17.3466 11.2439 18.8281 13.5352 18.8281C14.5616 18.8281 15.5574 18.5338 16.4145 17.977L16.6356 17.8331Z" fill="#606060"/>
<path d="M7.013 10.6494H8.05196V11.6884H7.013V10.6494Z" fill="#606060"/>
<path d="M8.70132 5.75049C8.70132 6.08755 8.56617 6.39865 8.32084 6.6266L6.94807 7.90251V9.35074H8.1169V8.42518L9.10995 7.50224C9.59301 7.05329 9.87015 6.41488 9.87015 5.75049C9.87015 4.44151 8.82155 3.37671 7.53249 3.37671C6.24342 3.37671 5.19482 4.44151 5.19482 5.75049H6.36366C6.36366 5.096 6.88796 4.5636 7.53249 4.5636C8.17702 4.5636 8.70132 5.096 8.70132 5.75049Z" fill="#606060"/>
</svg>
