<svg width="16" height="16" viewBox="0 0 16 16" fill="none" xmlns="http://www.w3.org/2000/svg">
<path fill-rule="evenodd" clip-rule="evenodd" d="M11.8914 0.800781C11.001 0.800781 10.1945 1.16011 9.6028 1.73807H3.14329C1.85086 1.73807 0.800049 2.78888 0.800049 4.08134C0.800049 5.37381 1.85086 6.42458 3.14329 6.42458H9.60283C10.1945 7.00255 11.0011 7.36188 11.8914 7.36188C13.7001 7.36188 15.172 5.89004 15.172 4.08131C15.172 2.27258 13.7001 0.800781 11.8914 0.800781ZM11.8914 6.42459C10.599 6.42459 9.54818 5.37378 9.54818 4.08134C9.54818 2.78891 10.599 1.7381 11.8914 1.7381C13.1839 1.7381 14.2347 2.78891 14.2347 4.08134C14.2347 5.37378 13.1839 6.42459 11.8914 6.42459ZM12.8287 9.54891H6.3692C5.77748 8.97094 4.97097 8.61162 4.08058 8.61162C2.27188 8.61162 0.800049 10.0834 0.800049 11.8921C0.800049 13.7008 2.27188 15.1727 4.08061 15.1727C4.97102 15.1727 5.77754 14.8134 6.36923 14.2354H12.8288C14.1212 14.2354 15.172 13.1846 15.172 11.8922C15.172 10.5997 14.1212 9.54891 12.8287 9.54891ZM4.08061 14.2354C2.78817 14.2354 1.73737 13.1846 1.73737 11.8922C1.73737 10.5997 2.78817 9.54893 4.08061 9.54893C5.37304 9.54893 6.42385 10.5997 6.42385 11.8922C6.42385 13.1846 5.37304 14.2354 4.08061 14.2354Z" fill="#1D1D26"/>
</svg>
