<?xml version="1.0" encoding="UTF-8"?>
<svg width="81px" height="63px" viewBox="0 0 81 63" version="1.1" xmlns="http://www.w3.org/2000/svg" xmlns:xlink="http://www.w3.org/1999/xlink">
    <!-- Generator: Sketch 57.1 (83088) - https://sketch.com -->
    <title>Group 5</title>
    <desc>Created with Sketch.</desc>
    <g id="Printer-config" stroke="none" stroke-width="1" fill="none" fill-rule="evenodd">
        <g id="More-Click" transform="translate(-88.000000, -155.000000)" fill-rule="nonzero">
            <g id="Table-Layout" transform="translate(58.000000, 135.000000)">
                <g id="Group-5" transform="translate(30.000000, 20.000000)">
                    <g id="wedding-(1)-copy" opacity="0.400000006" transform="translate(41.000000, 0.000000)">
                        <polygon id="Path" fill="#A8A8A8" points="33.1034483 1.37931034 34.4827586 1.37931034 34.4827586 4.13793103 33.1034483 4.13793103"></polygon>
                        <path d="M37.2413793,10.3448276 L37.2413793,24.8275862 C37.2413793,25.5893583 36.623841,26.2068966 35.862069,26.2068966 L26.8965517,26.2068966 C24.9921216,26.2068966 23.4482759,24.6630509 23.4482759,22.7586207 L23.4482759,10.3448276 L37.2413793,10.3448276 Z" id="Path" fill="#A8A8A8"></path>
                        <polygon id="Path" fill="#BCBCBC" points="18.6206897 24.137931 21.3793103 24.137931 21.3793103 31.7241379 18.6206897 31.7241379"></polygon>
                        <path d="M15.1724138,31.7241379 L24.8275862,31.7241379 C25.9702443,31.7241379 26.8965517,32.6504453 26.8965517,33.7931034 C26.8965517,34.1739895 26.5877826,34.4827586 26.2068966,34.4827586 L13.7931034,34.4827586 C13.4122174,34.4827586 13.1034483,34.1739895 13.1034483,33.7931034 C13.1034483,32.6504453 14.0297557,31.7241379 15.1724138,31.7241379 L15.1724138,31.7241379 Z" id="Path" fill="#E2E2E2"></path>
                        <path d="M27.5862069,10.3448276 L27.5862069,13.7931034 C27.5862069,20.6490521 22.0283624,26.2068966 15.1724138,26.2068966 L4.13793103,26.2068966 C3.37615897,26.2068966 2.75862069,25.5893583 2.75862069,24.8275862 L2.75862069,10.3448276 L27.5862069,10.3448276 Z" id="Path" fill="#C4C4C4"></path>
                        <path d="M0.689655172,10.3448276 L2.75862069,10.3448276 L2.75862069,14.4827586 L0.689655172,14.4827586 C0.308769138,14.4827586 0,14.1739895 0,13.7931034 L0,11.0344828 C0,10.6535967 0.308769138,10.3448276 0.689655172,10.3448276 Z" id="Path" fill="#6F6F6F"></path>
                        <path d="M37.2413793,10.3448276 L39.3103448,10.3448276 C39.6912309,10.3448276 40,10.6535967 40,11.0344828 L40,13.7931034 C40,14.1739895 39.6912309,14.4827586 39.3103448,14.4827586 L37.2413793,14.4827586 L37.2413793,10.3448276 Z" id="Path" fill="#6F6F6F"></path>
                        <polygon id="Path" fill="#E2E2E2" points="14.4827586 5.51724138 15.862069 5.51724138 15.862069 10.3448276 14.4827586 10.3448276"></polygon>
                        <path d="M12.0735655,0.931806897 L13.6252897,5.06973793 C13.7262296,5.33891404 13.9835547,5.51724138 14.2710345,5.51724138 L16.0737931,5.51724138 C16.3612729,5.51724138 16.618598,5.33891404 16.7195379,5.06973793 L18.2712621,0.931806897 C18.3506827,0.720016249 18.3211997,0.482743193 18.1923615,0.296830237 C18.0635233,0.110917281 17.8517094,0 17.6255172,0 L12.7193103,0 C12.4931181,0 12.2813043,0.110917281 12.152466,0.296830237 C12.0236278,0.482743193 11.9941449,0.720016249 12.0735655,0.931806897 L12.0735655,0.931806897 Z" id="Path" fill="#EFEFEF"></path>
                        <path d="M12.7586207,2.75862069 L13.6252759,5.06975172 C13.7262418,5.33891174 13.9835606,5.51724138 14.2710345,5.51724138 L16.0737931,5.51724138 C16.3612645,5.51724138 16.6185798,5.33890938 16.7195448,5.06975172 L17.5862069,2.75862069 L12.7586207,2.75862069 Z" id="Path" fill="#CFCFCF"></path>
                        <path d="M21.7287379,0.931806897 L23.2804621,5.06973793 C23.381402,5.33891404 23.6387271,5.51724138 23.9262069,5.51724138 L25.7289655,5.51724138 C26.0164453,5.51724138 26.2737704,5.33891404 26.3747103,5.06973793 L27.9264345,0.931806897 C28.0058551,0.720016249 27.9763722,0.482743193 27.847534,0.296830237 C27.7186957,0.110917281 27.5068819,0 27.2806897,0 L22.3744828,0 C22.1482906,0 21.9364767,0.110917281 21.8076385,0.296830237 C21.6788003,0.482743193 21.6493173,0.720016249 21.7287379,0.931806897 L21.7287379,0.931806897 Z" id="Path" fill="#EFEFEF"></path>
                        <path d="M22.4137931,2.75862069 L23.2804483,5.06975172 C23.3814142,5.33891174 23.638733,5.51724138 23.9262069,5.51724138 L25.7289655,5.51724138 C26.0164369,5.51724138 26.2737522,5.33890938 26.3747172,5.06975172 L27.2413793,2.75862069 L22.4137931,2.75862069 Z" id="Path" fill="#CFCFCF"></path>
                        <polygon id="Path" fill="#E2E2E2" points="24.137931 5.51724138 25.5172414 5.51724138 25.5172414 10.3448276 24.137931 10.3448276"></polygon>
                        <path d="M29.6551724,7.5862069 L37.9310345,7.5862069 L37.9310345,8.96551724 C37.9310345,9.72728931 37.3134962,10.3448276 36.5517241,10.3448276 L31.0344828,10.3448276 C30.2727107,10.3448276 29.6551724,9.72728931 29.6551724,8.96551724 L29.6551724,7.5862069 Z" id="Path" fill="#CFCFCF"></path>
                        <path d="M33.7931034,3.44827586 C36.0784197,3.44827586 37.9310345,5.30089069 37.9310345,7.5862069 L29.6551724,7.5862069 C29.6551724,5.30089069 31.5077872,3.44827586 33.7931034,3.44827586 Z" id="Path" fill="#CFCFCF"></path>
                        <polygon id="Path" fill="#A8A8A8" points="27.5862069 6.89655172 40 6.89655172 40 8.27586207 27.5862069 8.27586207"></polygon>
                        <polygon id="Path" fill="#A8A8A8" points="5.51724138 1.37931034 6.89655172 1.37931034 6.89655172 4.13793103 5.51724138 4.13793103"></polygon>
                        <path d="M2.06896552,7.5862069 L10.3448276,7.5862069 L10.3448276,8.96551724 C10.3448276,9.72728931 9.72728931,10.3448276 8.96551724,10.3448276 L3.44827586,10.3448276 C2.68650379,10.3448276 2.06896552,9.72728931 2.06896552,8.96551724 L2.06896552,7.5862069 Z" id="Path" fill="#CFCFCF"></path>
                        <path d="M6.20689655,3.44827586 C8.49221276,3.44827586 10.3448276,5.30089069 10.3448276,7.5862069 L2.06896552,7.5862069 C2.06896552,5.30089069 3.92158035,3.44827586 6.20689655,3.44827586 Z" id="Path" fill="#CFCFCF"></path>
                        <polygon id="Path" fill="#A8A8A8" points="0 6.89655172 12.4137931 6.89655172 12.4137931 8.27586207 0 8.27586207"></polygon>
                    </g>
                    <g id="wedding-(1)" transform="translate(0.000000, 14.000000)">
                        <polygon id="Path" fill="#B29749" points="46.3448276 1.93103448 48.2758621 1.93103448 48.2758621 5.79310345 46.3448276 5.79310345"></polygon>
                        <path d="M52.137931,14.4827586 L52.137931,34.7586207 C52.137931,35.8251016 51.2733774,36.6896552 50.2068966,36.6896552 L37.6551724,36.6896552 C34.9889702,36.6896552 32.8275862,34.5282712 32.8275862,31.862069 L32.8275862,14.4827586 L52.137931,14.4827586 Z" id="Path" fill="#DC3C48"></path>
                        <polygon id="Path" fill="#BCBCBC" points="26.0689655 33.7931034 29.9310345 33.7931034 29.9310345 44.4137931 26.0689655 44.4137931"></polygon>
                        <path d="M21.2413793,44.4137931 L34.7586207,44.4137931 C36.358342,44.4137931 37.6551724,45.7106235 37.6551724,47.3103448 C37.6551724,47.8435853 37.2228956,48.2758621 36.6896552,48.2758621 L19.3103448,48.2758621 C18.7771044,48.2758621 18.3448276,47.8435853 18.3448276,47.3103448 C18.3448276,45.7106235 19.641658,44.4137931 21.2413793,44.4137931 L21.2413793,44.4137931 Z" id="Path" fill="#E2E2E2"></path>
                        <path d="M38.6206897,14.4827586 L38.6206897,19.3103448 C38.6206897,28.9086729 30.8397074,36.6896552 21.2413793,36.6896552 L5.79310345,36.6896552 C4.72662255,36.6896552 3.86206897,35.8251016 3.86206897,34.7586207 L3.86206897,14.4827586 L38.6206897,14.4827586 Z" id="Path" fill="#FF4452"></path>
                        <path d="M0.965517241,14.4827586 L3.86206897,14.4827586 L3.86206897,20.2758621 L0.965517241,20.2758621 C0.432276793,20.2758621 0,19.8435853 0,19.3103448 L0,15.4482759 C0,14.9150354 0.432276793,14.4827586 0.965517241,14.4827586 Z" id="Path" fill="#745027"></path>
                        <path d="M52.137931,14.4827586 L55.0344828,14.4827586 C55.5677232,14.4827586 56,14.9150354 56,15.4482759 L56,19.3103448 C56,19.8435853 55.5677232,20.2758621 55.0344828,20.2758621 L52.137931,20.2758621 L52.137931,14.4827586 Z" id="Path" fill="#745027"></path>
                        <polygon id="Path" fill="#E2E2E2" points="20.2758621 7.72413793 22.2068966 7.72413793 22.2068966 14.4827586 20.2758621 14.4827586"></polygon>
                        <path d="M16.9029917,1.30452966 L19.0754055,7.0976331 C19.2167214,7.47447966 19.5769765,7.72413793 19.9794483,7.72413793 L22.5033103,7.72413793 C22.9057821,7.72413793 23.2660372,7.47447966 23.4073531,7.0976331 L25.5797669,1.30452966 C25.6909557,1.00802275 25.6496796,0.675840471 25.4693062,0.415562332 C25.2889327,0.155284194 24.9923932,0 24.6757241,0 L17.8070345,0 C17.4903654,0 17.193826,0.155284194 17.0134525,0.415562332 C16.833079,0.675840471 16.7918029,1.00802275 16.9029917,1.30452966 L16.9029917,1.30452966 Z" id="Path" fill="#EFEFEF"></path>
                        <path d="M17.862069,3.86206897 L19.0753862,7.09765241 C19.2167386,7.47447644 19.5769848,7.72413793 19.9794483,7.72413793 L22.5033103,7.72413793 C22.9057703,7.72413793 23.2660117,7.47447313 23.4073628,7.09765241 L24.6206897,3.86206897 L17.862069,3.86206897 Z" id="Path" fill="#A4E65E"></path>
                        <path d="M30.4202331,1.30452966 L32.5926469,7.0976331 C32.7339628,7.47447966 33.0942179,7.72413793 33.4966897,7.72413793 L36.0205517,7.72413793 C36.4230235,7.72413793 36.7832786,7.47447966 36.9245945,7.0976331 L39.0970083,1.30452966 C39.2081971,1.00802275 39.166921,0.675840471 38.9865475,0.415562332 C38.806174,0.155284194 38.5096346,0 38.1929655,0 L31.3242759,0 C31.0076068,0 30.7110673,0.155284194 30.5306938,0.415562332 C30.3503204,0.675840471 30.3090443,1.00802275 30.4202331,1.30452966 L30.4202331,1.30452966 Z" id="Path" fill="#EFEFEF"></path>
                        <path d="M31.3793103,3.86206897 L32.5926276,7.09765241 C32.7339799,7.47447644 33.0942262,7.72413793 33.4966897,7.72413793 L36.0205517,7.72413793 C36.4230116,7.72413793 36.783253,7.47447313 36.9246041,7.09765241 L38.137931,3.86206897 L31.3793103,3.86206897 Z" id="Path" fill="#A4E65E"></path>
                        <polygon id="Path" fill="#E2E2E2" points="33.7931034 7.72413793 35.7241379 7.72413793 35.7241379 14.4827586 33.7931034 14.4827586"></polygon>
                        <path d="M41.5172414,10.6206897 L53.1034483,10.6206897 L53.1034483,12.5517241 C53.1034483,13.618205 52.2388947,14.4827586 51.1724138,14.4827586 L43.4482759,14.4827586 C42.381795,14.4827586 41.5172414,13.618205 41.5172414,12.5517241 L41.5172414,10.6206897 Z" id="Path" fill="#FFCE3E"></path>
                        <path d="M47.3103448,4.82758621 C50.5097875,4.82758621 53.1034483,7.42124697 53.1034483,10.6206897 L41.5172414,10.6206897 C41.5172414,7.42124697 44.1109021,4.82758621 47.3103448,4.82758621 Z" id="Path" fill="#FFCE3E"></path>
                        <polygon id="Path" fill="#B29749" points="38.6206897 9.65517241 56 9.65517241 56 11.5862069 38.6206897 11.5862069"></polygon>
                        <polygon id="Path" fill="#B29749" points="7.72413793 1.93103448 9.65517241 1.93103448 9.65517241 5.79310345 7.72413793 5.79310345"></polygon>
                        <path d="M2.89655172,10.6206897 L14.4827586,10.6206897 L14.4827586,12.5517241 C14.4827586,13.618205 13.618205,14.4827586 12.5517241,14.4827586 L4.82758621,14.4827586 C3.76110531,14.4827586 2.89655172,13.618205 2.89655172,12.5517241 L2.89655172,10.6206897 Z" id="Path" fill="#FFCE3E"></path>
                        <path d="M8.68965517,4.82758621 C11.8890979,4.82758621 14.4827586,7.42124697 14.4827586,10.6206897 L2.89655172,10.6206897 C2.89655172,7.42124697 5.49021248,4.82758621 8.68965517,4.82758621 Z" id="Path" fill="#FFCE3E"></path>
                        <polygon id="Path" fill="#B29749" points="0 9.65517241 17.3793103 9.65517241 17.3793103 11.5862069 0 11.5862069"></polygon>
                    </g>
                </g>
            </g>
        </g>
    </g>
</svg>