<svg width="24" height="24" viewBox="0 0 24 24" fill="none" xmlns="http://www.w3.org/2000/svg">
<path fill-rule="evenodd" clip-rule="evenodd" d="M14.8936 6.10418V5.37794C14.8923 4.17523 13.9176 3.20057 12.7149 3.19922H11.2624C10.0597 3.20057 9.08504 4.17523 9.08369 5.37794V6.10418H4V7.55667H19.9773V6.10418H14.8936ZM10.5362 5.37794C10.5366 4.97703 10.8615 4.65215 11.2624 4.6517H12.7149C13.1158 4.65215 13.4407 4.97703 13.4411 5.37794V6.10418H10.5362V5.37794Z" fill="#5E5E5E"/>
<path fill-rule="evenodd" clip-rule="evenodd" d="M6.0395 18.6912C6.16119 19.7951 7.09442 20.6303 8.20497 20.6293H15.7722C16.8828 20.6303 17.8161 19.795 17.9377 18.6911L19.0941 8.2832H4.88306L6.0395 18.6912ZM14.8961 9.67532L16.3435 9.79606L15.6173 18.511L14.1699 18.3902L14.8961 9.67532ZM11.2624 9.73568H12.7148V18.4506H11.2624V9.73568ZM9.08109 9.67532L9.80734 18.3902L8.35994 18.511L7.6337 9.79606L9.08109 9.67532Z" fill="#5E5E5E"/>
</svg>
