<?xml version="1.0" encoding="UTF-8"?>
<svg width="16px" height="16px" viewBox="0 0 16 16" version="1.1" xmlns="http://www.w3.org/2000/svg" xmlns:xlink="http://www.w3.org/1999/xlink">
    <!-- Generator: Sketch 57.1 (83088) - https://sketch.com -->
    <title>USB</title>
    <desc>Created with Sketch.</desc>
    <g id="Printer-config" stroke="none" stroke-width="1" fill="none" fill-rule="evenodd">
        <g id="Printer-configuration" transform="translate(-873.000000, -217.000000)" fill="#000000">
            <g id="Slide" transform="translate(271.000000, 209.000000)">
                <g id="USB" transform="translate(602.000000, 8.000000)">
                    <g id="data-cable">
                        <polygon id="Path" fill-rule="nonzero" points="1.33333333 0.8 1.86666667 0.8 1.86666667 1.33333333 1.33333333 1.33333333"></polygon>
                        <polygon id="Path" fill-rule="nonzero" points="2.4 0.8 2.93333333 0.8 2.93333333 1.33333333 2.4 1.33333333"></polygon>
                        <path d="M15.7333333,3.73333333 L15.4666667,3.73333333 L15.4666667,1.86666667 C15.4666667,1.71939073 15.3472759,1.6 15.2,1.6 L12.5333333,1.6 C12.3860574,1.6 12.2666667,1.71939073 12.2666667,1.86666667 L12.2666667,3.73333333 L12,3.73333333 C11.8527241,3.73333333 11.7333333,3.85272407 11.7333333,4 L11.7333333,6.13333333 C11.7333333,6.57516113 12.0915055,6.93333333 12.5333333,6.93333333 L12.8,6.93333333 L12.8,7.73333333 C12.8,8.17516113 13.1581722,8.53333333 13.6,8.53333333 L13.6,9.86666667 C13.59902,11.7420522 12.6589527,13.4923394 11.096,14.5288 C12.4294729,12.8987755 12.2706738,10.5140067 10.7328494,9.07517864 C9.19502503,7.6363506 6.80497497,7.6363506 5.26715056,9.07517864 C3.72932615,10.5140067 3.57052706,12.8987755 4.904,14.5288 C3.34104726,13.4923394 2.40097998,11.7420522 2.4,9.86666667 L2.4,6.93333333 C2.8418278,6.93333333 3.2,6.57516113 3.2,6.13333333 L3.2,5.33333333 L3.46666667,5.33333333 C3.67883986,5.33333333 3.88232299,5.24904786 4.03235209,5.09901876 C4.18238119,4.94898966 4.26666667,4.74550653 4.26666667,4.53333333 L4.26666667,2.4 C4.26666667,2.25272407 4.14727593,2.13333333 4,2.13333333 L3.73333333,2.13333333 L3.73333333,0.266666667 C3.73333333,0.119390733 3.6139426,0 3.46666667,0 L0.8,0 C0.652724067,0 0.533333333,0.119390733 0.533333333,0.266666667 L0.533333333,2.13333333 L0.266666667,2.13333333 C0.119390733,2.13333333 0,2.25272407 0,2.4 L0,4.53333333 C0,4.97516113 0.3581722,5.33333333 0.8,5.33333333 L1.06666667,5.33333333 L1.06666667,6.13333333 C1.06666667,6.57516113 1.42483887,6.93333333 1.86666667,6.93333333 L1.86666667,9.86666667 C1.86666667,13.2540131 4.61265353,16 8,16 C11.3873465,16 14.1333333,13.2540131 14.1333333,9.86666667 L14.1333333,8.53333333 C14.5751611,8.53333333 14.9333333,8.17516113 14.9333333,7.73333333 L14.9333333,6.93333333 L15.2,6.93333333 C15.6418278,6.93333333 16,6.57516113 16,6.13333333 L16,4 C16,3.85272407 15.8806093,3.73333333 15.7333333,3.73333333 L15.7333333,3.73333333 Z M1.06666667,0.533333333 L3.2,0.533333333 L3.2,2.13333333 L1.06666667,2.13333333 L1.06666667,0.533333333 Z M0.533333333,4.53333333 L0.533333333,2.66666667 L3.73333333,2.66666667 L3.73333333,4.53333333 C3.73333333,4.68060927 3.6139426,4.8 3.46666667,4.8 L0.8,4.8 C0.652724067,4.8 0.533333333,4.68060927 0.533333333,4.53333333 Z M1.6,6.13333333 L1.6,5.33333333 L2.66666667,5.33333333 L2.66666667,6.13333333 C2.66666667,6.28060927 2.54727593,6.4 2.4,6.4 L1.86666667,6.4 C1.71939073,6.4 1.6,6.28060927 1.6,6.13333333 Z M5.6,13.0666667 C5.6,11.7411833 6.6745166,10.6666667 8,10.6666667 C9.3254834,10.6666667 10.4,11.7411833 10.4,13.0666667 C10.4,14.3921501 9.3254834,15.4666667 8,15.4666667 C6.67512582,15.465197 5.60146963,14.3915408 5.6,13.0666667 L5.6,13.0666667 Z M8,8.5333282 C9.32447045,8.531058 10.53408,9.2849034 11.1154821,10.4749449 C11.6968842,11.6649864 11.5480979,13.0824844 10.7322667,14.1258667 C11.2099783,12.9029526 10.8169002,11.511539 9.76991776,10.7193552 C8.72293536,9.92717145 7.27706464,9.92717145 6.23008224,10.7193552 C5.18309984,11.511539 4.79002166,12.9029526 5.26773333,14.1258667 C4.4519021,13.0824844 4.30311581,11.6649864 4.88451792,10.4749449 C5.46592003,9.2849034 6.67552955,8.531058 8,8.5333282 L8,8.5333282 Z M12.8,2.13333333 L14.9333333,2.13333333 L14.9333333,3.73333333 L12.8,3.73333333 L12.8,2.13333333 Z M14.4,7.73333333 C14.4,7.88060927 14.2806093,8 14.1333333,8 L13.6,8 C13.4527241,8 13.3333333,7.88060927 13.3333333,7.73333333 L13.3333333,6.93333333 L14.4,6.93333333 L14.4,7.73333333 Z M15.4666667,6.13333333 C15.4666667,6.28060927 15.3472759,6.4 15.2,6.4 L12.5333333,6.4 C12.3860574,6.4 12.2666667,6.28060927 12.2666667,6.13333333 L12.2666667,4.26666667 L15.4666667,4.26666667 L15.4666667,6.13333333 Z" id="Shape" fill-rule="nonzero"></path>
                        <polygon id="Path" fill-rule="nonzero" points="13.0666667 2.4 13.6 2.4 13.6 2.93333333 13.0666667 2.93333333"></polygon>
                        <polygon id="Path" fill-rule="nonzero" points="14.1333333 2.4 14.6666667 2.4 14.6666667 2.93333333 14.1333333 2.93333333"></polygon>
                    </g>
                </g>
            </g>
        </g>
    </g>
</svg>