<?xml version="1.0" encoding="UTF-8"?>
<svg width="24px" height="8px" viewBox="0 0 24 8" version="1.1" xmlns="http://www.w3.org/2000/svg" xmlns:xlink="http://www.w3.org/1999/xlink">
    <!-- Generator: Sketch 57.1 (83088) - https://sketch.com -->
    <title>VGA_port</title>
    <desc>Created with Sketch.</desc>
    <g id="Printer-config" stroke="none" stroke-width="1" fill="none" fill-rule="evenodd">
        <g id="Printer-configuration" transform="translate(-508.000000, -221.000000)" fill="#000000">
            <g id="Slide" transform="translate(271.000000, 209.000000)">
                <g id="VGA_port" transform="translate(237.000000, 12.000000)">
                    <g>
                        <path d="M18.2608607,0 C19.1279958,0 20.0141963,0.684521739 19.826087,1.49068323 L18.7826087,5.96273292 C18.5944993,6.76889441 18.0845176,7.45341615 17.2173824,7.45341615 L6.78261757,7.45341615 C5.91548243,7.45341615 5.4055007,6.76889441 5.2173913,5.96273292 L4.17391304,1.49068323 C3.9858035,0.684521739 4.87200417,0 5.7391393,0 L18.2608607,0 Z M17.7391304,0.49689441 L6.2608873,0.49689441 C5.39375217,0.49689441 4.71830598,1.19354037 4.95652174,1.98757764 L4.95652174,1.98757764 L5.73913043,5.46583851 C5.97734609,6.25987578 6.43722157,6.95652174 7.3043567,6.95652174 L7.3043567,6.95652174 L16.6956522,6.95652174 C17.5627873,6.95652174 18.0226607,6.25987578 18.2608784,5.46583851 L18.2608784,5.46583851 L19.0434783,1.98757764 C19.281696,1.19354037 18.6062656,0.49689441 17.7391304,0.49689441 L17.7391304,0.49689441 Z" id="Combined-Shape"></path>
                        <path d="M1.04347826,1.98757764 L0,3.47826087 L1.04347826,4.9689441 L2.60869565,4.9689441 L3.65217391,3.47826087 L2.60869565,1.98757764 L1.04347826,1.98757764 Z M1.82608696,2.73291925 C2.25830979,2.73291925 2.60869565,3.06663354 2.60869565,3.47826087 C2.60869565,3.8898882 2.25830979,4.22360248 1.82608696,4.22360248 C1.39386412,4.22360248 1.04347826,3.8898882 1.04347826,3.47826087 C1.04347826,3.06663354 1.39386412,2.73291925 1.82608696,2.73291925 Z" id="path2992" fill-rule="nonzero"></path>
                        <path d="M10.4347826,1.73913043 C10.4347826,2.15077124 10.0843968,2.48447205 9.65217391,2.48447205 C9.21995107,2.48447205 8.86956522,2.15077124 8.86956522,1.73913043 C8.86956522,1.32748963 9.21995107,0.99378882 9.65217391,0.99378882 C10.0843968,0.99378882 10.4347826,1.32748963 10.4347826,1.73913043 Z" id="path3827"></path>
                        <path d="M11.7391304,3.72670807 C11.7391304,4.13834888 11.3887446,4.47204969 10.9565217,4.47204969 C10.5242989,4.47204969 10.173913,4.13834888 10.173913,3.72670807 C10.173913,3.31506727 10.5242989,2.98136646 10.9565217,2.98136646 C11.3887446,2.98136646 11.7391304,3.31506727 11.7391304,3.72670807 Z" id="path3829"></path>
                        <path d="M10.6956522,5.71428571 C10.6956522,6.12592652 10.3452663,6.45962733 9.91304348,6.45962733 C9.48082063,6.45962733 9.13043478,6.12592652 9.13043478,5.71428571 C9.13043478,5.30264491 9.48082063,4.9689441 9.91304348,4.9689441 C10.3452663,4.9689441 10.6956522,5.30264491 10.6956522,5.71428571 Z" id="path3831"></path>
                        <path d="M12.5217391,1.73913043 C12.5217391,2.15077124 12.1713533,2.48447205 11.7391304,2.48447205 C11.3069076,2.48447205 10.9565217,2.15077124 10.9565217,1.73913043 C10.9565217,1.32748963 11.3069076,0.99378882 11.7391304,0.99378882 C12.1713533,0.99378882 12.5217391,1.32748963 12.5217391,1.73913043 Z" id="path3833"></path>
                        <path d="M13.826087,3.72670807 C13.826087,4.13834888 13.4757011,4.47204969 13.0434783,4.47204969 C12.6112554,4.47204969 12.2608696,4.13834888 12.2608696,3.72670807 C12.2608696,3.31506727 12.6112554,2.98136646 13.0434783,2.98136646 C13.4757011,2.98136646 13.826087,3.31506727 13.826087,3.72670807 Z" id="path3835"></path>
                        <path d="M12.7826087,5.71428571 C12.7826087,6.12592652 12.4322228,6.45962733 12,6.45962733 C11.5677772,6.45962733 11.2173913,6.12592652 11.2173913,5.71428571 C11.2173913,5.30264491 11.5677772,4.9689441 12,4.9689441 C12.4322228,4.9689441 12.7826087,5.30264491 12.7826087,5.71428571 Z" id="path3837"></path>
                        <path d="M14.6086957,1.73913043 C14.6086957,2.15077124 14.2583098,2.48447205 13.826087,2.48447205 C13.3938641,2.48447205 13.0434783,2.15077124 13.0434783,1.73913043 C13.0434783,1.32748963 13.3938641,0.99378882 13.826087,0.99378882 C14.2583098,0.99378882 14.6086957,1.32748963 14.6086957,1.73913043 Z" id="path3839"></path>
                        <path d="M15.9130435,3.72670807 C15.9130435,4.13834888 15.5626576,4.47204969 15.1304348,4.47204969 C14.6982119,4.47204969 14.3478261,4.13834888 14.3478261,3.72670807 C14.3478261,3.31506727 14.6982119,2.98136646 15.1304348,2.98136646 C15.5626576,2.98136646 15.9130435,3.31506727 15.9130435,3.72670807 Z" id="path3841"></path>
                        <path d="M14.8695652,5.71428571 C14.8695652,6.12592652 14.5191794,6.45962733 14.0869565,6.45962733 C13.6547337,6.45962733 13.3043478,6.12592652 13.3043478,5.71428571 C13.3043478,5.30264491 13.6547337,4.9689441 14.0869565,4.9689441 C14.5191794,4.9689441 14.8695652,5.30264491 14.8695652,5.71428571 Z" id="path3843"></path>
                        <path d="M16.6956522,1.73913043 C16.6956522,2.15077124 16.3452663,2.48447205 15.9130435,2.48447205 C15.4808206,2.48447205 15.1304348,2.15077124 15.1304348,1.73913043 C15.1304348,1.32748963 15.4808206,0.99378882 15.9130435,0.99378882 C16.3452663,0.99378882 16.6956522,1.32748963 16.6956522,1.73913043 Z" id="path3845"></path>
                        <path d="M18,3.72670807 C18,4.13834888 17.6496142,4.47204969 17.2173913,4.47204969 C16.7851685,4.47204969 16.4347826,4.13834888 16.4347826,3.72670807 C16.4347826,3.31506727 16.7851685,2.98136646 17.2173913,2.98136646 C17.6496142,2.98136646 18,3.31506727 18,3.72670807 Z" id="path3847"></path>
                        <path d="M16.9565217,5.71428571 C16.9565217,6.12592652 16.6061359,6.45962733 16.173913,6.45962733 C15.7416902,6.45962733 15.3913043,6.12592652 15.3913043,5.71428571 C15.3913043,5.30264491 15.7416902,4.9689441 16.173913,4.9689441 C16.6061359,4.9689441 16.9565217,5.30264491 16.9565217,5.71428571 Z" id="path3849"></path>
                        <path d="M8.34782609,1.73913043 C8.34782609,2.15077124 7.99744024,2.48447205 7.56521739,2.48447205 C7.13299454,2.48447205 6.7826087,2.15077124 6.7826087,1.73913043 C6.7826087,1.32748963 7.13299454,0.99378882 7.56521739,0.99378882 C7.99744024,0.99378882 8.34782609,1.32748963 8.34782609,1.73913043 Z" id="path3851"></path>
                        <path d="M9.65217391,3.72670807 C9.65217391,4.13834888 9.30178807,4.47204969 8.86956522,4.47204969 C8.43734237,4.47204969 8.08695652,4.13834888 8.08695652,3.72670807 C8.08695652,3.31506727 8.43734237,2.98136646 8.86956522,2.98136646 C9.30178807,2.98136646 9.65217391,3.31506727 9.65217391,3.72670807 Z" id="path3853"></path>
                        <path d="M8.60869565,5.71428571 C8.60869565,6.12592652 8.2583098,6.45962733 7.82608696,6.45962733 C7.39386411,6.45962733 7.04347826,6.12592652 7.04347826,5.71428571 C7.04347826,5.30264491 7.39386411,4.9689441 7.82608696,4.9689441 C8.2583098,4.9689441 8.60869565,5.30264491 8.60869565,5.71428571 Z" id="path3855"></path>
                        <path d="M21.3913043,1.98757764 L20.3478261,3.47826087 L21.3913043,4.9689441 L22.9565217,4.9689441 L24,3.47826087 L22.9565217,1.98757764 L21.3913043,1.98757764 Z M22.173913,2.73291925 C22.6061358,2.73291925 22.9565217,3.06663354 22.9565217,3.47826087 C22.9565217,3.8898882 22.6061358,4.22360248 22.173913,4.22360248 C21.7416903,4.22360248 21.3913043,3.8898882 21.3913043,3.47826087 C21.3913043,3.06663354 21.7416903,2.73291925 22.173913,2.73291925 Z" id="path3868" fill-rule="nonzero"></path>
                    </g>
                </g>
            </g>
        </g>
    </g>
</svg>