<?xml version="1.0" encoding="UTF-8"?>
<svg width="16px" height="14px" viewBox="0 0 16 14" version="1.1" xmlns="http://www.w3.org/2000/svg" xmlns:xlink="http://www.w3.org/1999/xlink">
    <!-- Generator: Sketch 57.1 (83088) - https://sketch.com -->
    <title>whole order</title>
    <desc>Created with Sketch.</desc>
    <g id="Printer-config" stroke="none" stroke-width="1" fill="none" fill-rule="evenodd">
        <g id="Printer-configuration-2" transform="translate(-206.000000, -193.000000)" fill="#000000">
            <g id="whole-order" transform="translate(206.000000, 193.000000)">
                <g id="indent-all">
                    <path d="M6.33989105,0.0207937743 L5.67582879,0.0207937743 C5.49229572,0.0207937743 5.3437821,0.169307393 5.3437821,0.352840467 L5.3437821,12.9702101 C5.3437821,13.1537432 5.49229572,13.3022568 5.67582879,13.3022568 L6.33989105,13.3022568 C6.52342412,13.3022568 6.67193774,13.1537432 6.67193774,12.9702101 L6.67193774,0.352809339 C6.67193774,0.169307393 6.52342412,0.0207937743 6.33989105,0.0207937743 Z" id="Path" fill-rule="nonzero"></path>
                    <path d="M4.43035019,6.14303502 L1.10997665,3.48675486 C0.823968872,3.25783658 0.405696498,3.3035642 0.17677821,3.59050584 C-0.0524824903,3.8768249 -0.00610116732,4.29478599 0.280529183,4.52370428 L2.95271595,6.66150973 L0.280560311,8.79931518 C-0.00607003891,9.02823346 -0.0524513619,9.44619455 0.176809339,9.73251362 C0.307797665,9.89659144 0.500731518,9.98185214 0.695626459,9.98185214 C0.841214008,9.98185214 0.987766537,9.93419455 1.11003891,9.83626459 L4.43041245,7.17998444 C4.58801556,7.05416342 4.67975097,6.86319066 4.67975097,6.66150973 C4.67975097,6.45982879 4.58795331,6.26885603 4.43035019,6.14303502 Z" id="Path" fill-rule="nonzero"></path>
                    <path d="M15.6369183,7.98966537 L8.33210895,7.98966537 C8.14857588,7.98966537 8.00006226,8.13817899 8.00006226,8.32171206 L8.00006226,8.98577432 C8.00006226,9.16930739 8.14857588,9.31782101 8.33210895,9.31782101 L15.6369183,9.31782101 C15.8204514,9.31782101 15.968965,9.16930739 15.968965,8.98577432 L15.968965,8.32171206 C15.968965,8.13817899 15.8204202,7.98966537 15.6369183,7.98966537 Z" id="Path" fill-rule="nonzero"></path>
                    <path d="M15.6369183,4.00522957 L8.33210895,4.00522957 C8.14857588,4.00522957 8.00006226,4.15374319 8.00006226,4.33727626 L8.00006226,5.00133852 C8.00006226,5.1848716 8.14857588,5.33338521 8.33210895,5.33338521 L15.6369183,5.33338521 C15.8204514,5.33338521 15.968965,5.1848716 15.968965,5.00133852 L15.968965,4.33727626 C15.968965,4.15374319 15.8204202,4.00522957 15.6369183,4.00522957 Z" id="Path" fill-rule="nonzero"></path>
                    <path d="M15.6369183,0.0207937743 L8.33210895,0.0207937743 C8.14857588,0.0207937743 8.00006226,0.169307393 8.00006226,0.352840467 L8.00006226,1.01690272 C8.00006226,1.2004358 8.14857588,1.34894942 8.33210895,1.34894942 L15.6369183,1.34894942 C15.8204514,1.34894942 15.968965,1.2004358 15.968965,1.01690272 L15.968965,0.352809339 C15.968965,0.169307393 15.8204202,0.0207937743 15.6369183,0.0207937743 Z" id="Path" fill-rule="nonzero"></path>
                    <path d="M15.6369183,11.9741012 L8.33210895,11.9741012 C8.14857588,11.9741012 8.00006226,12.1226148 8.00006226,12.3061479 L8.00006226,12.9702101 C8.00006226,13.1537432 8.14857588,13.3022568 8.33210895,13.3022568 L15.6369183,13.3022568 C15.8204514,13.3022568 15.968965,13.1537432 15.968965,12.9702101 L15.968965,12.3061479 C15.968965,12.1226148 15.8204202,11.9741012 15.6369183,11.9741012 Z" id="Path" fill-rule="nonzero"></path>
                </g>
            </g>
        </g>
    </g>
</svg>