<?xml version="1.0" encoding="UTF-8"?>
<svg width="24px" height="27px" viewBox="0 0 24 27" version="1.1" xmlns="http://www.w3.org/2000/svg" xmlns:xlink="http://www.w3.org/1999/xlink">
    <!-- Generator: Sketch 57.1 (83088) - https://sketch.com -->
    <title>wifi printer</title>
    <desc>Created with Sketch.</desc>
    <g id="Printer-config" stroke="none" stroke-width="1" fill="none" fill-rule="evenodd">
        <g id="Printer-configuration" transform="translate(-255.000000, -555.000000)">
            <g id="Bottom" transform="translate(0.000000, 541.000000)">
                <g id="settings-copy" transform="translate(242.000000, 9.000000)">
                    <g id="wifi-printer" transform="translate(13.000000, 5.000000)">
                        <g id="printer-(1)" transform="translate(0.000000, -0.000000)">
                            <rect id="Rectangle" fill="#383856" fill-rule="nonzero" x="4.52942609" y="8.60248696" width="11.7718435" height="4.07488696"></rect>
                            <path d="M16.3012696,21.7326261 L19.9233913,21.7326261 C20.423687,21.7326261 20.8289217,21.3273913 20.8289217,20.8270957 L20.8289217,13.5829043 C20.8289217,13.0826087 20.423687,12.6773739 19.9233913,12.6773739 L0.907304348,12.6773739 C0.407008696,12.6773739 0.00177391304,13.0826087 0.00177391304,13.5829043 L0.00177391304,20.8270957 C0.00177391304,21.3273913 0.407008696,21.7326261 0.907304348,21.7326261 L4.52942609,21.7326261" id="Path" fill="#FFD33F" fill-rule="nonzero"></path>
                            <rect id="Rectangle" fill="#383856" fill-rule="nonzero" x="2.2656" y="19.4688522" width="16.2994957" height="1"></rect>
                            <polygon id="Path" fill="#91CECE" fill-rule="nonzero" points="4.52942609 19.9216174 4.52942609 26.7130435 13.5846783 26.7130435 16.3012696 23.9964522 16.3012696 19.9216174"></polygon>
                            <polygon id="Path" fill="#383856" fill-rule="nonzero" points="13.5846783 26.7130435 13.5846783 23.9964522 16.3012696 23.9964522"></polygon>
                            <circle id="Oval" fill="#EA3836" fill-rule="nonzero" cx="19.0178087" cy="14.4884348" r="1"></circle>
                            <g id="Group" transform="translate(5.843478, 21.704348)" fill="#383856" fill-rule="nonzero">
                                <rect id="Rectangle" x="1.85525217" y="0.0282782609" width="3.62212174" height="1"></rect>
                                <rect id="Rectangle" x="0.0441913043" y="0.0282782609" width="1" height="1"></rect>
                                <rect id="Rectangle" x="3.66631304" y="1.83933913" width="2.7165913" height="1"></rect>
                                <rect id="Rectangle" x="6.38290435" y="0.0282782609" width="2.7165913" height="1"></rect>
                                <rect id="Rectangle" x="0.0441913043" y="1.83933913" width="2.7165913" height="1"></rect>
                            </g>
                            <g id="Group" transform="translate(17.165217, 0.000000)" fill="#EA3836" fill-rule="nonzero">
                                <path d="M6.38024348,6.33871304 C6.13033043,6.33871304 5.92747826,6.13586087 5.92747826,5.88594783 C5.92429565,3.13674783 3.69626087,0.908713043 0.94706087,0.905530435 C0.697147826,0.905530435 0.494295652,0.702678261 0.494295652,0.452765217 C0.494295652,0.202852174 0.697147826,0 0.947113043,0 C4.19613913,0.0036 6.8294087,2.63686957 6.83306087,5.88594783 C6.83306087,6.13586087 6.63015652,6.33871304 6.38024348,6.33871304 Z" id="Path"></path>
                                <path d="M4.11641739,6.33871304 C3.86650435,6.33871304 3.66365217,6.13586087 3.66365217,5.88594783 C3.66229565,4.38641739 2.44664348,3.17071304 0.94706087,3.16935652 C0.697147826,3.16935652 0.494295652,2.96650435 0.494295652,2.7165913 C0.494295652,2.46667826 0.697147826,2.26382609 0.94706087,2.26382609 C2.94646957,2.26606957 4.56688696,3.88653913 4.56918261,5.88594783 C4.56918261,6.13586087 4.36638261,6.33871304 4.11641739,6.33871304 Z" id="Path"></path>
                                <circle id="Oval" cx="0.947113043" cy="5.88594783" r="1"></circle>
                            </g>
                            <polygon id="Path" fill="#FFAC3E" fill-rule="nonzero" points="16.7540348 20.3743304 17.6595652 21.7326261 16.3012696 21.7326261 16.3012696 20.3743304"></polygon>
                            <path d="M8.37787826,12.6773766 L16.3012174,12.6773766 L16.3012174,8.89090435 C14.3693217,11.2874087 11.4562435,12.6796174 8.37787826,12.6773766 Z" id="Path" fill="#202033" fill-rule="nonzero"></path>
                        </g>
                    </g>
                </g>
            </g>
        </g>
    </g>
</svg>